<?xml version="1.0" standalone="no"?>
<!DOCTYPE svg PUBLIC "-//W3C//DTD SVG 20010904//EN"
 "http://www.w3.org/TR/2001/REC-SVG-20010904/DTD/svg10.dtd">
<svg version="1.0" xmlns="http://www.w3.org/2000/svg"
 width="1280.000000pt" height="749.000000pt" viewBox="0 0 1280.000000 749.000000"
 preserveAspectRatio="xMidYMid meet">
<metadata>
Created by potrace 1.15, written by Peter Selinger 2001-2017
</metadata>
<g transform="translate(0.000000,749.000000) scale(0.100000,-0.100000)"
fill="#000000" stroke="none">
<path d="M4895 7310 c-145 -38 -267 -110 -362 -214 -107 -117 -163 -233 -189
-391 -14 -82 -15 -113 -6 -189 7 -50 19 -113 28 -139 l16 -48 -393 -974 c-217
-536 -397 -975 -401 -975 -3 0 -38 18 -77 41 -166 96 -405 187 -613 233 -136
30 -325 56 -413 56 l-64 0 -3 -47 -3 -48 -140 -6 c-951 -44 -1776 -698 -2034
-1615 -64 -228 -76 -322 -76 -609 0 -228 3 -275 23 -380 137 -728 575 -1308
1227 -1626 309 -150 614 -219 974 -219 672 0 1300 299 1722 820 l72 89 36 -25
c20 -13 39 -24 44 -24 17 0 134 194 208 345 113 232 184 463 221 720 19 138
16 495 -5 635 -62 392 -210 748 -445 1064 -82 110 -270 308 -369 389 -35 28
-63 55 -63 61 0 11 118 318 125 324 2 2 552 -474 1223 -1058 l1220 -1061 -19
-45 c-29 -65 -49 -168 -49 -257 0 -274 170 -534 420 -638 88 -37 223 -63 297
-57 51 5 53 4 62 -26 27 -84 131 -435 131 -440 0 -3 -34 -6 -75 -6 l-75 0 0
-125 0 -125 315 0 315 0 0 125 0 125 -110 0 c-60 0 -110 3 -110 8 0 4 -38 127
-84 274 l-83 268 41 24 c159 93 279 257 322 442 17 70 19 74 48 78 47 7 377
28 380 24 2 -1 15 -64 30 -138 159 -801 745 -1451 1528 -1694 241 -75 440
-101 723 -93 219 6 347 24 539 78 785 221 1403 881 1571 1679 16 73 44 268 45
303 0 14 9 17 50 17 l50 0 0 159 c0 356 -76 682 -234 1006 -259 530 -694 930
-1246 1148 -245 97 -492 146 -771 154 -363 11 -686 -51 -1010 -192 -56 -25
-103 -44 -104 -43 -1 2 -144 249 -318 550 l-316 547 117 265 117 265 335 152
c285 130 341 159 377 195 85 87 80 218 -11 302 -24 23 -61 45 -83 51 -50 13
-802 31 -1307 31 -371 0 -404 -1 -436 -19 -52 -27 -80 -74 -80 -134 0 -72 27
-109 113 -157 112 -63 533 -274 680 -341 72 -33 136 -64 140 -68 5 -5 -43
-122 -106 -262 l-115 -254 -2017 -3 c-1613 -2 -2016 0 -2012 10 3 7 71 175
151 373 l146 360 -24 55 c-87 193 -48 400 103 551 80 80 166 124 276 141 96
15 137 8 435 -70 336 -89 310 -84 319 -59 21 58 53 209 45 216 -5 5 -145 42
-311 85 -291 73 -307 76 -415 75 -77 0 -136 -6 -183 -19z m3367 -1965 c4 -4
-1104 -2511 -1114 -2520 -2 -2 -55 0 -118 2 l-115 6 -65 209 c-36 116 -66 216
-68 224 -3 11 16 14 93 14 l96 0 -3 123 -3 122 -310 0 -310 0 -3 -122 -3 -123
89 0 89 0 80 -262 c71 -230 79 -264 65 -273 -8 -5 -44 -31 -78 -57 l-63 -47
-1223 1066 c-673 585 -1232 1073 -1242 1084 -20 18 -19 22 88 289 l108 270
2002 0 c1102 0 2005 -2 2008 -5z m531 -539 l265 -459 -77 -55 c-381 -272 -664
-635 -835 -1070 -93 -237 -156 -560 -156 -802 0 -64 -4 -92 -12 -94 -7 -3 -79
-7 -159 -10 l-146 -7 -26 71 c-44 119 -136 240 -248 325 l-26 20 570 1283
c352 791 573 1278 578 1270 4 -7 127 -220 272 -472z m-6173 -570 c206 -28 371
-77 556 -165 128 -62 234 -125 234 -140 0 -5 -99 -255 -221 -557 -144 -357
-234 -567 -259 -603 -108 -160 -281 -256 -480 -268 -107 -6 -142 -20 -170 -66
-24 -39 -25 -68 -4 -113 25 -51 62 -66 164 -65 309 2 592 175 739 451 22 41
128 293 236 560 109 267 201 489 206 495 19 20 209 -190 314 -345 76 -114 177
-321 220 -452 212 -653 54 -1362 -414 -1860 -470 -502 -1192 -705 -1851 -521
-319 88 -579 242 -820 483 -194 194 -319 380 -415 620 -97 240 -130 419 -129
700 0 279 31 445 131 695 110 275 316 556 548 745 270 220 605 364 955 409
105 14 347 12 460 -3z m8008 -10 c412 -77 745 -255 1028 -548 655 -678 700
-1732 106 -2469 -84 -104 -250 -261 -358 -337 -309 -220 -645 -334 -1024 -349
-798 -31 -1531 461 -1814 1220 -33 87 -74 241 -91 337 l-6 36 343 22 c189 12
555 36 815 53 l472 31 32 -26 c119 -101 267 -99 369 4 134 133 93 351 -80 429
-25 11 -56 21 -70 21 -23 0 -65 69 -430 702 -223 385 -406 704 -408 708 -3 8
80 47 179 84 85 32 252 73 369 91 123 18 450 14 568 -9z m-1049 -779 c157
-270 338 -585 403 -698 l119 -206 -17 -36 c-15 -31 -23 -37 -58 -41 -23 -3
-354 -26 -736 -51 -382 -25 -728 -48 -767 -52 l-73 -6 0 59 c0 33 7 115 15
184 51 435 246 828 562 1132 82 78 245 208 261 208 4 0 135 -222 291 -493z"/>
</g>
</svg>
