<?xml version="1.0" standalone="no"?>
<!DOCTYPE svg PUBLIC "-//W3C//DTD SVG 20010904//EN"
 "http://www.w3.org/TR/2001/REC-SVG-20010904/DTD/svg10.dtd">
<svg version="1.0" xmlns="http://www.w3.org/2000/svg"
 width="1280.000000pt" height="944.000000pt" viewBox="0 0 1280.000000 944.000000"
 preserveAspectRatio="xMidYMid meet">
<metadata>
Created by potrace 1.15, written by Peter Selinger 2001-2017
</metadata>
<g transform="translate(0.000000,944.000000) scale(0.100000,-0.100000)"
fill="#000000" stroke="none">
<path d="M1385 8114 c-934 -890 -1381 -1322 -1383 -1337 -2 -18 46 -76 220
-263 123 -132 1506 -1619 3073 -3304 1568 -1686 2882 -3098 2920 -3138 l70
-74 72 74 c39 40 1505 1549 3257 3352 2611 2687 3186 3284 3184 3303 -2 16
-437 435 -1413 1363 l-1410 1339 -3605 0 -3605 0 -1380 -1315z m3946 -10
c-506 -674 -923 -1225 -928 -1225 -4 0 -212 316 -461 703 -249 387 -602 935
-785 1217 -183 283 -333 519 -335 523 -2 4 768 8 1712 8 l1716 0 -919 -1226z
m4542 1212 c-29 -51 -1619 -2535 -1623 -2535 -6 0 -1914 2525 -1918 2539 -3 7
589 10 1773 10 1536 0 1775 -2 1768 -14z m112 -271 c26 -93 110 -399 187 -680
124 -454 423 -1542 435 -1587 5 -17 -22 -18 -473 -17 -264 1 -768 5 -1121 8
l-642 6 781 1222 c430 673 783 1222 784 1220 1 -1 23 -78 49 -172z m1404
-1099 c688 -654 1250 -1190 1248 -1190 -1 -1 -434 1 -961 4 l-960 5 -7 25
c-33 122 -573 2087 -610 2225 -17 61 -36 132 -44 158 l-14 48 48 -43 c27 -24
612 -578 1300 -1232z m-7834 48 c427 -663 775 -1208 772 -1211 -3 -3 -514 -1
-1134 3 l-1129 9 81 275 c498 1678 625 2108 625 2118 0 7 2 12 4 12 2 0 354
-543 781 -1206z m-890 1184 c-3 -7 -88 -294 -190 -638 -102 -344 -260 -878
-352 -1187 l-167 -563 -905 0 -906 0 50 49 c80 78 2469 2351 2472 2351 1 0 0
-6 -2 -12z m3578 -2397 c-5 -4 -405 -4 -891 -1 l-883 5 888 1184 888 1184 3
-1183 c1 -651 -1 -1186 -5 -1189z m1877 -6 c0 -3 -398 -5 -885 -5 l-885 0 0
1176 0 1176 885 -1171 c487 -644 885 -1173 885 -1176z m-4133 -3178 c2345
-3622 2093 -3230 2055 -3192 -16 17 -1315 1414 -2887 3105 -1572 1691 -2881
3099 -2909 3128 l-50 52 894 0 895 0 2002 -3093z m362 3077 c4 -3 147 -505
546 -1909 147 -517 384 -1352 526 -1855 143 -503 350 -1232 460 -1620 110
-388 204 -718 210 -735 5 -16 6 -25 1 -20 -5 6 -877 1351 -1937 2990 -1061
1639 -1955 3020 -1987 3068 -32 49 -58 90 -58 92 0 5 2233 -6 2239 -11z m1509
-1 l392 -6 -1 -3141 c0 -1772 -4 -3132 -9 -3121 -5 11 -96 331 -204 710 -107
380 -322 1136 -476 1680 -155 545 -389 1370 -521 1835 -132 465 -317 1113
-410 1441 -93 327 -169 598 -169 602 0 9 887 9 1398 0z m2322 -9 c0 -5 -352
-1222 -570 -1969 -43 -148 -169 -583 -280 -965 -111 -382 -237 -816 -280 -965
-91 -311 -219 -753 -495 -1705 -107 -371 -197 -679 -199 -685 -3 -5 -5 1409
-5 3143 l-1 3152 915 0 c503 0 915 -3 915 -6z m2397 -8 c1 -1 -907 -1370
-2018 -3041 -1111 -1672 -2025 -3048 -2031 -3058 -5 -10 -11 -17 -13 -15 -2 2
89 320 201 708 113 388 259 892 325 1120 190 654 270 929 379 1305 56 193 141
487 190 655 49 168 134 463 190 655 99 339 133 458 370 1275 61 212 116 390
122 397 7 9 272 11 1146 6 625 -3 1138 -6 1139 -7z m1642 -5 l383 -6 -2837
-2920 c-3265 -3359 -3195 -3288 -3170 -3248 11 17 940 1415 2065 3107 l2045
3076 565 -2 c311 0 738 -4 949 -7z"/>
</g>
</svg>
