<?xml version="1.0" standalone="no"?>
<!DOCTYPE svg PUBLIC "-//W3C//DTD SVG 20010904//EN"
 "http://www.w3.org/TR/2001/REC-SVG-20010904/DTD/svg10.dtd">
<svg version="1.0" xmlns="http://www.w3.org/2000/svg"
 width="1280.000000pt" height="1108.000000pt" viewBox="0 0 1280.000000 1108.000000"
 preserveAspectRatio="xMidYMid meet">
<metadata>
Created by potrace 1.15, written by Peter Selinger 2001-2017
</metadata>
<g transform="translate(0.000000,1108.000000) scale(0.100000,-0.100000)"
fill="#000000" stroke="none">
<path d="M3195 10510 c-883 -74 -1648 -465 -2114 -1081 -500 -662 -678 -1595
-506 -2649 101 -617 340 -1313 662 -1930 371 -710 672 -1131 1216 -1700 861
-900 2196 -1904 3715 -2793 l232 -137 233 137 c2168 1271 3838 2682 4578 3870
560 898 924 1849 1038 2708 63 480 51 970 -34 1374 -124 586 -409 1103 -805
1459 -453 407 -1031 654 -1715 733 -142 17 -558 17 -700 0 -949 -110 -1764
-577 -2342 -1342 -62 -83 -233 -333 -248 -363 -3 -8 -7 -7 -11 1 -3 6 -50 78
-104 160 -299 450 -697 836 -1123 1089 -416 248 -862 398 -1352 454 -128 15
-490 20 -620 10z"/>
</g>
</svg>
