<?xml version="1.0" standalone="no"?>
<!DOCTYPE svg PUBLIC "-//W3C//DTD SVG 20010904//EN"
 "http://www.w3.org/TR/2001/REC-SVG-20010904/DTD/svg10.dtd">
<svg version="1.0" xmlns="http://www.w3.org/2000/svg"
 width="1280.000000pt" height="682.000000pt" viewBox="0 0 1280.000000 682.000000"
 preserveAspectRatio="xMidYMid meet">
<metadata>
Created by potrace 1.15, written by Peter Selinger 2001-2017
</metadata>
<g transform="translate(0.000000,682.000000) scale(0.100000,-0.100000)"
fill="#000000" stroke="none">
<path d="M8138 6759 c-15 -8 -18 -25 -18 -107 1 -79 3 -93 12 -77 7 11 14 29
15 40 2 11 7 31 12 45 10 27 12 110 2 110 -3 0 -14 -5 -23 -11z"/>
<path d="M8260 6596 c0 -2 7 -7 16 -10 8 -3 12 -2 9 4 -6 10 -25 14 -25 6z"/>
<path d="M8753 6548 c-11 -13 -50 -68 -87 -123 -51 -77 -66 -94 -66 -75 0 14
-7 35 -15 47 -17 24 -74 44 -103 37 -14 -4 -23 7 -41 51 -13 31 -25 54 -27 52
-5 -4 79 -204 90 -214 3 -4 6 1 6 9 0 10 13 18 36 23 20 3 38 4 40 2 8 -7 -15
-57 -26 -57 -5 0 -19 -9 -30 -20 -27 -27 -30 -123 -3 -113 11 4 14 3 9 -5 -4
-7 -18 -12 -30 -12 -28 0 -53 25 -36 35 6 3 8 10 6 13 -2 4 0 29 5 55 7 41 5
55 -17 104 -13 32 -31 64 -38 73 -8 8 -17 29 -20 46 -4 17 -19 42 -33 55 l-25
24 21 -42 c26 -53 26 -53 -3 -53 -41 0 -124 -32 -147 -56 -12 -12 -24 -38 -28
-56 -6 -30 -10 -33 -42 -32 -18 0 -62 8 -95 18 -47 12 -72 14 -103 7 -44 -10
-130 -58 -186 -104 -38 -31 -65 -95 -45 -107 16 -10 -60 -46 -127 -60 -69 -15
-88 -38 -88 -107 0 -48 4 -58 28 -79 38 -32 80 -31 153 5 74 37 79 38 133 21
39 -13 45 -12 56 3 12 17 41 25 31 8 -9 -15 44 -19 58 -5 9 9 26 11 50 7 31
-5 36 -3 36 15 0 11 7 23 16 26 22 9 24 8 24 -9 0 -11 7 -14 24 -9 20 5 27 0
41 -25 19 -38 28 -40 19 -5 -5 19 -4 25 5 20 6 -4 11 -27 11 -52 0 -25 4 -43
9 -40 11 7 20 66 10 66 -10 0 -39 95 -39 127 0 30 20 20 21 -10 1 -16 3 -14
10 11 5 17 14 32 19 32 6 0 10 6 10 14 0 20 21 31 30 17 5 -9 10 -8 20 4 14
17 125 22 135 5 4 -7 12 -7 25 0 28 15 30 13 30 -25 0 -29 -8 -43 -42 -75 -23
-22 -38 -43 -34 -47 4 -4 11 -1 16 7 7 12 10 12 16 -3 11 -31 -11 -42 -48 -24
-69 31 -158 33 -158 2 0 -15 31 -29 39 -18 24 35 71 -29 55 -74 -8 -24 -15
-28 -49 -29 -22 -1 -48 -5 -59 -9 -17 -8 -17 -9 5 -20 14 -8 31 -10 45 -5 23
9 44 -4 44 -27 0 -10 6 -10 23 -2 18 8 36 6 83 -11 151 -55 294 -84 294 -61 0
6 -9 11 -21 11 -26 0 -225 45 -263 59 -24 10 -26 14 -16 26 7 9 33 20 57 26
28 8 50 21 63 40 12 15 36 34 55 40 37 14 47 29 19 29 -12 0 -14 4 -7 13 18
22 21 53 7 78 -18 33 -17 39 6 39 23 0 80 -27 80 -37 0 -4 -17 -24 -37 -45
l-37 -38 34 6 c19 4 48 16 64 27 24 17 32 18 49 7 19 -11 24 -9 47 19 15 17
32 31 39 31 6 0 38 -13 71 -30 61 -31 94 -37 105 -20 7 12 -96 72 -113 65 -8
-3 -10 0 -6 7 5 8 2 9 -10 5 -9 -4 -15 -3 -11 2 3 5 0 11 -7 13 -8 3 6 33 41
86 49 76 56 82 87 82 38 0 45 20 19 54 -12 16 -11 23 10 55 43 66 42 68 -95
153 -68 43 -131 78 -140 78 -9 0 -26 -10 -37 -22z m-52 -127 c-23 -34 -44 -61
-47 -61 -6 0 -1 9 44 78 19 29 37 51 39 48 3 -2 -14 -32 -36 -65z m-346 -1
c-3 -5 7 -12 22 -16 46 -10 49 -12 16 -13 -17 -1 -44 4 -60 10 -26 10 -27 12
-8 19 28 12 37 12 30 0z m-371 -161 c8 -9 7 -10 -9 -4 -11 4 -45 11 -75 16
l-55 8 64 -4 c35 -2 68 -9 75 -16z m226 11 c0 -5 -2 -10 -4 -10 -3 0 -8 5 -11
10 -3 6 -1 10 4 10 6 0 11 -4 11 -10z m245 -57 c-9 -50 -17 -34 -9 18 4 24 9
38 12 31 2 -7 1 -29 -3 -49z m-658 -15 c-3 -8 -6 -5 -6 6 -1 11 2 17 5 13 3
-3 4 -12 1 -19z m714 -159 l-11 -34 5 34 c3 18 6 48 7 65 l1 31 4 -31 c2 -18
-1 -47 -6 -65z m-1 -76 c-1 -35 -62 -44 -68 -10 -3 14 4 17 32 17 20 0 36 -3
36 -7z m-105 -56 c19 -4 19 -5 -1 -6 -12 0 -28 7 -35 17 -12 15 -12 16 1 6 8
-7 24 -14 35 -17z m20 -27 c-3 -5 -10 -10 -16 -10 -5 0 -9 5 -9 10 0 6 7 10
16 10 8 0 12 -4 9 -10z m95 -5 c-7 -9 -15 -13 -17 -11 -7 7 7 26 19 26 6 0 6
-6 -2 -15z m-182 -75 c-7 -10 -14 -17 -17 -15 -4 4 18 35 25 35 2 0 -1 -9 -8
-20z"/>
<path d="M8152 6474 c9 -9 21 -13 27 -9 16 10 3 25 -22 25 -20 0 -20 -1 -5
-16z"/>
<path d="M8120 6445 c0 -14 -5 -25 -11 -25 -5 0 -7 5 -3 12 4 7 3 8 -4 4 -18
-11 -15 -76 2 -76 20 0 25 10 32 64 5 31 3 46 -5 46 -6 0 -11 -11 -11 -25z"/>
<path d="M9083 5953 c15 -2 39 -2 55 0 15 2 2 4 -28 4 -30 0 -43 -2 -27 -4z"/>
<path d="M9180 5950 c8 -5 26 -9 40 -9 l25 1 -25 8 c-14 4 -32 8 -40 9 -13 1
-13 0 0 -9z"/>
<path d="M8920 5940 c-15 -5 6 -6 50 -3 41 3 77 7 79 9 8 8 -105 2 -129 -6z"/>
<path d="M8713 5906 c41 -36 48 -57 17 -49 -16 4 -20 0 -20 -21 0 -25 -2 -26
-62 -27 -35 0 -83 -4 -108 -9 -32 -6 -14 -7 60 -3 97 4 106 3 117 -15 9 -14 9
-30 3 -54 -6 -18 -10 -53 -10 -77 l0 -44 -44 6 c-42 6 -164 53 -155 61 2 2 31
0 64 -5 99 -12 136 -8 46 6 -46 8 -121 25 -166 39 -94 29 -106 31 -81 13 11
-8 15 -19 10 -30 -8 -22 -16 -22 -74 8 -77 39 -129 29 -55 -11 41 -22 48 -41
8 -21 -16 7 -35 12 -43 10 -9 -2 -45 17 -80 42 -36 25 -91 58 -122 74 -53 26
-64 41 -31 41 31 0 83 29 77 43 -3 9 -13 13 -25 10 -10 -3 -26 0 -34 7 -12 10
-18 8 -34 -11 -17 -21 -22 -22 -40 -11 -27 16 -27 3 2 -39 16 -25 56 -52 147
-100 95 -50 126 -71 128 -87 4 -28 2 -28 -50 6 -24 16 -76 46 -116 68 -41 21
-89 54 -107 73 l-34 33 -103 -11 c-153 -17 -281 -40 -289 -52 -3 -6 -18 -7
-33 -3 -27 6 -27 7 -6 21 11 8 20 24 19 36 0 21 -1 21 -9 2 -8 -19 -9 -19 -9
1 -1 12 -8 25 -17 28 -24 9 -31 7 -14 -4 12 -7 12 -10 1 -10 -7 0 -11 -6 -8
-15 8 -20 -9 -28 -33 -15 -22 12 -73 3 -64 -11 3 -5 11 -6 17 -3 8 5 9 4 2 -4
-5 -5 -47 -22 -93 -36 -92 -29 -125 -25 -114 16 5 21 5 21 -21 2 -30 -22 -33
-33 -14 -58 10 -14 18 -16 33 -9 27 14 145 45 150 40 2 -2 -26 -12 -63 -22
-45 -12 -76 -28 -95 -47 -20 -21 -62 -40 -146 -68 -281 -92 -507 -205 -842
-421 -396 -256 -521 -364 -597 -518 -21 -42 -39 -78 -40 -80 -1 -2 -14 6 -29
18 -55 44 -120 28 -379 -92 -162 -74 -400 -171 -530 -215 -366 -125 -659 -60
-986 218 -105 89 -154 119 -238 142 -61 17 -73 17 -186 3 -201 -25 -511 -112
-590 -166 -46 -31 -100 -105 -83 -113 7 -3 -8 -4 -34 -2 -34 2 -48 0 -48 -9 0
-9 -32 -14 -107 -19 -241 -15 -400 -44 -616 -110 -62 -19 -128 -37 -148 -40
-21 -4 -48 -15 -60 -25 -13 -10 -83 -48 -154 -83 -127 -64 -227 -121 -311
-179 -36 -24 -44 -26 -54 -14 -7 8 -52 43 -101 77 l-88 63 -7 54 c-4 35 -3 61
5 73 15 24 14 26 -11 30 -26 3 -37 36 -16 49 10 6 10 13 2 26 -13 21 -52 29
-67 14 -8 -8 -6 -11 7 -11 11 0 15 -4 9 -12 -4 -7 -6 -83 -5 -168 l3 -155 -43
-15 -43 -15 -3 -62 c-2 -38 -8 -66 -17 -73 -9 -8 -15 -31 -15 -59 0 -45 2 -49
39 -69 22 -13 47 -20 57 -16 14 4 12 0 -6 -15 -14 -11 -37 -21 -52 -21 -14 0
-34 -3 -44 -7 -12 -4 -15 -3 -10 5 10 16 -5 15 -29 -2 -11 -7 -45 -16 -75 -20
-30 -4 -62 -13 -70 -20 -19 -17 -266 -30 -275 -16 -11 17 -54 11 -75 -10 -12
-12 -18 -25 -15 -29 5 -9 351 -5 412 5 18 3 45 15 61 28 26 23 122 47 122 31
0 -4 -40 -65 -88 -134 -176 -250 -215 -315 -254 -416 -21 -55 -38 -105 -38
-111 0 -18 52 -24 204 -24 155 0 226 13 346 65 72 31 260 94 260 87 0 -2 -20
-26 -45 -54 -158 -176 -294 -418 -369 -658 -161 -518 -82 -1058 222 -1514 263
-394 663 -657 1152 -758 144 -30 516 -33 655 -5 380 76 663 221 926 475 175
169 297 340 399 564 38 82 49 98 73 103 19 5 27 13 27 28 0 12 4 27 8 34 5 8
104 24 267 43 308 35 491 65 560 91 55 21 81 23 165 14 30 -3 75 -2 100 3 l45
10 -52 1 c-29 1 -53 5 -53 10 0 5 46 7 103 4 304 -13 904 -20 921 -10 26 13
213 2 284 -16 46 -13 51 -12 40 1 -11 13 -9 15 17 10 17 -3 117 -18 223 -34
l192 -28 0 -27 0 -28 -317 6 c-176 3 -323 10 -330 15 -7 5 -22 6 -35 2 -13 -4
-59 -8 -103 -9 -44 -1 -280 -7 -525 -13 -722 -18 -1478 -47 -1489 -57 -13 -13
26 -14 255 -5 507 20 1100 31 1484 29 282 -2 403 1 423 9 19 8 124 12 332 12
l304 0 4 -37 4 -38 1 36 2 36 388 6 c234 4 407 10 437 17 157 36 281 140 355
296 55 113 246 597 276 699 36 118 33 169 -26 438 -41 182 -51 245 -45 274 l8
38 20 -60 c21 -67 42 -148 61 -245 7 -36 28 -119 47 -185 30 -108 34 -133 34
-250 0 -71 2 -119 3 -105 2 14 8 29 12 34 5 5 7 1 5 -10 -25 -122 -33 -145
-216 -615 -16 -41 -44 -100 -62 -130 -18 -29 -41 -67 -51 -84 l-18 -30 26 30
c47 53 83 126 171 350 130 329 152 392 170 483 20 96 13 171 -30 330 -18 67
-22 98 -15 116 5 14 34 119 65 235 31 115 67 241 80 278 13 38 33 116 44 173
38 188 113 495 126 510 7 8 32 87 54 174 26 102 50 174 67 199 l26 39 23 -22
c17 -16 31 -21 49 -16 23 6 24 9 19 64 -4 46 -2 60 11 71 15 13 21 10 54 -22
21 -21 41 -37 45 -37 4 0 21 10 38 22 30 23 31 23 45 3 12 -17 12 -20 -1 -28
-8 -4 -20 -5 -25 -2 -6 3 -10 2 -10 -3 0 -5 -11 -9 -24 -9 -13 0 -43 -12 -67
-26 l-43 -26 30 -6 c16 -4 37 -9 46 -12 13 -3 16 0 12 11 -7 19 7 21 24 4 8
-8 12 -9 12 -1 0 6 -6 14 -12 16 -8 3 -6 6 4 6 11 1 25 -14 37 -36 25 -51 132
-380 170 -523 26 -98 101 -414 101 -425 0 -2 -37 -46 -82 -98 -279 -318 -431
-649 -492 -1068 -19 -126 -21 -209 -5 -209 19 0 86 58 125 111 l39 50 6 -238
c5 -213 8 -251 33 -357 39 -167 76 -269 156 -431 89 -179 175 -298 325 -454
185 -190 330 -296 553 -403 143 -69 316 -128 469 -160 92 -19 138 -22 313 -22
210 0 292 10 471 54 188 46 439 160 619 281 201 136 439 391 531 570 10 22 23
39 27 39 14 0 52 76 82 165 15 48 36 95 45 106 12 13 16 28 12 48 -7 35 16 90
29 70 5 -8 15 17 26 66 14 65 15 86 6 109 -9 23 -9 31 0 34 8 2 9 10 3 20 -4
9 -7 31 -7 47 1 23 6 30 21 30 23 1 22 21 -3 48 -11 12 -16 38 -17 77 0 33 -4
62 -8 66 -14 14 -7 36 9 30 10 -4 6 5 -10 25 -36 42 -32 53 9 27 34 -22 35
-25 35 -90 0 -37 5 -70 10 -73 13 -8 13 113 0 152 -7 18 -24 36 -45 46 -27 13
-35 24 -40 54 -8 51 -23 85 -34 79 -5 -3 -11 10 -13 29 -5 41 13 47 30 10 14
-31 92 -73 92 -50 0 9 -13 24 -30 33 -18 10 -35 31 -41 51 -10 30 -13 32 -23
19 -12 -17 -25 15 -57 145 -6 27 -18 51 -25 54 -7 2 -10 11 -8 18 9 21 -16 95
-31 95 -8 0 -14 10 -13 27 0 35 -14 66 -84 183 -72 121 -74 131 -25 143 48 12
43 30 -11 38 -23 3 -50 13 -60 22 -14 13 -21 14 -30 5 -9 -9 -12 -8 -12 4 0 9
-7 24 -16 32 -14 15 -14 16 5 16 28 0 27 16 -1 24 -19 5 -20 8 -9 15 12 8 8
11 -15 17 l-29 7 30 13 c28 11 31 10 73 -37 41 -46 72 -62 72 -39 0 6 -6 10
-14 10 -8 0 -29 19 -47 41 -18 23 -46 50 -62 59 -27 17 -28 19 -10 29 17 10
16 12 -10 32 -15 12 -60 52 -99 90 -39 37 -75 66 -79 63 -4 -2 -10 4 -13 13
-3 10 -27 33 -53 51 -27 17 -70 48 -98 67 -188 133 -552 266 -798 291 -37 4
-66 8 -64 10 2 2 50 18 107 34 125 38 160 55 160 79 0 22 -7 24 -160 47 -91
13 -157 15 -310 11 -271 -8 -439 -39 -675 -126 -120 -44 -130 -49 -128 -72 4
-53 24 -121 54 -181 54 -108 220 -390 267 -455 l45 -62 58 2 57 2 -21 35 c-12
19 -34 55 -49 79 -15 25 -28 51 -28 58 0 6 30 21 68 32 675 198 1403 -119
1707 -744 257 -529 158 -1162 -248 -1582 -217 -225 -439 -351 -751 -425 -125
-30 -456 -33 -586 -5 -288 62 -533 191 -730 388 -123 121 -201 226 -267 355
-112 218 -156 399 -156 639 0 308 70 541 236 791 76 115 256 308 264 284 3 -8
19 -31 34 -51 16 -20 29 -41 29 -46 0 -5 20 -31 45 -58 25 -28 41 -40 35 -28
-14 31 -14 34 22 88 l32 48 -22 41 -22 41 28 -33 c40 -48 45 -29 9 36 -96 176
-276 474 -312 517 -68 80 -119 165 -106 178 16 16 14 78 -3 91 -17 13 -188
296 -291 481 -124 222 -110 203 -138 182 -16 -11 -16 -16 11 -72 58 -125 68
-141 46 -77 -7 21 40 -57 171 -281 62 -107 94 -171 87 -176 -14 -8 -32 -56
-32 -83 0 -17 2 -18 15 -8 13 11 18 10 30 -6 8 -10 18 -30 22 -44 l7 -25 7 25
c20 69 12 90 -102 285 -132 226 -186 324 -172 310 12 -11 252 -415 282 -472
14 -28 18 -51 14 -85 -5 -40 -1 -54 31 -107 41 -71 44 -82 16 -56 -19 17 -22
16 -92 -39 -40 -30 -98 -76 -129 -100 l-55 -45 -34 147 c-18 81 -42 172 -52
202 -10 30 -23 75 -29 100 -12 55 -28 113 -85 296 -46 147 -50 169 -35 159 23
-14 18 18 -10 72 -17 32 -32 69 -33 83 -1 14 -8 36 -15 49 -11 21 -10 26 16
55 15 17 34 36 42 43 11 10 7 23 -22 75 -19 35 -47 86 -62 113 -15 28 -31 55
-35 60 -5 6 -19 30 -33 55 -13 25 -64 113 -112 195 -119 203 -205 358 -202
362 2 1 46 -9 98 -23 107 -30 130 -49 180 -147 16 -32 34 -55 39 -52 5 3 12 0
16 -6 5 -8 3 -9 -6 -4 -21 13 -10 -7 87 -171 49 -82 116 -195 148 -251 32 -57
62 -103 66 -103 14 0 12 4 -61 133 -61 106 -69 128 -64 156 7 36 -10 58 -32
40 -8 -6 -16 -2 -26 13 -33 52 -33 54 -8 35 59 -41 80 -35 80 24 0 34 2 39 14
30 11 -9 15 -8 20 4 3 9 34 28 68 44 35 16 72 38 82 50 23 25 18 26 -20 6 -27
-14 -29 -14 -34 6 -5 18 -7 19 -25 5 -14 -10 -24 -11 -32 -4 -10 8 -13 6 -13
-5 0 -12 -46 -37 -69 -37 -3 0 -6 25 -7 57 0 31 1 52 3 46 2 -5 17 -8 32 -5
35 5 95 -13 117 -35 20 -20 32 -8 16 17 -18 29 8 26 42 -5 18 -17 26 -20 26
-10 0 23 -33 51 -89 77 l-51 23 0 120 c-1 188 -16 376 -33 408 l-15 29 -18
-32 c-12 -19 -53 -53 -104 -84 -110 -68 -234 -136 -248 -136 -6 0 -30 25 -53
55 -23 30 -46 55 -52 55 -6 0 -18 7 -28 16 -11 10 -25 13 -38 9 -27 -8 -27
-25 -1 -25 11 0 20 -4 20 -10 0 -5 -7 -7 -15 -4 -8 4 -15 1 -15 -5 0 -15 33
-14 48 1 14 14 55 -20 79 -65 23 -45 7 -43 -21 2 -28 44 -39 51 -34 24 2 -14
-7 -18 -51 -21 -47 -3 -53 -2 -47 13 3 9 6 58 6 108 0 91 0 92 29 112 17 11
28 21 26 23 -2 2 -16 -5 -31 -14 -23 -15 -28 -16 -32 -4 -9 26 -51 60 -74 60
-21 -1 -20 -3 15 -34z m663 -341 c14 -216 13 -292 -3 -247 -3 6 -14 12 -26 12
-48 0 -51 10 -52 162 0 132 2 150 30 235 16 51 31 91 33 89 2 -2 10 -115 18
-251z m-2236 165 c0 -5 -5 -10 -11 -10 -5 0 -7 5 -4 10 3 6 8 10 11 10 2 0 4
-4 4 -10z m675 -29 c5 -9 -9 -23 -30 -28 -5 -1 -95 -20 -198 -42 -562 -119
-560 -118 -1476 -610 -134 -72 -246 -129 -248 -127 -7 6 68 61 227 165 85 55
164 107 175 114 117 80 499 281 636 335 181 72 561 173 714 190 110 13 193 14
200 3z m952 -23 c-3 -7 -5 -2 -5 12 0 14 2 19 5 13 2 -7 2 -19 0 -25z m-1547
-8 c-20 -13 -40 -13 -40 0 0 6 12 10 28 10 21 0 24 -2 12 -10z m1150 -26 c22
-9 40 -20 40 -25 0 -9 -69 17 -84 32 -14 13 -2 11 44 -7z m455 -14 c50 0 56
-2 70 -30 8 -16 15 -38 15 -50 0 -12 7 -34 15 -50 9 -17 11 -30 5 -30 -24 0
-194 75 -211 93 -19 21 -16 42 5 34 17 -7 37 28 30 50 -5 17 -5 17 6 1 8 -14
25 -18 65 -18z m-490 -69 c46 -21 88 -48 94 -60 10 -18 7 -22 -18 -36 -38 -19
-41 -19 -41 6 0 11 -4 17 -10 14 -5 -3 -10 -17 -10 -31 0 -14 -7 -27 -17 -31
-10 -4 -27 -15 -37 -25 -17 -15 -17 -21 -6 -49 23 -54 59 -91 84 -83 16 5 18
3 10 -6 -11 -11 -174 -70 -193 -70 -5 0 0 39 10 88 20 93 24 233 10 295 -9 38
-9 39 15 33 14 -4 63 -24 109 -45z m180 19 c3 -5 2 -10 -4 -10 -5 0 -13 5 -16
10 -3 6 -2 10 4 10 5 0 13 -4 16 -10z m144 -59 c18 -6 38 -8 43 -5 12 8 240
-85 270 -109 l23 -18 -36 5 c-43 8 -303 93 -341 112 -16 8 -28 21 -28 29 0 11
4 13 18 6 9 -5 32 -14 51 -20z m16 -91 c5 -4 23 -10 40 -12 l29 -3 -3 -90 c-4
-109 -12 -131 -35 -88 -10 20 -14 49 -12 82 2 34 -1 54 -10 62 -8 6 -14 18
-14 25 0 7 -13 20 -30 29 -16 9 -30 18 -30 20 0 6 51 -14 65 -25z m-215 -56
c25 -11 31 -17 21 -23 -7 -5 -11 -12 -9 -16 5 -13 -69 -47 -104 -49 -30 -1
-34 3 -47 41 -13 35 -13 44 -1 58 16 19 79 14 140 -11z m960 -89 c14 -8 21
-14 15 -14 -5 0 -21 6 -35 14 -14 8 -20 14 -15 14 6 0 21 -6 35 -14z m-35 -19
c19 -8 35 -17 35 -20 0 -7 -63 15 -74 25 -14 13 0 11 39 -5z m-481 -152 c25
-47 46 -88 46 -90 0 -4 -86 -44 -94 -44 -1 0 -10 16 -20 35 -19 34 -19 38 -3
89 9 29 17 62 17 74 0 12 2 22 4 22 2 0 25 -39 50 -86z m-524 61 c0 -6 -25
-16 -70 -30 -25 -8 -25 -8 -6 14 17 18 76 31 76 16z m160 -75 c22 -22 27 -69
8 -88 -33 -33 -100 2 -100 53 0 53 53 74 92 35z m750 -71 c0 -17 -4 -28 -10
-24 -5 3 -10 17 -10 31 0 13 5 24 10 24 6 0 10 -14 10 -31z m-200 -241 c53
-92 101 -173 108 -180 7 -7 12 -18 12 -25 0 -10 -61 50 -77 76 -1 2 -13 -9
-26 -24 l-24 -28 -30 44 c-44 65 -163 268 -163 278 0 13 50 30 80 28 20 -2 39
-28 120 -169z m-510 82 c0 -5 -4 -10 -10 -10 -5 0 -10 5 -10 10 0 6 5 10 10
10 6 0 10 -4 10 -10z m299 -17 c10 -19 9 -22 -4 -17 -8 3 -12 10 -9 15 3 5 0
9 -6 9 -6 0 -8 5 -5 11 8 12 8 12 24 -18z m-465 -2 c22 -25 13 -58 -20 -73
-19 -9 -28 -8 -44 7 -24 22 -25 42 -3 67 21 23 45 23 67 -1z m206 -51 c0 -5
-4 -10 -10 -10 -5 0 -10 5 -10 10 0 6 5 10 10 10 6 0 10 -4 10 -10z m327 -182
c-3 -8 -6 -5 -6 6 -1 11 2 17 5 13 3 -3 4 -12 1 -19z m215 -40 c-15 -15 -26
-4 -18 18 5 13 9 15 18 6 9 -9 9 -15 0 -24z m-387 -72 c-9 -42 -22 -79 -27
-82 -6 -4 -8 1 -5 12 4 11 14 50 23 87 23 92 30 78 9 -17z m-285 64 c0 -5 -7
-10 -16 -10 -8 0 -12 5 -9 10 3 6 10 10 16 10 5 0 9 -4 9 -10z m71 -10 c31
-25 12 -26 -21 0 -14 11 -20 20 -14 20 7 0 22 -9 35 -20z m-71 -22 c0 21 44
13 68 -12 12 -13 22 -36 22 -52 0 -31 -35 -74 -60 -74 -9 0 -21 -5 -28 -12 -9
-9 -12 -9 -12 0 0 6 -11 22 -25 36 -31 31 -32 74 -4 105 17 18 23 20 30 9 6
-10 9 -10 9 0z m620 -47 c0 -11 5 -23 10 -26 11 -7 4 -25 -9 -25 -11 0 -32 50
-26 61 10 16 25 10 25 -10z m-732 -80 c3 -9 -2 -11 -17 -6 -16 5 -23 1 -32
-19 -11 -24 -39 -44 -39 -27 0 4 5 22 11 40 10 28 15 32 42 29 17 -2 32 -9 35
-17z m74 -82 c12 -32 23 -192 14 -214 -6 -16 -8 -16 -24 -3 -22 20 -61 29 -90
21 -21 -5 -22 -6 -5 -19 16 -12 16 -13 1 -14 -17 0 -31 -27 -26 -51 2 -8 -3
-13 -9 -11 -18 3 -16 -15 7 -73 16 -41 19 -45 20 -22 0 20 5 27 19 27 26 0 38
-20 20 -34 -13 -10 -35 -84 -43 -148 -8 -56 -47 -154 -77 -194 -6 -8 -38 -1
-104 22 -95 33 -129 37 -57 7 32 -13 34 -17 18 -23 -16 -5 -4 -13 52 -35 39
-15 69 -31 67 -35 -3 -4 3 -7 12 -6 19 1 26 -14 14 -33 -7 -11 -47 1 -213 66
-111 45 -213 84 -225 87 -23 7 -49 33 -41 41 3 3 31 -4 63 -15 77 -27 81 -19
6 11 -33 12 -57 27 -55 31 3 5 -2 11 -10 14 -9 3 -16 10 -16 15 0 5 30 -2 67
-16 36 -14 68 -23 71 -21 2 3 -7 8 -22 12 -14 3 -26 10 -26 14 0 5 -13 11 -29
15 -34 7 -61 35 -90 92 -28 57 -125 159 -189 200 -29 19 -91 46 -138 61 -90
29 -107 51 -49 63 29 5 29 6 -13 13 -23 4 -40 12 -37 16 12 19 -16 19 -32 0
-10 -11 -23 -20 -30 -20 -16 0 10 54 57 119 32 43 32 43 78 37 26 -3 107 -23
180 -43 109 -30 137 -34 153 -25 22 14 29 15 47 4 10 -7 11 -19 2 -58 -16 -73
-17 -76 -37 -65 -46 23 -75 32 -163 50 -92 19 -96 19 -130 1 l-35 -19 54 6
c36 4 52 3 48 -4 -6 -10 75 -25 141 -26 20 0 28 -3 20 -9 -7 -4 -10 -8 -6 -8
3 0 14 -3 24 -7 13 -5 15 -3 9 7 -5 8 -3 11 6 8 8 -2 21 -18 29 -34 10 -18 24
-30 40 -32 14 -1 41 -10 60 -19 19 -10 37 -18 40 -18 7 -2 42 -15 65 -25 43
-18 67 -21 80 -10 11 9 35 1 116 -41 55 -29 109 -64 119 -76 22 -28 35 -30 21
-4 -14 26 -179 126 -221 134 -19 4 -57 18 -84 32 -33 17 -57 23 -74 18 -17 -4
-23 -2 -18 6 5 7 0 11 -13 11 -12 0 -21 5 -21 11 0 6 -9 9 -20 6 -18 -4 -19 0
-16 59 1 35 5 66 8 69 3 3 35 -8 72 -25 38 -16 75 -30 84 -30 10 -1 78 -25
152 -54 74 -30 138 -52 141 -50 4 2 21 41 39 86 18 46 40 89 48 95 9 7 13 15
10 19 -4 3 0 23 7 45 8 22 10 39 5 39 -6 0 -10 6 -10 14 0 25 82 -6 92 -35z
m458 17 c0 -3 -4 -8 -10 -11 -5 -3 -10 -1 -10 4 0 6 5 11 10 11 6 0 10 -2 10
-4z m-49 -59 c-13 -13 -15 1 -4 30 7 17 8 17 11 -1 2 -10 -1 -23 -7 -29z
m-2405 2 c3 -6 14 -9 24 -6 24 6 115 -75 107 -96 -10 -27 -69 -31 -115 -8 -23
12 -55 21 -72 21 -18 0 -29 4 -25 10 9 14 -1 12 -35 -5 -36 -18 -39 -7 -7 23
18 17 30 20 60 15 36 -5 37 -5 37 26 0 31 13 41 26 20z m-166 -9 c0 -5 7 -10
16 -10 11 0 5 -13 -21 -42 l-36 -43 68 -7 c37 -3 78 -4 91 -1 12 3 40 -2 62
-11 22 -9 51 -16 64 -16 22 0 66 -40 66 -60 0 -4 -41 -22 -91 -40 -90 -32
-212 -105 -258 -154 -14 -14 -43 -54 -65 -89 -36 -55 -50 -67 -121 -103 -44
-22 -91 -43 -105 -47 -13 -3 -22 -9 -19 -12 3 -3 54 15 114 40 59 25 110 44
112 42 11 -12 -14 -37 -57 -57 -58 -27 -61 -38 -5 -15 20 9 40 14 43 11 11
-11 -20 -34 -83 -61 -36 -15 -64 -29 -62 -32 2 -2 24 5 49 16 44 18 98 18 98
-1 0 -5 -28 -23 -62 -39 -35 -16 -52 -27 -38 -23 14 4 37 13 52 20 35 18 48
17 24 -1 -18 -14 -17 -19 29 -147 27 -73 77 -198 113 -278 35 -80 71 -160 79
-179 8 -18 16 -31 18 -29 2 2 -18 66 -46 142 -27 76 -48 141 -45 143 2 2 13
-22 24 -54 11 -32 48 -136 82 -232 33 -96 58 -181 55 -189 -3 -8 0 -21 6 -28
9 -11 8 -18 -1 -29 -11 -13 -10 -14 4 -9 21 8 20 -1 -1 -26 -20 -23 -39 -26
-46 -7 -3 6 -6 2 -6 -9 -1 -12 6 -27 14 -34 8 -7 15 -19 15 -27 0 -8 4 -12 9
-9 5 3 7 14 4 24 -3 15 8 25 52 46 52 24 55 28 40 42 -12 13 -19 14 -28 5 -13
-13 -27 -15 -27 -3 0 9 101 62 118 62 16 0 14 30 -4 60 l-15 25 7 -25 c17 -65
-9 -1 -51 125 -47 139 -61 205 -45 205 40 0 58 -24 122 -156 72 -151 85 -189
63 -180 -7 2 -16 -2 -19 -11 -9 -24 0 -27 26 -9 32 22 41 20 36 -9 -4 -17 -1
-25 8 -25 8 0 14 -11 14 -25 0 -14 5 -24 12 -22 13 2 89 -165 91 -203 2 -22
-2 -25 -37 -28 -32 -3 -38 -1 -33 12 6 16 -21 86 -33 86 -3 0 -59 -18 -124
-40 -65 -22 -122 -38 -126 -35 -5 3 -13 -2 -18 -11 -8 -14 -13 -12 -41 11 -56
48 -86 146 -50 166 17 9 18 12 5 24 -17 18 -112 257 -126 318 -5 24 -23 76
-41 117 -17 40 -33 87 -36 104 -8 57 -9 61 -21 89 -7 16 -12 34 -12 42 0 8 -5
17 -10 20 -6 3 -7 17 -4 31 4 14 2 24 -5 24 -6 0 -11 14 -11 30 0 17 -4 30
-10 30 -5 0 -10 14 -10 30 0 17 -4 30 -9 30 -11 0 -261 -104 -304 -127 -25
-12 -27 -16 -15 -30 11 -14 11 -16 -4 -10 -14 5 -19 0 -24 -21 -4 -15 -13 -34
-21 -43 -27 -31 -51 -114 -74 -252 -22 -135 -24 -139 -53 -154 -17 -9 -48 -30
-69 -46 l-38 -31 -24 25 c-21 20 -27 42 -39 124 -14 104 -14 115 9 115 16 0
20 11 40 98 12 51 13 72 5 93 -9 20 -9 33 -1 47 6 12 11 32 11 46 0 41 10 58
26 45 8 -7 16 -10 17 -8 1 2 13 20 27 39 16 23 24 49 24 74 1 33 -6 43 -44 76
l-44 37 11 84 c7 46 23 110 37 141 14 32 23 64 20 72 -6 17 90 93 168 132 57
29 138 32 198 8 44 -18 50 -29 21 -39 -12 -4 -18 -12 -14 -21 6 -17 -8 -19
-24 -3 -7 7 -13 7 -17 0 -4 -5 3 -15 15 -22 18 -9 25 -9 33 3 6 7 19 12 29 10
9 -2 17 1 17 7 0 6 7 11 15 11 8 0 23 4 33 9 38 21 86 41 97 41 15 0 65 45 65
59 0 5 -9 7 -19 4 -13 -3 -18 -10 -14 -21 5 -12 2 -14 -11 -9 -27 11 -68 -3
-61 -20 4 -12 0 -14 -21 -9 -21 6 -25 4 -21 -8 8 -21 8 -21 -58 19 -32 19 -74
37 -94 41 -20 3 -44 8 -55 11 -28 8 185 102 284 125 47 11 101 25 120 33 44
17 50 17 50 5z m250 0 c0 -5 -2 -10 -4 -10 -3 0 -8 5 -11 10 -3 6 -1 10 4 10
6 0 11 -4 11 -10z m2576 -16 c-11 -7 -22 -11 -25 -8 -3 3 3 12 13 20 11 7 22
11 25 8 3 -3 -3 -12 -13 -20z m-1904 -44 c-9 -27 -19 -50 -23 -50 -6 0 -44 55
-57 82 -2 4 14 9 35 11 21 2 43 4 50 5 8 1 6 -13 -5 -48z m-4632 0 c19 -5 49
-21 65 -35 l30 -26 -70 5 c-463 36 -727 3 -1135 -140 -72 -25 -134 -44 -137
-41 -8 9 144 82 252 120 192 68 364 109 533 127 105 11 413 5 462 -10z m4370
-18 c-19 -2 -29 -12 -38 -34 -16 -44 -23 -31 -9 18 10 41 11 42 41 30 31 -11
31 -11 6 -14z m-110 -12 c6 -11 7 -20 3 -20 -5 0 -14 9 -21 20 -7 11 -8 20 -2
20 5 0 14 -9 20 -20z m-97 -27 l18 -32 -27 -17 c-26 -18 -27 -17 -45 7 -10 13
-24 31 -32 40 -12 14 -11 17 12 27 39 15 53 10 74 -25z m296 18 c9 -6 10 -10
2 -16 -15 -8 -41 1 -41 15 0 12 20 13 39 1z m81 -31 c0 -13 -28 -25 -38 -16
-3 4 0 11 8 16 20 13 30 12 30 0z m200 -4 c0 -3 -4 -8 -10 -11 -5 -3 -10 -1
-10 4 0 6 5 11 10 11 6 0 10 -2 10 -4z m1110 -66 c8 -5 12 -11 9 -14 -3 -3
-14 1 -25 9 -21 16 -8 20 16 5z m-2305 -10 c-3 -5 -11 -10 -16 -10 -6 0 -7 5
-4 10 3 6 11 10 16 10 6 0 7 -4 4 -10z m1209 -25 c97 -17 165 -50 235 -113 92
-82 60 -85 -129 -15 -93 35 -99 36 -275 41 -102 2 -225 0 -285 -7 -113 -12
-283 -41 -277 -47 2 -2 66 6 143 17 116 17 178 20 369 17 l230 -3 148 -49 147
-48 34 -72 c19 -39 37 -89 40 -111 4 -22 11 -68 18 -101 9 -52 9 -69 -5 -112
-21 -62 -21 -75 -2 -42 8 14 14 21 15 15 1 -39 -138 -205 -171 -205 -5 0 -9
-6 -9 -13 0 -25 -112 -81 -158 -78 -21 1 -31 -2 -27 -8 23 -38 -424 -56 -634
-26 -150 22 -250 51 -322 93 -66 39 -182 141 -201 176 -6 12 9 3 35 -21 76
-70 72 -51 -5 30 -15 15 -33 47 -39 70 -13 48 -6 207 11 252 14 37 85 125 118
147 26 17 26 18 5 18 -33 0 -28 18 16 61 60 56 189 97 421 133 117 19 453 19
554 1z m1146 -36 c0 -32 -3 -39 -19 -39 -11 0 -23 5 -26 10 -3 6 1 10 9 10 16
0 20 16 16 54 -1 11 3 15 9 12 6 -4 11 -25 11 -47z m-1905 32 c-6 -5 -55 -28
-109 -52 -159 -69 -238 -163 -286 -339 -20 -74 -20 -74 -14 -20 13 115 71 218
168 298 53 44 78 58 176 95 77 29 77 30 65 18z m952 -25 c71 -42 152 -125 186
-192 41 -81 79 -244 57 -244 -5 0 -11 15 -11 33 l-2 32 -6 -35 -7 -35 -9 50
c-4 28 -12 61 -17 74 -7 19 -5 22 7 17 19 -7 19 -6 -10 66 -45 110 -94 162
-241 255 -44 27 0 10 53 -21z m443 14 c0 -5 -4 -10 -10 -10 -5 0 -10 5 -10 10
0 6 5 10 10 10 6 0 10 -4 10 -10z m-7170 -61 c0 -4 -12 -9 -26 -12 -19 -3 -24
-1 -20 10 3 8 6 19 6 24 0 5 9 4 20 -3 11 -7 20 -16 20 -19z m87 -78 c10 -11
7 -20 -14 -47 -14 -19 -29 -34 -34 -34 -5 0 -9 30 -9 67 l0 66 23 -19 c12 -10
27 -25 34 -33z m-77 20 c0 -11 -5 -23 -11 -27 -15 -9 -33 12 -26 30 9 23 37
20 37 -3z m7669 -79 c1 -24 -6 -57 -15 -73 -14 -28 -14 -32 2 -50 14 -16 15
-19 2 -14 -17 7 -20 -1 -61 -130 -20 -65 -119 -297 -134 -314 -5 -7 -30 29
-48 69 -25 54 -32 65 -44 62 -21 -4 -11 17 11 23 15 5 26 1 38 -15 20 -26 29
-18 55 48 16 39 20 43 44 37 l26 -6 -22 16 c-13 9 -23 26 -23 37 0 20 78 223
131 343 19 42 23 47 30 30 4 -11 8 -39 8 -63z m-7821 41 c-4 -22 -48 -31 -48
-10 0 19 10 27 32 27 13 0 18 -6 16 -17z m10552 -89 c21 -21 -79 -35 -276 -39
-243 -4 -403 -32 -611 -105 -157 -56 -198 -64 -198 -41 0 60 281 160 535 190
108 13 536 9 550 -5z m-10421 -15 c-22 -14 -33 -10 -19 6 7 8 17 12 22 9 6 -4
5 -10 -3 -15z m2646 -8 c28 -15 33 -20 15 -16 -19 4 -17 1 8 -10 18 -9 35 -22
38 -30 6 -15 -45 -114 -99 -194 -28 -41 -31 -43 -69 -38 -40 5 -78 34 -78 59
0 7 -10 1 -21 -14 -11 -15 -35 -36 -54 -48 -29 -18 -40 -20 -70 -11 -42 11
-39 -1 5 -19 16 -7 30 -17 30 -23 0 -6 8 -19 18 -30 17 -20 17 -20 -17 -3 -18
10 -31 13 -27 8 3 -5 19 -15 36 -22 30 -12 38 -25 21 -32 -5 -1 -29 -37 -54
-78 -42 -71 -46 -75 -78 -73 -28 2 -31 1 -16 -8 9 -5 17 -17 17 -26 0 -14 -4
-13 -23 5 -13 12 -29 22 -35 22 -7 0 -12 4 -12 8 0 5 -14 6 -32 4 -26 -4 -30
-2 -25 12 5 11 -3 21 -26 32 -38 20 -67 44 -67 56 0 5 6 8 13 5 14 -5 111 168
102 183 -11 18 -24 1 -66 -82 -22 -44 -42 -78 -45 -76 -2 3 15 46 38 96 37 80
46 92 68 92 14 0 31 -4 39 -9 18 -11 51 8 51 29 0 27 -31 61 -69 77 l-36 15
-42 -48 -43 -48 -202 -7 c-512 -18 -888 -22 -888 -10 0 6 11 17 25 23 27 12
33 28 12 28 -8 0 -24 -12 -38 -26 -29 -32 -124 -94 -143 -94 -7 0 -24 -8 -37
-18 -13 -10 -49 -24 -79 -31 -30 -8 -58 -18 -61 -23 -8 -13 -65 16 -73 37 -3
9 -6 28 -6 41 0 13 -5 24 -11 24 -7 0 -9 10 -5 25 4 14 3 25 -2 25 -5 0 -7 14
-4 31 3 23 -1 34 -18 46 l-22 15 38 39 c36 37 41 39 99 39 33 0 87 -5 120 -11
75 -14 32 -16 480 20 209 17 481 38 605 46 124 8 317 21 430 29 262 18 333 16
385 -13z m-1719 -17 c-4 -9 -9 -15 -11 -12 -3 3 -3 13 1 22 4 9 9 15 11 12 3
-3 3 -13 -1 -22z m3202 4 c9 -8 12 -6 12 6 0 21 14 20 36 -1 10 -10 20 -18 23
-19 87 -11 123 -19 138 -30 16 -12 9 -13 -50 -14 -38 0 -77 -5 -88 -10 -14 -8
-19 -7 -19 2 0 7 -10 -5 -23 -27 -45 -80 -116 -91 -261 -38 -39 14 -82 26 -96
27 -14 2 -36 8 -50 16 -26 14 -300 16 -490 4 -52 -4 -92 -4 -89 0 7 8 319 34
439 37 64 1 83 -2 127 -25 71 -36 80 -33 15 5 -30 18 -50 35 -45 40 4 4 44 11
88 14 44 4 89 11 100 16 44 19 207 17 233 -3z m-4318 -35 c0 -13 -4 -23 -10
-23 -5 0 -10 17 -10 38 0 27 3 33 10 22 5 -8 10 -25 10 -37z m9177 -45 c-3 -8
-6 -5 -6 6 -1 11 2 17 5 13 3 -3 4 -12 1 -19z m-1922 -63 c16 -5 17 -5 5 4
-27 19 -4 12 166 -55 200 -78 226 -92 214 -113 -5 -9 -20 -16 -34 -16 -13 -1
-23 2 -20 6 2 4 -85 42 -193 86 -108 43 -199 84 -201 92 -5 14 17 13 63 -4z
m597 -47 c-8 -8 -9 -4 -5 13 4 13 8 18 11 10 2 -7 -1 -18 -6 -23z m-7192 -8
c0 -16 4 -30 9 -30 9 0 43 -131 36 -138 -3 -4 -19 30 -53 116 -20 51 -20 82
-1 82 5 0 9 -13 9 -30z m6743 -49 c92 -36 165 -66 163 -69 -3 -2 -42 10 -88
28 -52 20 -84 28 -86 21 -2 -6 -8 -11 -14 -11 -7 0 -7 4 1 13 8 11 -2 18 -52
35 -81 29 -91 28 -83 -3 4 -14 2 -25 -4 -25 -5 0 -10 -11 -10 -25 0 -14 -4
-34 -10 -45 -5 -11 -14 -29 -20 -40 -5 -11 -10 -28 -10 -37 -1 -10 -7 -31 -14
-48 -12 -26 -15 -28 -21 -12 -8 19 64 289 76 285 3 -2 81 -32 172 -67z m434
-33 c-3 -7 -5 -2 -5 12 0 14 2 19 5 13 2 -7 2 -19 0 -25z m163 21 c0 -6 -19
-83 -42 -170 -34 -133 -44 -159 -60 -159 -24 0 -23 15 13 150 16 63 35 132 40
153 7 27 15 37 29 37 11 0 20 -5 20 -11z m-2630 -33 c0 -11 -19 -15 -25 -6 -3
5 1 10 9 10 9 0 16 -2 16 -4z m2093 -43 c37 -14 66 -28 64 -29 -6 -6 -82 20
-127 44 -52 27 -33 22 63 -15z m-2098 -1 c-16 -10 -34 -19 -39 -19 -5 -1 -13
-8 -18 -17 -5 -8 -15 -13 -22 -10 -8 3 -30 -2 -50 -10 -34 -14 -36 -17 -25
-38 11 -21 11 -22 -4 -9 -31 25 -18 38 76 80 98 43 131 52 82 23z m2652 -7
c-23 -22 -33 -18 -12 5 10 11 20 18 23 16 2 -3 -3 -12 -11 -21z m1151 -26
c-13 -17 -57 -60 -98 -94 -41 -35 -100 -85 -130 -110 -30 -26 9 16 88 94 138
136 188 175 140 110z m-1738 -15 c23 -9 39 -18 37 -20 -2 -3 -24 4 -48 15 -54
24 -45 27 11 5z m119 -10 c-17 -21 -31 -17 -17 5 7 11 16 17 20 14 5 -2 4 -11
-3 -19z m-2222 -21 c-67 -31 -77 -39 -72 -57 6 -21 6 -21 -10 -2 -19 25 -16
28 70 65 97 42 107 37 12 -6z m-4467 23 c0 -2 -16 -13 -35 -25 -33 -19 -35
-19 -25 -2 5 11 15 22 22 24 16 7 38 8 38 3z m3964 -40 c-3 -9 -10 -16 -15
-16 -6 0 -5 9 1 21 13 24 24 20 14 -5z m2686 9 c0 -12 -19 -12 -23 0 -4 9 -1
12 9 8 7 -3 14 -7 14 -8z m-4900 -4 c0 -5 -9 -19 -21 -32 l-20 -24 17 33 c19
33 24 38 24 23z m4781 -6 c19 -8 27 -14 19 -14 -14 0 -72 28 -59 29 4 0 22 -7
40 -15z m-2026 -30 c-27 -13 -56 -24 -64 -24 -8 -1 -11 -7 -7 -17 3 -8 2 -12
-4 -9 -6 3 -10 11 -10 16 0 11 97 57 120 57 8 0 -7 -10 -35 -23z m-5527 -32
c-9 -10 -26 -41 -38 -70 -13 -32 -36 -63 -58 -80 -24 -18 -34 -22 -29 -10 10
25 130 187 135 182 3 -3 -2 -13 -10 -22z m7512 17 c8 -5 11 -10 5 -10 -5 0
-17 5 -25 10 -8 5 -10 10 -5 10 6 0 17 -5 25 -10z m-4435 -61 c88 -74 166
-126 253 -166 42 -19 109 -50 149 -69 39 -19 76 -34 82 -34 11 0 92 -79 127
-125 20 -26 25 -43 22 -77 l-3 -43 -80 2 c-57 1 -71 -1 -50 -6 40 -11 -130
-12 -200 -1 -45 7 -40 8 50 10 55 2 81 5 57 7 -39 4 -45 8 -78 60 -90 141
-252 317 -397 431 l-78 62 43 0 c38 0 52 -7 103 -51z m2472 25 c-29 -15 -45
-29 -41 -36 4 -7 3 -8 -4 -4 -22 13 -12 27 31 46 61 27 70 23 14 -6z m-3126
-46 c137 -60 167 -77 139 -77 -19 -1 -21 -4 -12 -13 7 -7 12 -18 12 -26 0 -9
-9 -7 -32 9 -18 13 -36 27 -39 31 -3 5 -18 4 -33 -2 -37 -14 -38 -13 -31 10 5
16 -4 26 -44 51 -47 28 -64 49 -42 49 4 0 42 -15 82 -32z m5364 22 c3 -5 1
-10 -4 -10 -6 0 -11 5 -11 10 0 6 2 10 4 10 3 0 8 -4 11 -10z m-2198 -21 c-22
-11 -35 -24 -31 -31 4 -6 1 -9 -6 -6 -27 9 -20 25 17 41 54 22 65 20 20 -4z
m2526 1 c3 -11 1 -18 -4 -14 -5 3 -9 12 -9 20 0 20 7 17 13 -6z m-336 -22 c22
-21 24 -21 17 -3 -6 19 -6 19 15 -1 12 -12 27 -39 32 -60 12 -48 13 -50 1 -97
-8 -29 -5 -60 14 -143 27 -118 27 -150 -1 -52 -36 130 -53 163 -90 181 -48 23
-50 22 -26 -12 23 -32 58 -140 121 -370 46 -166 50 -230 21 -342 -27 -104
-256 -684 -293 -741 -60 -95 -169 -170 -291 -202 -40 -10 -160 -16 -441 -22
l-386 -7 0 39 0 39 212 -3 c117 -1 301 1 408 6 189 8 198 9 260 39 142 67 211
161 316 434 101 259 143 386 149 445 5 49 5 49 -13 -16 -11 -36 -38 -110 -62
-165 -24 -55 -59 -147 -78 -205 -72 -217 -87 -254 -120 -304 -48 -70 -104
-127 -120 -121 -7 2 -11 1 -8 -4 8 -12 -36 -39 -102 -63 -51 -18 -89 -21 -353
-25 -286 -5 -503 3 -449 17 21 5 25 12 26 43 1 51 14 60 14 9 0 -39 2 -42 26
-42 15 0 32 8 39 17 11 15 14 15 31 -5 10 -12 21 -18 24 -13 3 5 20 12 38 16
24 5 33 3 38 -9 8 -20 24 -21 24 -1 0 21 30 19 31 -2 0 -14 3 -12 10 5 10 25
29 21 30 -6 0 -14 2 -13 9 3 5 11 9 14 9 8 1 -9 17 -13 46 -13 26 0 45 -5 45
-11 0 -8 31 -9 103 -4 56 3 129 8 162 9 40 2 75 12 105 28 25 14 50 23 56 21
6 -2 19 8 28 22 9 14 21 23 25 21 11 -7 75 87 104 154 14 30 45 114 70 185 25
72 64 167 86 212 23 45 41 89 41 98 0 9 10 45 21 81 21 65 22 133 2 213 -5 19
-3 23 9 19 12 -5 14 0 8 30 -10 50 -20 72 -32 72 -7 0 -8 18 -5 48 4 35 -3 78
-29 175 -39 147 -40 155 -17 136 15 -13 16 -9 9 51 -12 103 -14 184 -3 198 15
19 58 14 84 -10z m-455 -30 c-8 -8 -9 -4 -5 13 4 13 8 18 11 10 2 -7 -1 -18
-6 -23z m-4946 -29 c160 -72 170 -78 145 -78 -19 -1 -21 -3 -11 -16 25 -30 3
-34 -32 -5 -31 26 -40 29 -63 20 -35 -13 -37 -13 -30 9 5 15 -4 25 -45 48 -27
15 -50 34 -50 41 0 18 10 15 86 -19z m2479 1 c-4 -12 -9 -19 -12 -17 -3 3 -2
15 2 27 4 12 9 19 12 17 3 -3 2 -15 -2 -27z m6932 14 c-3 -3 -12 -4 -19 -1 -8
3 -5 6 6 6 11 1 17 -2 13 -5z m-4180 -41 c-3 -10 -5 -4 -5 12 0 17 2 24 5 18
2 -7 2 -21 0 -30z m4210 10 c-9 -9 -20 -13 -24 -9 -4 4 -1 11 7 16 25 16 35
11 17 -7z m-4252 -17 c16 -5 26 -24 42 -86 21 -78 21 -80 2 -80 -11 0 -27 5
-38 11 -11 7 -32 9 -54 5 -40 -7 -57 -24 -37 -36 9 -6 9 -12 -1 -28 -11 -17
-10 -23 1 -37 10 -12 11 -18 2 -24 -7 -4 -3 -17 14 -39 22 -27 32 -32 69 -32
25 0 45 -5 48 -12 3 -8 6 -6 6 5 1 9 -5 17 -11 18 -7 0 -2 5 11 10 38 15 57
-12 86 -125 28 -105 34 -173 16 -203 -9 -15 -10 -13 -5 12 3 17 7 36 10 43 2
6 -1 12 -6 12 -6 0 -10 -7 -10 -15 0 -25 -17 -17 -25 12 -3 15 -20 47 -36 71
-22 33 -29 54 -29 93 0 28 -4 48 -9 44 -5 -3 -12 -1 -16 5 -8 14 -38 13 -53
-2 -14 -14 -18 -15 -140 -27 -74 -7 -101 -15 -133 -35 -21 -15 -39 -22 -39
-16 0 6 -11 16 -25 22 -30 14 -32 41 -4 69 14 14 18 27 13 41 -6 19 -3 20 25
15 29 -6 30 -5 25 22 -6 27 -4 28 21 23 26 -5 27 -3 21 23 -7 26 -5 27 19 21
22 -6 25 -3 25 19 0 20 5 25 25 25 22 0 25 3 19 27 -7 25 -6 26 26 20 34 -7
33 -9 13 40 -4 10 3 11 26 7 34 -7 37 -3 20 27 -10 19 -8 20 25 13 32 -6 36
-4 30 12 -4 11 -12 25 -18 33 -9 11 -7 13 9 8 11 -3 29 -8 40 -11z m-5140 -87
c67 -28 75 -35 52 -37 -24 -3 -26 -5 -12 -19 25 -25 9 -27 -22 -3 -15 12 -57
35 -93 51 -82 38 -112 57 -105 69 6 10 42 -2 180 -61z m2930 -69 c-1 -69 3
-100 11 -100 23 0 0 -224 -31 -295 -7 -16 -33 -53 -59 -81 -25 -29 -46 -55
-46 -59 0 -3 26 -4 58 -1 l57 6 -42 -16 c-23 -8 -70 -42 -105 -75 -73 -69 -46
-61 58 18 71 53 72 54 165 62 52 4 75 9 52 10 -24 0 -43 6 -43 11 0 6 52 10
135 10 l135 0 0 -105 c0 -105 0 -105 -24 -105 -14 0 -28 -4 -31 -10 -4 -6 5
-7 23 -4 l30 6 7 -162 c5 -115 4 -165 -4 -173 -6 -6 -11 -8 -11 -4 0 17 -63
-51 -76 -82 -18 -42 -12 -50 10 -16 9 14 14 25 10 25 -4 0 -1 7 6 15 7 8 17
15 23 15 6 0 2 -7 -9 -15 -18 -14 -17 -14 13 -9 20 4 39 2 48 -6 11 -9 15 -9
15 -1 0 7 5 9 10 6 6 -3 10 1 10 9 0 21 12 20 52 -3 30 -17 253 -50 264 -39 2
3 -31 13 -74 23 -42 10 -71 20 -64 22 17 6 15 30 -4 37 -19 7 -37 -2 -29 -15
10 -15 -12 -10 -25 6 -7 8 -16 15 -21 15 -5 0 -9 -7 -9 -15 0 -23 -19 -18 -32
10 -12 27 -33 35 -65 24 l-21 -8 -4 222 c-1 122 -1 239 1 260 l3 38 184 -3
c118 -2 180 0 173 7 -5 5 -85 10 -184 10 -142 0 -175 3 -175 14 0 11 24 12
138 7 75 -4 180 -7 232 -7 108 0 164 -14 157 -40 -4 -13 1 -17 17 -15 30 3 48
15 40 28 -8 13 12 2 40 -21 18 -15 18 -15 12 9 l-8 25 19 -25 c16 -22 24 -25
71 -22 78 5 146 -21 198 -76 24 -25 46 -54 50 -64 8 -26 24 -12 24 20 0 15 5
34 10 42 9 13 12 13 24 -2 11 -15 12 -11 8 32 -3 36 -1 51 9 55 8 3 55 -3 104
-13 73 -15 91 -21 93 -37 5 -24 31 -55 47 -55 18 0 48 37 43 52 -3 8 -9 5 -17
-10 -21 -39 -61 -24 -61 24 0 10 14 14 54 14 39 0 60 6 81 21 22 18 29 19 35
9 6 -10 10 -7 14 13 3 15 9 39 12 55 3 15 17 41 30 59 l25 32 34 -16 c30 -15
38 -15 61 -2 30 16 74 75 74 100 0 33 26 43 86 30 61 -12 132 -53 166 -96 20
-25 20 -27 2 -40 -11 -8 -26 -14 -34 -12 -21 3 -25 39 -5 53 11 9 13 14 4 19
-16 11 -29 -14 -29 -56 0 -34 2 -36 34 -34 l33 1 -13 -50 c-7 -28 -12 -52 -10
-53 5 -5 36 75 36 92 0 8 5 15 11 15 17 0 3 -115 -16 -143 -8 -12 -28 -31 -43
-42 -16 -11 -48 -33 -72 -50 -23 -16 -63 -33 -89 -36 -45 -7 -44 -7 14 -6 36
1 68 7 80 16 15 12 17 12 8 1 -7 -8 -12 -25 -12 -40 2 -23 2 -23 6 -2 6 28 40
49 56 33 6 -6 16 -11 21 -11 6 0 0 9 -14 20 l-25 20 24 0 c14 0 35 10 48 22
13 12 23 17 23 12 0 -29 -139 -203 -255 -320 -86 -86 -335 -261 -355 -249 -6
4 -19 0 -29 -9 -26 -24 -190 -98 -204 -92 -7 2 -2 8 11 12 36 10 155 70 177
88 11 9 -2 5 -29 -9 -27 -14 -55 -25 -63 -25 -7 0 -21 -5 -31 -11 -12 -7 -66
-8 -175 -2 -88 4 -163 5 -169 2 -11 -7 112 -18 221 -20 l76 -2 -55 -7 c-30 -5
-95 -4 -143 2 -49 5 -95 7 -104 4 -36 -14 -363 -36 -540 -36 -192 0 -223 3
-223 23 0 23 -56 96 -78 102 -41 10 -89 -14 -132 -65 -37 -44 -45 -49 -93 -54
-382 -41 -480 -46 -526 -27 -32 14 -87 83 -125 159 -14 28 -29 52 -32 52 -8 0
8 -72 28 -124 10 -27 37 -71 60 -98 22 -27 38 -51 36 -54 -3 -2 -30 3 -59 13
l-54 18 -82 161 -82 161 78 84 78 84 17 -30 c13 -24 15 -25 10 -6 -4 17 -3 21
6 16 9 -5 11 -4 6 4 -4 6 -12 8 -18 5 -6 -4 -9 -3 -7 3 5 12 360 339 385 353
4 3 9 13 9 22 1 11 -18 -1 -55 -35 -160 -148 -456 -416 -491 -444 -74 -59
-351 -333 -336 -333 12 0 12 -7 4 -40 -9 -33 -8 -42 6 -58 9 -10 17 -21 17
-25 0 -16 -94 -17 -184 -2 -75 12 -112 13 -152 6 -29 -6 -142 -13 -251 -17
-130 -4 -210 -11 -232 -20 -42 -18 -79 -17 -111 1 -14 8 -44 14 -66 15 -23 0
-46 6 -52 13 -6 7 -13 44 -15 82 l-3 70 -2 -82 c-2 -73 -4 -83 -20 -83 -11 0
-99 -20 -198 -44 -174 -43 -186 -44 -424 -55 -135 -6 -347 -14 -473 -18 -125
-3 -225 -8 -223 -11 3 -2 67 -5 143 -5 76 0 113 -2 83 -4 -75 -4 -100 -11 -97
-26 1 -8 -23 -15 -76 -21 -102 -12 -96 -29 13 -36 71 -4 84 -8 91 -25 5 -14 8
-8 9 25 l1 45 18 -22 c20 -24 55 -31 66 -13 3 6 -3 10 -14 10 -24 0 -27 12 -7
29 10 9 16 8 26 -4 17 -20 33 -19 55 5 16 17 31 20 107 20 83 0 88 -1 79 -18
-23 -42 -108 -126 -196 -192 -92 -68 -100 -79 -107 -139 -3 -20 -14 -28 -68
-47 -43 -15 -55 -22 -35 -21 17 1 32 -2 35 -8 9 -18 -145 -29 -280 -19 -144
10 -140 12 -140 -57 0 -34 -3 -39 -22 -38 -37 2 -73 15 -71 26 1 6 -19 18 -45
28 -113 42 -286 147 -299 181 -13 36 15 33 76 -6 79 -51 272 -150 293 -150 20
0 32 29 15 35 -177 62 -235 88 -317 144 -25 17 -48 31 -52 31 -4 0 -15 -14
-24 -32 l-17 -32 -31 36 c-81 94 -141 172 -191 251 l-17 27 29 0 c24 0 33 -7
49 -38 34 -68 122 -172 144 -172 6 0 -9 26 -35 57 -25 32 -59 76 -75 99 l-29
41 317 8 c174 4 376 11 447 15 76 5 18 5 -140 1 -414 -9 -677 -6 -940 13 -179
12 -243 20 -254 31 -10 10 -16 44 -19 104 l-4 89 218 6 c121 4 336 11 479 17
705 26 1551 49 1823 49 169 0 302 4 302 9 0 17 -424 23 -795 12 -532 -17
-1738 -59 -1888 -67 -120 -6 -127 -6 -127 12 1 45 -2 45 280 79 349 43 466 54
720 65 452 20 491 22 486 28 -3 2 -131 5 -285 6 -153 1 -274 -2 -268 -6 7 -4
-31 -8 -83 -8 -90 0 -334 -24 -374 -36 -18 -6 -19 -2 -13 72 8 107 53 313 85
393 25 63 73 144 92 156 5 3 26 7 47 9 102 9 141 20 198 55 77 48 163 85 245
107 84 22 302 23 377 2 51 -14 51 -14 56 8 2 15 -3 30 -14 40 -28 26 -23 36
15 29 48 -9 58 22 20 60 -31 31 -27 40 11 25 35 -13 55 -7 55 19 0 20 -38 50
-67 52 -12 1 -10 3 7 8 14 4 41 2 63 -5 37 -13 37 -13 37 15 0 15 -9 36 -20
46 -11 10 -20 22 -20 26 0 10 9 7 149 -50 99 -40 110 -46 82 -49 -18 -2 -60 6
-94 17 -47 16 -63 18 -69 8 -17 -26 0 -43 71 -72 65 -26 71 -30 46 -33 -16 -2
-35 -12 -42 -22 -19 -27 -68 -12 -68 21 0 29 -39 40 -49 13 -9 -23 -3 -28 79
-63 60 -26 66 -30 39 -31 -20 0 -36 -7 -45 -20 -12 -18 -18 -20 -46 -9 -28 9
-32 15 -27 35 5 20 2 24 -14 24 -12 0 -26 -8 -31 -17 -9 -16 0 -23 67 -55 56
-27 70 -37 52 -37 -14 -1 -33 -10 -42 -20 -13 -15 -23 -18 -45 -12 -22 6 -28
13 -26 34 1 20 -3 27 -16 27 -21 0 -45 -25 -37 -38 3 -5 38 -22 78 -38 67 -27
70 -29 41 -32 -19 -2 -37 -11 -43 -22 -8 -16 -15 -17 -43 -8 -28 8 -33 15 -29
33 5 30 -24 41 -38 14 -6 -10 -9 -23 -6 -27 3 -5 38 -22 78 -38 72 -29 73 -29
36 -32 -25 -2 -38 -8 -38 -18 0 -16 -33 -19 -60 -4 -12 6 -17 16 -13 26 8 20
-17 36 -34 22 -25 -21 -12 -36 64 -72 l78 -36 -45 4 c-25 2 -54 7 -65 10 -11
3 3 -5 30 -18 39 -19 46 -26 32 -31 -11 -5 -45 6 -94 29 -42 20 -78 35 -80 33
-2 -3 34 -24 79 -48 60 -31 77 -45 62 -47 -12 -2 -31 -20 -42 -40 -12 -20 -42
-62 -65 -92 -40 -50 -47 -55 -80 -53 -23 1 -37 -3 -41 -12 -3 -8 -1 -15 4 -15
5 0 16 -12 25 -27 14 -25 15 -25 9 -4 -4 17 -3 21 6 16 19 -12 5 -87 -20 -107
-28 -22 -88 -23 -111 -2 -25 23 -71 10 -115 -31 -26 -25 -47 -35 -77 -38 -23
-2 9 -4 71 -5 81 -2 111 1 106 9 -16 27 67 40 109 17 36 -19 380 -37 742 -38
318 0 353 -2 535 -29 157 -22 209 -26 265 -20 39 5 201 13 360 18 160 5 306
14 326 20 74 23 168 94 441 336 479 425 614 551 664 621 64 90 129 220 150
303 17 67 18 68 38 50 19 -16 21 -29 21 -119z m102 -17 c-2 -32 -3 -8 -3 52 0
61 1 87 3 58 2 -29 2 -78 0 -110z m93 148 c0 -6 -4 -13 -10 -16 -15 -9 -12
-38 3 -32 6 2 22 8 35 12 23 7 23 7 7 -25 l-16 -31 36 7 c35 6 35 6 25 -21
-14 -36 -14 -36 16 -25 35 14 34 14 28 -19 -6 -26 -4 -28 20 -24 33 7 33 -10
0 -36 -43 -34 -137 -27 -188 14 -20 16 -26 27 -20 36 5 8 9 42 9 77 0 51 4 66
19 78 23 16 36 18 36 5z m6303 2 c-7 -2 -19 -2 -25 0 -7 3 -2 5 12 5 14 0 19
-2 13 -5z m-4204 -117 c12 -49 19 -91 17 -94 -3 -2 -9 13 -15 34 -43 165 -48
192 -32 164 5 -8 19 -55 30 -104z m-5303 18 c56 -34 57 -36 24 -31 -37 6 -36
6 45 -30 l40 -17 -31 -4 c-21 -2 -34 -10 -37 -22 -4 -16 -12 -18 -43 -14 -37
5 -37 4 16 -18 51 -21 53 -23 25 -26 -16 -2 -34 -11 -41 -20 -11 -15 -15 -14
-54 3 -23 10 -65 41 -93 68 l-52 49 42 -6 c37 -5 42 -4 49 16 5 17 0 27 -22
46 l-29 24 48 -6 c37 -4 47 -3 47 9 0 20 -1 20 66 -21z m-349 16 c99 -13 223
-41 223 -51 0 -4 -24 -1 -52 7 -63 17 -147 18 -283 5 -55 -6 -101 -10 -102
-11 -1 0 0 -7 3 -15 4 -11 -1 -15 -17 -17 -13 0 -4 -4 21 -7 43 -6 41 -7 -55
-25 -181 -32 -229 -46 -331 -95 -178 -85 -303 -185 -412 -330 -148 -196 -222
-419 -222 -667 l0 -94 -34 0 c-18 0 -48 -3 -65 -6 l-31 -6 0 118 c0 328 119
612 355 849 261 262 641 392 1002 345z m2945 -50 c3 -31 15 -65 32 -91 30 -45
27 -67 -14 -117 l-20 -24 -32 21 c-74 47 -72 43 -54 105 9 31 28 72 41 92 14
20 25 43 25 50 0 8 4 14 9 14 5 0 11 -22 13 -50z m2288 -20 c-12 -29 -30 -66
-41 -82 -11 -15 -32 -56 -46 -90 l-25 -62 29 -23 c15 -13 23 -23 18 -23 -11 0
-36 -56 -42 -93 -2 -10 -14 -40 -28 -67 -29 -56 -31 -67 -11 -51 8 7 25 37 37
67 13 30 29 54 36 54 17 0 17 0 -11 -64 -19 -43 -33 -59 -65 -75 -59 -30 -64
-28 -57 23 6 39 4 46 -13 56 -39 20 -222 81 -230 75 -5 -2 -20 -29 -34 -59
-22 -46 -29 -54 -47 -49 -12 3 -24 12 -27 19 -10 26 92 274 113 274 32 0 43
-12 37 -41 -3 -19 -1 -29 6 -29 7 0 10 4 7 8 -2 4 -1 14 3 21 7 10 14 10 37
-2 52 -27 198 -80 225 -82 21 -2 25 1 22 16 -3 10 -11 15 -19 12 -8 -3 -23 2
-33 11 -10 9 -46 28 -82 42 -35 14 -66 28 -68 30 -12 11 70 -12 119 -33 30
-13 49 -18 43 -12 -21 21 -15 59 33 225 14 50 15 50 67 60 28 5 56 7 60 3 4
-3 -2 -30 -13 -59z m-243 36 c-2 -6 -12 -37 -21 -68 -17 -60 -30 -79 -21 -30
4 21 1 19 -15 -13 -11 -22 -20 -45 -20 -52 0 -27 -50 -25 -50 3 0 8 -6 11 -15
8 -8 -4 -15 -4 -15 -1 0 4 35 122 45 155 3 9 22 12 60 11 35 -2 54 -6 52 -13z
m-568 -38 c1 -12 -27 -9 -34 2 -4 6 -1 18 6 26 12 14 14 14 20 -3 4 -10 8 -21
8 -25z m146 21 c7 -22 -12 -79 -26 -79 -24 0 -50 75 -32 93 15 15 52 6 58 -14z
m109 5 c17 -7 10 -34 -9 -34 -17 0 -28 17 -20 30 7 12 8 12 29 4z m-1852 -76
c-8 -8 -9 -4 -5 13 4 13 8 18 11 10 2 -7 -1 -18 -6 -23z m1830 -8 c-1 -18 3
-39 9 -46 17 -21 5 -28 -28 -16 -16 5 -26 15 -24 23 1 8 4 23 5 35 7 53 43 58
38 4z m997 -9 c7 -23 10 -45 7 -48 -12 -13 -46 37 -46 67 0 44 22 34 39 -19z
m-1204 9 c19 -37 19 -56 -1 -64 -21 -8 -20 -10 -27 47 -8 54 5 62 28 17z
m5548 13 c-7 -2 -19 -2 -25 0 -7 3 -2 5 12 5 14 0 19 -2 13 -5z m-10287 -29
c-141 -26 -311 -92 -426 -166 -25 -16 -31 -17 -22 -5 17 20 216 119 287 142
71 24 164 43 205 43 19 0 -1 -6 -44 -14z m734 6 c0 -5 -4 -10 -10 -10 -5 0
-10 5 -10 10 0 6 5 10 10 10 6 0 10 -4 10 -10z m3001 -80 c-10 -25 -10 -25
-10 5 -1 17 3 41 7 55 7 25 7 24 10 -5 2 -17 -1 -42 -7 -55z m-3231 60 c0 -5
-2 -10 -4 -10 -3 0 -8 5 -11 10 -3 6 -1 10 4 10 6 0 11 -4 11 -10z m4556 -1
c7 -12 -15 -31 -28 -23 -9 6 1 34 12 34 5 0 12 -5 16 -11z m-436 -20 c0 -18
-2 -19 -15 -9 -15 12 -12 30 6 30 5 0 9 -10 9 -21z m1364 -24 l6 -30 -15 25
c-8 14 -14 32 -15 40 0 23 17 -2 24 -35z m-1856 -16 c24 0 25 -1 7 -9 -33 -14
-72 -11 -79 6 -10 26 -7 34 17 43 19 7 22 5 25 -15 3 -18 10 -24 30 -25z m743
30 c3 -6 9 -10 13 -9 19 5 66 -13 66 -25 0 -8 -11 -26 -25 -41 -14 -15 -25
-23 -25 -18 0 4 -5 3 -12 -4 -21 -21 -28 -13 -29 31 0 37 -2 40 -11 20 -15
-31 -23 -29 -49 13 -18 30 -20 38 -8 45 17 11 70 3 80 -12z m140 -27 c-6 -12
-11 -38 -11 -59 0 -36 -14 -63 -32 -63 -19 0 7 101 35 138 15 19 20 7 8 -16z
m137 4 c23 -11 42 -24 42 -29 0 -5 -8 -6 -17 -1 -10 4 -31 8 -48 8 -24 1 -31
6 -33 25 -2 13 0 22 5 20 4 -2 27 -13 51 -23z m-2128 -1 c0 -8 -4 -15 -10 -15
-5 0 -10 7 -10 15 0 8 5 15 10 15 6 0 10 -7 10 -15z m1754 -2 c2 -10 7 -28 11
-40 9 -33 -17 -30 -57 6 l-33 30 25 10 c37 14 48 13 54 -6z m1223 -55 c-3 -7
-5 -2 -5 12 0 14 2 19 5 13 2 -7 2 -19 0 -25z m-5412 -8 c0 -11 -9 -14 -30
-12 -37 4 -44 10 -25 23 21 13 55 7 55 -11z m3121 -16 c-6 -19 -12 -28 -14
-20 -3 13 14 56 22 56 2 0 -2 -16 -8 -36z m978 -16 c3 -16 2 -28 -3 -28 -12 0
-29 51 -23 69 4 12 6 12 12 0 4 -8 10 -26 14 -41z m-1554 0 c0 -10 -11 -10
-29 1 -9 6 -11 16 -7 27 7 18 8 18 22 0 8 -11 14 -23 14 -28z m2125 22 c22
-11 29 -17 15 -14 -38 10 -87 32 -70 33 8 0 33 -8 55 -19z m-2050 0 c3 -5 2
-10 -4 -10 -5 0 -13 5 -16 10 -3 6 -2 10 4 10 5 0 13 -4 16 -10z m2535 -30 c0
-7 -19 -10 -45 -9 -25 2 -45 6 -45 11 0 4 20 8 45 8 25 0 45 -5 45 -10z m-380
-20 c0 -5 -2 -10 -4 -10 -3 0 -8 5 -11 10 -3 6 -1 10 4 10 6 0 11 -4 11 -10z
m-2555 -21 c11 -17 -1 -21 -15 -4 -8 9 -8 15 -2 15 6 0 14 -5 17 -11z m1373
-25 c-10 -10 -28 6 -28 24 0 15 1 15 17 -1 9 -9 14 -19 11 -23z m1426 -13 c-5
-3 -9 -17 -9 -31 0 -18 -6 -26 -22 -28 -13 -2 -23 1 -23 7 0 5 -8 11 -17 13
-14 3 -9 10 21 30 22 15 44 25 49 21 5 -3 5 -8 1 -12z m-2559 -62 c50 -16 95
-35 100 -40 7 -7 -9 -29 -50 -66 -88 -81 -188 -163 -197 -163 -9 0 -6 37 13
180 14 101 19 120 33 120 6 0 52 -14 101 -31z m-385 -19 c0 -11 -4 -20 -9 -20
-14 0 -23 18 -16 30 10 17 25 11 25 -10z m2522 -42 c-7 -7 -12 -8 -12 -2 0 14
12 26 19 19 2 -3 -1 -11 -7 -17z m-3978 -75 c52 -90 86 -165 115 -254 21 -63
28 -104 10 -61 -5 13 -18 26 -28 29 -12 3 -23 17 -27 36 -4 18 -22 65 -41 107
-29 61 -83 204 -83 217 0 12 14 -7 54 -74z m5138 -22 c1 -39 -2 -74 -5 -78 -4
-3 -7 18 -7 48 0 30 -3 72 -6 94 -4 30 -3 36 5 24 6 -9 12 -49 13 -88z m-7053
17 c-65 -82 -152 -286 -161 -378 -3 -33 -2 -34 42 -45 25 -6 44 -14 43 -18 -2
-4 -3 -12 -3 -18 0 -8 -13 -9 -40 -5 -25 4 -40 2 -40 -4 0 -5 -6 -10 -14 -10
-36 0 17 218 89 365 40 83 111 182 122 171 3 -2 -14 -28 -38 -58z m2676 12 c4
-6 21 -8 40 -4 38 7 42 0 47 -81 2 -38 -1 -50 -12 -51 -8 0 -22 -4 -32 -8 -9
-4 -31 -6 -48 -4 -31 3 -33 6 -50 71 -17 68 -17 69 4 77 29 12 44 12 51 0z
m3064 1 l24 -6 -24 -28 c-27 -31 -44 -26 -54 16 -8 29 3 33 54 18z m-4432 -83
c81 -78 143 -164 188 -261 35 -76 47 -87 93 -87 32 0 46 -9 55 -32 6 -16 0
-18 -45 -18 -33 0 -58 -6 -69 -16 -14 -13 -27 -14 -61 -8 -48 9 -46 9 -114 0
-35 -5 -45 -4 -34 3 8 6 24 11 34 11 25 0 56 28 56 51 0 10 -12 43 -27 73
l-27 55 -43 -26 c-51 -30 -61 -10 -13 25 36 27 37 39 7 72 -68 76 -107 140
-84 140 7 0 4 7 -7 15 -11 9 -15 18 -10 27 5 7 9 16 10 21 3 16 4 17 15 17 6
0 40 -28 76 -62z m-1289 15 c-57 -115 -87 -182 -112 -251 -17 -46 -35 -82 -41
-81 -31 12 77 301 122 328 21 12 36 14 31 4z m5657 -3 c3 -5 1 -10 -4 -10 -6
0 -11 5 -11 10 0 6 2 10 4 10 3 0 8 -4 11 -10z m-2653 -37 c16 -3 35 0 43 7 8
7 22 9 31 6 14 -5 15 -15 10 -59 -4 -28 -14 -57 -22 -64 -11 -8 -14 -20 -9
-41 5 -26 2 -31 -25 -42 -17 -7 -34 -20 -39 -29 -8 -14 -12 -14 -31 4 -15 13
-19 26 -15 45 3 14 -1 53 -8 86 -16 69 -8 110 21 99 9 -3 29 -9 44 -12z
m-1802 -112 c8 -16 6 -23 -12 -35 -29 -21 -39 -12 -26 24 12 35 23 38 38 11z
m1498 -9 c3 -10 -4 -13 -24 -10 -15 2 -29 9 -32 16 -3 10 4 13 24 10 15 -2 29
-9 32 -16z m180 -18 c12 -8 22 -22 22 -31 0 -21 -29 -53 -48 -53 -22 0 -52 30
-52 51 0 16 34 49 50 49 3 0 16 -7 28 -16z m440 -141 c-21 -20 -40 -34 -44
-30 -8 8 50 67 68 67 7 0 -4 -17 -24 -37z m-583 7 c-3 -5 -23 -9 -43 -9 l-37
1 30 8 c44 11 57 11 50 0z m-1755 -20 c12 -8 9 -10 -13 -10 -16 0 -26 4 -22
10 8 12 16 12 35 0z m35 -45 c25 -24 32 -44 18 -46 -5 0 -18 -2 -31 -5 -12 -2
-34 3 -47 12 -24 15 -25 15 -35 -7 l-10 -24 3 25 c1 17 8 25 22 26 59 3 61 4
43 15 -10 5 -18 14 -18 19 0 18 31 10 55 -15z m-105 0 c-7 -9 -15 -13 -17 -11
-7 7 7 26 19 26 6 0 6 -6 -2 -15z m-1058 -147 c2 -51 3 -94 3 -95 0 0 -18 -4
-40 -7 -22 -3 -32 -3 -22 0 14 5 17 18 17 77 0 84 7 117 25 117 10 0 14 -24
17 -92z m2878 -23 c0 -8 -7 -15 -15 -15 -16 0 -20 12 -8 23 11 12 23 8 23 -8z
m740 -105 c0 -13 -29 -32 -39 -26 -7 5 -8 29 -2 43 3 5 41 -11 41 -17z m2664
-2 c-21 -70 -26 -76 -52 -59 -10 6 -11 13 -4 27 6 11 13 27 16 37 3 9 15 17
26 17 18 0 20 -4 14 -22z m-2705 -133 c1 -5 -4 -3 -10 5 -8 12 -9 8 -7 -14 2
-17 -2 -31 -9 -33 -16 -6 -18 43 -3 52 6 4 8 16 5 28 -5 19 -4 19 9 -3 9 -14
15 -29 15 -35z m1085 40 c-8 -20 -42 -28 -98 -22 -25 3 -48 2 -51 -3 -9 -15
-285 -33 -285 -19 0 15 80 26 385 52 22 2 43 4 47 5 4 1 5 -5 2 -13z m1175 -9
c-12 -10 -60 -16 -54 -6 3 5 18 10 32 10 15 0 24 -2 22 -4z m-149 -26 c0 -5
-5 -10 -11 -10 -5 0 -7 5 -4 10 3 6 8 10 11 10 2 0 4 -4 4 -10z m760 6 c0 -2
-8 -10 -17 -17 -16 -13 -17 -12 -4 4 13 16 21 21 21 13z m-2237 -27 c-8 -8
-16 -8 -30 0 -16 9 -14 10 12 11 21 0 26 -3 18 -11z m370 4 c-7 -2 -19 -2 -25
0 -7 3 -2 5 12 5 14 0 19 -2 13 -5z m1017 -3 c-20 -13 -73 -13 -65 0 3 6 23
10 43 10 28 0 33 -3 22 -10z m-950 -19 c0 -5 -12 -12 -27 -14 -26 -4 -26 -4 5
-6 17 0 32 -5 32 -11 0 -5 -52 -11 -122 -13 l-123 -3 133 -2 c91 -1 132 -6
132 -13 0 -8 -16 -10 -53 -6 -28 4 -207 10 -397 14 -190 4 -334 9 -320 10 14
2 151 7 305 13 154 6 312 16 350 24 39 8 73 14 78 15 4 0 7 -3 7 -8z m966 -23
c-7 -34 -7 -35 -15 -13 -5 12 -4 23 3 27 16 11 16 10 12 -14z m5814 -9 c0 -22
-21 -22 -28 1 -3 7 0 10 7 6 6 -4 11 -2 11 3 0 6 2 11 5 11 3 0 5 -9 5 -21z
m-6523 -15 c-3 -3 -12 -4 -19 -1 -8 3 -5 6 6 6 11 1 17 -2 13 -5z m525 -23
c64 -12 124 -24 132 -27 16 -6 23 -34 9 -34 -27 0 -355 60 -365 67 -7 4 -62
11 -123 14 -83 5 -69 6 60 3 116 -2 207 -9 287 -23z m-2197 -12 c15 -14 -37
-10 -70 6 l-30 15 45 -6 c25 -3 49 -10 55 -15z m338 14 c-7 -2 -21 -2 -30 0
-10 3 -4 5 12 5 17 0 24 -2 18 -5z m7837 -30 c-11 -17 -11 -17 -6 0 3 10 6 24
7 30 0 9 2 9 5 0 3 -7 0 -20 -6 -30z m-8782 0 c46 5 47 5 18 -10 -33 -17 -64
-12 -97 17 l-24 21 28 -17 c20 -12 40 -15 75 -11z m817 -34 c-60 -10 -182 -28
-270 -39 -88 -11 -209 -27 -270 -35 -134 -18 -125 -18 -125 -2 0 7 18 13 48
15 112 6 483 52 567 71 22 5 67 9 100 9 56 0 52 -2 -50 -19z m-1428 -58 c2
-22 -22 -31 -87 -31 -34 0 -48 5 -57 19 -16 26 -6 29 77 30 58 1 66 -1 67 -18z
m-2022 -17 c11 -3 40 -39 65 -81 52 -88 193 -241 289 -313 36 -28 111 -72 166
-100 104 -51 253 -98 264 -83 7 10 441 11 441 1 0 -13 29 -9 114 17 95 29 211
87 308 153 38 26 80 53 92 59 28 16 208 64 214 58 11 -10 -181 -185 -258 -237
-225 -148 -423 -208 -692 -208 -213 0 -371 36 -553 127 -226 113 -417 301
-545 536 l-42 77 59 0 c32 0 67 -3 78 -6z m109 -59 c9 -14 13 -25 8 -25 -5 0
-14 11 -20 25 -6 14 -10 25 -8 25 2 0 11 -11 20 -25z m1886 5 c0 -5 -13 -10
-29 -10 -17 0 -33 5 -36 10 -4 6 8 10 29 10 20 0 36 -4 36 -10z m-384 -337
c-1 -12 -39 -37 -106 -70 -57 -29 -109 -53 -114 -53 -6 0 40 25 102 56 62 31
111 58 109 61 -3 2 -38 -12 -78 -33 -119 -59 -201 -87 -210 -72 -9 14 15 38
38 38 8 0 35 10 61 21 53 25 171 67 189 68 6 1 10 -7 9 -16z m-330 -96 c10
-30 14 -32 54 -30 55 3 49 -2 -30 -22 -44 -11 -66 -13 -68 -6 -2 7 -40 11
-103 11 -113 0 -132 15 -31 25 98 9 110 13 118 38 15 48 40 41 60 -16z m-721
23 c3 -6 -1 -7 -9 -4 -18 7 -21 14 -7 14 6 0 13 -4 16 -10z m374 -43 c72 -16
78 -34 9 -30 -82 5 -138 13 -138 22 0 24 41 26 129 8z"/>
<path d="M9328 5533 c-16 -2 -28 -11 -28 -19 0 -21 38 -17 50 6 6 11 9 19 8
19 -2 -1 -15 -4 -30 -6z"/>
<path d="M8765 5580 c3 -5 8 -10 11 -10 2 0 4 5 4 10 0 6 -5 10 -11 10 -5 0
-7 -4 -4 -10z"/>
<path d="M8380 5340 c0 -5 5 -10 11 -10 5 0 7 5 4 10 -3 6 -8 10 -11 10 -2 0
-4 -4 -4 -10z"/>
<path d="M8510 5096 c0 -2 8 -10 18 -17 15 -13 16 -12 3 4 -13 16 -21 21 -21
13z"/>
<path d="M8475 4510 c-3 -6 1 -7 9 -4 18 7 21 14 7 14 -6 0 -13 -4 -16 -10z"/>
<path d="M7530 4229 c0 -5 9 -9 20 -9 11 0 20 2 20 4 0 2 -9 6 -20 9 -11 3
-20 1 -20 -4z"/>
<path d="M8140 3996 c0 -3 9 -10 20 -16 11 -6 20 -8 20 -6 0 3 -9 10 -20 16
-11 6 -20 8 -20 6z"/>
<path d="M8009 3665 c18 -8 36 -15 40 -15 13 1 -45 29 -59 29 -8 0 0 -6 19
-14z"/>
<path d="M6278 4158 c-27 -6 -48 -14 -48 -20 0 -5 8 -7 19 -3 10 3 38 12 62
19 51 16 35 18 -33 4z"/>
<path d="M5744 3916 c-62 -42 -84 -63 -99 -95 -10 -23 -34 -54 -52 -69 -28
-22 -34 -32 -29 -53 9 -48 67 -159 82 -159 20 0 29 -27 14 -45 -11 -13 -8 -15
21 -15 l32 0 -23 -25 -23 -25 31 0 c37 0 40 -10 12 -35 -11 -10 -19 -20 -17
-22 2 -2 46 17 98 41 52 25 86 45 75 46 -12 0 -16 5 -12 15 7 19 7 19 -69 -11
-36 -15 -68 -24 -70 -22 -3 3 27 18 65 33 70 28 95 45 66 45 -8 0 -16 5 -18
11 -2 7 -29 1 -72 -15 -38 -15 -71 -24 -73 -22 -5 4 66 38 105 51 13 3 20 14
19 25 -2 24 -7 24 -54 5 -19 -8 -42 -15 -49 -15 -15 0 -70 108 -80 157 -4 21
1 44 19 79 29 58 50 77 137 132 36 23 60 42 55 42 -6 0 -46 -24 -91 -54z"/>
<path d="M5745 3950 c-8 -13 5 -13 25 0 13 8 13 10 -2 10 -9 0 -20 -4 -23 -10z"/>
<path d="M6656 2721 c-8 -12 21 -61 35 -61 5 0 3 10 -5 23 -8 12 -15 26 -15
30 1 14 -9 19 -15 8z"/>
<path d="M6593 2699 c-45 -13 -42 -21 5 -14 l37 6 -40 -20 c-47 -23 -40 -27
10 -7 25 11 33 19 29 30 -3 9 -7 16 -8 15 0 0 -16 -5 -33 -10z"/>
<path d="M7350 3337 c-15 -7 -118 -14 -265 -17 l-240 -6 226 -2 c215 -2 275 4
304 29 12 11 6 10 -25 -4z"/>
<path d="M6375 3220 c10 -16 95 -57 166 -79 102 -33 232 -51 394 -56 l150 -4
-170 13 c-246 19 -428 61 -506 117 -30 21 -44 25 -34 9z"/>
<path d="M7145 3090 c-26 -7 -22 -8 23 -9 29 0 52 3 52 9 0 11 -31 11 -75 0z"/>
<path d="M7741 3684 c0 -11 3 -14 6 -6 3 7 2 16 -1 19 -3 4 -6 -2 -5 -13z"/>
<path d="M3341 3766 c2 -2 22 -6 44 -9 27 -4 35 -3 25 3 -14 9 -79 15 -69 6z"/>
<path d="M3030 3668 c-30 -46 -33 -51 -22 -44 17 10 55 66 45 66 -4 0 -15 -10
-23 -22z"/>
<path d="M3224 3665 c11 -8 22 -12 25 -9 6 6 -19 24 -34 24 -5 -1 -1 -7 9 -15z"/>
<path d="M3069 3621 c-38 -39 -38 -78 -1 -114 34 -33 80 -35 113 -7 13 10 19
19 13 20 -6 0 -17 -7 -24 -15 -32 -38 -120 7 -120 62 0 30 42 73 70 73 45 0
77 -76 48 -110 -7 -8 -1 -4 15 9 15 14 27 31 27 39 0 24 -57 72 -85 72 -16 0
-38 -12 -56 -29z"/>
<path d="M1790 3628 c19 -5 40 -14 45 -19 7 -7 4 -8 -9 -3 -17 6 -17 5 -6 -17
13 -23 13 -23 21 -4 4 11 8 23 8 27 1 8 -57 28 -78 27 -9 0 0 -5 19 -11z"/>
<path d="M2500 3620 c0 -5 5 -10 11 -10 5 0 7 5 4 10 -3 6 -8 10 -11 10 -2 0
-4 -4 -4 -10z"/>
<path d="M1790 3595 c0 -8 4 -15 10 -15 5 0 7 7 4 15 -4 8 -8 15 -10 15 -2 0
-4 -7 -4 -15z"/>
<path d="M1724 3580 c0 -23 12 -26 31 -6 16 15 10 26 -15 26 -9 0 -16 -8 -16
-20z"/>
<path d="M1896 3578 c-4 -15 -9 -19 -14 -11 -5 8 -11 4 -19 -13 -6 -13 -10
-24 -8 -24 8 0 96 53 100 61 4 5 -7 9 -23 9 -22 0 -31 -6 -36 -22z"/>
<path d="M1370 3569 c-19 -4 19 -6 85 -6 120 0 124 4 10 9 -33 2 -76 0 -95 -3z"/>
<path d="M4663 3643 c15 -2 39 -2 55 0 15 2 2 4 -28 4 -30 0 -43 -2 -27 -4z"/>
<path d="M8090 3512 c8 -5 26 -13 40 -16 17 -5 20 -4 10 2 -8 5 -26 13 -40 16
-17 5 -20 4 -10 -2z"/>
<path d="M8540 3379 c0 -5 5 -7 10 -4 6 3 10 8 10 11 0 2 -4 4 -10 4 -5 0 -10
-5 -10 -11z"/>
<path d="M8517 3283 c-4 -3 -7 -11 -7 -17 0 -6 5 -5 12 2 6 6 9 14 7 17 -3 3
-9 2 -12 -2z"/>
<path d="M8091 1954 c0 -11 3 -14 6 -6 3 7 2 16 -1 19 -3 4 -6 -2 -5 -13z"/>
<path d="M5595 2554 c-88 -75 -211 -181 -275 -238 -547 -485 -631 -556 -706
-601 -112 -68 -146 -73 -521 -85 -223 -7 -341 -14 -348 -21 -12 -14 531 -5
655 10 97 12 175 42 260 99 65 44 747 632 982 846 87 80 131 128 115 126 -1 0
-74 -61 -162 -136z"/>
<path d="M7996 2485 c-9 -26 -7 -32 5 -12 6 10 9 21 6 23 -2 3 -7 -2 -11 -11z"/>
<path d="M2391 2442 c-7 -14 -17 -18 -31 -15 -11 3 -20 0 -20 -6 0 -6 9 -11
19 -11 11 0 26 -3 34 -6 9 -3 17 3 20 18 8 30 -8 46 -22 20z"/>
<path d="M2350 2371 c0 -5 -10 -12 -22 -15 -19 -5 -20 -8 -8 -15 8 -5 24 -11
36 -15 18 -6 20 -3 16 24 -4 26 -22 44 -22 21z"/>
<path d="M2121 2349 c-24 -5 -45 -10 -47 -12 -2 -2 12 -38 31 -80 33 -70 43
-107 30 -107 -4 0 -19 7 -35 15 -28 14 -31 14 -63 -14 l-33 -30 -32 21 c-36
22 -36 23 22 86 18 19 24 31 14 27 -9 -4 -30 1 -47 10 -24 12 -36 13 -52 5
-19 -11 -20 -12 -3 -24 9 -7 14 -18 10 -24 -10 -16 -27 -15 -40 3 -9 12 -16
10 -45 -14 l-33 -27 28 -31 c16 -17 43 -48 61 -68 24 -28 37 -35 52 -30 20 6
61 -24 61 -45 0 -22 -85 4 -121 36 -9 8 -31 17 -49 19 -45 6 -73 33 -65 63 4
15 2 21 -5 17 -18 -11 -11 -54 13 -69 12 -8 68 -33 124 -56 l102 -41 78 41
c43 22 83 40 89 40 21 0 53 46 63 90 16 70 14 90 -9 90 -18 0 -60 51 -60 73 0
4 20 7 45 7 47 0 58 12 26 30 -22 12 -48 11 -110 -1z m-41 -229 c0 -5 -4 -10
-10 -10 -5 0 -10 5 -10 10 0 6 5 10 10 10 6 0 10 -4 10 -10z"/>
<path d="M6541 2349 c-1 -23 33 -51 53 -43 9 3 22 16 28 28 11 20 10 20 -9 4
-27 -24 -48 -22 -61 5 -7 15 -11 17 -11 6z"/>
<path d="M1970 2315 c-20 -24 -6 -28 15 -5 10 11 13 20 8 20 -6 0 -16 -7 -23
-15z"/>
<path d="M2280 2315 c0 -8 5 -15 10 -15 6 0 10 7 10 15 0 8 -4 15 -10 15 -5 0
-10 -7 -10 -15z"/>
<path d="M6718 2308 c8 -8 17 -8 34 0 22 10 21 11 -11 11 -27 1 -32 -2 -23
-11z"/>
<path d="M6695 2290 c3 -5 2 -10 -4 -10 -6 0 -8 -7 -4 -15 5 -14 8 -14 24 1
15 14 17 19 7 26 -18 11 -30 10 -23 -2z"/>
<path d="M7678 2258 c-3 -7 -13 -13 -23 -13 -24 0 -28 -15 -11 -38 13 -17 16
-17 45 -3 38 20 62 21 55 1 -4 -8 -10 -13 -14 -10 -4 3 -15 -6 -24 -20 -16
-24 -16 -26 9 -37 21 -9 28 -8 47 8 19 17 21 17 15 2 -10 -27 8 -22 27 7 19
29 14 45 -13 45 -10 0 -35 16 -55 35 -40 38 -52 42 -58 23z"/>
<path d="M6427 2212 c-20 -22 -22 -43 -5 -60 18 -18 43 -15 63 8 17 18 17 21
1 45 -20 30 -37 32 -59 7z m53 -27 c0 -30 -30 -42 -48 -18 -11 16 -10 20 9 35
25 21 39 15 39 -17z"/>
<path d="M1495 2209 c-4 -6 -5 -12 -2 -15 2 -3 7 2 10 11 7 17 1 20 -8 4z"/>
<path d="M6632 2160 c0 -14 2 -19 5 -12 2 6 2 18 0 25 -3 6 -5 1 -5 -13z"/>
<path d="M6058 2164 c-22 -21 9 -65 45 -63 20 0 19 2 -5 10 -18 7 -28 19 -30
36 -2 14 -6 21 -10 17z"/>
<path d="M7856 2126 l-6 -33 -52 9 c-29 5 -62 14 -73 19 -19 10 -19 9 -1 -5
17 -14 98 -36 131 -36 11 0 15 12 15 40 0 49 -6 51 -14 6z"/>
<path d="M7140 2111 c0 -6 5 -13 10 -16 6 -3 10 1 10 9 0 9 -4 16 -10 16 -5 0
-10 -4 -10 -9z"/>
<path d="M1580 2050 c0 -5 5 -10 11 -10 5 0 7 5 4 10 -3 6 -8 10 -11 10 -2 0
-4 -4 -4 -10z"/>
<path d="M7146 2025 c-3 -8 -1 -15 4 -15 6 0 10 7 10 15 0 8 -2 15 -4 15 -2 0
-6 -7 -10 -15z"/>
<path d="M6615 1952 c2 -37 -1 -73 -7 -79 -8 -10 -5 -13 12 -13 20 0 21 3 15
43 -5 39 -5 41 9 22 37 -48 74 -78 133 -107 68 -33 81 -35 188 -23 71 8 111
28 110 55 0 8 21 36 48 61 49 47 54 72 17 82 -13 3 -21 -1 -25 -14 -7 -22 -80
-100 -87 -93 -3 2 -24 -3 -48 -11 -113 -40 -243 10 -307 118 -4 8 -20 17 -35
20 l-26 7 3 -68z m75 -3 c0 -6 -4 -7 -10 -4 -5 3 -10 11 -10 16 0 6 5 7 10 4
6 -3 10 -11 10 -16z m210 -119 c0 -13 -7 -20 -19 -20 -14 0 -18 5 -14 20 3 11
12 20 19 20 8 0 14 -9 14 -20z"/>
<path d="M7772 1938 c-13 -13 -16 -54 -4 -62 4 -2 8 8 7 22 0 24 3 27 33 25
27 -1 31 1 21 13 -14 17 -41 18 -57 2z"/>
<path d="M5206 1924 c-4 -10 -1 -14 6 -12 15 5 23 28 10 28 -5 0 -13 -7 -16
-16z"/>
<path d="M5264 1894 c-17 -18 -27 -34 -22 -34 11 0 58 50 58 61 0 13 -2 11
-36 -27z"/>
<path d="M1650 1900 c0 -5 6 -10 14 -10 7 0 29 -2 47 -5 l34 -5 -30 14 c-35
18 -65 20 -65 6z"/>
<path d="M2239 1862 c-13 -11 -31 -22 -39 -25 -8 -3 -1 -6 17 -6 23 -1 36 5
43 20 16 29 8 33 -21 11z"/>
<path d="M1505 1830 c4 -6 11 -8 16 -5 14 9 11 15 -7 15 -8 0 -12 -5 -9 -10z"/>
<path d="M7375 1790 c-17 -18 -17 -21 -1 -45 20 -30 37 -32 59 -7 20 22 22 43
5 60 -18 18 -43 15 -63 -8z m55 -6 c11 -12 10 -18 -3 -31 -8 -9 -23 -13 -31
-10 -19 8 -21 43 -3 50 20 9 24 8 37 -9z"/>
<path d="M6553 1783 c-13 -9 -23 -23 -23 -32 0 -12 5 -10 19 8 21 28 51 23 51
-9 0 -21 15 -27 25 -10 7 12 -10 37 -34 49 -10 6 -24 3 -38 -6z"/>
<path d="M1865 1770 c10 -11 27 -20 37 -20 16 0 17 3 8 20 -7 12 -21 20 -37
20 -25 0 -26 0 -8 -20z"/>
<path d="M7555 1738 l-50 -53 53 50 c48 46 57 55 49 55 -1 0 -25 -24 -52 -52z"/>
<path d="M6198 1753 c7 -3 16 -2 19 1 4 3 -2 6 -13 5 -11 0 -14 -3 -6 -6z"/>
<path d="M5783 1593 c9 -2 23 -2 30 0 6 3 -1 5 -18 5 -16 0 -22 -2 -12 -5z"/>
<path d="M2216 1272 c-6 -10 -46 -167 -46 -181 0 -6 7 -11 17 -11 9 0 14 3 11
6 -10 9 8 59 21 59 14 0 62 120 53 130 -8 8 -50 6 -56 -3z"/>
<path d="M2335 1270 c3 -5 10 -10 16 -10 5 0 9 5 9 10 0 6 -7 10 -16 10 -8 0
-12 -4 -9 -10z"/>
<path d="M1891 1214 c0 -11 3 -14 6 -6 3 7 2 16 -1 19 -3 4 -6 -2 -5 -13z"/>
<path d="M1936 2836 c-19 -9 -24 -15 -15 -18 8 -3 26 1 42 9 48 24 26 32 -27
9z"/>
<path d="M7396 2905 c-3 -9 -6 -22 -5 -28 0 -7 5 -1 10 12 5 13 8 26 5 28 -2
2 -6 -3 -10 -12z"/>
<path d="M2750 2221 c0 -6 5 -13 10 -16 6 -3 10 1 10 9 0 9 -4 16 -10 16 -5 0
-10 -4 -10 -9z"/>
<path d="M2860 2099 c0 -5 5 -7 10 -4 6 3 10 8 10 11 0 2 -4 4 -10 4 -5 0 -10
-5 -10 -11z"/>
<path d="M2875 2078 c-8 -21 21 -78 40 -78 20 0 19 8 -9 55 -19 31 -26 36 -31
23z"/>
<path d="M2920 1917 c0 -20 5 -27 20 -27 11 0 20 4 20 8 0 5 -9 17 -20 27 -20
18 -20 17 -20 -8z"/>
<path d="M4310 2126 c0 -2 7 -9 15 -16 9 -7 15 -8 15 -2 0 5 -7 12 -15 16 -8
3 -15 4 -15 2z"/>
<path d="M6750 1395 c63 -12 116 -21 118 -20 8 7 -185 46 -217 44 -9 -1 36
-11 99 -24z"/>
<path d="M9258 5933 c7 -3 16 -2 19 1 4 3 -2 6 -13 5 -11 0 -14 -3 -6 -6z"/>
<path d="M8910 5908 c-61 -17 -53 -25 12 -12 100 20 105 22 63 22 -22 0 -56
-4 -75 -10z"/>
<path d="M8945 5850 c-84 -42 -151 -90 -125 -90 8 0 64 11 125 24 113 25 139
41 133 81 -5 33 -47 28 -133 -15z"/>
<path d="M8170 5749 c0 -11 5 -17 10 -14 6 3 10 13 10 21 0 8 -4 14 -10 14 -5
0 -10 -9 -10 -21z"/>
<path d="M9430 5423 c0 -5 5 -15 10 -23 8 -12 10 -11 10 8 0 12 -4 22 -10 22
-5 0 -10 -3 -10 -7z"/>
<path d="M9321 5209 c-7 -12 -10 -23 -8 -26 3 -3 11 5 17 17 15 28 8 35 -9 9z"/>
<path d="M9480 4644 c0 -23 57 -137 64 -126 4 7 -2 31 -12 54 -22 48 -51 89
-52 72z"/>
<path d="M9523 4477 c4 -10 71 -129 151 -265 79 -136 165 -284 191 -329 25
-46 51 -83 56 -83 16 0 10 33 -10 54 -11 12 -96 154 -191 316 -154 266 -216
362 -197 307z"/>
<path d="M9280 4471 c0 -5 5 -13 10 -16 6 -3 10 -2 10 4 0 5 -4 13 -10 16 -5
3 -10 2 -10 -4z"/>
<path d="M9974 3797 c16 -14 26 -30 21 -36 -9 -15 21 -61 40 -61 26 0 27 21 0
55 -14 19 -40 42 -58 50 l-32 16 29 -24z"/>
<path d="M4 3445 c-10 -53 1 -284 14 -297 7 -7 45 -10 96 -9 72 2 86 0 86 -13
0 -32 20 -14 49 42 16 31 62 107 102 167 41 61 77 115 81 121 6 9 -46 12 -192
13 -110 1 -206 4 -214 7 -11 4 -17 -5 -22 -31z m146 -115 c0 -5 -2 -10 -4 -10
-3 0 -8 5 -11 10 -3 6 -1 10 4 10 6 0 11 -4 11 -10z m140 -6 c0 -8 -5 -12 -10
-9 -6 4 -8 11 -5 16 9 14 15 11 15 -7z m-192 -21 c-10 -2 -28 -2 -40 0 -13 2
-5 4 17 4 22 1 32 -1 23 -4z m181 -53 c-12 -22 -25 -38 -27 -35 -5 4 37 75 44
75 3 0 -5 -18 -17 -40z"/>
<path d="M11218 3080 c20 -8 22 -14 16 -52 -3 -24 -13 -70 -21 -103 -20 -84
-173 -593 -189 -632 -8 -18 -14 -45 -13 -60 0 -25 1 -26 9 -8 10 24 192 646
214 731 26 102 19 136 -27 133 -7 0 -2 -4 11 -9z"/>
<path d="M10610 3074 c32 -9 73 -148 131 -443 18 -91 34 -160 37 -153 7 22
-96 505 -122 566 -11 27 -21 36 -38 35 -13 -1 -16 -3 -8 -5z"/>
<path d="M12330 3000 c0 -5 5 -10 11 -10 5 0 7 5 4 10 -3 6 -8 10 -11 10 -2 0
-4 -4 -4 -10z"/>
<path d="M10547 2930 c-9 -11 -13 -20 -8 -20 11 0 35 29 29 35 -2 2 -12 -4
-21 -15z"/>
<path d="M10490 2936 c0 -2 8 -10 18 -17 15 -13 16 -12 3 4 -13 16 -21 21 -21
13z"/>
<path d="M11742 2821 l32 -29 -32 -51 c-37 -60 -25 -58 19 2 l29 41 -32 33
c-17 18 -36 33 -40 33 -5 0 6 -13 24 -29z"/>
<path d="M10229 2795 c34 -56 59 -79 30 -27 -13 24 -30 49 -38 55 -8 7 -5 -6
8 -28z"/>
<path d="M10226 2744 c-4 -11 -14 -15 -31 -12 -13 3 -22 1 -19 -3 8 -14 40
-10 54 6 7 9 11 18 8 21 -3 3 -8 -3 -12 -12z"/>
<path d="M12491 2731 c-19 -12 -5 -31 22 -30 21 0 21 1 2 9 -19 8 -19 9 3 9
27 1 55 -25 81 -77 17 -34 51 -73 51 -59 0 3 -16 33 -36 67 -49 82 -85 105
-123 81z"/>
<path d="M10394 2704 c10 -26 352 -597 375 -625 21 -27 71 -42 103 -30 14 5 5
24 -51 121 -37 63 -84 145 -104 181 -35 64 -108 191 -178 311 l-34 58 -59 0
c-49 0 -57 -2 -52 -16z"/>
<path d="M11916 2640 c63 -75 85 -97 68 -67 -17 30 -117 147 -126 147 -5 0 21
-36 58 -80z"/>
<path d="M10322 2682 c2 -4 39 -66 84 -137 129 -206 320 -538 327 -566 4 -15
14 -29 22 -33 21 -8 6 20 -203 384 -188 328 -208 360 -224 360 -5 0 -8 -3 -6
-8z"/>
<path d="M10663 2663 c-21 -8 -15 -30 12 -51 15 -12 21 -23 15 -27 -17 -10
-11 -25 7 -18 13 5 15 2 11 -15 -4 -12 -2 -25 3 -28 12 -7 11 6 -2 83 -11 60
-17 68 -46 56z"/>
<path d="M12538 2663 c7 -3 16 -2 19 1 4 3 -2 6 -13 5 -11 0 -14 -3 -6 -6z"/>
<path d="M10181 2604 c-14 -18 -18 -30 -11 -34 7 -4 -6 -29 -32 -64 -47 -64
-60 -66 -127 -20 -67 45 -90 22 -37 -36 20 -22 36 -46 36 -53 0 -6 9 3 20 21
23 37 35 40 50 13 13 -26 3 -51 -21 -51 -13 0 -19 -7 -19 -25 0 -13 -7 -28
-16 -33 -24 -13 -7 -22 206 -105 285 -110 321 -120 334 -98 4 5 -4 7 -15 4
-19 -5 -21 -3 -17 18 3 13 8 31 12 40 5 11 -17 48 -64 112 -40 54 -73 97 -75
97 -2 0 0 -14 6 -32 8 -29 16 -38 44 -53 6 -3 5 -7 -2 -11 -7 -3 -28 -18 -49
-34 -20 -17 -40 -27 -45 -24 -5 3 -9 -2 -9 -11 0 -14 -3 -14 -37 1 -33 13
-121 34 -160 36 -20 2 -15 18 5 18 9 0 50 -9 91 -20 58 -15 71 -16 60 -4 -8 7
-38 20 -67 26 -49 12 -52 14 -52 45 0 31 1 31 32 22 18 -5 34 -9 34 -9 1 0 0
-9 -3 -19 -4 -15 5 -24 38 -40 57 -28 63 -26 14 4 l-40 25 43 0 c35 0 42 3 42
19 0 28 -17 35 -25 11 -8 -25 -40 -21 -61 9 -11 15 -22 20 -35 16 -23 -8 -24
1 -4 21 8 9 15 21 15 27 0 6 -7 1 -16 -11 -18 -26 -36 -28 -54 -7 -17 21 3 43
36 39 21 -2 23 0 13 12 -24 29 -69 9 -69 -31 0 -12 5 -26 12 -33 9 -9 9 -12 0
-12 -27 0 -46 100 -22 115 5 3 7 0 4 -9 -5 -12 1 -14 29 -9 29 4 44 -1 82 -27
44 -30 73 -38 40 -10 -13 11 -12 15 5 38 25 32 19 39 -14 17 -24 -16 -28 -16
-51 -1 -14 9 -25 25 -25 36 0 18 3 19 20 8 23 -15 46 1 37 26 -11 28 -42 18
-66 -21 -16 -27 -20 -31 -15 -13 14 53 24 70 39 70 21 0 15 34 -6 38 -9 2 -26
-9 -38 -24z m69 -54 c0 -5 -4 -10 -10 -10 -5 0 -10 5 -10 10 0 6 5 10 10 10 6
0 10 -4 10 -10z m238 -296 c-4 -3 -12 5 -18 18 -12 22 -12 22 6 6 10 -10 15
-20 12 -24z m-33 16 c3 -5 -1 -10 -10 -10 -9 0 -13 5 -10 10 3 6 8 10 10 10 2
0 7 -4 10 -10z"/>
<path d="M10335 2600 c10 -11 20 -20 23 -20 3 0 -3 9 -13 20 -10 11 -20 20
-23 20 -3 0 3 -9 13 -20z"/>
<path d="M12565 2543 c8 -32 35 -61 52 -56 7 3 22 -1 33 -7 12 -6 24 -9 27 -6
11 10 -17 34 -47 40 -19 3 -35 15 -42 31 -15 34 -32 32 -23 -2z"/>
<path d="M10334 2443 c1 -35 3 -38 35 -41 l33 -3 -33 40 c-18 23 -33 41 -34
41 -1 0 -2 -17 -1 -37z"/>
<path d="M10433 2453 c46 -83 119 -203 123 -203 3 0 -3 15 -14 33 -11 17 -38
65 -62 105 -23 39 -44 72 -47 72 -2 0 -2 -3 0 -7z"/>
<path d="M10782 2440 c0 -14 2 -19 5 -12 2 6 2 18 0 25 -3 6 -5 1 -5 -13z"/>
<path d="M9840 2425 c0 -9 11 -27 24 -40 28 -28 106 -69 106 -56 0 11 -108
111 -121 111 -5 0 -9 -7 -9 -15z"/>
<path d="M12070 2413 c0 -4 5 -15 10 -23 8 -13 10 -13 10 2 0 9 -4 20 -10 23
-5 3 -10 3 -10 -2z"/>
<path d="M9782 2388 c2 -6 15 -18 29 -27 l24 -15 -24 27 c-26 29 -35 34 -29
15z"/>
<path d="M10892 2358 c24 -71 57 -78 87 -19 l20 39 -22 6 c-12 3 -39 6 -59 6
l-37 0 11 -32z"/>
<path d="M12642 2356 c3 -4 21 -15 39 -24 38 -20 43 -28 65 -107 10 -33 19
-55 21 -48 6 17 -35 149 -51 162 -15 12 -85 28 -74 17z"/>
<path d="M12105 2325 c7 -33 12 -41 21 -33 3 4 -2 19 -11 35 l-16 28 6 -30z"/>
<path d="M9873 2326 c10 -8 167 -78 350 -156 183 -78 342 -149 355 -156 75
-47 79 -48 45 -18 -25 23 -30 33 -23 50 5 12 13 25 19 29 6 3 11 11 11 18 0 6
-12 -4 -28 -22 l-27 -33 -90 35 c-113 44 -567 237 -580 247 -5 4 -19 10 -30
13 -19 7 -19 6 -2 -7z"/>
<path d="M11135 2319 c-9 -14 0 -22 18 -17 13 2 13 5 2 15 -10 9 -16 9 -20 2z"/>
<path d="M9885 2220 c-9 -28 10 -48 56 -60 36 -10 38 -13 32 -40 -7 -37 13
-41 27 -5 25 67 25 69 -35 98 -66 32 -72 33 -80 7z"/>
<path d="M10570 2220 c6 -11 13 -20 16 -20 2 0 0 9 -6 20 -6 11 -13 20 -16 20
-2 0 0 -9 6 -20z"/>
<path d="M12136 2198 c4 -6 16 -36 26 -67 l19 -56 -6 55 c-6 53 -18 80 -37 80
-5 0 -6 -5 -2 -12z"/>
<path d="M11380 2160 c6 -11 13 -20 16 -20 2 0 0 9 -6 20 -6 11 -13 20 -16 20
-2 0 0 -9 6 -20z"/>
<path d="M11520 2135 c-8 -9 -8 -15 -2 -15 12 0 26 19 19 26 -2 2 -10 -2 -17
-11z"/>
<path d="M11300 2115 c0 -5 5 -17 10 -25 5 -8 10 -10 10 -5 0 6 -5 17 -10 25
-5 8 -10 11 -10 5z"/>
<path d="M10210 2090 c8 -5 20 -10 25 -10 6 0 3 5 -5 10 -8 5 -19 10 -25 10
-5 0 -3 -5 5 -10z"/>
<path d="M9950 2076 c0 -9 5 -16 10 -16 6 0 10 -4 10 -10 0 -5 -7 -7 -15 -4
-18 7 -19 0 -5 -27 9 -15 7 -19 -7 -19 -13 0 -11 -6 11 -29 17 -18 25 -34 21
-42 -14 -22 -14 -59 0 -59 7 0 15 -6 18 -12 8 -23 21 2 22 41 0 25 4 37 12 34
7 -3 12 15 15 54 5 73 3 80 -30 88 -15 3 -35 8 -44 11 -12 4 -18 0 -18 -10z"/>
<path d="M10291 2046 c-7 -8 -8 -16 -3 -18 5 -1 12 -33 15 -70 6 -66 6 -68
-17 -68 -19 0 -22 4 -18 25 3 19 0 25 -13 25 -12 0 -15 -5 -11 -16 10 -27 -83
-12 -106 16 -10 12 -18 18 -18 12 0 -19 52 -52 84 -53 25 -1 21 -4 -21 -13
-59 -13 -85 -30 -33 -22 19 3 63 8 97 11 52 5 161 43 126 45 -7 0 -13 7 -13
15 0 8 -9 15 -20 15 -23 0 -27 15 -5 24 8 3 21 -4 30 -17 12 -17 15 -18 15 -5
0 9 -4 20 -10 23 -5 3 -10 11 -10 17 0 7 5 7 14 -1 8 -6 17 -31 20 -55 l7 -44
33 10 c25 8 34 16 34 34 0 26 -14 40 -71 72 -46 27 -47 27 -47 3 0 -10 -7 -21
-15 -25 -12 -4 -15 3 -15 29 0 38 -12 51 -29 31z"/>
<path d="M10676 2037 c3 -10 9 -15 12 -12 3 3 0 11 -7 18 -10 9 -11 8 -5 -6z"/>
<path d="M11080 1985 c0 -8 4 -15 10 -15 5 0 7 7 4 15 -4 8 -8 15 -10 15 -2 0
-4 -7 -4 -15z"/>
<path d="M12740 1996 c0 -2 7 -7 16 -10 8 -3 12 -2 9 4 -6 10 -25 14 -25 6z"/>
<path d="M10761 1904 c0 -11 3 -14 6 -6 3 7 2 16 -1 19 -3 4 -6 -2 -5 -13z"/>
<path d="M12199 1918 c-5 -17 -4 -90 2 -117 5 -27 7 -17 8 42 0 42 -1 77 -4
77 -3 0 -5 -1 -6 -2z"/>
<path d="M10790 1894 c0 -6 7 -19 15 -30 8 -10 14 -14 14 -9 0 6 -6 19 -14 29
-8 11 -15 15 -15 10z"/>
<path d="M9641 1840 c-1 -43 15 -50 114 -49 l90 2 -82 8 c-92 9 -101 12 -113
43 -8 20 -9 20 -9 -4z"/>
<path d="M10385 1840 c-26 -4 0 -7 72 -6 61 1 106 4 100 8 -14 9 -117 8 -172
-2z"/>
<path d="M10130 1820 l-65 -7 60 0 c33 -1 85 2 115 7 l55 7 -50 0 c-27 0 -79
-3 -115 -7z"/>
<path d="M10740 1795 c27 -29 37 -27 20 4 -6 12 -18 21 -27 21 -13 0 -12 -5 7
-25z"/>
<path d="M11300 1810 c0 -5 12 -10 28 -10 21 0 24 2 12 10 -20 13 -40 13 -40
0z"/>
<path d="M10028 1803 c7 -3 16 -2 19 1 4 3 -2 6 -13 5 -11 0 -14 -3 -6 -6z"/>
<path d="M10976 1794 c-22 -21 -20 -47 4 -69 44 -40 107 25 69 71 -15 19 -54
18 -73 -2z"/>
<path d="M10820 1765 c0 -5 9 -21 20 -35 11 -14 20 -20 20 -15 0 6 -9 21 -20
35 -11 14 -20 21 -20 15z"/>
<path d="M10400 1739 c0 -19 21 -50 30 -44 15 9 22 -15 10 -30 -20 -25 5 -17
29 8 l22 24 -40 26 c-45 30 -51 32 -51 16z"/>
<path d="M10558 1663 c7 -3 16 -2 19 1 4 3 -2 6 -13 5 -11 0 -14 -3 -6 -6z"/>
<path d="M12152 1563 l-1 -48 15 34 c15 33 13 61 -4 61 -4 0 -9 -21 -10 -47z"/>
<path d="M11490 1580 c-9 -6 -10 -10 -3 -10 6 0 15 5 18 10 8 12 4 12 -15 0z"/>
<path d="M10550 1541 c0 -6 5 -13 10 -16 6 -3 10 -1 10 5 0 8 6 8 20 0 16 -9
20 -8 20 5 0 10 -10 15 -30 15 -16 0 -30 -4 -30 -9z"/>
<path d="M10690 1525 c-19 -23 -8 -26 20 -5 19 15 21 20 9 20 -9 0 -22 -7 -29
-15z"/>
<path d="M11230 1469 c-22 -18 -22 -19 -3 -10 12 6 25 16 28 21 9 15 3 12 -25
-11z"/>
<path d="M9731 1395 c0 -5 6 -21 14 -35 8 -14 14 -20 14 -15 0 6 -6 21 -14 35
-8 14 -14 21 -14 15z"/>
<path d="M10390 1390 c-9 -6 -10 -10 -3 -10 6 0 15 5 18 10 8 12 4 12 -15 0z"/>
<path d="M11345 1390 c-3 -6 1 -7 9 -4 18 7 21 14 7 14 -6 0 -13 -4 -16 -10z"/>
<path d="M6631 1326 c2 -2 42 -6 89 -9 48 -3 76 -1 65 3 -19 8 -163 14 -154 6z"/>
<path d="M9770 1307 c0 -15 45 -87 55 -86 6 0 30 11 55 25 43 24 39 24 -24 1
-25 -9 -32 -7 -42 9 -26 38 -43 59 -44 51z"/>
<path d="M8012 1229 c-79 -51 -233 -99 -314 -99 -41 0 -57 -3 -52 -11 4 -8 -1
-9 -17 -3 -13 5 -159 8 -324 6 -343 -4 -385 0 -393 31 -6 22 -6 22 -12 -2 -5
-21 -16 -26 -95 -43 -50 -10 -146 -33 -215 -52 -135 -37 -89 -34 -699 -51
-102 -3 -147 -8 -153 -17 -6 -10 -10 -10 -16 -1 -6 9 -38 11 -122 7 -145 -6
-140 -6 -140 -16 0 -4 -39 -7 -87 -6 l-88 2 78 3 c42 2 77 7 77 11 0 4 -159 6
-352 4 -296 -3 -393 0 -599 18 -135 12 -258 20 -275 18 -37 -4 456 -49 641
-58 99 -5 120 -8 70 -9 -52 -2 -64 -5 -45 -11 14 -4 159 -8 323 -9 256 -1 301
-3 322 -17 36 -24 116 -21 160 5 35 20 49 21 324 21 206 0 290 -3 299 -12 6
-6 42 -12 81 -12 52 -1 73 3 88 17 17 15 43 17 199 17 234 1 307 10 390 49 52
24 80 31 128 31 l62 0 -4 36 c-4 35 -3 37 19 31 13 -4 28 -7 33 -7 5 0 3 -7
-4 -15 -11 -13 -15 -13 -21 -3 -6 9 -9 5 -9 -12 0 -25 2 -25 84 -27 46 -1 93
-6 105 -12 28 -15 163 -13 242 3 77 17 169 60 254 121 53 38 137 115 124 115
-2 0 -32 -19 -67 -41z m-918 -126 c38 -6 38 -6 15 -19 -30 -17 -91 -18 -107
-2 -6 6 -15 9 -18 5 -12 -12 65 -38 93 -31 18 5 24 4 19 -5 -15 -23 -126 0
-126 27 0 29 45 38 124 25z m440 -24 c-8 -14 -34 -11 -34 4 0 8 3 17 7 20 9 9
34 -13 27 -24z m-147 15 c-3 -3 -12 -4 -19 -1 -8 3 -5 6 6 6 11 1 17 -2 13 -5z
m-922 -108 c18 -13 18 -14 -3 -25 -32 -17 -132 -15 -132 4 0 9 14 16 38 20 20
4 42 8 47 10 20 7 32 5 50 -9z m-798 -25 c2 -16 -7 -20 -59 -25 -57 -7 -63 -6
-85 18 l-23 25 77 3 c43 2 80 2 82 0 3 -1 6 -11 8 -21z m271 22 c-10 -2 -26
-2 -35 0 -10 3 -2 5 17 5 19 0 27 -2 18 -5z"/>
<path d="M11880 1084 c11 -18 9 -26 -13 -59 -34 -50 -27 -57 12 -13 36 40 38
49 10 74 -22 19 -22 19 -9 -2z"/>
<path d="M4133 1033 c9 -2 23 -2 30 0 6 3 -1 5 -18 5 -16 0 -22 -2 -12 -5z"/>
<path d="M9975 1000 c10 -11 20 -20 23 -20 3 0 -3 9 -13 20 -10 11 -20 20 -23
20 -3 0 3 -9 13 -20z"/>
<path d="M11745 893 c-33 -30 -48 -46 -33 -35 42 30 101 83 97 87 -2 2 -31
-22 -64 -52z"/>
<path d="M10074 908 c69 -58 151 -118 163 -118 6 0 22 15 34 33 l23 32 -26
-23 c-25 -23 -27 -23 -59 -6 -19 9 -59 36 -89 59 -70 53 -97 67 -46 23z"/>
<path d="M11541 764 c-35 -19 -48 -21 -60 -12 -14 10 -14 10 0 -6 15 -16 19
-16 53 -2 45 19 86 47 66 45 -8 -1 -35 -12 -59 -25z"/>
<path d="M11401 739 c-1 -35 -3 -37 -71 -68 -38 -17 -70 -33 -70 -35 0 -10
152 47 156 59 3 7 1 28 -4 46 l-10 34 -1 -36z"/>
<path d="M10332 734 c40 -41 352 -133 449 -134 46 0 47 1 51 35 5 42 1 44 -13
9 -10 -27 -10 -27 -88 -20 -100 8 -171 27 -304 80 -60 24 -103 38 -95 30z"/>
<path d="M11150 620 l-25 -8 28 -1 c15 -1 27 4 27 9 0 6 -1 10 -2 9 -2 -1 -14
-5 -28 -9z"/>
<path d="M10900 600 c0 -12 125 -12 154 -1 11 4 -18 8 -68 9 -51 1 -86 -2 -86
-8z"/>
</g>
</svg>
