<?xml version="1.0" standalone="no"?>
<!DOCTYPE svg PUBLIC "-//W3C//DTD SVG 20010904//EN"
 "http://www.w3.org/TR/2001/REC-SVG-20010904/DTD/svg10.dtd">
<svg version="1.0" xmlns="http://www.w3.org/2000/svg"
 width="1280.000000pt" height="640.000000pt" viewBox="0 0 1280.000000 640.000000"
 preserveAspectRatio="xMidYMid meet">
<metadata>
Created by potrace 1.15, written by Peter Selinger 2001-2017
</metadata>
<g transform="translate(0.000000,640.000000) scale(0.100000,-0.100000)"
fill="#000000" stroke="none">
<path d="M6275 6352 c-204 -62 -361 -221 -508 -518 -75 -150 -102 -240 -129
-424 -16 -110 -14 -989 2 -1311 l12 -231 -31 -32 c-17 -18 -31 -42 -31 -54 0
-24 -48 -52 -90 -52 -25 0 -26 12 0 35 21 19 26 51 10 75 -8 12 -13 13 -27 2
-41 -29 -141 -69 -373 -147 -135 -46 -282 -97 -328 -114 -115 -43 -112 -43
-95 32 15 61 14 221 -2 259 -15 38 -58 43 -360 43 -324 0 -336 -2 -362 -62
-24 -58 -23 -251 3 -323 17 -50 23 -56 60 -68 35 -11 43 -19 53 -51 15 -53 15
-57 -16 -69 -37 -14 -1497 -495 -2013 -662 -654 -212 -815 -265 -1200 -395
-565 -190 -625 -212 -622 -224 1 -6 -9 -16 -23 -21 -14 -5 -28 -17 -32 -25 -3
-9 -38 -38 -77 -64 -39 -27 -77 -56 -85 -64 -15 -19 -7 -37 17 -37 15 0 17
-10 17 -63 0 -34 3 -70 7 -79 7 -17 9 -17 44 -1 34 17 37 17 49 0 7 -9 24 -17
38 -17 20 0 26 5 29 27 3 27 4 27 203 64 1391 261 1579 298 1592 315 12 16 13
14 13 -15 0 -30 2 -32 27 -27 16 3 262 49 548 102 1509 277 1460 268 1463 290
3 20 13 21 235 33 128 7 242 14 255 17 16 3 22 0 22 -12 0 -15 11 -16 98 -10
224 15 843 46 920 46 l82 0 0 -323 c0 -177 5 -361 10 -407 26 -217 89 -446
160 -583 22 -44 40 -85 40 -93 0 -24 -40 -41 -255 -107 -1397 -433 -1408 -436
-1445 -458 l-30 -19 0 -115 c0 -63 2 -115 4 -115 3 0 137 13 298 30 161 16
563 57 893 90 330 33 621 62 646 66 l45 5 12 -40 c15 -47 18 -50 73 -59 l42
-7 21 -75 c19 -68 25 -77 59 -95 25 -14 50 -42 80 -89 69 -113 85 -113 154 0
30 47 55 75 80 89 34 18 40 27 59 95 l21 75 42 7 c55 9 58 12 73 59 l12 40 45
-5 c25 -4 316 -33 646 -66 330 -33 732 -74 893 -90 161 -17 295 -30 298 -30 2
0 4 52 4 115 l0 115 -30 19 c-34 20 -55 27 -650 211 -1083 335 -1050 324
-1050 354 0 8 18 49 40 93 46 88 90 220 121 356 40 181 49 287 49 630 l0 327
83 0 c76 0 695 -31 920 -46 86 -6 97 -5 97 10 0 12 6 15 23 12 12 -3 126 -10
254 -17 222 -12 232 -13 235 -33 3 -19 31 -26 338 -83 667 -123 1694 -313
1698 -313 1 0 3 15 3 33 1 17 3 24 6 15 2 -9 16 -19 31 -22 25 -5 1110 -209
1567 -295 199 -37 200 -37 203 -64 3 -22 9 -27 29 -27 14 0 31 8 38 17 12 17
15 17 49 0 35 -16 37 -16 44 1 4 9 7 45 7 79 0 53 2 63 17 63 24 0 32 18 17
37 -8 8 -46 37 -85 64 -39 26 -74 55 -77 64 -4 8 -18 20 -32 25 -14 5 -24 15
-23 21 3 12 -54 33 -622 224 -323 109 -537 179 -1385 455 -910 296 -1855 613
-1855 622 0 6 5 28 11 49 10 32 18 40 53 51 37 12 43 18 60 68 26 72 27 265 3
323 -26 60 -38 62 -362 62 -302 0 -345 -5 -360 -43 -16 -38 -17 -198 -2 -259
17 -75 20 -75 -95 -32 -46 17 -193 68 -328 114 -232 78 -332 118 -373 147 -36
26 -52 -45 -17 -77 26 -23 25 -35 0 -35 -42 0 -90 28 -90 52 0 12 -14 36 -31
54 l-31 32 12 231 c16 322 18 1201 2 1311 -27 183 -54 274 -128 423 -139 280
-297 446 -483 510 -79 28 -200 31 -276 9z m-2230 -3113 c-66 -21 -124 -39
-130 -38 -15 1 218 78 235 78 8 -1 -39 -19 -105 -40z m4753 -4 c53 -19 93 -34
87 -34 -5 -1 -64 17 -130 39 -66 21 -105 37 -87 34 19 -3 77 -21 130 -39z
m-4927 -51 c-18 -8 -36 -13 -39 -10 -6 7 37 25 58 25 8 -1 0 -7 -19 -15z
m5094 -6 c7 -7 1 -8 -15 -3 -40 12 -59 26 -25 19 17 -4 35 -11 40 -16z m-5295
-58 c-80 -27 -152 -49 -160 -48 -19 0 270 96 290 96 8 0 -50 -22 -130 -48z
m5483 3 c82 -26 145 -49 140 -50 -5 -2 -77 19 -159 46 -82 27 -145 49 -140 50
5 1 76 -20 159 -46z m-5663 -58 c0 -5 -253 -85 -266 -84 -9 1 245 88 259 89 4
0 7 -2 7 -5z m5977 -43 c62 -20 111 -38 109 -40 -5 -5 -266 78 -266 84 0 6 12
3 157 -44z m-6257 -46 c0 -6 -262 -88 -267 -83 -2 3 51 23 119 45 120 39 148
46 148 38z m6504 -31 c143 -46 140 -45 135 -50 -5 -4 -249 72 -258 80 -9 10
15 4 123 -30z m-6913 -101 c-74 -24 -136 -42 -138 -40 -6 5 236 84 257 84 8 0
-45 -20 -119 -44z m7211 5 c72 -22 128 -43 125 -45 -3 -3 -65 15 -138 40 -168
56 -159 60 13 5z m-7372 -54 c0 -5 -253 -85 -266 -84 -9 1 245 88 259 89 4 0
7 -2 7 -5z m7667 -40 c68 -21 121 -40 119 -43 -6 -5 -266 77 -266 84 0 4 6 4
13 2 6 -3 67 -22 134 -43z m-7962 -53 c-6 -5 -63 -26 -129 -46 -65 -21 -126
-40 -135 -43 -9 -4 -12 -2 -8 3 7 7 249 91 272 93 6 1 6 -2 0 -7z m8257 -40
c65 -20 118 -39 118 -43 0 -9 -252 71 -265 84 -7 7 -3 8 10 3 11 -4 73 -24
137 -44z m417 -138 c3 -4 -1 -5 -9 -3 -216 67 -270 85 -270 90 0 8 269 -76
279 -87z m-9093 41 c-77 -25 -141 -43 -144 -41 -6 6 238 84 263 85 11 0 -43
-20 -119 -44z m-286 -91 c-74 -24 -136 -42 -138 -39 -5 5 239 85 258 84 8 -1
-46 -21 -120 -45z m9535 5 c70 -22 125 -42 123 -44 -2 -2 -64 15 -138 39 -74
24 -130 44 -124 45 6 1 69 -17 139 -40z m-9815 -94 c-74 -24 -137 -42 -139
-39 -3 3 4 7 14 10 11 3 65 20 120 39 55 18 109 33 120 33 11 0 -41 -19 -115
-43z m10085 9 c60 -19 116 -38 124 -40 8 -2 12 -6 10 -9 -3 -2 -65 16 -139 40
-74 24 -128 44 -120 44 8 1 64 -15 125 -35z m-10350 -94 c-65 -22 -133 -42
-150 -44 -16 -3 29 14 100 38 72 24 139 44 150 45 11 0 -34 -17 -100 -39z
m10655 -5 c74 -24 121 -42 105 -39 -40 6 -274 83 -255 84 8 0 76 -20 150 -45z
m-10840 -50 c0 -6 -223 -76 -228 -71 -2 3 45 20 104 40 114 36 124 39 124 31z
m11109 -34 c57 -18 101 -34 99 -37 -6 -5 -228 65 -228 72 0 4 6 4 13 1 6 -2
59 -19 116 -36z m-11444 -76 c-55 -19 -107 -33 -115 -33 -8 0 30 15 85 34 55
18 107 33 115 33 8 -1 -30 -16 -85 -34z m11698 -5 c45 -16 75 -29 67 -29 -8 0
-60 16 -115 34 -55 19 -85 32 -67 29 19 -3 71 -19 115 -34z m-11848 -39 c-14
-12 -107 -42 -113 -36 -5 5 8 11 70 30 53 17 54 17 43 6z m12060 -32 c13 -12
6 -11 -51 7 -69 23 -80 38 -14 18 30 -9 59 -20 65 -25z"/>
</g>
</svg>
