<?xml version="1.0" standalone="no"?>
<!DOCTYPE svg PUBLIC "-//W3C//DTD SVG 20010904//EN"
 "http://www.w3.org/TR/2001/REC-SVG-20010904/DTD/svg10.dtd">
<svg version="1.0" xmlns="http://www.w3.org/2000/svg"
 width="1280.000000pt" height="960.000000pt" viewBox="0 0 1280.000000 960.000000"
 preserveAspectRatio="xMidYMid meet">
<metadata>
Created by potrace 1.15, written by Peter Selinger 2001-2017
</metadata>
<g transform="translate(0.000000,960.000000) scale(0.100000,-0.100000)"
fill="#000000" stroke="none">
<path d="M0 4800 l0 -4800 6400 0 6400 0 0 4800 0 4800 -6400 0 -6400 0 0
-4800z m11579 3455 c2 -3 4 -1559 4 -3458 l-1 -3452 -5181 -3 -5181 -2 -1 237
c-1 131 -1 912 0 1736 l1 1497 -23 0 -22 0 23 18 23 18 -1 1054 c-1 580 -1
1349 -1 1707 l1 653 1258 2 c1925 4 9095 -2 9101 -7z"/>
</g>
</svg>
