<?xml version="1.0" standalone="no"?>
<!DOCTYPE svg PUBLIC "-//W3C//DTD SVG 20010904//EN"
 "http://www.w3.org/TR/2001/REC-SVG-20010904/DTD/svg10.dtd">
<svg version="1.0" xmlns="http://www.w3.org/2000/svg"
 width="674.000000pt" height="1280.000000pt" viewBox="0 0 674.000000 1280.000000"
 preserveAspectRatio="xMidYMid meet">
<metadata>
Created by potrace 1.15, written by Peter Selinger 2001-2017
</metadata>
<g transform="translate(0.000000,1280.000000) scale(0.100000,-0.100000)"
fill="#000000" stroke="none">
<path d="M3444 12786 c-128 -29 -272 -105 -352 -186 -48 -48 -100 -149 -133
-259 -19 -63 -21 -89 -17 -183 5 -106 5 -110 -14 -105 -32 9 -64 -9 -78 -43
-16 -39 -7 -213 15 -284 26 -83 82 -156 121 -156 20 0 24 -7 29 -47 9 -57 35
-123 58 -142 15 -12 17 -38 17 -201 0 -174 -1 -188 -20 -205 -11 -10 -25 -34
-31 -54 -10 -32 -37 -54 -246 -196 -129 -88 -246 -165 -261 -172 -15 -7 -72
-24 -127 -39 -152 -40 -271 -101 -334 -170 -53 -58 -115 -144 -157 -218 -16
-27 -25 -36 -28 -26 -11 30 -156 593 -154 595 2 1 165 -26 363 -61 319 -56
427 -71 375 -51 -8 3 -143 27 -299 53 -214 36 -278 50 -262 58 33 14 25 25
-14 19 -37 -6 -65 9 -65 33 0 10 14 14 50 14 43 0 50 3 50 20 0 26 -34 60 -60
60 -28 0 -70 -44 -70 -73 0 -13 9 -36 21 -51 l21 -27 -28 6 c-16 4 -35 8 -41
11 -9 2 -13 30 -13 94 0 53 -4 90 -10 90 -6 0 -10 -37 -10 -90 0 -75 -3 -90
-16 -90 -11 0 -13 -6 -9 -19 3 -11 41 -157 85 -324 l79 -305 -31 -73 c-60
-144 -94 -293 -105 -457 -5 -90 -10 -109 -35 -148 -19 -31 -28 -58 -28 -87 0
-22 -16 -87 -35 -142 -19 -56 -62 -216 -95 -356 -45 -189 -75 -290 -116 -394
-54 -135 -57 -146 -75 -310 -10 -93 -23 -213 -30 -265 -12 -102 -6 -479 10
-626 13 -112 25 -773 17 -866 l-8 -77 -59 37 -59 37 -2 959 -3 959 -108 61
-109 61 111 34 111 35 0 778 0 778 243 3 242 2 -252 3 -253 2 0 -778 0 -779
-107 -33 c-60 -17 -111 -35 -116 -39 -4 -4 45 -36 108 -71 l115 -65 2 -959 3
-959 72 -45 71 -44 -12 -36 -13 -37 -94 -5 -94 -5 -3 -195 -2 -195 -67 -67
-67 -68 67 0 67 0 0 -340 0 -340 245 0 c157 0 245 4 245 10 0 6 -87 10 -240
10 l-240 0 0 335 0 335 -57 0 -57 0 58 59 58 58 -2 190 -1 190 88 6 c48 3 89
4 90 3 2 -1 -8 -43 -22 -92 -24 -87 -25 -93 -14 -249 9 -137 18 -187 60 -352
27 -106 54 -204 59 -217 11 -29 61 -58 93 -54 19 3 23 -3 27 -37 7 -45 23 -79
53 -112 25 -28 39 -29 62 -3 22 24 35 26 35 5 0 -25 45 -40 76 -27 27 13 54
66 54 105 0 18 8 28 30 37 64 27 85 85 145 400 18 96 37 197 40 223 l7 48 52
-49 c65 -61 122 -76 166 -44 l27 20 6 -86 c7 -95 31 -224 77 -404 l30 -118 0
-745 0 -745 -80 0 c-77 0 -80 1 -80 23 0 20 -5 23 -47 25 -59 2 -73 -10 -73
-63 0 -61 52 -99 88 -63 9 9 12 9 12 -3 0 -24 -22 -39 -57 -39 -18 0 -33 -4
-33 -10 0 -16 77 -12 94 6 10 9 16 33 16 57 l0 42 59 -60 60 -60 76 -875 c74
-855 84 -971 125 -1427 11 -122 20 -224 20 -227 0 -3 51 -5 113 -4 l112 2
-107 3 c-106 4 -108 4 -108 27 0 21 -13 175 -70 826 -6 63 -41 467 -79 898
l-68 784 -64 64 -63 64 88 0 89 0 -6 721 c-3 397 -4 719 -2 717 2 -1 17 -55
33 -118 32 -121 113 -381 214 -689 54 -165 61 -197 69 -305 5 -67 16 -170 25
-231 13 -92 14 -129 5 -230 -14 -144 -34 -270 -55 -345 -43 -148 -26 -434 45
-785 12 -55 27 -110 35 -122 22 -34 42 -125 60 -263 9 -69 41 -231 72 -360 53
-224 56 -241 56 -370 0 -108 -4 -144 -18 -180 -10 -25 -21 -73 -25 -107 -3
-35 -13 -69 -21 -77 -12 -12 -84 -18 -345 -29 -181 -8 -338 -18 -347 -22 -16
-6 -18 -1 -18 44 0 48 1 51 26 51 14 0 23 4 19 10 -3 6 -15 10 -26 10 -13 0
-19 7 -19 21 0 12 -5 19 -12 16 -7 -2 -12 -10 -10 -17 2 -7 -3 -17 -10 -22
-10 -6 -10 -10 -1 -16 6 -4 13 -32 15 -62 3 -47 6 -55 24 -58 20 -3 28 -28 84
-255 35 -139 65 -254 66 -256 15 -17 7 28 -32 184 -25 99 -54 217 -64 262
l-18 81 142 6 c308 14 496 21 496 17 0 -2 -45 -61 -100 -131 -84 -109 -108
-132 -153 -154 -31 -16 -82 -56 -124 -99 -64 -65 -72 -78 -83 -129 -13 -65 -8
-93 21 -108 13 -7 19 -21 19 -43 0 -39 15 -57 48 -57 13 0 21 -4 17 -10 -10
-16 33 -50 63 -50 21 0 32 -7 40 -25 16 -35 57 -43 92 -16 36 26 36 26 72 -4
54 -46 135 -28 232 51 17 14 56 42 88 62 31 20 74 60 97 89 22 28 89 95 148
148 59 54 114 109 122 123 l14 26 9 -24 c17 -47 107 -120 148 -120 6 0 41 -32
78 -72 104 -111 196 -185 244 -199 28 -8 62 -30 98 -66 55 -52 56 -53 116 -53
46 0 68 5 86 20 22 17 29 18 57 7 27 -10 38 -9 74 9 23 12 55 22 71 23 32 1
66 26 66 48 0 7 6 13 13 13 44 0 91 122 78 203 -5 27 -14 55 -22 62 -8 8 -69
54 -135 102 -126 91 -165 132 -269 283 -33 47 -69 95 -81 108 -62 64 -90 193
-74 338 18 156 107 576 145 683 56 159 150 679 148 826 -1 50 -11 164 -23 255
-46 353 -46 418 -9 907 13 183 69 433 118 535 69 144 154 460 316 1165 45 200
58 355 59 733 0 365 -5 432 -64 764 -13 68 -20 155 -20 229 0 66 -7 213 -16
326 -10 125 -14 275 -12 381 4 162 7 190 48 378 41 188 60 242 60 174 0 -42
34 -155 83 -277 40 -98 45 -122 52 -220 7 -106 8 -112 49 -180 38 -62 44 -80
49 -150 8 -93 35 -211 78 -344 19 -59 111 -255 247 -525 l217 -431 1 -195 c1
-220 5 -244 89 -476 78 -216 131 -310 234 -415 54 -56 62 -60 90 -54 17 4 31
2 31 -3 0 -5 18 -30 41 -56 46 -52 89 -62 109 -26 11 21 11 21 41 -5 52 -43
99 -26 99 35 0 15 5 20 14 17 23 -9 49 30 53 80 3 27 -7 193 -21 370 -14 177
-26 344 -26 372 0 52 15 75 34 49 15 -20 70 -48 94 -48 11 0 32 -16 47 -36 17
-22 50 -46 84 -61 92 -41 161 -32 161 22 0 27 -83 139 -161 216 -116 113 -322
251 -396 263 -53 9 -128 57 -146 93 -27 50 -184 586 -191 648 -4 33 -11 150
-15 260 l-8 200 -48 120 c-26 66 -94 215 -151 331 l-104 211 0 99 c0 167 -37
400 -86 535 -49 136 -54 316 -13 478 45 176 4 429 -107 657 -50 103 -134 203
-211 252 -44 27 -224 92 -257 92 -45 0 -157 50 -271 120 -71 44 -197 115 -280
158 -168 86 -229 136 -241 197 -12 63 13 530 32 587 3 12 15 18 33 18 36 0 47
14 116 143 53 100 58 114 62 190 5 75 3 85 -19 117 -24 35 -39 40 -88 27 l-25
-6 -1 112 c-2 135 -31 284 -71 363 -63 125 -191 235 -316 271 -102 31 -247 39
-333 19z m268 -31 c107 -23 173 -59 254 -140 84 -84 127 -164 150 -280 18 -84
24 -301 11 -347 l-7 -28 56 28 56 27 20 -25 c18 -22 20 -35 15 -105 -4 -74 -9
-88 -61 -188 -57 -106 -91 -144 -101 -112 -3 8 -7 22 -10 30 -2 8 -9 15 -14
15 -15 0 -17 -12 -51 -358 -5 -56 -10 -153 -10 -214 0 -184 22 -212 281 -346
86 -44 189 -102 230 -127 40 -26 98 -61 129 -79 l57 -31 -131 -1 c-102 -1
-164 -8 -281 -32 -82 -16 -187 -33 -232 -37 l-81 -6 -38 45 c-24 29 -46 46
-60 46 -26 0 -36 22 -25 52 12 34 1 69 -31 88 -19 12 -25 19 -16 23 11 4 11 8
-1 28 -10 16 -10 24 -2 27 16 5 14 43 -4 62 -17 18 -29 111 -26 202 0 31 -4
60 -9 63 -6 3 -10 17 -10 29 0 20 4 22 27 18 23 -4 25 -2 20 18 -5 19 6 36 59
91 123 125 138 166 160 419 3 41 11 84 18 95 18 29 46 115 46 142 0 13 -7 26
-15 29 -20 8 -20 73 1 160 24 106 22 256 -5 332 -63 174 -178 281 -352 328
-80 21 -253 24 -329 5 -123 -31 -236 -112 -314 -225 -68 -100 -101 -273 -71
-382 8 -32 18 -101 22 -153 5 -81 4 -95 -10 -103 -22 -12 -21 -30 4 -72 11
-19 25 -65 30 -102 5 -37 21 -105 34 -153 14 -47 30 -116 35 -153 14 -98 25
-114 104 -160 102 -59 100 -57 75 -84 -23 -25 -17 -48 11 -39 24 7 34 -30 13
-50 -9 -10 -12 -22 -8 -33 4 -9 9 -24 11 -32 2 -8 6 -28 10 -43 5 -21 1 -34
-15 -51 -12 -12 -18 -25 -15 -28 3 -4 0 -31 -7 -62 -10 -45 -10 -58 1 -71 11
-13 10 -19 -4 -34 -10 -10 -14 -25 -10 -35 4 -11 -3 -27 -21 -46 -23 -24 -27
-35 -22 -64 5 -29 3 -36 -11 -36 -9 0 -28 -13 -42 -30 l-25 -30 -70 10 c-210
28 -344 40 -465 41 -74 1 -146 4 -160 8 -23 7 -21 9 23 22 32 9 135 73 297
184 226 155 250 174 265 211 8 23 25 50 35 59 19 17 20 32 20 213 l0 194 -29
33 c-29 33 -51 105 -51 165 0 27 -3 30 -34 30 -72 0 -124 106 -133 271 -7 112
-1 145 28 154 22 7 59 -18 59 -42 0 -7 7 -13 15 -13 18 0 18 10 5 81 -19 101
-15 217 10 294 59 180 128 266 272 341 155 80 295 101 450 69z m169 -1315 c-6
-19 -20 -46 -32 -60 l-20 -25 6 40 c4 22 8 68 9 102 2 45 8 69 22 84 19 21 19
21 22 -42 2 -35 -1 -80 -7 -99z m-617 120 c25 -9 26 -12 24 -84 -2 -50 2 -79
11 -90 8 -9 11 -20 7 -24 -19 -18 -66 82 -81 171 -6 40 -2 43 39 27z m316
-114 c0 -3 -4 -8 -10 -11 -5 -3 -10 -1 -10 4 0 6 5 11 10 11 6 0 10 -2 10 -4z
m107 -81 c-11 -7 -26 -11 -35 -7 -14 5 -12 7 8 13 39 11 46 9 27 -6z m35 -7
c-7 -7 -12 -8 -12 -2 0 14 12 26 19 19 2 -3 -1 -11 -7 -17z m-222 8 c0 -2 -7
-7 -16 -10 -8 -3 -12 -2 -9 4 6 10 25 14 25 6z m80 -62 c0 -8 -5 -12 -10 -9
-6 4 -8 11 -5 16 9 14 15 11 15 -7z m-1684 -501 c17 -17 16 -18 -20 -21 -45
-4 -54 2 -36 23 16 20 35 19 56 -2z m1879 -253 c3 -5 1 -10 -4 -10 -6 0 -11 5
-11 10 0 6 2 10 4 10 3 0 8 -4 11 -10z m35 -74 c-15 -15 -100 -25 -100 -11 0
18 5 20 59 20 30 0 46 -4 41 -9z m-385 -6 c-3 -5 -23 -9 -43 -9 l-37 1 30 8
c44 11 57 11 50 0z m-1075 -5 c0 -2 -21 -13 -46 -25 -26 -11 -66 -37 -89 -58
-24 -20 -53 -44 -66 -53 -15 -11 -22 -25 -22 -48 0 -57 36 -74 216 -100 38 -5
81 -18 95 -28 l27 -18 -25 -3 c-14 -2 -34 -13 -46 -23 -17 -16 -26 -18 -48 -9
-60 22 -110 13 -178 -34 -36 -24 -78 -46 -94 -48 -45 -5 -64 -53 -64 -161 0
-264 -78 -658 -179 -902 -32 -77 -86 -218 -120 -314 -94 -262 -137 -357 -202
-444 -69 -93 -75 -126 -32 -178 18 -21 23 -34 15 -37 -6 -2 -21 -11 -33 -21
-29 -23 -20 -60 21 -83 28 -16 30 -21 30 -73 0 -59 9 -85 42 -122 18 -19 19
-27 9 -92 -6 -38 -11 -87 -11 -108 0 -22 -11 -95 -24 -164 -13 -68 -27 -155
-30 -194 -4 -38 -15 -142 -26 -230 -10 -88 -24 -214 -30 -280 -7 -66 -21 -159
-32 -207 -11 -48 -18 -97 -16 -110 4 -33 32 -33 62 -1 22 23 34 28 86 29 59 3
87 -10 33 -14 -16 -1 -33 -8 -38 -15 -6 -6 -17 -13 -25 -15 -8 -2 -36 -27 -63
-55 -53 -58 -59 -94 -19 -112 25 -11 30 -35 6 -35 -29 0 -41 -25 -47 -105 -4
-44 -14 -111 -22 -150 -10 -43 -13 -85 -8 -110 3 -22 5 -50 4 -62 -1 -12 4
-32 12 -45 16 -26 42 -147 33 -156 -3 -3 1 -13 10 -23 10 -11 17 -38 18 -71 1
-29 7 -63 14 -76 7 -12 11 -26 8 -31 -8 -12 21 -34 34 -26 10 6 14 38 5 47 -3
3 -8 44 -10 90 -2 47 -11 105 -19 129 -16 47 -24 188 -12 208 5 7 3 25 -4 41
-9 22 -9 53 0 135 6 58 14 115 19 126 6 18 9 16 19 -18 11 -39 2 -228 -13
-252 -3 -6 -1 -29 5 -52 8 -30 8 -44 0 -54 -8 -10 -6 -23 8 -52 23 -45 35
-109 34 -175 0 -26 3 -50 9 -53 5 -4 7 -10 4 -15 -3 -4 2 -25 11 -46 9 -20 17
-59 19 -86 2 -28 9 -56 15 -63 6 -8 10 -24 8 -37 l-3 -23 -13 23 c-7 12 -16
45 -19 72 l-6 50 -37 -6 c-60 -10 -70 8 -127 231 -45 173 -54 222 -63 360
l-12 161 40 138 40 137 -4 412 c-2 227 -9 464 -15 527 -20 213 -23 573 -6 695
9 61 21 168 27 239 11 119 16 139 71 281 42 109 74 220 115 391 31 131 72 284
91 339 20 55 38 124 40 154 3 35 14 69 31 95 22 35 27 58 34 150 22 307 123
571 295 774 60 70 97 97 190 138 77 33 93 38 93 29z m2605 -56 c50 -16 110
-41 135 -57 137 -87 257 -307 306 -560 19 -98 18 -243 -2 -312 -40 -140 -35
-360 10 -490 49 -138 77 -300 83 -480 l6 -165 108 -218 c59 -120 127 -266 150
-325 41 -106 41 -108 50 -287 12 -285 18 -327 59 -463 152 -504 150 -500 208
-540 29 -20 62 -33 127 -51 50 -13 229 -130 312 -203 87 -76 204 -218 201
-243 -7 -47 -155 1 -193 62 -15 23 -30 33 -57 38 -21 4 -54 20 -73 35 -56 44
-95 23 -95 -50 0 -45 45 -651 53 -715 5 -35 -10 -85 -25 -85 -7 0 -7 4 0 13
12 14 11 106 -2 126 -5 7 -10 43 -13 80 -2 36 -16 108 -30 159 -15 55 -23 105
-19 122 3 19 0 34 -9 44 -8 8 -15 24 -15 36 0 11 -11 43 -25 71 -40 78 -76
186 -82 245 -3 30 -10 57 -14 60 -5 3 -9 11 -9 17 0 7 4 6 10 -3 7 -12 28 -14
100 -12 70 2 94 0 106 -12 8 -8 20 -13 28 -10 7 3 18 -6 24 -21 7 -15 20 -25
32 -25 32 0 61 -18 110 -70 25 -27 54 -51 65 -54 11 -3 25 -16 30 -28 7 -17
18 -23 40 -23 40 0 44 27 8 62 -15 16 -28 35 -28 43 0 8 -9 19 -20 25 -32 16
-96 65 -142 108 -22 22 -45 37 -51 33 -5 -3 -14 6 -20 19 -12 26 -33 30 -134
25 -21 -1 -53 4 -72 11 -29 11 -38 10 -60 -5 -22 -14 -26 -14 -26 -2 0 9 -14
18 -34 21 -22 5 -36 14 -39 27 -3 11 -15 22 -26 25 -21 5 -21 5 -1 30 29 37
25 66 -25 172 -24 53 -58 148 -75 211 -80 295 -123 412 -247 672 -51 108 -100
218 -108 245 -9 30 -15 91 -15 160 0 103 -2 113 -21 127 -12 8 -19 21 -16 29
3 8 -3 28 -13 45 -10 17 -28 61 -39 99 -11 38 -39 100 -62 138 -62 103 -96
184 -123 293 -32 128 -44 243 -56 562 -11 278 -17 335 -52 490 -16 69 -21 126
-20 209 0 74 -4 126 -12 146 -16 37 -65 62 -92 47 -15 -8 -22 -5 -37 20 -18
30 -19 30 -85 26 -37 -2 -84 -12 -104 -22 -33 -16 -39 -16 -58 -3 -21 14 -21
15 10 40 39 34 88 47 172 47 56 0 71 4 88 22 53 57 5 115 -183 221 l-32 18 35
-6 c19 -4 76 -20 125 -36z m-1528 -57 c10 -23 -7 -26 -30 -4 -12 11 -42 30
-66 40 -33 15 -39 21 -25 24 22 5 114 -40 121 -60z m476 43 c27 -11 20 -25
-14 -25 -39 0 -150 -28 -167 -42 -9 -8 -16 -8 -23 -1 -13 13 7 57 22 48 5 -4
21 2 37 13 15 11 34 21 42 24 15 5 73 -5 103 -17z m-1147 -40 c54 -8 148 -15
208 -15 96 0 107 -2 96 -15 -8 -9 -10 -29 -7 -50 6 -39 -2 -43 -37 -20 -29 19
-59 10 -128 -41 -26 -20 -64 -40 -83 -45 -26 -8 -40 -20 -55 -49 -24 -46 -45
-54 -36 -12 3 15 9 50 12 79 6 46 4 54 -19 77 -33 33 -73 42 -111 26 -54 -22
-98 -22 -156 2 -41 17 -55 28 -55 43 0 18 9 21 70 26 130 10 201 9 301 -6z
m1935 1 c68 -1 70 -2 67 -25 -4 -32 -66 -81 -104 -82 -16 -1 -49 2 -73 7 -56
9 -94 -10 -140 -73 l-34 -46 -59 7 c-66 6 -90 17 -130 53 -18 18 -32 23 -47
18 -12 -3 -37 -1 -57 5 -33 11 -35 14 -28 43 3 18 8 35 11 40 2 4 51 7 109 7
76 0 136 7 212 24 137 31 152 34 181 28 12 -3 54 -5 92 -6z m-1463 -42 l37
-17 -44 -8 c-51 -10 -55 -8 -46 20 8 25 6 25 53 5z m742 -44 c0 -5 -5 -10 -11
-10 -5 0 -7 5 -4 10 3 6 8 10 11 10 2 0 4 -4 4 -10z m-617 -77 c-13 -2 -35 -2
-50 0 -16 2 -5 4 22 4 28 0 40 -2 28 -4z m-219 -62 l29 -19 -53 -16 c-65 -19
-80 -20 -80 -3 0 17 12 32 35 45 27 16 36 15 69 -7z m950 6 c11 -8 15 -19 10
-31 -5 -14 -14 -16 -43 -11 -72 12 -74 14 -49 35 27 23 57 25 82 7z m-204
-101 l85 -24 -39 -7 c-54 -11 -186 -7 -186 5 0 13 32 50 43 50 7 0 50 -11 97
-24z m-508 -3 c10 -9 18 -19 18 -23 0 -4 -36 0 -81 9 -55 10 -75 17 -62 22 35
14 106 10 125 -8z m-287 -75 c25 -7 45 -15 45 -18 0 -6 -117 -50 -133 -50 -6
0 -3 31 9 68 4 15 22 15 79 0z m1015 -48 c0 -18 -3 -18 -26 -7 l-27 12 24 6
c13 4 25 7 27 8 1 1 2 -8 2 -19z m-688 -42 c19 -30 3 -51 -52 -70 -49 -16 -63
-17 -130 -7 -122 19 -123 22 -24 57 49 17 98 33 109 36 31 7 88 -2 97 -16z
m506 -7 c31 -11 80 -30 107 -42 l50 -23 -95 -22 -95 -23 -77 29 c-43 17 -84
30 -93 30 -18 0 -19 11 -2 32 34 43 113 50 205 19z m957 -121 c20 -47 43 -107
51 -135 25 -90 114 -793 129 -1020 9 -123 -19 -425 -46 -505 -16 -48 -16 -58
-3 -77 18 -28 51 -46 70 -39 10 4 14 -3 14 -24 0 -19 7 -34 19 -42 31 -19 98
-165 112 -243 7 -38 27 -114 45 -168 18 -54 47 -160 65 -235 54 -234 97 -378
168 -562 27 -69 52 -136 55 -150 3 -14 -84 155 -194 375 -129 259 -212 437
-234 505 -41 125 -76 289 -76 356 0 38 -9 62 -44 123 -43 73 -45 81 -54 191
-9 101 -15 128 -55 225 -25 61 -55 153 -67 205 -13 52 -31 118 -40 145 -16 45
-19 47 -24 25 -3 -14 -29 -128 -57 -255 -47 -215 -51 -242 -56 -405 -4 -119 0
-241 11 -380 9 -112 17 -261 17 -330 -1 -97 7 -170 33 -325 51 -304 60 -426
53 -765 -9 -426 -18 -482 -184 -1159 -84 -345 -145 -547 -193 -646 -42 -86
-87 -272 -114 -466 -8 -57 -14 -92 -15 -78 -1 14 -15 43 -31 64 -52 66 -62
120 -63 368 -1 186 2 230 16 272 10 28 35 131 58 230 52 235 92 377 141 500
27 68 46 138 60 220 29 184 124 531 187 689 16 41 46 98 66 127 41 59 43 83
14 163 -11 32 -18 65 -15 73 4 8 -3 27 -14 43 -11 15 -20 33 -20 38 0 20 -45
42 -85 42 -47 0 -60 -7 -69 -37 -4 -13 -10 -23 -14 -23 -20 0 -66 59 -97 122
-34 70 -34 71 -14 87 13 11 26 41 35 85 17 83 24 93 76 107 27 7 60 30 98 67
77 75 89 117 65 220 -41 177 -134 290 -290 353 -84 34 -232 34 -319 -1 -79
-30 -147 -98 -170 -168 -16 -46 -20 -51 -41 -46 -16 4 -33 -3 -60 -27 -34 -30
-38 -31 -47 -15 -5 9 -11 42 -13 72 l-3 56 46 -7 c42 -5 51 -3 82 23 29 25 33
32 22 45 -20 24 -57 28 -97 11 -20 -8 -39 -13 -42 -10 -3 3 -8 25 -10 50 -8
63 7 78 71 74 28 -1 61 4 74 10 28 16 29 48 1 63 -20 10 -33 9 -110 -7 -32 -7
-38 1 -46 65 l-6 49 40 -5 c39 -5 93 17 93 38 0 17 -74 47 -95 38 -11 -4 -22
-8 -25 -8 -3 -1 -5 23 -4 52 2 100 1 97 38 97 18 0 39 7 46 16 19 22 -10 48
-54 47 l-34 -1 -7 65 c-4 35 -5 66 -3 69 6 5 222 -158 307 -233 108 -94 149
-105 136 -34 -4 20 -12 42 -18 49 -5 7 -60 46 -121 87 -154 102 -290 212 -314
254 -12 20 -11 26 1 39 36 36 125 -21 227 -145 20 -24 46 -37 115 -58 142 -43
220 -90 337 -203 25 -24 51 -41 57 -38 17 11 13 48 -9 83 -19 32 -19 32 0 38
30 10 71 70 77 113 4 27 -1 53 -15 85 -12 27 -17 49 -11 52 36 23 64 156 40
193 -5 9 2 23 20 43 15 16 30 43 34 58 10 45 -12 107 -51 146 -32 32 -33 37
-20 57 34 55 26 121 -19 168 -25 26 -25 27 -9 59 11 22 15 48 12 76 -5 39 -2
46 28 74 18 17 38 48 44 69 35 107 165 316 262 419 19 20 27 36 23 45 -5 9 -5
10 2 3 6 -5 27 -48 48 -95z m-2478 -10 c53 -52 93 -147 133 -315 35 -146 42
-162 108 -232 l49 -52 -30 -21 c-54 -41 -66 -117 -26 -166 9 -11 8 -18 -4 -32
-23 -25 -47 -87 -47 -119 1 -15 7 -45 14 -66 13 -36 12 -41 -10 -80 -13 -23
-24 -55 -24 -70 0 -37 27 -94 52 -111 17 -12 18 -17 7 -37 -20 -39 -28 -88
-18 -122 11 -39 65 -94 97 -99 22 -3 22 -3 -8 -40 -31 -37 -37 -77 -14 -85 7
-2 40 21 75 51 71 62 151 104 260 136 107 32 190 82 256 154 32 35 73 76 91
91 l32 27 -1 -54 0 -53 -72 -63 c-77 -66 -133 -103 -264 -171 -108 -56 -135
-82 -131 -124 4 -43 29 -46 76 -9 20 16 71 49 112 73 41 24 109 71 150 104
110 88 127 98 134 79 3 -9 3 -40 0 -70 -7 -53 -8 -54 -38 -54 -45 0 -75 -23
-60 -47 9 -14 23 -17 56 -16 l44 2 -1 -75 0 -75 -45 6 c-55 7 -92 -13 -74 -41
13 -21 60 -36 91 -29 17 4 23 -1 28 -24 3 -17 2 -39 -4 -50 -6 -11 -8 -27 -5
-35 8 -20 -32 -22 -71 -4 -53 24 -108 -40 -70 -82 15 -17 19 -17 52 -4 46 20
91 10 95 -19 2 -12 -1 -39 -6 -60 -7 -33 -11 -37 -30 -30 -49 17 -106 4 -106
-25 0 -31 28 -46 86 -46 l54 0 0 -56 c0 -30 -4 -61 -9 -69 -15 -23 -91 32
-126 92 -58 99 -132 135 -329 163 -158 22 -222 1 -322 -107 -193 -210 -205
-418 -28 -474 38 -12 54 -22 54 -34 0 -31 30 -120 46 -136 15 -14 14 -19 -10
-53 -14 -21 -26 -51 -26 -66 0 -50 -30 -96 -76 -118 -40 -20 -43 -20 -60 -4
-11 11 -25 15 -40 12 -13 -3 -36 -9 -50 -12 -24 -6 -25 -5 -22 32 l3 39 95 6
95 5 -102 2 -103 2 0 -54 c0 -30 -4 -57 -9 -60 -5 -3 -12 -26 -16 -52 -3 -25
-15 -66 -26 -91 -27 -63 -24 -90 15 -148 l34 -50 7 -520 c4 -286 4 -518 2
-515 -9 9 -55 221 -66 305 -17 127 -45 913 -33 928 20 23 34 134 39 302 5 166
6 172 41 260 28 72 35 102 33 150 -6 212 -5 214 37 342 60 179 66 222 59 397
-5 129 -11 174 -41 294 -36 140 -36 143 -36 359 l-1 218 -29 -34 c-51 -59 -98
-164 -136 -297 -41 -147 -91 -262 -155 -355 l-44 -64 -6 -285 c-5 -199 -11
-312 -23 -375 -39 -213 -60 -308 -91 -430 -19 -71 -42 -177 -51 -235 -8 -58
-22 -127 -30 -154 -14 -50 -18 -192 -6 -233 4 -12 43 -64 86 -114 57 -66 102
-134 159 -238 43 -80 84 -152 89 -159 8 -9 7 -11 -3 -7 -15 6 -79 97 -79 112
0 4 -45 52 -99 106 -69 68 -107 98 -127 101 -51 7 -64 16 -58 41 4 18 -2 27
-30 45 -20 12 -36 29 -36 38 1 15 2 15 11 0 11 -20 54 -24 64 -7 4 5 2 82 -5
169 -9 120 -9 220 -1 412 12 248 11 256 -13 423 -14 94 -34 200 -46 238 l-21
67 21 79 c13 47 35 97 56 126 35 50 42 79 23 90 -6 5 -3 13 10 22 12 8 21 25
21 37 0 25 17 36 55 36 29 0 40 14 54 67 12 42 11 42 -40 105 l-51 63 4 140
c4 128 7 148 37 230 71 196 162 478 206 640 87 316 175 535 214 535 3 0 25
-18 48 -40z m663 -36 c0 -2 -9 -8 -20 -14 -17 -9 -20 -8 -20 9 0 14 5 18 20
14 11 -3 20 -7 20 -9z m1030 -14 c0 -5 -5 -10 -11 -10 -5 0 -7 5 -4 10 3 6 8
10 11 10 2 0 4 -4 4 -10z m-688 -38 c9 -9 -9 -21 -74 -52 -83 -39 -86 -39
-148 -29 -95 15 -101 22 -38 46 29 12 71 28 93 37 45 18 148 17 167 -2z m478
-11 c30 -5 82 -22 115 -37 59 -26 60 -27 31 -35 -16 -4 -59 -9 -95 -10 -66 -2
-106 11 -181 60 l-24 16 49 6 c28 3 50 7 50 7 0 1 25 -2 55 -7z m-850 -145
l35 -13 -49 -21 c-50 -23 -66 -26 -66 -16 0 10 34 64 40 63 3 0 21 -6 40 -13z
m1070 -30 c0 -10 -7 -12 -22 -8 -21 5 -21 6 -2 13 10 4 20 8 22 8 1 1 2 -5 2
-13z m-193 -39 c26 -13 83 -37 125 -53 83 -30 83 -38 3 -48 -45 -7 -61 -3
-155 37 -58 25 -122 51 -142 58 -45 15 -48 26 -10 31 64 7 133 -2 179 -25z
m-553 2 c-2 -4 -64 -30 -136 -59 -129 -50 -133 -51 -180 -39 -26 7 -48 16 -48
19 0 4 33 17 73 30 39 13 90 30 113 39 41 16 187 24 178 10z m364 -169 c48
-58 38 -79 -15 -35 -30 26 -40 40 -36 55 7 28 13 25 51 -20z m-805 -6 c8 -8
-88 -54 -111 -54 -10 1 0 10 20 20 20 11 40 24 43 30 7 11 38 14 48 4z m1385
-10 c44 -6 52 -10 52 -28 0 -47 -12 -48 -103 -7 -87 38 -102 57 -37 47 19 -2
59 -8 88 -12z m-230 -83 c74 -32 129 -62 124 -65 -6 -3 -50 -9 -99 -12 l-88
-7 -65 45 c-65 44 -84 73 -58 89 25 16 54 9 186 -50z m-798 34 c0 -19 -31 -39
-109 -70 -58 -24 -67 -25 -124 -14 -97 17 -97 18 -22 52 51 22 92 33 150 37
44 4 86 7 93 8 6 1 12 -5 12 -13z m-401 -149 l33 -12 -61 -17 c-33 -9 -68 -17
-76 -17 -23 0 -18 37 7 54 22 16 28 15 97 -8z m819 -1 c13 -29 5 -33 -14 -7
-15 20 -18 32 -6 32 5 0 14 -11 20 -25z m-454 -36 c-17 -34 -68 -69 -100 -69
-11 0 -54 -11 -95 -25 -77 -27 -129 -27 -164 -1 -15 11 -2 17 91 41 60 15 145
42 188 61 44 18 83 31 88 28 4 -3 1 -19 -8 -35z m1116 26 c34 -18 45 -46 30
-75 -8 -16 -17 -19 -33 -14 -12 4 -62 17 -112 29 l-90 22 45 11 c35 9 102 31
128 41 2 0 16 -6 32 -14z m-935 -175 c-5 -21 -12 -25 -40 -26 -31 0 -34 2 -37
30 -3 26 2 34 32 51 l35 21 8 -26 c4 -14 5 -36 2 -50z m645 60 l25 -8 -25 -1
c-14 0 -32 4 -40 9 -13 9 -13 10 0 9 8 -1 26 -5 40 -9z m-302 -64 c6 -22 9
-42 7 -44 -9 -10 -76 35 -81 55 -10 40 1 53 34 41 22 -9 31 -21 40 -52z m-985
-9 l38 -18 -53 -28 c-47 -25 -54 -27 -65 -13 -7 9 -13 19 -13 23 0 11 42 60
49 56 3 -1 23 -11 44 -20z m1280 -57 c208 -80 237 -92 242 -100 9 -14 -157
-23 -203 -11 -59 16 -182 121 -182 155 0 10 6 8 143 -44z m359 23 c18 -16 25
-67 10 -77 -4 -2 -33 12 -66 32 l-58 36 39 12 c52 16 54 16 75 -3z m-1273 -2
c24 -15 -25 -70 -87 -99 -49 -22 -64 -24 -144 -20 -49 3 -94 10 -99 15 -5 5
43 27 123 55 170 60 184 63 207 49z m-705 -581 l37 -145 -4 -175 c-4 -175 -4
-175 -45 -294 -51 -147 -71 -269 -52 -326 16 -50 9 -93 -35 -205 -33 -86 -35
-95 -35 -215 0 -148 -15 -281 -37 -327 -13 -28 -14 -63 -4 -285 6 -139 14
-300 17 -358 6 -95 5 -103 -10 -91 -25 21 -98 137 -165 266 -44 83 -86 145
-138 205 -42 47 -79 95 -84 108 -14 36 -11 184 5 233 8 24 20 82 26 129 6 47
29 153 50 235 91 360 111 502 117 820 l5 270 37 60 c89 141 113 196 162 370
16 61 47 144 67 185 l37 75 6 -195 c5 -184 7 -203 43 -340z m963 495 c-4 -8
-2 -17 2 -19 5 -3 4 -25 -2 -50 -8 -36 -15 -45 -36 -50 -14 -3 -69 -41 -121
-86 -89 -75 -195 -140 -228 -140 -8 0 9 25 39 58 29 31 65 75 81 97 46 62 174
172 221 188 23 8 44 15 46 16 2 0 1 -6 -2 -14z m346 -14 c13 -5 55 -38 94 -74
38 -35 81 -67 95 -70 16 -4 30 -19 39 -38 7 -18 28 -54 46 -81 l34 -49 -40 20
c-21 11 -68 46 -103 77 -62 55 -166 114 -200 114 -15 0 -18 9 -18 55 0 59 6
64 53 46z m-991 -99 l57 -18 -44 -26 -43 -26 -21 22 c-20 21 -29 66 -13 66 4
0 33 -8 64 -18z m1638 -43 c0 -11 -5 -29 -10 -39 -10 -19 -12 -18 -50 8 -22
15 -39 30 -40 34 0 4 19 9 43 11 23 2 45 4 50 5 4 1 7 -7 7 -19z m-1594 -185
c13 -3 24 -11 24 -16 0 -5 13 -7 30 -3 42 9 37 -1 -11 -26 -45 -23 -106 -20
-115 6 -8 21 15 57 33 51 8 -3 26 -9 39 -12z m1572 -58 c7 -57 -61 -64 -113
-11 -19 19 -35 36 -35 39 0 2 33 3 73 2 72 -1 72 -1 75 -30z m1002 -418 c0 -6
-7 -5 -15 2 -8 7 -15 17 -15 22 0 6 7 5 15 -2 8 -7 15 -17 15 -22z m20 -81 c0
-18 -2 -19 -10 -7 -13 20 -13 43 0 35 6 -3 10 -16 10 -28z m193 -572 c31 -66
74 -183 97 -259 l40 -139 0 -181 0 -181 -23 40 c-34 60 -53 112 -87 237 -16
62 -41 150 -54 194 -28 92 -62 303 -71 439 l-5 90 24 -60 c13 -33 49 -114 79
-180z m-3912 -460 c-10 -199 -17 -232 -63 -304 -24 -38 -28 -42 -35 -25 -16
38 -6 169 21 274 14 58 37 193 51 300 14 107 26 199 27 205 8 36 7 -293 -1
-450z m1727 313 c5 -24 -10 -23 -39 2 l-24 20 30 -2 c19 -2 31 -9 33 -20z
m332 14 c0 -5 -11 -15 -25 -22 -27 -15 -54 -2 -41 19 8 13 66 15 66 3z m-445
-67 c19 -18 25 -35 26 -67 0 -24 5 -58 12 -77 10 -29 20 -37 62 -51 38 -13 49
-22 48 -36 -4 -32 7 -64 22 -64 22 0 51 -33 47 -53 -2 -9 2 -17 8 -17 7 0 10
-7 7 -15 -3 -7 2 -24 13 -37 17 -21 20 -21 34 -8 9 9 17 34 19 56 2 23 7 46
11 53 4 6 4 16 1 21 -3 6 2 10 13 10 21 0 51 52 33 58 -15 5 -14 22 2 22 23 1
108 60 117 83 5 12 14 41 20 65 15 58 41 82 88 82 31 0 41 -6 60 -33 14 -22
22 -48 22 -77 0 -41 -4 -49 -60 -102 -47 -45 -60 -63 -60 -87 0 -17 7 -34 16
-39 23 -13 10 -34 -84 -124 -84 -82 -106 -91 -168 -68 -15 6 -31 7 -38 2 -18
-14 -55 -21 -58 -10 -2 6 -22 5 -51 -3 l-48 -12 -112 109 c-62 60 -114 110
-116 112 -3 1 5 19 17 40 12 22 19 47 16 59 -3 12 -32 42 -65 67 -32 25 -59
53 -59 61 0 85 144 142 205 80z m103 -10 c-3 -12 -29 -8 -43 7 -7 6 -1 8 18 6
15 -2 26 -7 25 -13z m322 0 c-32 -18 -40 -18 -40 0 0 10 10 15 33 15 l32 -1
-25 -14z m-315 -57 c14 -6 25 -17 25 -25 0 -20 -14 -16 -40 12 -26 28 -23 31
15 13z m292 -15 c-20 -20 -30 -24 -38 -16 -8 8 -4 15 17 27 44 23 52 19 21
-11z m-277 -64 c0 -5 -4 -9 -10 -9 -5 0 -10 7 -10 16 0 8 5 12 10 9 6 -3 10
-10 10 -16z m270 13 c0 -13 -12 -22 -22 -16 -10 6 -1 24 13 24 5 0 9 -4 9 -8z
m-776 -328 c3 -9 6 -51 6 -94 0 -44 5 -89 11 -102 11 -25 123 -112 164 -128
15 -6 62 -10 106 -10 85 0 137 15 176 52 14 13 27 18 32 12 4 -5 36 -46 70
-91 34 -46 64 -83 66 -83 2 0 32 38 66 85 35 47 66 84 69 82 107 -63 267 -84
350 -46 86 39 104 69 121 200 7 52 13 95 15 97 8 11 92 -25 123 -54 67 -59 77
-128 30 -188 -14 -17 -19 -35 -15 -49 3 -12 13 -51 22 -86 17 -60 16 -66 0
-110 -19 -49 -39 -133 -51 -215 -7 -53 -43 -171 -135 -446 -32 -96 -68 -222
-80 -280 -48 -232 -82 -371 -119 -485 -22 -66 -58 -180 -81 -254 -61 -198
-132 -357 -210 -476 -23 -35 -27 -51 -29 -132 -1 -76 2 -100 20 -137 l21 -46
-23 -19 c-19 -15 -22 -26 -20 -72 1 -30 -3 -66 -8 -79 -9 -22 -10 -21 -9 15 0
22 -9 76 -22 120 -21 74 -22 97 -21 350 1 148 6 396 11 550 13 379 2 1065 -17
1065 -7 0 -13 -3 -13 -7 0 -5 -8 -132 -17 -283 -12 -202 -16 -458 -17 -965 -2
-612 -4 -701 -19 -785 -10 -52 -22 -99 -26 -103 -11 -11 -24 93 -16 126 7 25
-15 59 -44 68 -8 3 -1 24 19 60 33 61 60 140 60 177 0 12 -24 62 -54 110 -93
151 -144 287 -328 877 -49 160 -103 333 -118 385 -102 346 -143 492 -174 620
-19 80 -46 181 -59 225 -22 70 -25 100 -25 235 0 132 3 162 19 199 31 70 64
108 106 119 54 14 60 14 67 -4z m209 -5 c36 -19 197 -140 197 -149 0 -22 -96
-25 -150 -6 -42 15 -68 55 -76 119 -7 50 -5 53 29 36z m857 -69 c0 -51 -4 -64
-28 -91 -24 -27 -37 -33 -83 -37 -48 -4 -59 -1 -82 19 l-27 24 40 52 c35 45
49 55 103 72 34 11 65 20 70 20 4 1 7 -26 7 -59z m-202 -40 c-20 -28 -38 -39
-38 -23 0 10 42 53 52 53 5 0 -1 -13 -14 -30z m1912 -114 c-38 -68 -40 -117
-5 -144 22 -18 23 -21 9 -33 -17 -14 -18 -101 -2 -174 5 -22 13 -67 18 -100
16 -105 22 -129 40 -155 19 -26 56 -138 52 -154 -2 -5 5 -17 14 -27 9 -10 19
-33 23 -51 5 -22 13 -33 24 -32 20 2 23 -12 5 -20 -9 -3 -8 -9 6 -20 10 -8 24
-26 30 -38 12 -24 47 -31 53 -11 3 7 -5 20 -16 30 -12 9 -21 28 -21 40 0 13
-5 23 -12 23 -6 0 -9 3 -6 6 4 3 0 21 -8 39 -8 19 -14 46 -14 60 0 14 -4 25
-9 25 -12 0 -63 159 -63 199 0 19 -8 50 -18 70 -24 48 -46 209 -31 224 8 8 11
8 11 -2 0 -7 9 -24 19 -37 25 -32 65 -159 64 -204 -1 -19 8 -50 19 -68 11 -18
18 -36 14 -39 -3 -4 1 -17 10 -31 24 -37 65 -164 59 -183 -3 -9 0 -23 7 -31
31 -33 109 -184 100 -193 -4 -3 1 -11 11 -16 9 -6 17 -18 17 -27 0 -22 19 -42
38 -42 24 0 5 97 -34 172 -19 37 -34 74 -34 83 0 8 -4 23 -9 33 -34 66 -62
185 -54 225 4 22 1 29 -14 33 -14 4 -19 12 -16 28 3 14 -5 34 -22 54 -33 39
-78 165 -70 192 3 11 -3 40 -14 66 -20 44 -20 64 -1 64 5 0 12 -10 15 -22 4
-13 20 -44 36 -69 30 -47 69 -180 69 -235 0 -18 8 -38 20 -49 11 -10 20 -29
20 -42 0 -13 9 -36 20 -51 20 -27 46 -103 57 -167 3 -16 12 -38 21 -47 8 -10
12 -18 8 -18 -4 0 1 -15 12 -32 11 -18 26 -55 33 -83 6 -27 21 -60 31 -72 26
-28 14 -52 -13 -27 -22 19 -21 20 -35 -21 -5 -16 -16 -30 -24 -30 -13 0 -83
79 -109 122 -10 17 -12 17 -21 1 -17 -28 -34 -22 -82 30 -101 108 -158 212
-233 428 -82 232 -94 312 -79 496 6 66 9 75 25 71 11 -3 22 3 28 16 7 12 22
21 36 21 l24 0 -29 -54z m-2065 -8 c19 -13 35 -26 35 -29 0 -6 -109 -154 -115
-154 -5 0 -125 158 -125 165 0 14 36 38 60 42 52 8 110 -2 145 -24z m-1181
-143 c47 -118 156 -496 187 -650 17 -82 43 -195 59 -250 40 -137 123 -474 155
-625 22 -103 28 -161 32 -326 7 -242 -4 -331 -52 -450 -19 -49 -35 -97 -35
-108 -1 -17 -2 -18 -9 -6 -5 8 -14 79 -20 158 -10 140 -12 146 -105 435 -106
328 -158 499 -210 697 l-36 135 0 528 c0 290 2 527 4 527 2 0 16 -29 30 -65z
m3601 -8 c53 -87 53 -86 79 -250 8 -48 19 -94 25 -101 6 -7 8 -21 5 -30 -4
-10 2 -26 14 -39 12 -13 27 -54 37 -97 9 -41 23 -95 31 -120 13 -38 41 -153
46 -185 5 -35 -3 -95 -12 -90 -5 3 -10 17 -10 30 0 14 -9 39 -20 57 -11 18
-22 53 -26 78 -3 25 -15 65 -26 90 -35 77 -47 119 -54 186 -4 35 -11 67 -15
70 -5 3 -9 18 -9 33 0 17 -13 44 -31 67 -43 53 -67 111 -84 199 -8 42 -17 86
-21 100 -5 19 -1 24 18 28 12 2 25 5 28 6 3 0 14 -14 25 -32z m-4155 -118 c53
-28 100 -72 100 -96 1 -10 13 -27 27 -38 54 -41 93 -84 93 -101 1 -27 22 -52
51 -59 14 -3 31 -15 38 -27 12 -19 11 -20 -16 -14 -15 4 -58 37 -95 73 l-67
66 -5 -34 c-3 -19 -8 -54 -11 -79 -3 -25 -19 -110 -35 -190 l-29 -145 3 95 c2
52 7 123 10 158 6 58 5 66 -22 105 -55 79 -92 164 -92 209 0 24 -7 53 -15 64
-27 39 4 45 65 13z m-120 1 c0 -5 -5 -10 -11 -10 -5 0 -7 5 -4 10 3 6 8 10 11
10 2 0 4 -4 4 -10z m-130 -107 c17 -49 24 -99 28 -178 8 -197 9 -210 21 -239
6 -15 14 -81 17 -145 10 -208 10 -240 -4 -246 -10 -4 -9 -10 4 -29 18 -28 10
-51 -14 -41 -8 3 -19 0 -24 -7 -6 -10 -8 -9 -8 4 0 9 -5 18 -11 20 -7 2 -7 12
-1 28 5 14 8 34 6 45 -2 11 -8 58 -12 105 -5 47 -15 99 -22 115 -7 17 -14 75
-15 132 -1 57 -4 105 -7 109 -3 3 -4 23 -1 45 3 23 1 45 -6 53 -17 21 -18 160
-1 234 8 34 17 62 21 62 3 0 17 -30 29 -67z m158 -71 c23 -48 37 -95 41 -137
4 -35 10 -67 14 -71 3 -4 0 -16 -8 -27 -12 -17 -12 -24 2 -51 12 -24 14 -45 8
-106 -4 -41 -6 -93 -5 -115 9 -108 -12 -205 -47 -228 -7 -4 -13 -25 -13 -45 0
-51 -20 -86 -50 -90 l-25 -3 25 14 c19 10 25 21 25 47 1 19 4 42 8 50 8 19 20
148 19 220 -1 30 0 93 0 140 3 143 -2 180 -32 245 -25 53 -40 146 -37 218 l2
58 19 -23 c10 -13 35 -56 54 -96z m432 -93 c0 -5 -7 -6 -15 -3 -8 4 -15 13
-15 21 0 13 3 13 15 3 8 -7 15 -16 15 -21z m-293 -421 c-3 -8 -6 -5 -6 6 -1
11 2 17 5 13 3 -3 4 -12 1 -19z m-20 -70 c-3 -8 -6 -5 -6 6 -1 11 2 17 5 13 3
-3 4 -12 1 -19z m1624 -813 l-8 -160 -1 200 c-1 110 1 259 6 330 l7 130 3
-170 c1 -93 -2 -242 -7 -330z m-1329 -850 c22 -49 -25 -98 -60 -63 -13 13 -16
47 -6 72 10 26 53 20 66 -9z m2058 -32 l0 -38 -52 -1 c-50 -1 -51 0 -29 15 12
9 34 26 49 38 15 12 28 23 30 23 1 0 2 -17 2 -37z m-1438 -17 l26 -32 -26 1
c-25 0 -27 -3 -30 -52 -2 -29 2 -78 7 -108 9 -48 8 -64 -9 -108 -11 -29 -20
-66 -20 -84 0 -33 18 -83 30 -83 4 0 10 -75 13 -167 4 -104 14 -210 27 -278
31 -162 38 -215 50 -365 19 -249 41 -444 67 -600 23 -135 41 -334 28 -305 -17
40 -108 468 -120 567 -17 135 -39 232 -59 263 -26 39 -76 307 -97 520 -14 139
-7 307 16 385 21 73 53 293 57 397 2 46 5 83 8 82 3 0 17 -15 32 -33z m739
-151 c0 -21 6 -75 14 -120 l14 -80 -32 -103 -33 -102 -22 75 c-28 96 -28 190
0 363 l22 134 19 -63 c10 -35 18 -82 18 -104z m-251 131 c0 -2 -7 -6 -15 -10
-8 -3 -15 -1 -15 4 0 6 7 10 15 10 8 0 15 -2 15 -4z m169 -491 c19 -62 21 -94
21 -290 0 -181 -7 -298 -42 -660 -47 -498 -53 -708 -26 -840 9 -44 19 -100 22
-125 l6 -45 -14 35 c-8 19 -15 51 -15 70 -1 19 -15 91 -31 159 -39 156 -49
267 -39 406 5 65 5 165 -1 245 -36 488 -37 544 -15 730 14 119 23 177 77 470
l23 125 6 -105 c4 -60 16 -135 28 -175z m154 103 c3 -24 17 -110 31 -193 49
-289 50 -360 8 -975 -5 -69 -7 -150 -4 -180 4 -60 -20 -324 -43 -453 -13 -76
-83 -297 -84 -270 -1 7 8 59 19 115 24 125 25 232 5 548 -9 129 -14 312 -13
405 1 94 -4 269 -11 390 -12 215 -9 360 10 440 20 84 62 215 69 215 4 0 10
-19 13 -42z m487 -63 c-5 -22 -10 -71 -10 -109 0 -38 -4 -108 -10 -155 -5 -47
-14 -140 -20 -206 -7 -66 -20 -163 -30 -215 -41 -207 -52 -272 -75 -445 -13
-99 -29 -236 -35 -305 -6 -69 -16 -155 -21 -192 -5 -37 -9 -116 -9 -177 0 -72
-4 -112 -12 -117 -8 -5 -9 61 -4 267 7 292 15 384 47 543 35 171 39 212 54
516 17 348 33 443 96 595 25 62 43 62 29 0z m158 -135 c36 -286 36 -289 7
-475 -37 -241 -89 -497 -124 -606 -35 -112 -59 -210 -103 -424 l-33 -160 -3
104 c-2 76 3 134 18 210 36 182 70 429 100 731 6 63 23 173 37 245 44 228 53
297 53 417 0 84 3 118 13 121 6 2 13 4 13 3 1 0 11 -75 22 -166z m-1316 93
c50 -130 77 -318 78 -549 0 -171 17 -358 45 -504 13 -69 29 -163 35 -210 11
-92 14 -617 4 -670 -12 -58 -24 -9 -24 100 0 220 -52 751 -106 1078 -34 208
-47 339 -63 637 -5 83 -9 155 -11 160 -4 15 -1 25 8 25 4 0 19 -30 34 -67z
m562 -888 c-5 -92 3 -293 30 -740 2 -34 -7 -123 -20 -204 -13 -80 -24 -159
-25 -175 l-1 -31 -8 30 c-19 70 -53 308 -57 405 -3 58 0 155 5 215 6 61 23
252 39 425 24 273 29 306 35 250 4 -36 5 -114 2 -175z m-554 -1174 c-13 -50
-4 -111 17 -111 8 0 23 5 35 11 46 25 34 -20 -22 -77 -22 -23 -52 -44 -67 -47
-37 -8 -125 -94 -198 -196 -97 -134 -100 -138 -111 -134 -6 2 -23 -12 -37 -31
-15 -19 -42 -44 -61 -55 -21 -13 -37 -33 -41 -49 -7 -34 -41 -79 -51 -69 -5 4
-3 33 4 64 10 50 20 66 74 121 35 35 81 72 104 83 63 30 95 63 218 224 107
139 116 153 116 194 0 43 19 125 27 117 2 -2 -1 -23 -7 -45z m538 -161 c1 -30
-5 -77 -13 -105 l-14 -50 0 110 c0 61 2 121 6 135 l7 25 7 -30 c4 -16 7 -55 7
-85z m542 50 c6 -15 24 -41 39 -56 29 -31 71 -88 71 -98 0 -3 -11 5 -25 18
-13 12 -42 28 -63 34 -22 7 -45 19 -52 27 -7 8 -21 15 -32 15 -17 0 -19 4 -13
28 5 15 8 35 9 44 1 29 53 20 66 -12z m-485 -190 l0 -120 32 -22 c18 -13 37
-33 42 -46 6 -12 22 -27 36 -34 14 -6 25 -15 25 -19 0 -5 28 -23 61 -40 70
-35 193 -153 212 -204 4 -8 16 -15 29 -15 28 0 68 -38 68 -65 0 -14 10 -26 25
-33 14 -6 25 -16 25 -22 0 -5 11 -10 24 -10 17 0 29 -9 38 -27 17 -35 44 -41
53 -13 9 28 -2 71 -18 67 -6 -1 -13 10 -15 25 -2 14 -23 47 -47 72 -24 26 -51
67 -61 91 -9 25 -20 45 -24 45 -4 0 -12 11 -18 24 -7 15 -33 35 -66 51 -30 14
-67 40 -81 57 -29 34 -69 108 -59 108 16 0 105 -75 157 -132 31 -34 68 -75 82
-89 14 -15 25 -34 25 -43 0 -9 10 -24 21 -34 68 -55 92 -78 99 -98 5 -12 28
-32 52 -45 23 -13 48 -35 54 -48 7 -14 20 -28 28 -33 9 -5 14 -13 11 -19 -11
-17 -54 -9 -82 15 l-28 24 -10 -32 c-10 -30 -13 -31 -69 -34 l-59 -3 -56 54
c-41 40 -67 57 -94 61 -44 8 -64 24 -207 165 -70 69 -116 107 -139 113 -18 5
-52 27 -74 47 -34 32 -41 46 -48 92 -7 55 5 181 22 226 5 13 9 38 9 56 0 25 2
29 13 18 8 -8 12 -49 12 -131z m-117 23 c-4 -23 -6 -25 -12 -10 -5 9 -5 34 0
55 7 34 8 35 12 10 2 -16 2 -40 0 -55z m12 -181 c-10 -45 -20 -61 -68 -105
-138 -127 -203 -192 -224 -224 -13 -18 -57 -56 -98 -84 -41 -28 -97 -66 -124
-85 -65 -46 -119 -47 -161 -4 -35 37 -45 37 -75 5 -30 -32 -62 -29 -70 5 -5
21 -13 26 -50 30 -45 5 -48 8 -36 47 6 20 4 21 -33 16 -39 -5 -40 -5 -46 30
-5 28 -2 43 13 64 27 37 118 123 132 123 17 0 11 -8 -25 -30 -19 -12 -35 -27
-35 -33 0 -7 -9 -18 -20 -25 -12 -7 -18 -17 -14 -23 3 -6 -4 -21 -16 -34 -24
-25 -24 -60 0 -60 8 0 21 13 28 28 8 15 25 32 38 37 13 5 24 16 24 24 0 16 75
86 93 86 6 0 0 -11 -14 -23 -14 -13 -28 -31 -32 -40 -3 -9 -11 -17 -16 -17 -5
0 -12 -15 -15 -33 -3 -18 -15 -40 -26 -50 -23 -19 -27 -62 -6 -70 17 -7 55 33
49 50 -3 7 9 21 26 30 17 10 31 21 31 26 0 4 4 7 9 7 15 0 -10 -63 -31 -78
-10 -8 -18 -26 -18 -43 0 -26 4 -30 22 -27 12 2 29 17 38 33 9 17 35 40 57 53
25 14 45 34 51 51 6 16 31 44 56 63 25 18 49 44 52 56 4 13 16 34 28 47 11 12
37 44 56 70 35 49 142 145 161 145 18 0 -44 -101 -76 -125 -16 -13 -49 -32
-72 -44 -24 -12 -43 -29 -43 -38 0 -9 -6 -21 -13 -27 -8 -6 -22 -32 -31 -59
-10 -26 -26 -52 -37 -57 -10 -6 -19 -17 -19 -24 0 -8 -7 -16 -15 -20 -9 -3
-15 -18 -15 -35 0 -20 -6 -30 -20 -34 -36 -9 -20 -77 18 -77 7 0 18 14 23 30
7 19 18 30 29 30 23 0 70 42 70 62 0 23 46 68 70 68 11 0 23 7 27 16 17 44
137 167 193 198 55 30 130 93 130 110 0 6 16 21 35 34 19 12 36 28 36 35 1 6
4 3 6 -8 3 -10 0 -43 -7 -73z m940 -77 c7 -9 8 -15 2 -15 -5 0 -12 7 -16 15
-3 8 -4 15 -2 15 2 0 9 -7 16 -15z m114 -79 c66 -49 74 -59 80 -96 11 -72 -25
-163 -67 -168 -21 -3 -27 -9 -27 -27 0 -13 -6 -27 -12 -32 -16 -9 -88 -11 -82
-2 7 12 -18 59 -32 59 -8 0 -17 12 -20 28 -4 15 -11 33 -17 40 -16 20 2 14 39
-14 19 -15 34 -34 34 -44 0 -20 46 -54 60 -45 18 11 10 54 -15 81 -14 15 -25
38 -25 50 0 14 -6 24 -14 24 -8 0 -17 9 -21 20 -3 11 -20 29 -36 41 -17 12
-28 23 -26 26 15 14 117 -70 117 -95 0 -6 9 -14 20 -17 11 -4 27 -20 36 -36 9
-19 22 -29 32 -27 25 5 26 35 3 55 -12 9 -21 25 -21 35 0 10 -9 23 -20 30 -11
7 -20 18 -20 25 0 7 -18 24 -40 38 -43 27 -55 44 -17 24 38 -21 125 -100 130
-120 3 -11 10 -19 16 -19 19 0 24 30 9 48 -9 9 -18 29 -22 44 -4 16 -23 39
-49 56 -42 30 -86 72 -73 72 3 0 39 -24 80 -54z"/>
<path d="M2910 6016 c0 -57 4 -96 10 -96 6 0 10 15 10 34 0 31 3 34 36 39 47
8 64 23 64 57 0 36 -20 51 -75 58 l-45 5 0 -97z m71 64 c25 -14 24 -46 -2 -60
-30 -16 -49 -5 -49 28 0 43 14 51 51 32z"/>
<path d="M3210 6015 c0 -69 3 -95 13 -95 9 0 12 26 12 95 0 69 -3 95 -12 95
-10 0 -13 -26 -13 -95z"/>
<path d="M3436 6095 c4 -8 10 -12 15 -9 14 8 10 24 -6 24 -9 0 -12 -6 -9 -15z"/>
<path d="M3892 6099 c2 -6 8 -10 13 -10 5 0 11 4 13 10 2 6 -4 11 -13 11 -9 0
-15 -5 -13 -11z"/>
<path d="M4160 6073 c0 -29 -3 -34 -12 -25 -34 34 -88 -2 -88 -59 0 -47 20
-72 56 -70 16 1 37 2 47 2 15 0 17 12 17 95 0 56 -4 94 -10 94 -5 0 -10 -17
-10 -37z m-12 -45 c19 -19 14 -63 -8 -83 -19 -17 -21 -17 -40 0 -22 20 -25 46
-10 76 12 21 40 25 58 7z"/>
<path d="M4230 6015 c0 -57 4 -95 10 -95 6 0 10 38 10 95 0 57 -4 95 -10 95
-6 0 -10 -38 -10 -95z"/>
<path d="M3068 6043 c-52 -61 -5 -143 71 -123 14 3 26 11 29 18 3 9 -3 10 -23
2 -22 -8 -33 -7 -51 5 -37 24 -29 35 26 35 46 0 50 2 50 24 0 51 -69 76 -102
39z m72 -7 c0 -2 3 -11 6 -20 5 -13 -2 -16 -35 -16 -42 0 -50 7 -29 28 11 11
58 17 58 8z"/>
<path d="M3276 6038 c41 -134 67 -147 102 -49 12 35 20 66 17 69 -9 9 -20 -10
-40 -63 l-19 -50 -17 40 c-10 22 -20 48 -23 58 -2 9 -9 17 -16 17 -7 0 -9 -8
-4 -22z"/>
<path d="M3440 5990 c0 -40 4 -70 10 -70 6 0 10 30 10 70 0 40 -4 70 -10 70
-6 0 -10 -30 -10 -70z"/>
<path d="M3517 6042 c-35 -38 -14 -116 33 -122 32 -5 60 1 60 11 0 7 -10 9
-25 5 -17 -4 -31 0 -45 14 -40 40 -15 96 39 88 20 -3 30 -1 28 6 -7 20 -72 19
-90 -2z"/>
<path d="M3735 6038 c-20 -29 -19 -68 1 -97 14 -19 23 -22 50 -18 25 4 34 2
34 -8 0 -20 -32 -35 -58 -28 -13 3 -22 1 -22 -6 0 -8 15 -11 42 -9 54 4 68 28
68 119 l0 66 -50 2 c-40 0 -52 -3 -65 -21z m81 -23 c3 -14 3 -37 0 -51 -5 -20
-12 -25 -34 -22 -23 2 -28 8 -30 36 -5 47 3 62 32 62 19 0 27 -7 32 -25z"/>
<path d="M3890 5990 c0 -56 3 -70 15 -70 12 0 15 14 15 70 0 56 -3 70 -15 70
-12 0 -15 -14 -15 -70z"/>
<path d="M3965 6051 c-3 -2 -5 -33 -5 -68 0 -49 3 -63 15 -63 11 0 15 12 15
48 0 51 12 72 42 72 10 0 18 4 18 9 0 10 -76 11 -85 2z"/>
<path d="M170 10790 c0 -60 4 -100 10 -100 6 0 10 22 10 49 0 32 6 55 16 65
32 32 52 13 56 -53 4 -76 28 -82 28 -7 0 43 -5 61 -20 76 -22 22 -45 26 -55
10 -13 -21 -25 -9 -25 25 0 19 -4 35 -10 35 -6 0 -10 -40 -10 -100z"/>
<path d="M652 10793 c2 -66 7 -98 16 -101 9 -3 12 21 12 97 0 84 -3 101 -15
101 -13 0 -15 -15 -13 -97z"/>
<path d="M820 10855 c0 -33 -1 -34 -25 -23 -19 9 -29 8 -50 -6 -20 -13 -25
-24 -25 -60 0 -29 6 -48 18 -59 22 -20 53 -22 70 -5 9 9 12 9 12 0 0 -7 5 -12
10 -12 6 0 10 40 10 100 0 60 -4 100 -10 100 -5 0 -10 -16 -10 -35z m-16 -51
c29 -28 13 -94 -22 -94 -26 0 -42 20 -42 51 0 27 22 59 40 59 5 0 16 -7 24
-16z"/>
<path d="M1507 10883 c-12 -11 -8 -23 8 -23 8 0 15 7 15 15 0 16 -12 20 -23 8z"/>
<path d="M1670 10855 c0 -33 -1 -34 -25 -23 -19 9 -29 8 -50 -6 -20 -13 -25
-24 -25 -60 0 -29 6 -48 18 -59 22 -20 53 -22 70 -5 9 9 12 9 12 0 0 -7 5 -12
10 -12 6 0 10 40 10 100 0 60 -4 100 -10 100 -5 0 -10 -16 -10 -35z m-16 -51
c29 -28 13 -94 -22 -94 -26 0 -42 20 -42 51 0 27 22 59 40 59 5 0 16 -7 24
-16z"/>
<path d="M16 10864 c-34 -33 -11 -70 54 -89 32 -10 41 -24 29 -47 -11 -20 -50
-24 -80 -8 -15 8 -19 7 -19 -4 0 -30 87 -37 113 -8 36 39 12 81 -56 98 -21 5
-27 12 -25 28 3 18 10 21 46 21 27 0 42 4 42 13 0 18 -85 16 -104 -4z"/>
<path d="M349 10821 c-48 -38 -19 -131 41 -131 36 0 60 29 60 73 0 66 -53 97
-101 58z m65 -17 c18 -18 20 -47 6 -75 -12 -21 -40 -25 -58 -7 -18 18 -15 75
6 87 23 14 28 14 46 -5z"/>
<path d="M907 10820 c-58 -45 -23 -134 50 -128 48 4 53 23 7 23 -27 0 -40 6
-51 23 -15 22 -15 22 41 22 47 0 56 3 56 18 0 51 -61 75 -103 42z m69 -17 c17
-17 16 -18 -20 -21 -45 -4 -54 2 -36 23 16 20 35 19 56 -2z"/>
<path d="M1091 10831 c-8 -5 -20 -7 -28 -4 -10 4 -13 -11 -13 -66 0 -41 4 -71
10 -71 6 0 10 22 10 49 0 52 21 87 46 77 8 -3 14 1 14 9 0 17 -18 19 -39 6z"/>
<path d="M1253 10825 c-34 -24 -33 -98 2 -121 21 -14 31 -15 50 -6 28 13 32 5
12 -23 -11 -14 -21 -17 -46 -12 -24 5 -31 3 -29 -6 7 -20 67 -21 89 -1 16 14
19 31 19 95 0 67 -2 78 -17 78 -10 -1 -27 2 -38 6 -12 3 -30 -1 -42 -10z m61
-21 c9 -8 16 -26 16 -39 0 -23 -23 -55 -40 -55 -18 0 -40 32 -40 59 0 47 34
66 64 35z"/>
<path d="M1441 10831 c-8 -5 -20 -7 -28 -4 -10 4 -13 -11 -13 -66 0 -41 4 -71
10 -71 6 0 10 22 10 49 0 52 21 87 46 77 8 -3 14 1 14 9 0 17 -18 19 -39 6z"/>
<path d="M490 10779 c0 -28 5 -59 10 -70 11 -20 54 -26 65 -9 5 8 11 8 19 1
20 -17 26 -2 26 66 0 49 -3 63 -15 63 -11 0 -15 -12 -15 -49 0 -95 -62 -97
-68 -2 -4 66 -22 67 -22 0z"/>
<path d="M1502 10763 c2 -42 8 -68 16 -71 9 -3 12 15 12 67 0 57 -3 71 -15 71
-13 0 -15 -12 -13 -67z"/>
<path d="M239 8463 c-32 -84 -59 -156 -59 -159 0 -14 22 1 32 21 9 21 18 25
53 25 35 0 44 -4 53 -26 7 -14 16 -23 21 -20 5 3 -6 45 -24 93 -36 95 -57 114
-76 66z m60 -85 c1 -5 -15 -8 -35 -8 -30 0 -35 3 -29 18 4 9 12 30 18 47 l10
29 18 -39 c10 -22 18 -43 18 -47z"/>
<path d="M379 8445 c0 -3 0 -34 -1 -70 0 -76 16 -93 20 -20 4 55 15 75 43 75
11 0 19 5 19 10 0 14 -33 13 -48 -2 -9 -9 -12 -9 -12 0 0 11 -19 18 -21 7z"/>
<path d="M480 8375 c0 -43 4 -75 10 -75 6 0 10 24 10 54 0 60 19 88 48 69 12
-7 18 -27 20 -67 4 -71 22 -74 22 -3 0 55 12 77 41 77 22 0 29 -20 29 -81 0
-27 5 -49 10 -49 13 0 13 106 0 131 -13 23 -38 24 -68 3 -12 -8 -22 -10 -22
-5 0 17 -49 25 -65 11 -10 -9 -15 -9 -15 -1 0 6 -4 11 -10 11 -6 0 -10 -32
-10 -75z"/>
<path d="M270 5715 c0 -57 4 -95 10 -95 6 0 10 20 10 45 l0 45 50 0 50 0 0
-45 c0 -25 5 -45 10 -45 6 0 10 38 10 95 0 57 -4 95 -10 95 -5 0 -10 -18 -10
-40 l0 -40 -50 0 -50 0 0 40 c0 22 -4 40 -10 40 -6 0 -10 -38 -10 -95z"/>
<path d="M872 5781 c4 -28 3 -28 -33 -24 -30 4 -39 1 -53 -18 -20 -30 -21 -68
0 -97 12 -18 23 -22 65 -20 l49 2 0 93 c0 79 -2 93 -16 93 -12 0 -15 -7 -12
-29z m-4 -86 c3 -28 -1 -43 -14 -52 -28 -21 -54 1 -54 46 0 45 6 53 40 49 21
-3 25 -9 28 -43z"/>
<path d="M467 5753 c-15 -14 -5 -18 32 -15 28 3 40 0 44 -12 5 -12 0 -16 -21
-16 -55 0 -93 -51 -59 -79 8 -6 35 -10 60 -9 l47 2 0 52 c0 35 -5 58 -16 68
-15 16 -75 22 -87 9z m83 -77 c0 -19 -38 -46 -56 -39 -14 5 -19 35 -7 46 13
13 63 7 63 -7z"/>
<path d="M620 5690 c0 -81 17 -95 22 -19 3 55 21 78 52 66 12 -5 16 -20 16
-62 0 -42 3 -55 15 -55 19 0 20 74 2 110 -14 28 -51 38 -73 20 -10 -9 -14 -9
-14 -1 0 6 -4 11 -10 11 -6 0 -10 -30 -10 -70z"/>
<path d="M1820 3656 l0 -96 60 0 c33 0 60 4 60 10 0 6 -23 10 -51 10 l-50 0 2
82 c1 55 -2 83 -9 86 -9 3 -12 -24 -12 -92z"/>
<path d="M1967 3682 c-23 -25 -22 -85 2 -106 21 -19 92 -19 98 0 2 6 -10 8
-32 6 -35 -4 -69 12 -62 31 1 5 25 10 52 11 47 1 50 3 47 25 -1 14 -7 30 -13
38 -17 19 -73 16 -92 -5z m81 -24 c3 -15 -4 -18 -37 -18 -43 0 -50 7 -29 28
18 18 62 11 66 -10z"/>
<path d="M1710 910 c0 -73 3 -90 15 -90 11 0 15 12 15 45 0 45 0 45 35 45 19
0 35 5 35 10 0 6 -16 10 -35 10 -31 0 -35 3 -35 25 0 23 4 25 40 25 22 0 40 5
40 10 0 6 -25 10 -55 10 l-55 0 0 -90z"/>
<path d="M1860 940 c-28 -28 -26 -75 5 -105 29 -30 45 -31 79 -4 50 39 23 129
-39 129 -14 0 -34 -9 -45 -20z m76 -29 c14 -27 5 -60 -19 -75 -23 -15 -47 10
-47 48 0 57 43 74 66 27z"/>
<path d="M2016 938 c-35 -49 -7 -128 44 -128 27 0 70 43 70 70 0 24 -18 61
-34 72 -23 16 -65 8 -80 -14z m72 -10 c17 -17 15 -73 -3 -88 -20 -16 -43 -6
-57 25 -22 49 25 98 60 63z"/>
</g>
</svg>
