<?xml version="1.0" standalone="no"?>
<!DOCTYPE svg PUBLIC "-//W3C//DTD SVG 20010904//EN"
 "http://www.w3.org/TR/2001/REC-SVG-20010904/DTD/svg10.dtd">
<svg version="1.0" xmlns="http://www.w3.org/2000/svg"
 width="1279.000000pt" height="1280.000000pt" viewBox="0 0 1279.000000 1280.000000"
 preserveAspectRatio="xMidYMid meet">
<metadata>
Created by potrace 1.15, written by Peter Selinger 2001-2017
</metadata>
<g transform="translate(0.000000,1280.000000) scale(0.100000,-0.100000)"
fill="#000000" stroke="none">
<path d="M6373 12784 c-3 -8 22 -90 57 -182 185 -493 205 -580 197 -832 -12
-366 -105 -610 -483 -1272 -211 -369 -250 -458 -313 -709 -16 -63 -34 -114
-40 -114 -15 0 -161 162 -230 255 -119 160 -158 258 -281 719 -92 341 -147
508 -226 683 -157 347 -312 537 -583 717 -122 80 -469 261 -501 261 -56 0 -30
-45 122 -209 299 -324 336 -373 423 -554 110 -227 135 -367 135 -740 0 -241
-12 -391 -62 -772 -39 -297 -43 -535 -12 -732 l20 -123 -21 6 c-40 13 -256
126 -327 173 -167 109 -238 185 -508 541 -197 261 -273 351 -404 482 -298 298
-567 447 -916 507 -252 44 -522 60 -539 32 -5 -8 -7 -20 -4 -27 2 -6 75 -45
161 -85 324 -149 459 -218 522 -264 210 -156 366 -347 485 -598 87 -183 142
-347 275 -827 85 -304 108 -376 162 -495 35 -79 130 -253 177 -324 l15 -24
-130 6 c-144 8 -324 36 -424 68 -90 29 -298 137 -530 274 -357 212 -584 314
-874 390 -319 85 -581 67 -996 -67 -184 -60 -232 -82 -223 -103 12 -32 49 -37
338 -45 229 -7 315 -14 393 -30 349 -71 617 -247 951 -624 92 -105 148 -174
416 -512 148 -187 292 -334 436 -445 65 -51 119 -95 119 -98 0 -13 -262 -95
-392 -122 -90 -19 -124 -20 -273 -15 -93 3 -255 17 -360 31 -104 15 -239 33
-300 41 -569 76 -1036 -3 -1381 -235 -193 -129 -449 -353 -442 -387 6 -31 52
-20 338 86 314 116 395 137 555 146 215 11 413 -20 630 -101 140 -51 506 -232
720 -355 367 -211 543 -289 780 -349 l107 -27 -104 -100 c-114 -108 -227 -189
-353 -252 -99 -49 -147 -64 -505 -157 -644 -167 -959 -315 -1216 -570 -162
-161 -257 -300 -394 -573 -67 -135 -83 -188 -57 -198 22 -8 34 2 254 202 107
98 222 200 254 226 157 126 384 223 618 263 58 10 158 15 325 15 265 0 347 -6
698 -50 425 -54 656 -61 841 -25 109 21 120 20 112 -7 -15 -49 -117 -247 -167
-323 -75 -113 -245 -279 -442 -430 -406 -311 -579 -464 -734 -650 -168 -200
-283 -419 -333 -634 -52 -222 -87 -623 -57 -648 26 -22 52 21 176 288 66 140
134 279 152 309 143 233 351 416 632 553 183 90 319 136 778 267 525 150 619
186 820 315 37 25 72 45 76 45 4 0 4 -71 1 -158 -12 -318 -65 -460 -339 -917
-133 -223 -203 -356 -262 -498 -58 -140 -112 -306 -143 -434 -25 -108 -28
-134 -27 -313 0 -174 3 -208 26 -315 48 -217 155 -538 183 -548 37 -15 41 17
55 413 12 334 27 416 112 615 135 314 361 554 948 1006 283 218 425 353 557
531 40 53 77 99 82 102 10 7 99 -252 126 -365 10 -44 15 -118 15 -240 0 -177
-10 -285 -65 -674 -48 -334 -44 -647 12 -900 67 -309 229 -590 511 -886 108
-114 149 -118 107 -12 -68 175 -179 489 -206 583 -34 114 -34 116 -34 325 0
232 7 278 70 473 80 247 146 385 408 841 185 324 261 496 318 720 15 62 30
115 32 118 6 6 165 -170 229 -253 116 -152 164 -275 287 -734 95 -353 109
-402 161 -530 191 -474 396 -727 754 -934 154 -89 397 -208 412 -202 40 15 12
54 -194 281 -76 83 -163 179 -193 215 -169 195 -271 443 -309 755 -25 202 -11
440 57 990 43 344 48 526 20 732 -10 73 -17 139 -15 147 7 34 299 -120 438
-232 86 -68 194 -188 330 -367 450 -590 682 -812 1013 -970 120 -58 243 -97
372 -120 205 -35 501 -57 553 -41 53 17 29 32 -278 176 -423 199 -533 279
-722 529 -159 210 -264 474 -438 1101 -45 162 -94 327 -107 365 -38 104 -112
257 -180 372 -34 56 -60 103 -58 105 10 10 306 -14 393 -31 198 -41 305 -89
650 -295 550 -327 908 -456 1261 -456 224 1 374 28 659 122 158 52 208 80 197
110 -7 19 -52 23 -425 38 -259 10 -336 22 -492 76 -166 58 -270 118 -438 252
-173 139 -364 352 -656 731 -245 320 -348 427 -541 564 -56 39 -99 75 -95 79
15 15 282 100 373 118 164 34 376 26 754 -26 304 -42 433 -54 614 -54 447 0
767 103 1091 354 186 144 323 270 318 294 -7 39 -32 32 -411 -111 -232 -88
-286 -103 -433 -118 -169 -17 -360 3 -584 62 -161 43 -445 179 -810 389 -385
221 -530 286 -785 350 -49 13 -94 26 -98 30 -21 18 273 256 404 327 106 58
207 91 588 192 359 95 460 129 666 222 242 110 425 236 576 397 88 94 137 164
241 352 169 304 186 344 152 357 -28 11 -76 -24 -219 -158 -270 -255 -357
-325 -490 -391 -221 -111 -456 -160 -770 -161 -191 -1 -286 8 -685 59 -376 48
-639 54 -859 19 -52 -8 -96 -13 -99 -11 -2 2 26 62 61 133 141 280 253 409
562 643 382 290 511 401 664 571 137 152 221 272 296 424 87 177 138 384 165
680 15 163 13 244 -5 251 -33 13 -44 -3 -185 -306 -156 -333 -249 -470 -412
-606 -124 -103 -232 -172 -380 -244 -174 -84 -320 -133 -771 -260 -217 -61
-423 -122 -458 -136 -82 -34 -232 -109 -342 -173 -49 -28 -90 -51 -93 -51 -19
0 15 330 47 460 40 163 85 255 291 603 248 421 365 698 423 1007 23 124 30
309 15 425 -20 160 -105 472 -189 690 l-19 50 -16 -39 c-21 -50 -24 -88 -36
-401 -14 -360 -36 -473 -135 -682 -99 -209 -260 -402 -545 -654 -69 -61 -168
-140 -506 -406 -163 -128 -313 -277 -421 -418 -47 -60 -89 -111 -93 -113 -21
-8 -116 302 -141 461 -19 122 -5 324 42 637 37 249 42 298 46 523 6 265 -4
403 -38 567 -62 303 -213 563 -506 870 -85 90 -108 104 -120 74z"/>
</g>
</svg>
