<?xml version="1.0" standalone="no"?>
<!DOCTYPE svg PUBLIC "-//W3C//DTD SVG 20010904//EN"
 "http://www.w3.org/TR/2001/REC-SVG-20010904/DTD/svg10.dtd">
<svg version="1.0" xmlns="http://www.w3.org/2000/svg"
 width="1280.000000pt" height="870.000000pt" viewBox="0 0 1280.000000 870.000000"
 preserveAspectRatio="xMidYMid meet">
<metadata>
Created by potrace 1.15, written by Peter Selinger 2001-2017
</metadata>
<g transform="translate(0.000000,870.000000) scale(0.100000,-0.100000)"
fill="#000000" stroke="none">
<path d="M3840 8684 c-82 -21 -247 -106 -336 -172 -100 -74 -187 -168 -241
-257 -22 -39 -82 -124 -133 -190 -66 -86 -110 -157 -156 -252 -74 -151 -97
-176 -254 -272 -113 -70 -181 -139 -208 -214 -23 -62 -36 -255 -37 -542 0
-104 -3 -195 -7 -200 -3 -6 -12 -58 -18 -115 -6 -58 -18 -132 -26 -165 -37
-144 -132 -446 -206 -654 -44 -124 -107 -311 -139 -416 -136 -433 -220 -669
-289 -806 -19 -37 -26 -59 -18 -59 7 0 -12 -24 -41 -52 -29 -29 -97 -112 -151
-184 -112 -149 -139 -173 -316 -285 -424 -267 -889 -664 -1034 -881 -79 -118
-110 -179 -153 -308 -123 -361 -92 -808 82 -1185 79 -169 254 -421 361 -517
71 -65 120 -84 160 -63 43 22 43 40 -1 110 -47 74 -64 132 -49 170 8 22 15 25
54 25 51 0 66 16 66 72 0 45 -24 81 -124 186 -47 50 -92 107 -101 128 -29 66
-83 295 -94 396 -20 182 -12 356 24 475 39 131 248 374 429 501 50 35 244 155
433 268 189 113 343 207 343 209 0 3 -12 0 -26 -6 -15 -5 -28 -8 -30 -6 -2 2
92 67 209 145 202 136 213 139 87 29 -66 -58 -53 -52 66 30 127 88 247 186
334 273 92 91 404 464 392 468 -5 1 28 40 72 85 95 96 171 207 265 384 87 166
131 234 194 301 59 62 114 91 172 92 104 1 159 30 171 89 6 28 11 31 94 50
139 33 169 35 274 16 119 -21 237 -16 348 15 43 11 97 20 120 18 l43 -3 6 -75
c10 -121 68 -214 201 -322 58 -47 78 -102 78 -211 0 -43 7 -107 16 -141 29
-111 105 -294 140 -335 40 -46 43 -79 12 -129 -18 -29 -23 -55 -26 -127 -8
-187 60 -424 256 -880 121 -284 202 -513 202 -573 0 -55 -13 -102 -74 -277
-44 -123 -45 -130 -26 -133 24 -4 24 -3 1 -44 -43 -75 -60 -239 -61 -563 0
-325 9 -485 28 -485 9 0 12 -6 9 -17 -3 -10 -22 -74 -42 -143 -42 -142 -73
-206 -149 -305 -30 -38 -50 -72 -45 -76 5 -3 -13 -20 -40 -38 -93 -60 -224
-221 -263 -323 -61 -160 34 -209 412 -212 214 -1 554 18 639 36 34 8 95 37
165 78 62 37 150 85 196 107 135 63 187 143 141 215 -44 69 -46 76 -27 97 10
11 32 25 49 32 18 7 47 23 65 35 18 13 73 39 123 60 103 43 143 79 133 122
-10 40 -61 157 -96 215 -34 58 -48 117 -28 117 9 0 9 4 2 13 -25 30 -33 106
-32 281 3 290 3 297 -40 422 -79 232 -93 379 -52 536 29 108 275 706 362 878
141 280 241 322 540 231 227 -70 386 -108 600 -146 113 -20 219 -40 236 -46
47 -15 70 -47 93 -132 25 -93 44 -132 122 -252 98 -152 131 -240 213 -575 74
-300 87 -407 102 -895 8 -260 6 -267 -162 -430 -108 -106 -164 -177 -164 -210
1 -21 280 -192 338 -207 21 -6 22 -9 12 -28 -7 -12 -28 -36 -48 -54 -82 -71
-152 -164 -152 -201 0 -85 217 -138 570 -139 168 -1 201 2 240 17 32 14 87 21
195 27 160 8 173 11 220 45 17 12 79 45 139 74 60 28 115 59 122 68 20 27 19
172 -2 180 -17 6 -113 132 -138 181 -23 44 -20 85 14 217 35 136 35 135 13
135 -14 0 -12 5 9 27 50 54 79 131 148 393 56 214 97 413 113 553 13 113 13
118 -5 114 -25 -7 -23 8 7 47 32 42 59 105 134 311 65 178 103 250 259 490 47
72 107 167 134 212 162 275 309 648 382 974 31 139 32 146 11 129 -11 -9 -15
-9 -15 -1 0 6 11 16 24 22 51 23 87 101 107 232 8 47 10 163 7 335 -6 306 -13
297 97 132 95 -143 151 -254 180 -360 14 -52 35 -129 46 -170 11 -41 31 -91
43 -110 14 -22 24 -52 24 -75 1 -70 62 -355 102 -475 40 -122 80 -209 137
-299 35 -55 289 -325 513 -546 102 -101 128 -133 165 -205 81 -156 186 -250
278 -250 42 0 54 5 83 34 20 20 34 44 34 58 0 29 -26 68 -46 68 -17 0 -17 0 2
39 35 71 -6 208 -100 329 -72 94 -131 131 -316 197 -58 20 -132 51 -165 69
-108 56 -278 252 -367 424 -93 178 -127 292 -158 532 -27 202 -45 290 -87 430
-90 300 -213 532 -413 780 -283 352 -462 661 -525 905 -20 77 -30 97 -67 137
-24 26 -93 116 -153 200 -263 370 -368 478 -467 478 -27 0 -37 6 -51 30 -10
16 -44 50 -76 74 -32 25 -82 74 -109 110 -87 110 -260 234 -402 287 -186 70
-622 192 -845 238 -355 72 -426 80 -600 69 -204 -14 -347 2 -440 47 -197 97
-471 135 -725 100 -137 -19 -289 -19 -370 1 -36 8 -113 30 -172 49 -123 39
-157 45 -288 49 -195 8 -302 35 -587 150 -399 160 -523 194 -776 215 -190 16
-589 13 -657 -5z m7227 -3916 c-3 -8 -6 -5 -6 6 -1 11 2 17 5 13 3 -3 4 -12 1
-19z m-10 -40 c-3 -8 -6 -5 -6 6 -1 11 2 17 5 13 3 -3 4 -12 1 -19z m-9907
-1573 c0 -2 -13 -11 -30 -20 -38 -19 -40 -11 -2 9 31 17 32 18 32 11z m-70
-40 c0 -3 -27 -18 -60 -35 -33 -17 -60 -28 -60 -25 0 2 26 18 58 34 64 34 62
33 62 26z m-909 -335 c-27 -52 -57 -117 -67 -144 -10 -27 -20 -44 -22 -38 -7
22 122 291 135 279 1 -2 -20 -45 -46 -97z"/>
<path d="M12215 3050 c15 -30 109 -150 118 -150 4 0 -6 19 -23 43 -38 52 -105
127 -95 107z"/>
</g>
</svg>
