<?xml version="1.0" standalone="no"?>
<!DOCTYPE svg PUBLIC "-//W3C//DTD SVG 20010904//EN"
 "http://www.w3.org/TR/2001/REC-SVG-20010904/DTD/svg10.dtd">
<svg version="1.0" xmlns="http://www.w3.org/2000/svg"
 width="1040.000000pt" height="1280.000000pt" viewBox="0 0 1040.000000 1280.000000"
 preserveAspectRatio="xMidYMid meet">
<metadata>
Created by potrace 1.15, written by Peter Selinger 2001-2017
</metadata>
<g transform="translate(0.000000,1280.000000) scale(0.100000,-0.100000)"
fill="#000000" stroke="none">
<path d="M3695 12243 c-42 -120 -77 -251 -110 -408 -84 -400 -116 -507 -192
-643 -58 -103 -169 -239 -309 -377 -143 -141 -168 -178 -217 -330 -32 -97 -97
-364 -97 -397 0 -12 16 -68 35 -123 20 -55 38 -108 41 -117 5 -15 -7 -16 -133
-15 -134 2 -225 -11 -239 -35 -11 -18 3 -18 42 -1 30 13 68 17 169 17 72 0
142 -4 157 -7 26 -7 53 -49 126 -198 1 -3 -64 -9 -145 -12 -205 -8 -352 -42
-392 -90 -18 -23 -11 -21 46 8 71 36 179 55 353 62 l155 6 24 -43 c30 -54 191
-297 243 -368 22 -29 38 -56 35 -58 -2 -2 -10 2 -17 11 -18 22 -52 19 -128
-11 -210 -83 -499 -306 -642 -495 -30 -39 -95 -115 -143 -167 -157 -170 -238
-289 -343 -507 -71 -149 -113 -258 -178 -468 l-46 -147 0 -163 c0 -196 22
-317 74 -419 l34 -68 -41 -10 c-223 -57 -496 -176 -632 -277 -193 -143 -271
-267 -330 -521 -143 -615 -130 -1191 34 -1583 30 -71 267 -394 423 -576 226
-263 455 -447 659 -529 l46 -18 6 -300 c4 -164 7 -496 7 -736 l0 -437 133 -56
c72 -30 303 -127 512 -215 209 -88 506 -213 660 -278 l280 -119 375 0 c347 0
378 -1 413 -19 47 -23 60 -46 47 -81 -19 -50 -11 -108 24 -181 41 -85 82 -122
185 -164 85 -34 116 -36 248 -16 103 15 186 50 293 121 75 50 83 66 115 228
10 46 21 90 25 97 7 11 171 15 811 22 442 5 804 10 805 11 2 1 6 587 10 1303
l7 1300 -104 96 c-57 53 -181 159 -276 236 -95 76 -191 156 -215 178 l-44 40
-12 135 c-39 425 -223 846 -457 1042 -77 64 -183 121 -262 139 l-51 12 48 61
c317 399 425 857 291 1234 -28 81 -28 83 -7 77 71 -20 281 -58 392 -71 228
-27 306 -18 463 50 310 135 539 385 611 669 43 169 18 291 -112 541 -35 69
-138 206 -209 280 l-58 61 106 94 c328 291 654 560 936 771 l168 126 135 28
134 27 49 -45 c55 -52 82 -62 148 -54 54 6 90 30 121 83 29 50 24 94 -18 146
l-31 38 26 44 26 44 64 -33 c118 -62 172 -55 196 25 10 33 9 47 -5 85 -10 25
-31 54 -47 66 -25 18 -28 23 -18 42 7 12 13 23 14 25 2 2 15 -8 30 -22 37 -34
103 -43 160 -22 83 32 97 96 41 189 l-34 56 19 73 c10 40 21 100 25 132 l7 60
-142 136 -142 137 -52 -14 c-28 -7 -75 -13 -104 -13 l-53 0 0 33 c-1 53 -34
115 -73 133 -51 24 -98 12 -152 -40 -56 -53 -58 -85 -13 -174 l32 -63 -29 -24
c-17 -13 -33 -24 -36 -25 -3 0 -20 21 -39 46 -37 52 -83 84 -121 84 -30 0
-103 -59 -124 -101 -28 -54 -19 -91 42 -165 18 -23 33 -48 33 -57 0 -9 -17
-28 -37 -42 l-38 -25 -7 55 c-12 95 -49 135 -124 135 -91 0 -204 -108 -204
-196 0 -38 28 -79 71 -103 l38 -22 -34 -78 c-18 -43 -40 -92 -49 -110 -11 -21
-324 -277 -941 -771 -508 -406 -932 -744 -942 -750 -16 -10 -41 1 -163 72
-321 186 -391 244 -389 323 0 27 11 37 112 103 62 40 166 119 232 176 l120
104 58 -31 c32 -17 67 -42 78 -55 11 -14 22 -22 25 -19 13 13 -25 53 -84 88
l-60 35 129 114 c149 131 139 101 114 330 -15 146 -37 264 -61 332 -13 38 -92
193 -140 274 l-18 31 108 121 c189 211 280 339 506 706 120 195 149 250 139
258 -57 37 -77 42 -164 42 -113 -1 -239 -31 -475 -114 -525 -185 -559 -194
-695 -187 -112 6 -159 19 -375 112 -287 123 -397 143 -546 99 -19 -5 -30 12
-109 173 -221 451 -372 645 -616 792 l-37 21 -17 -47z m591 -854 c101 -160
130 -199 143 -192 29 13 174 15 246 3 88 -14 302 -72 392 -106 37 -14 112 -46
167 -72 l98 -46 107 18 c58 9 168 33 245 52 76 19 140 33 141 32 7 -8 185
-256 248 -345 43 -61 77 -101 85 -98 26 9 -100 -157 -197 -260 -91 -96 -90
-76 -17 -216 108 -207 146 -359 146 -579 0 -94 -4 -119 -18 -138 -17 -22 -19
-22 -60 -8 -100 36 -207 49 -437 53 -252 6 -413 -8 -625 -51 -144 -29 -290
-73 -290 -87 0 -6 8 -9 18 -6 9 2 57 17 106 31 220 65 457 96 731 96 105 0
229 -5 275 -10 101 -13 240 -48 240 -62 0 -5 -37 -47 -83 -95 l-83 -85 -71 21
c-212 63 -446 94 -723 95 -218 1 -420 -17 -420 -36 0 -7 18 -8 48 -5 370 47
727 25 1060 -65 45 -13 82 -25 81 -28 -1 -10 -115 -98 -191 -148 -105 -68
-213 -111 -314 -125 -71 -10 -84 -14 -93 -35 -23 -50 -2 -110 71 -199 92 -111
334 -292 511 -381 l79 -39 -285 -226 c-157 -125 -292 -230 -301 -233 -9 -4
-33 8 -58 29 -123 99 -357 226 -518 280 -160 54 -339 72 -471 47 -148 -28
-328 -107 -478 -210 -226 -155 -424 -371 -649 -707 -45 -67 -98 -138 -117
-157 -58 -58 -104 -58 -105 0 0 23 60 127 96 165 29 31 30 39 4 32 -48 -13
-129 -140 -174 -275 -69 -204 -51 -386 50 -497 20 -23 30 -39 23 -37 -9 3 -38
-24 -75 -72 -34 -42 -103 -128 -153 -190 -50 -63 -88 -118 -85 -124 12 -19
-88 41 -186 111 -157 113 -370 374 -475 586 -105 209 -119 342 -61 567 110
427 285 756 544 1018 52 52 108 115 125 140 190 280 430 437 777 505 47 10 91
19 98 21 10 3 5 15 -16 42 -75 95 -309 468 -299 478 7 7 160 -14 312 -43 166
-31 352 -90 336 -106 -32 -32 3 -92 80 -136 27 -15 46 -30 43 -33 -11 -12 73
-68 130 -88 71 -24 147 -26 206 -5 38 13 46 13 100 -5 70 -23 130 -26 168 -6
32 17 88 73 80 81 -3 3 -25 1 -49 -4 -24 -6 -72 -11 -107 -11 l-63 0 45 48
c88 94 115 142 142 257 42 185 -29 355 -191 455 -35 22 -51 25 -125 24 -186
-2 -315 -81 -397 -242 -22 -42 -53 -150 -56 -194 -2 -22 2 -23 -58 7 -145 74
-441 177 -629 219 -117 26 -110 19 -161 146 -20 47 -23 73 -22 185 0 252 53
369 287 642 52 61 113 130 136 153 92 96 155 219 234 459 47 145 53 156 76
157 14 1 70 6 125 13 55 6 120 13 145 16 103 11 254 31 257 34 1 0 59 -89 129
-200z m4404 -637 c46 -46 54 -152 12 -152 -30 0 -122 51 -139 76 -21 33 -10
68 29 87 47 23 66 21 98 -11z m241 -189 c39 -28 49 -43 28 -43 -7 0 -34 -16
-62 -36 l-50 -36 -19 23 c-33 41 -51 69 -47 73 12 10 86 45 97 46 8 0 31 -12
53 -27z m-556 -9 c19 -8 45 -55 45 -83 0 -11 -10 -32 -23 -47 -19 -22 -28 -25
-54 -20 -67 15 -87 83 -38 131 25 26 41 30 70 19z m394 -168 c-8 -7 -45 -39
-83 -72 l-68 -59 -29 35 c-16 19 -29 37 -29 41 0 12 100 138 121 153 21 14 24
13 62 -35 33 -42 38 -52 26 -63z m-180 12 c-18 -24 -34 -45 -36 -47 -1 -2 -9
2 -18 9 -13 11 -9 17 32 46 27 19 49 34 51 34 2 0 -11 -19 -29 -42z m491 -72
l21 -35 -26 -51 -26 -51 -39 48 -39 48 39 38 c22 20 41 37 44 37 2 0 14 -15
26 -34z m-1055 -12 c20 -8 40 -48 49 -97 6 -34 5 -38 -19 -47 -34 -13 -81 -13
-106 0 -35 19 -16 113 28 139 21 12 26 13 48 5z m447 -69 c-4 -6 -40 -54 -80
-108 l-74 -96 -25 29 c-15 18 -21 35 -17 42 31 51 129 180 143 188 12 7 21 3
38 -17 12 -15 19 -32 15 -38z m-163 -62 c-23 -32 -44 -60 -45 -62 -5 -6 -35
21 -32 30 4 10 101 88 111 89 4 0 -11 -26 -34 -57z m202 35 c10 -13 18 -27 18
-33 0 -11 -168 -156 -189 -163 -8 -3 -11 1 -8 9 6 16 151 209 156 209 2 0 12
-10 23 -22z m448 -46 c23 -29 39 -57 36 -62 -7 -11 -163 -100 -175 -100 -9 0
-70 71 -70 81 0 10 153 140 161 137 4 -2 26 -27 48 -56z m249 -109 c15 -21 15
-41 1 -82 -11 -31 -13 -32 -53 -26 -54 9 -110 36 -114 55 -4 24 20 50 63 65
45 16 84 12 103 -12z m-1027 -25 c8 -15 -1 -33 -46 -95 -34 -46 -55 -68 -55
-57 0 26 41 166 53 182 11 14 31 2 48 -30z m729 -33 c-53 -53 -54 -54 -68 -33
-17 23 -22 18 68 69 25 14 47 24 49 22 3 -2 -19 -28 -49 -58z m-207 -63 c-44
-32 -204 -113 -213 -107 -19 12 -10 24 83 105 l92 81 28 -33 c26 -31 26 -34
10 -46z m-464 -3 c-11 -21 -131 -109 -148 -109 -19 0 -13 12 51 99 l62 84 22
-28 c17 -21 20 -33 13 -46z m519 -30 l24 -29 -24 -21 c-12 -11 -63 -40 -113
-64 l-90 -44 -22 27 c-12 15 -21 30 -20 35 2 7 206 125 217 126 3 0 16 -13 28
-30z m254 -69 c24 -25 29 -36 23 -58 -12 -49 -34 -62 -89 -51 -27 5 -55 14
-62 20 -22 18 -17 67 11 94 34 35 78 33 117 -5z m-1042 -51 c6 -11 10 -24 8
-28 -2 -5 -119 -104 -262 -220 l-258 -212 -16 23 c-9 13 -16 24 -15 26 5 9
519 431 525 432 4 0 12 -9 18 -21z m-4759 -60 c76 -21 184 -56 242 -78 137
-51 329 -149 321 -163 -4 -6 2 -18 12 -26 18 -14 18 -14 -1 -7 -61 23 -377 95
-480 109 -66 10 -142 20 -168 24 l-49 7 -49 89 c-27 49 -49 91 -49 93 0 9 86
-10 221 -48z m5189 46 c0 -2 -10 -10 -22 -16 -21 -11 -22 -11 -9 4 13 16 31
23 31 12z m221 -25 c-31 -27 -51 -31 -51 -11 0 7 63 38 80 40 3 0 -10 -13 -29
-29z m-188 -16 c11 -14 17 -27 15 -28 -1 -2 -44 -22 -95 -44 -72 -32 -94 -38
-102 -28 -8 9 -5 18 12 33 22 21 137 93 147 93 3 0 13 -12 23 -26z m-420 -65
c-10 -9 -126 -106 -258 -213 l-239 -196 -23 27 c-12 16 -22 30 -22 33 0 3 117
101 261 218 l261 212 19 -31 c19 -31 19 -33 1 -50z m472 1 c17 -19 17 -20 -26
-40 -42 -19 -182 -30 -165 -13 9 9 149 72 162 72 6 1 19 -8 29 -19z m-425 -32
c11 -18 20 -36 20 -40 0 -9 -487 -408 -499 -408 -5 0 -20 14 -32 31 l-22 31
29 23 c16 13 130 107 254 209 124 102 226 185 228 186 1 0 11 -15 22 -32z m48
-78 c7 -12 10 -25 7 -30 -3 -4 -105 -90 -228 -191 -122 -100 -230 -189 -240
-198 -16 -13 -20 -13 -39 7 l-22 21 25 20 c13 10 125 103 249 205 124 102 227
186 230 186 3 0 11 -9 18 -20z m640 -31 c4 -57 -18 -87 -70 -96 -46 -7 -68 9
-68 49 0 58 46 100 105 95 28 -2 30 -5 33 -48z m-624 -62 c-349 -293 -469
-387 -475 -370 -4 10 -3 22 1 26 4 5 112 95 241 202 198 163 236 191 248 180
12 -12 10 -17 -15 -38z m-704 -132 c6 -8 10 -19 8 -24 -1 -5 -110 -97 -242
-205 -237 -194 -238 -195 -256 -174 -16 21 -16 22 14 48 107 93 448 370 455
370 5 0 14 -7 21 -15z m69 -89 c0 -6 -109 -100 -242 -208 l-242 -197 -22 27
c-12 15 -21 30 -20 34 1 3 110 95 241 202 l240 196 23 -22 c13 -12 23 -26 22
-32z m59 -92 c-52 -47 -471 -384 -478 -384 -5 0 -19 14 -31 31 -18 26 -19 33
-8 43 8 7 117 98 244 201 l229 188 28 -34 c22 -26 25 -36 16 -45z m42 -23 c5
-11 10 -22 10 -24 0 -5 -423 -357 -462 -385 -17 -12 -22 -11 -39 4 -11 10 -18
21 -17 25 4 11 480 399 489 399 5 0 13 -9 19 -19z m45 -70 c-6 -4 -115 -95
-243 -201 -156 -128 -238 -190 -248 -186 -9 3 -14 11 -12 17 2 6 111 100 243
209 207 171 242 196 255 184 9 -9 11 -17 5 -23z m-721 -154 c6 -9 8 -18 6 -20
-3 -2 -95 -77 -205 -167 -110 -90 -208 -170 -218 -178 -16 -14 -20 -14 -37 4
-20 19 -18 21 202 202 122 100 226 181 231 179 6 -2 15 -11 21 -20z m45 -51
c13 -14 20 -29 17 -35 -4 -5 -103 -89 -222 -187 l-216 -177 -26 26 c-21 21
-24 29 -14 39 22 22 427 356 433 357 3 1 16 -10 28 -23z m67 -82 l23 -29 -128
-105 c-108 -87 -137 -106 -182 -116 -58 -13 -94 -45 -85 -76 3 -15 0 -18 -17
-12 -51 16 -69 25 -63 32 39 38 413 340 420 338 5 -1 20 -15 32 -32z m55 -66
c13 -24 11 -26 -132 -144 -64 -52 -66 -53 -103 -43 -21 6 -36 12 -34 13 1 2
56 46 121 99 65 54 122 97 127 97 5 0 15 -10 21 -22z m46 -53 c2 -6 -42 -48
-97 -93 -88 -73 -102 -82 -115 -69 -13 13 -3 25 83 96 91 75 121 90 129 66z
m-687 -131 c11 -12 10 -18 -6 -33 -42 -40 -366 -301 -373 -301 -14 0 -34 30
-27 38 29 30 373 311 382 311 6 1 17 -6 24 -15z m38 -46 c9 -9 4 -16 -24 -32
-36 -21 -55 -47 -74 -98 -8 -25 -240 -228 -260 -228 -5 0 -18 13 -28 28 l-20
28 191 157 c106 86 194 157 198 157 3 0 10 -5 17 -12z m-112 -283 c-2 -7 -43
-45 -91 -85 l-87 -72 -29 28 c-16 15 -28 32 -27 36 2 4 55 50 118 101 l115 94
3 -45 c2 -24 1 -50 -2 -57z m-337 -13 c8 -15 -18 -40 -166 -161 -137 -112
-179 -142 -191 -134 -9 5 -17 14 -18 19 -3 11 336 293 353 294 7 0 17 -8 22
-18z m349 -81 c-2 -5 -34 -34 -71 -66 -66 -55 -69 -57 -88 -40 -10 10 -19 23
-18 29 0 6 35 39 77 73 l77 61 13 -24 c7 -14 12 -29 10 -33z m-300 22 l20 -28
-171 -140 c-94 -77 -176 -141 -182 -143 -6 -1 -22 9 -35 22 l-23 26 24 19 c13
11 92 76 174 144 83 69 155 126 162 126 6 1 20 -11 31 -26z m-1546 -44 c72
-16 175 -59 261 -110 104 -61 388 -260 385 -269 -2 -4 -227 -206 -501 -448
l-498 -439 -72 22 c-151 48 -350 56 -505 20 -197 -46 -344 -184 -383 -357 -12
-58 -12 -58 -49 -58 -82 0 -214 100 -266 201 -35 69 -37 144 -7 211 14 30 65
92 145 175 68 70 150 166 183 213 251 366 560 648 845 771 172 74 326 97 462
68z m1877 -8 c9 -16 0 -27 -63 -79 -55 -46 -76 -58 -85 -49 -6 6 -11 16 -10
22 0 8 137 125 146 125 1 0 7 -8 12 -19z m-269 -23 c19 -26 21 -33 8 -42 -7
-6 -86 -71 -175 -143 -89 -73 -165 -133 -170 -132 -4 0 -19 14 -32 31 l-24 30
31 24 c16 13 95 78 174 144 78 65 148 119 154 119 5 1 21 -13 34 -31z m55 -68
c10 -11 16 -22 14 -24 -23 -23 -337 -279 -347 -283 -12 -5 -41 22 -42 39 0 8
338 288 349 288 4 0 16 -9 26 -20z m43 -51 c11 -14 -11 -36 -163 -164 -146
-123 -178 -145 -190 -135 -8 7 -15 16 -15 20 0 8 353 303 355 297 0 -1 6 -9
13 -18z m-590 -84 c-7 -7 -75 -62 -151 -124 -131 -107 -167 -126 -167 -87 0 8
66 69 147 135 140 116 147 121 165 104 15 -13 16 -19 6 -28z m777 -75 c113
-221 220 -290 314 -205 48 43 64 82 59 136 -3 30 -1 37 6 26 8 -13 13 -13 30
-2 12 7 35 16 51 18 17 3 84 20 150 38 66 17 134 34 150 37 17 3 33 9 36 15
11 17 29 -90 29 -171 -1 -325 -305 -634 -687 -699 -82 -14 -114 -14 -214 -5
-194 19 -329 72 -431 169 -70 67 -103 121 -124 204 -13 51 -14 64 -2 75 14 14
571 473 575 474 1 0 27 -49 58 -110z m-728 42 l21 -28 -148 -122 c-82 -67
-153 -122 -158 -122 -6 0 -19 12 -30 27 l-19 26 149 124 c83 68 153 123 157
122 3 0 16 -12 28 -27z m83 -102 c0 -5 -42 -41 -224 -190 l-78 -64 -30 33
c-16 18 -28 34 -26 35 2 2 70 58 152 125 l149 122 28 -27 c16 -15 29 -30 29
-34z m32 -37 c10 -9 18 -19 18 -23 0 -6 -211 -184 -288 -243 -12 -10 -52 16
-52 34 0 7 290 249 299 249 3 0 13 -7 23 -17z m48 -59 c11 -12 11 -17 -1 -29
-38 -36 -282 -235 -289 -235 -15 0 -33 31 -24 40 26 25 290 240 295 240 4 0
12 -7 19 -16z m-541 -12 c9 -16 -8 -34 -121 -126 -104 -85 -133 -104 -144 -95
-8 6 -14 15 -14 20 0 9 251 218 262 219 4 0 12 -8 17 -18z m50 -60 l20 -29
-132 -107 -131 -108 -23 27 c-13 14 -23 29 -23 33 1 9 252 212 261 212 4 0 17
-13 28 -28z m60 -73 c13 -17 19 -35 15 -39 -5 -5 -63 -54 -129 -108 l-120
-100 -27 26 c-16 14 -28 31 -28 36 1 11 247 216 259 216 4 0 18 -14 30 -31z
m53 -66 c10 -9 18 -20 18 -24 0 -5 -57 -56 -127 -114 l-128 -105 -24 25 -25
24 29 23 c17 13 75 60 130 106 55 45 102 82 104 82 2 0 13 -7 23 -17z m-444
-54 c-2 -3 -56 -50 -121 -103 -98 -80 -121 -95 -133 -85 -8 7 -13 16 -12 20 2
5 57 53 123 108 107 90 121 99 133 84 7 -10 11 -20 10 -24z m495 -7 c16 -17 9
-24 -114 -126 -130 -108 -131 -109 -150 -89 -20 19 -19 20 108 126 70 58 131
106 134 106 3 1 13 -7 22 -17z m-436 -63 c-1 -3 -55 -50 -120 -104 l-118 -97
-25 23 c-13 12 -24 26 -24 31 0 4 55 53 122 109 l122 101 23 -28 c13 -16 22
-32 20 -35z m51 -50 l23 -26 -126 -102 -125 -102 -25 28 c-13 15 -25 31 -25
35 0 13 243 209 249 201 4 -4 16 -20 29 -34z m472 1 c69 -97 143 -318 171
-511 18 -123 15 -375 -5 -489 -49 -277 -159 -484 -321 -605 -81 -61 -301 -169
-520 -255 -357 -142 -519 -233 -655 -370 -41 -41 -95 -106 -119 -145 -25 -38
-70 -108 -101 -155 -83 -125 -109 -174 -205 -390 -114 -256 -174 -370 -246
-466 -111 -150 -239 -233 -449 -290 -98 -27 -117 -29 -280 -28 -141 0 -195 5
-277 22 -289 62 -544 187 -702 343 -58 58 -141 172 -141 195 0 6 115 114 255
239 l255 227 0 72 0 71 158 132 157 131 22 -26 c12 -15 21 -31 19 -37 -2 -9
-265 -230 -320 -270 -11 -8 -17 -17 -14 -20 3 -3 82 58 176 135 94 77 173 140
175 140 3 0 27 -27 54 -60 41 -51 56 -62 102 -76 65 -19 113 -49 166 -103 83
-86 76 -26 -11 96 l-47 65 17 34 c9 19 16 40 16 47 0 7 -25 41 -55 75 -30 35
-55 67 -55 71 0 4 147 127 326 275 l325 267 121 -10 c319 -25 568 49 738 219
98 97 127 143 141 215 10 53 8 267 -2 304 -3 9 201 191 546 487 303 260 553
473 557 473 4 1 16 -12 28 -29z m-421 -64 l23 -24 -122 -101 c-67 -56 -125
-101 -128 -101 -4 0 -15 11 -25 25 l-17 24 122 100 c68 56 123 101 124 101 0
0 11 -11 23 -24z m-435 -23 c8 -19 15 -11 -103 -107 -75 -62 -96 -74 -108 -65
-7 7 -12 16 -11 20 5 14 192 168 204 169 7 0 15 -8 18 -17z m496 -54 c0 -4
-55 -53 -121 -108 -111 -93 -123 -100 -134 -84 -7 10 -13 22 -14 26 -1 4 51
52 116 106 109 91 119 97 136 83 9 -8 17 -19 17 -23z m-433 -31 c-1 -4 -47
-44 -101 -88 l-99 -81 -23 22 c-13 13 -24 27 -24 33 1 6 47 48 103 94 l102 82
22 -27 c13 -16 22 -31 20 -35z m51 -49 l23 -26 -107 -88 -106 -88 -27 34 c-14
18 -26 34 -26 35 0 9 211 172 215 166 3 -4 16 -19 28 -33z m-348 -54 c7 -9 11
-17 9 -19 -25 -24 -156 -126 -160 -126 -4 0 -12 6 -18 14 -9 11 4 27 66 79 43
37 81 66 84 67 4 0 12 -7 19 -15z m418 -36 c-4 -10 -199 -169 -208 -169 -4 0
-15 11 -24 25 -16 24 -16 25 86 109 l103 85 23 -22 c12 -11 21 -24 20 -28z
m-374 -75 c-16 -13 -54 -44 -85 -68 l-56 -45 -23 31 c-26 35 -30 27 73 112
l69 55 26 -30 25 -31 -29 -24z m409 38 c15 -17 10 -23 -90 -106 l-106 -89 -18
24 c-19 24 -19 24 18 54 21 17 65 53 98 82 33 29 65 52 71 52 6 1 18 -7 27
-17z m-346 -54 c13 -12 23 -26 23 -33 0 -11 -130 -122 -154 -131 -8 -3 -24 9
-36 26 -19 27 -20 34 -9 44 35 33 141 116 146 116 4 0 17 -10 30 -22z m-703
-19 c81 -23 169 -55 199 -70 19 -11 17 -13 -24 -49 l-43 -37 -61 27 c-157 71
-323 65 -442 -16 -78 -53 -120 -128 -138 -245 -5 -36 -6 -36 -43 -29 -20 3
-47 12 -59 18 -143 77 100 359 359 417 76 17 155 12 252 -16z m406 -33 c-7 -9
-16 -16 -20 -16 -15 0 -20 32 -9 47 11 12 14 12 27 -1 13 -12 13 -18 2 -30z
m298 -116 c-78 -65 -84 -68 -100 -52 -9 9 -18 22 -20 28 -2 6 33 41 77 78 l80
67 23 -26 22 -26 -82 -69z m-248 85 c23 -24 23 -25 5 -45 -24 -27 -32 -25 -50
11 -13 24 -14 34 -4 45 16 19 22 18 49 -11z m-170 -65 c0 -9 -77 -70 -87 -70
-5 0 -19 8 -33 17 l-24 17 44 37 c43 37 44 38 72 21 15 -9 28 -19 28 -22z
m534 11 c16 -17 13 -21 -68 -89 -81 -69 -84 -71 -101 -52 -9 10 -15 24 -13 30
5 15 140 128 154 129 6 1 18 -7 28 -18z m-300 -23 l25 -33 -27 -22 c-15 -12
-29 -22 -32 -23 -3 0 -14 16 -24 35 -18 34 -19 36 -1 55 24 27 29 26 59 -12z
m-170 -45 c3 -6 -16 -28 -40 -49 l-46 -37 -26 27 -27 27 44 39 c43 37 45 38
67 22 13 -9 25 -22 28 -29z m229 -27 c15 -22 14 -25 -6 -43 -37 -34 -45 -35
-63 -8 -16 25 -16 27 6 50 29 31 44 31 63 1z m-185 -31 l21 -34 -47 -40 -48
-39 -23 36 -24 36 44 38 c24 21 47 38 51 38 3 0 15 -16 26 -35z m236 -29 c15
-24 14 -26 -23 -55 l-39 -31 -17 26 c-17 26 -16 26 17 55 41 35 42 35 62 5z
m-2620 -35 c57 -28 85 -52 191 -169 231 -254 453 -434 688 -558 l99 -51 -192
-157 c-105 -87 -197 -159 -204 -162 -7 -3 -27 11 -45 31 -18 21 -50 43 -75 51
-24 8 -80 46 -125 84 -45 39 -85 70 -88 70 -16 0 10 -77 46 -136 31 -52 41
-78 41 -112 0 -35 7 -52 37 -88 21 -26 32 -48 27 -53 -5 -5 -84 -70 -176 -144
l-167 -136 -65 -7 -65 -7 -233 -248 c-219 -233 -235 -249 -268 -248 -83 0
-181 103 -274 288 -124 249 -208 615 -192 845 7 110 56 298 102 393 93 195
307 402 509 494 99 45 168 59 271 56 80 -2 99 -7 158 -36z m2425 -23 c6 -17
10 -32 9 -34 -2 -1 -23 -18 -48 -38 l-44 -35 -14 32 c-13 31 -13 33 30 69 24
21 46 38 50 38 3 0 11 -14 17 -32z m24 -105 c5 -40 3 -44 -38 -78 -24 -19 -45
-35 -48 -35 -2 0 -7 21 -11 47 -6 46 -5 48 36 84 24 21 46 34 49 31 4 -4 9
-26 12 -49z m3 -167 c-19 -286 -72 -367 -318 -488 l-133 -66 -139 -7 c-76 -4
-137 -3 -134 1 33 73 79 124 111 124 41 0 197 49 274 86 39 18 97 57 128 86
74 67 105 130 112 223 6 71 6 72 51 108 24 21 47 37 50 37 2 0 2 -47 -2 -104z
m-1422 -501 c20 -8 36 -17 36 -19 0 -2 -97 -83 -216 -181 l-215 -177 -25 23
c-13 12 -23 26 -22 31 2 5 387 327 404 337 1 1 18 -6 38 -14z m134 -44 c9 -5
-64 -71 -228 -206 l-242 -198 -26 27 -26 26 21 21 c11 12 110 95 219 185 190
156 201 163 234 158 19 -3 41 -9 48 -13z m107 -25 l29 -12 -109 -91 c-61 -50
-182 -150 -270 -222 l-160 -131 -28 31 c-26 28 -27 33 -14 46 8 8 118 100 243
203 239 197 248 202 309 176z m126 -34 c7 -7 -554 -475 -575 -480 -20 -5 -52
37 -41 53 6 8 129 111 274 230 258 211 265 216 300 210 20 -4 39 -10 42 -13z
m112 -43 c-10 -10 -155 -131 -323 -268 l-305 -251 -27 31 -27 32 177 146 c97
80 232 192 300 247 l122 101 51 -10 c49 -10 50 -11 32 -28z m2117 -229 c101
-16 232 -85 324 -171 221 -207 335 -510 365 -974 9 -138 4 -196 -43 -547 -43
-312 -50 -474 -32 -693 17 -215 42 -328 104 -480 23 -54 36 -93 30 -87 -8 8
-17 7 -32 -3 -11 -7 -88 -48 -171 -90 -82 -43 -163 -84 -178 -92 -19 -10 -26
-20 -23 -32 10 -28 -23 20 -50 72 -71 138 -81 299 -40 620 37 281 32 434 -19
630 -62 239 -255 383 -487 364 -232 -19 -510 -169 -669 -361 -58 -69 -88 -88
-174 -107 -87 -20 -409 -17 -557 5 -194 28 -382 81 -402 114 -3 5 42 79 99
164 197 295 383 639 520 963 65 152 60 145 249 324 150 142 446 294 691 355
55 14 114 27 130 29 63 8 303 6 365 -3z m-3188 -107 c10 -9 18 -22 18 -28 0
-7 -58 -61 -130 -119 l-130 -107 -57 3 -57 3 163 133 c90 72 166 132 169 132
3 0 14 -7 24 -17z m78 -105 c0 -3 -48 -46 -107 -95 l-108 -89 -43 16 -43 16
128 107 128 106 22 -27 c13 -15 23 -30 23 -34z m45 -48 c17 -18 25 -33 19 -38
-117 -101 -237 -193 -243 -186 -5 5 -12 25 -15 46 -7 36 -6 37 96 122 57 47
106 85 109 86 3 0 18 -14 34 -30z m59 -72 c9 -12 16 -26 16 -29 0 -8 -286
-249 -295 -249 -3 0 -5 22 -3 49 l3 48 120 101 c66 55 125 101 132 101 6 1 19
-9 27 -21z m3910 -968 c128 -63 337 -244 352 -305 14 -55 15 -55 -247 -55
l-241 0 6 33 c23 109 46 266 46 308 0 30 4 49 11 49 6 0 39 -14 73 -30z
m-1052 -311 c113 -24 227 -109 275 -203 31 -61 73 -281 73 -382 0 -199 -68
-382 -267 -721 -102 -175 -185 -330 -209 -393 -9 -25 -39 -81 -65 -125 -57
-95 -85 -175 -94 -271 l-7 -70 -52 7 c-28 3 -126 12 -216 19 -91 7 -170 17
-177 22 -7 6 -13 3 -17 -9 -10 -32 3 68 30 242 23 145 27 206 30 420 1 138 5
286 8 330 4 44 2 136 -4 205 -28 341 -24 448 20 546 26 61 86 122 151 154 40
21 67 44 93 80 30 42 140 129 165 130 3 1 29 7 56 15 62 17 138 18 207 4z
m1506 -435 c2 -164 0 -323 -3 -351 l-6 -53 -298 0 -297 0 -16 33 c-29 60 -42
150 -42 287 0 130 18 325 33 348 4 7 111 16 306 25 165 8 305 13 310 12 6 -1
11 -112 13 -301z m-2880 26 c114 -13 241 -42 275 -65 74 -48 66 -362 -10 -412
-24 -16 -55 -18 -273 -18 -135 0 -271 4 -302 8 l-58 8 0 239 c0 219 1 239 18
243 34 9 254 7 350 -3z m-608 -11 c47 -7 90 -17 97 -23 8 -8 13 -161 17 -541
4 -291 11 -755 16 -1030 5 -275 8 -500 7 -501 -1 -1 -89 35 -196 79 l-194 82
7 295 c3 162 11 576 17 920 l11 625 39 53 c45 59 44 59 179 41z m-317 -186 c4
-38 7 -105 7 -149 0 -68 -3 -86 -22 -109 -20 -26 -25 -27 -82 -22 -82 8 -262
60 -350 101 -95 44 -138 81 -134 115 4 37 63 54 273 81 94 12 197 28 230 35
33 7 63 13 66 14 3 1 9 -29 12 -66z m-835 -13 c85 -8 132 -21 132 -38 0 -4 5
-47 11 -97 6 -49 12 -317 14 -595 3 -389 7 -522 18 -580 14 -73 15 -74 16 -27
1 56 20 104 50 131 18 16 31 18 93 13 72 -5 379 -92 441 -123 42 -22 71 -93
62 -153 -4 -25 -14 -62 -22 -81 -9 -19 -15 -45 -14 -58 2 -43 -16 -62 -58 -62
-37 0 -103 24 -243 89 -37 17 -74 31 -82 31 -8 0 -133 52 -278 114 l-263 115
-6 63 c-4 35 -7 344 -8 687 l-1 624 24 -22 c19 -18 42 -24 114 -31z m333 -243
c25 -9 113 -25 195 -36 174 -24 241 -42 276 -75 26 -23 26 -24 12 -82 -12 -50
-12 -67 0 -114 13 -50 8 -151 -8 -167 -10 -10 -522 139 -541 158 -18 18 -20
35 -23 191 l-3 171 23 -15 c13 -9 44 -23 69 -31z m4293 -209 c15 -311 16 -307
-2 -312 -52 -14 -121 -17 -265 -11 l-162 7 -81 132 c-112 181 -132 236 -96
269 20 18 74 21 409 25 l191 2 6 -112z m-2542 56 c11 -36 16 -398 6 -401 -5
-2 -165 -3 -357 -3 l-349 0 -7 192 c-7 178 -6 192 11 205 14 10 83 13 303 14
207 0 297 4 326 14 51 17 57 15 67 -21z m1256 -286 c5 -7 22 -42 36 -77 18
-46 23 -68 16 -75 -14 -14 -180 -20 -198 -8 -19 13 2 52 63 120 48 53 65 61
83 40z m-2889 -94 c141 -26 269 -64 319 -95 58 -34 62 -51 55 -196 l-6 -130
-46 4 c-358 34 -501 86 -557 206 -28 61 -31 121 -8 196 l15 52 47 -7 c26 -3
107 -17 181 -30z m4191 -325 l0 -190 -49 41 c-53 45 -196 204 -235 260 -13 19
-26 45 -30 58 l-7 22 160 0 161 0 0 -191z m-2722 155 l183 -7 -8 -76 c-4 -42
-8 -131 -8 -199 l0 -122 -332 0 -331 0 -6 28 c-6 31 -26 296 -26 356 l0 38
173 -6 c94 -3 254 -9 355 -12z m1564 -16 c20 -58 75 -157 129 -230 28 -39 52
-78 53 -87 2 -25 -65 -41 -202 -47 -111 -5 -468 9 -478 19 -8 8 37 159 62 212
34 69 100 132 146 139 51 8 199 23 241 25 34 1 39 -2 49 -31z m172 -483 c59
-5 82 -12 145 -49 131 -75 240 -126 349 -164 99 -33 116 -36 227 -37 110 0
125 2 177 27 l57 27 7 -34 c9 -49 1 -242 -11 -254 -6 -6 -310 -12 -781 -17
l-771 -7 -25 54 c-34 72 -44 118 -63 289 -9 79 -19 148 -21 152 -6 10 -13 9
241 18 204 6 327 5 469 -5z m-1570 -50 c14 -38 38 -246 33 -296 -6 -66 -26
-114 -47 -114 -8 0 -22 -5 -30 -10 -8 -6 -91 -11 -185 -13 -93 -1 -227 -3
-297 -5 l-126 -2 -22 100 c-27 122 -38 302 -21 333 12 22 12 22 350 22 291 0
340 -2 345 -15z"/>
<path d="M3351 10404 c-32 -40 -43 -90 -39 -168 6 -136 91 -257 227 -325 74
-38 229 -84 267 -79 52 6 83 117 84 300 l0 87 -82 40 c-90 42 -410 171 -426
171 -6 0 -20 -12 -31 -26z m115 -69 c38 -14 75 -28 81 -30 9 -3 6 -15 -11 -40
-13 -19 -27 -52 -31 -73 -7 -42 7 -118 30 -163 20 -37 19 -42 -6 -29 -79 43
-135 131 -145 229 -6 52 1 131 10 131 2 0 35 -11 72 -25z m333 -166 c11 -11
24 -31 27 -44 8 -33 -25 -213 -43 -231 -21 -21 -51 -17 -78 11 -30 29 -31 42
-6 50 26 8 68 73 76 116 5 27 1 50 -13 82 -19 42 -19 44 -2 40 10 -3 28 -14
39 -24z"/>
<path d="M4893 10010 c-50 -11 -79 -35 -110 -87 -39 -67 -93 -203 -93 -235 0
-31 9 -37 112 -74 40 -15 109 -45 153 -68 75 -38 85 -41 165 -41 76 0 91 3
138 30 91 50 161 140 216 279 40 99 40 99 -61 129 -229 69 -414 93 -520 67z
m535 -140 c16 0 16 -50 0 -104 -17 -58 -99 -138 -163 -159 -43 -14 -196 -40
-202 -34 -1 1 14 27 33 57 61 97 87 220 60 281 -6 15 10 13 126 -12 73 -15
139 -29 146 -29z m-529 -194 c7 -16 10 -30 8 -32 -1 -2 -32 9 -69 23 -77 31
-77 31 -6 136 l43 62 7 -80 c3 -44 11 -93 17 -109z"/>
</g>
</svg>
