<?xml version="1.0" standalone="no"?>
<!DOCTYPE svg PUBLIC "-//W3C//DTD SVG 20010904//EN"
 "http://www.w3.org/TR/2001/REC-SVG-20010904/DTD/svg10.dtd">
<svg version="1.0" xmlns="http://www.w3.org/2000/svg"
 width="926.000000pt" height="1280.000000pt" viewBox="0 0 926.000000 1280.000000"
 preserveAspectRatio="xMidYMid meet">
<metadata>
Created by potrace 1.15, written by Peter Selinger 2001-2017
</metadata>
<g transform="translate(0.000000,1280.000000) scale(0.100000,-0.100000)"
fill="#000000" stroke="none">
<path d="M7700 12790 c-329 -46 -641 -201 -883 -438 -371 -364 -559 -900 -493
-1402 55 -407 250 -754 554 -983 523 -393 1231 -361 1775 81 276 224 499 597
571 954 107 526 -39 1045 -393 1398 -193 192 -397 305 -661 366 -118 28 -356
40 -470 24z"/>
<path d="M4803 12081 c-147 -40 -254 -111 -340 -226 -135 -180 -207 -417 -205
-680 2 -308 121 -535 358 -683 247 -155 621 -144 824 25 120 99 228 282 275
465 97 383 26 705 -200 916 -90 83 -161 126 -273 165 -78 27 -102 31 -227 34
-115 2 -153 -1 -212 -16z"/>
<path d="M3050 11790 c-238 -37 -434 -231 -512 -507 -28 -100 -30 -294 -5
-426 47 -234 161 -456 305 -587 80 -74 147 -112 265 -151 320 -108 612 18 769
333 50 101 68 174 75 309 20 382 -182 799 -456 943 -132 69 -317 105 -441 86z"/>
<path d="M1535 10804 c-38 -8 -110 -35 -160 -59 -287 -138 -429 -429 -355
-721 57 -221 241 -460 451 -585 133 -79 266 -108 411 -90 270 35 489 204 577
444 22 62 26 88 26 192 0 105 -3 130 -28 201 -91 265 -329 517 -569 602 -93
32 -247 39 -353 16z"/>
<path d="M4615 10034 c-537 -50 -982 -157 -1400 -337 -476 -205 -1039 -595
-1407 -975 -466 -481 -701 -1006 -782 -1747 -48 -433 -48 -1006 -1 -1373 147
-1140 688 -2639 1348 -3737 549 -912 1169 -1525 1767 -1748 211 -78 360 -104
660 -113 885 -28 1532 239 1777 731 98 197 124 444 70 665 -71 293 -280 622
-731 1155 -596 705 -731 881 -868 1136 -213 397 -222 925 -23 1320 82 163 150
255 299 407 293 300 692 523 1238 692 425 132 696 347 867 689 364 722 61
1893 -670 2596 -380 365 -754 534 -1379 621 -109 15 -658 28 -765 18z"/>
<path d="M380 9434 c-172 -46 -303 -171 -356 -343 -24 -78 -29 -197 -10 -288
57 -284 266 -518 544 -611 66 -22 94 -26 202 -26 139 1 200 16 292 75 61 39
142 128 173 189 114 225 50 545 -152 760 -88 93 -142 135 -241 184 -141 72
-320 95 -452 60z"/>
</g>
</svg>
