<?xml version="1.0" standalone="no"?>
<!DOCTYPE svg PUBLIC "-//W3C//DTD SVG 20010904//EN"
 "http://www.w3.org/TR/2001/REC-SVG-20010904/DTD/svg10.dtd">
<svg version="1.0" xmlns="http://www.w3.org/2000/svg"
 width="1123.000000pt" height="1280.000000pt" viewBox="0 0 1123.000000 1280.000000"
 preserveAspectRatio="xMidYMid meet">
<metadata>
Created by potrace 1.15, written by Peter Selinger 2001-2017
</metadata>
<g transform="translate(0.000000,1280.000000) scale(0.100000,-0.100000)"
fill="#000000" stroke="none">
<path d="M5882 12785 c-29 -8 -67 -22 -85 -31 -17 -9 -1278 -727 -2800 -1597
-1640 -937 -2787 -1599 -2816 -1624 -62 -54 -116 -133 -149 -219 l-27 -69 -3
-2818 c-2 -3125 -8 -2881 64 -3017 19 -37 59 -91 87 -120 59 -59 4748 -3193
4850 -3241 118 -56 274 -62 399 -16 56 21 5418 3078 5576 3179 118 76 201 193
237 333 13 52 15 385 15 2854 0 3093 5 2855 -63 2985 -69 131 34 59 -2527
1766 -1900 1266 -2408 1601 -2460 1619 -85 29 -225 37 -298 16z"/>
</g>
</svg>
