<?xml version="1.0" standalone="no"?>
<!DOCTYPE svg PUBLIC "-//W3C//DTD SVG 20010904//EN"
 "http://www.w3.org/TR/2001/REC-SVG-20010904/DTD/svg10.dtd">
<svg version="1.0" xmlns="http://www.w3.org/2000/svg"
 width="1280.000000pt" height="1280.000000pt" viewBox="0 0 1280.000000 1280.000000"
 preserveAspectRatio="xMidYMid meet">
<metadata>
Created by potrace 1.15, written by Peter Selinger 2001-2017
</metadata>
<g transform="translate(0.000000,1280.000000) scale(0.100000,-0.100000)"
fill="#000000" stroke="none">
<path d="M6095 12794 c-1360 -72 -2624 -548 -3673 -1381 -729 -579 -1316
-1299 -1735 -2125 -377 -745 -593 -1513 -669 -2388 -16 -189 -16 -811 0 -1000
77 -877 293 -1646 673 -2395 618 -1218 1607 -2203 2829 -2820 732 -369 1473
-580 2325 -662 252 -24 858 -24 1110 0 852 82 1593 293 2325 662 1225 618
2213 1604 2833 2827 377 745 593 1513 669 2388 16 189 16 811 0 1000 -77 877
-293 1646 -673 2395 -618 1218 -1607 2203 -2829 2820 -729 367 -1484 583
-2315 660 -162 15 -716 27 -870 19z"/>
</g>
</svg>
