<?xml version="1.0" standalone="no"?>
<!DOCTYPE svg PUBLIC "-//W3C//DTD SVG 20010904//EN"
 "http://www.w3.org/TR/2001/REC-SVG-20010904/DTD/svg10.dtd">
<svg version="1.0" xmlns="http://www.w3.org/2000/svg"
 width="1280.000000pt" height="640.000000pt" viewBox="0 0 1280.000000 640.000000"
 preserveAspectRatio="xMidYMid meet">
<metadata>
Created by potrace 1.15, written by Peter Selinger 2001-2017
</metadata>
<g transform="translate(0.000000,640.000000) scale(0.100000,-0.100000)"
fill="#000000" stroke="none">
<path d="M12392 5070 c-18 -4 -35 -10 -38 -13 -3 -3 -14 -36 -23 -74 -10 -37
-45 -144 -79 -238 -33 -93 -71 -203 -83 -244 -17 -51 -30 -76 -44 -81 -32 -12
-586 -26 -740 -19 -157 8 -213 19 -300 60 -118 56 -227 164 -291 290 l-23 46
-343 7 c-548 11 -742 23 -797 47 -25 11 -48 24 -52 30 -3 6 -24 14 -45 19 -67
16 -528 30 -1024 33 l-475 2 -55 -37 c-30 -21 -60 -38 -67 -38 -7 0 -15 21
-18 48 -10 73 -14 80 -48 91 -18 6 -199 16 -402 22 -204 6 -397 11 -430 12
-33 1 -70 8 -82 15 -20 11 -23 11 -23 -6 0 -45 21 -81 51 -87 17 -4 33 -13 36
-21 8 -21 -34 -62 -76 -74 -53 -16 -702 -28 -1786 -34 -528 -4 -1026 -9 -1108
-12 l-147 -6 -186 -199 c-158 -170 -191 -200 -227 -211 -23 -6 -47 -15 -52
-19 -6 -4 -87 -24 -180 -43 -466 -96 -731 -124 -891 -95 -32 6 -107 26 -165
44 -59 19 -124 37 -145 40 -43 7 -236 -12 -824 -80 -918 -108 -1138 -144
-1191 -201 -25 -26 -30 27 50 -519 27 -187 61 -439 75 -560 33 -278 45 -345
61 -351 7 -3 163 47 346 111 300 105 626 217 1239 427 951 324 1832 618 1840
613 4 -2 10 -55 13 -117 3 -62 15 -165 26 -228 l21 -114 -79 -201 c-213 -541
-226 -636 -101 -749 151 -137 433 -139 532 -5 13 16 23 55 29 105 20 171 203
627 346 862 25 41 54 94 65 119 l20 46 17 -39 c10 -22 35 -54 56 -73 160 -141
578 -131 747 17 64 56 118 32 118 -53 0 -22 4 -46 9 -54 11 -17 20 -1 45 76
10 28 31 71 49 95 28 38 32 52 35 123 4 108 5 109 44 85 18 -11 43 -20 56 -20
28 0 33 -11 82 -217 51 -212 80 -307 147 -477 212 -548 598 -1039 1176 -1500
123 -97 155 -116 199 -116 52 0 80 13 123 57 50 51 86 116 184 328 45 99 100
208 121 242 l39 62 -90 71 c-499 394 -820 803 -971 1240 -48 138 -109 389
-111 459 -2 62 -1 64 25 71 50 14 413 32 558 28 138 -4 148 -6 200 -34 51 -27
61 -29 165 -28 98 0 129 5 287 47 205 54 195 53 768 68 390 10 844 31 943 45
36 5 47 11 47 24 0 11 12 22 30 29 17 5 40 22 53 37 l23 26 469 -11 c259 -7
501 -17 540 -23 79 -12 86 -12 250 1 66 5 334 10 595 10 261 1 600 4 752 8
l278 6 11 35 c13 40 37 52 152 77 l77 17 0 94 0 94 -27 0 c-48 0 -99 19 -139
51 l-39 31 -6 266 c-3 147 -9 275 -13 284 -15 33 -104 47 -184 28z m-6572
-354 c30 -20 -51 -26 -445 -37 -523 -13 -1595 -26 -1595 -18 0 3 11 16 25 29
17 16 42 25 87 30 93 11 1910 7 1928 -4z m6642 -46 c31 -9 39 -17 49 -49 14
-48 2 -91 -32 -108 -26 -13 -136 -17 -188 -7 -38 8 -47 34 -31 92 11 43 31 60
85 73 44 10 76 10 117 -1z m-6746 -112 c12 -13 1 -17 -78 -29 -55 -8 -94 -8
-144 0 -40 6 -364 15 -769 21 -385 6 -707 12 -715 15 -8 2 371 3 842 2 471 -1
860 -5 864 -9z m3599 -18 c55 -5 118 -13 140 -17 38 -6 35 -7 -45 -19 -47 -6
-119 -17 -160 -24 -104 -17 -289 -8 -325 16 -15 10 -46 21 -69 24 -40 7 -40 7
-16 18 31 14 338 15 475 2z m1365 -47 c0 -27 -4 -54 -8 -61 -7 -10 -102 -12
-443 -10 l-434 3 -11 35 c-10 31 -16 35 -50 38 -63 4 -107 13 -99 20 8 9 317
17 728 20 l317 2 0 -47z m-2110 17 l25 -7 -30 -14 c-41 -18 -331 -19 -362 -1
-13 7 -23 17 -23 22 0 12 352 12 390 0z m3541 -327 c8 -6 28 -13 44 -15 68 -9
-164 -20 -545 -26 -587 -10 -828 2 -495 24 55 3 105 10 110 14 18 15 93 17
486 16 277 -1 390 -4 400 -13z m-1481 -11 c25 -4 45 -11 45 -17 0 -18 -96 -23
-456 -24 -361 -1 -539 6 -539 20 0 4 21 11 48 15 26 4 56 11 67 16 22 9 763 1
835 -10z m-5335 -449 c10 -159 24 -264 36 -279 17 -21 -12 -48 -95 -90 -102
-50 -196 -67 -341 -62 -186 7 -309 58 -355 148 -25 50 -25 76 1 137 17 41 19
60 14 133 l-6 85 22 -28 c12 -16 46 -46 75 -68 30 -22 54 -47 54 -57 1 -32 38
-101 80 -146 42 -46 71 -59 148 -71 53 -9 56 8 5 34 -60 30 -115 97 -133 160
-6 22 -5 46 5 77 15 52 39 82 75 96 29 12 172 24 312 26 l96 2 7 -97z"/>
</g>
</svg>
