<?xml version="1.0" standalone="no"?>
<!DOCTYPE svg PUBLIC "-//W3C//DTD SVG 20010904//EN"
 "http://www.w3.org/TR/2001/REC-SVG-20010904/DTD/svg10.dtd">
<svg version="1.0" xmlns="http://www.w3.org/2000/svg"
 width="1280.000000pt" height="1226.000000pt" viewBox="0 0 1280.000000 1226.000000"
 preserveAspectRatio="xMidYMid meet">
<metadata>
Created by potrace 1.15, written by Peter Selinger 2001-2017
</metadata>
<g transform="translate(0.000000,1226.000000) scale(0.100000,-0.100000)"
fill="#000000" stroke="none">
<path d="M484 12247 c-6 -18 21 -101 51 -153 13 -22 33 -64 43 -92 11 -29 61
-110 111 -181 50 -71 91 -134 91 -139 0 -5 41 -54 92 -108 59 -64 86 -100 76
-102 -8 -1 -64 19 -124 46 -201 91 -244 99 -286 55 -29 -32 -48 -65 -48 -85 0
-35 199 -315 348 -490 26 -31 -3 -19 -82 32 -121 79 -305 166 -455 215 -75 25
-137 17 -209 -27 -107 -66 -114 -122 -37 -303 60 -140 63 -159 34 -231 -21
-54 -23 -74 -23 -234 0 -188 14 -292 59 -442 65 -215 63 -187 31 -370 -44
-251 -44 -224 9 -337 l46 -100 -22 -42 c-29 -57 -23 -89 45 -242 74 -168 74
-168 42 -227 -54 -100 -87 -292 -63 -375 8 -27 22 -81 32 -120 34 -135 43
-151 116 -219 l70 -63 -45 -12 c-114 -28 -97 -141 52 -334 80 -104 148 -206
156 -233 6 -20 2 -22 -61 -27 -38 -4 -89 -7 -115 -7 -53 0 -71 -13 -88 -66
-29 -87 12 -188 127 -315 42 -45 84 -102 95 -127 34 -76 120 -149 266 -225
109 -56 197 -89 519 -196 399 -132 454 -153 488 -191 11 -12 56 -51 101 -85
168 -132 198 -186 210 -380 7 -130 23 -181 93 -294 55 -91 61 -111 33 -111
-49 0 -52 -39 -16 -176 15 -55 30 -141 34 -192 6 -87 10 -100 63 -205 32 -63
86 -149 123 -195 73 -92 78 -116 24 -120 -80 -6 -83 -8 -75 -60 21 -138 182
-356 364 -492 33 -25 60 -47 61 -50 0 -3 -34 -4 -75 -2 -89 4 -89 6 -41 -105
149 -347 327 -550 592 -675 81 -37 215 -78 259 -78 51 0 56 -37 24 -204 -29
-152 -24 -226 24 -330 21 -43 37 -83 37 -87 0 -5 -16 -15 -35 -23 -44 -19 -51
-36 -31 -74 36 -69 153 -144 330 -213 89 -34 118 -50 153 -86 47 -49 238 -316
329 -459 79 -126 224 -422 231 -472 7 -52 -4 -66 -64 -81 -83 -21 -151 -63
-187 -115 -13 -19 -16 -19 -107 11 -52 17 -154 52 -226 78 -90 31 -145 45
-170 43 l-38 -3 33 -18 c18 -10 124 -50 235 -89 111 -39 206 -74 212 -79 5 -5
-85 -9 -215 -9 -135 0 -220 -4 -215 -9 6 -5 100 -16 210 -25 110 -9 223 -22
250 -29 l50 -14 -53 -27 c-68 -34 -128 -89 -155 -140 -17 -34 -22 -63 -25
-163 l-4 -122 -47 -7 c-132 -18 -333 -55 -356 -66 -14 -6 -24 -16 -22 -22 5
-14 41 -12 164 9 98 18 138 15 100 -6 -21 -12 -22 -42 -3 -58 17 -15 80 -5
336 50 189 40 275 64 298 82 34 27 -6 77 -63 77 -43 0 -59 13 -50 41 20 64
133 163 257 225 83 42 145 56 186 44 48 -13 170 -89 342 -211 229 -163 353
-219 489 -219 l70 0 79 -80 c43 -44 83 -80 90 -80 38 0 41 123 3 201 -73 153
-94 183 -156 216 -33 17 -127 55 -210 83 -155 53 -328 133 -379 173 -69 56 31
61 199 11 129 -38 203 -53 262 -54 28 0 55 -5 59 -11 4 -6 20 -9 39 -6 19 3
44 -1 60 -9 36 -18 49 -18 68 4 24 26 22 37 -18 89 -25 33 -35 56 -35 82 0 20
-9 50 -20 66 -38 58 -25 98 59 187 27 30 32 41 23 50 -20 20 -13 56 18 91 23
26 47 39 107 56 43 12 105 33 138 45 33 13 76 26 96 30 42 7 49 22 49 101 0
75 9 94 47 110 41 17 39 37 -6 46 -39 8 -76 41 -90 80 -8 24 -7 31 12 44 29
20 107 19 132 -3 11 -9 56 -59 100 -111 89 -104 173 -178 213 -187 15 -3 77
-21 137 -39 133 -41 231 -55 373 -55 59 0 165 -3 235 -7 l129 -6 33 -72 c18
-40 37 -75 42 -78 6 -4 21 5 33 18 13 14 27 25 32 25 12 0 68 -91 68 -112 0
-26 33 -40 55 -24 18 13 17 15 -3 48 -31 50 -231 241 -274 261 -20 9 -60 17
-90 17 -266 1 -655 83 -772 164 -88 61 -322 329 -445 511 -69 103 -161 258
-161 272 0 5 37 27 83 50 145 72 257 172 257 231 0 32 70 158 172 311 70 103
121 165 212 256 131 130 325 292 421 350 114 69 337 131 851 239 363 76 583
150 784 263 213 120 221 125 413 281 271 220 384 339 495 524 88 146 159 341
171 468 6 70 15 100 48 165 21 44 45 105 51 135 6 30 30 149 52 263 48 244 78
335 218 649 239 536 265 797 171 1704 -12 121 -20 227 -16 236 4 13 28 17 114
22 181 10 238 23 380 83 152 64 200 100 239 179 25 52 27 61 21 152 -9 160
-49 296 -139 476 -44 87 -126 225 -175 295 l-18 24 145 -6 c159 -6 243 -24
332 -68 32 -16 64 -29 73 -29 32 0 12 117 -35 209 -50 99 -172 272 -250 356
-71 75 -73 82 -54 169 10 42 20 76 23 76 4 0 15 -14 25 -31 30 -51 74 -96 107
-109 46 -20 64 5 83 115 23 128 20 188 -14 344 l-30 138 58 110 c77 146 95
169 152 198 27 14 51 34 55 45 10 31 -3 57 -32 64 -33 9 -292 9 -348 1 -50 -8
-52 -6 -71 78 -23 98 -115 277 -172 334 -27 26 -57 64 -67 83 -48 95 -71 39
-40 -100 25 -114 21 -114 -62 -2 -31 42 -79 101 -107 130 -58 62 -193 177
-251 215 -40 26 -170 65 -181 55 -3 -3 17 -77 45 -164 28 -88 53 -176 57 -197
12 -69 5 -70 -207 -15 -265 67 -426 75 -470 22 -29 -35 -10 -127 56 -270 52
-114 95 -173 140 -193 22 -10 55 -31 73 -46 l34 -28 -74 -27 c-233 -86 -474
-265 -574 -428 -58 -95 -128 -195 -169 -244 -61 -72 -224 -399 -462 -928 -41
-90 -86 -185 -102 -210 -15 -25 -35 -70 -45 -100 -25 -77 -189 -413 -229 -469
-19 -26 -60 -96 -91 -157 -137 -266 -387 -536 -594 -641 l-75 -38 -221 0
c-122 0 -410 11 -641 24 -470 27 -545 26 -960 -24 -262 -31 -350 -49 -445 -88
-74 -30 -79 -31 -277 -35 l-201 -3 -61 73 c-39 47 -88 128 -139 228 -129 252
-338 716 -372 825 -18 57 -148 312 -223 437 -75 126 -258 362 -414 537 -62 69
-190 214 -285 321 -570 643 -1159 1179 -1703 1549 -147 100 -681 429 -765 471
-139 70 -128 41 18 -46 222 -132 532 -349 762 -534 41 -33 107 -76 145 -95 89
-45 447 -312 590 -442 271 -245 667 -681 980 -1078 65 -82 139 -172 165 -200
64 -68 377 -492 443 -602 127 -209 216 -395 246 -515 10 -40 46 -139 80 -220
43 -103 64 -169 70 -218 7 -55 20 -91 65 -175 69 -131 204 -345 221 -352 8 -2
47 -6 87 -7 40 -1 93 -10 117 -20 24 -9 63 -19 86 -23 35 -4 46 -2 64 16 30
30 70 36 114 17 79 -33 43 -57 -188 -127 -147 -44 -182 -62 -155 -79 33 -21
146 -9 349 36 268 60 368 89 402 118 15 13 59 31 97 41 39 9 94 32 122 50 98
63 221 72 1115 85 750 10 759 11 888 69 127 57 208 122 344 274 131 147 261
321 313 420 54 103 66 117 101 117 38 0 53 25 85 144 49 185 112 331 170 395
45 50 73 114 216 491 160 419 208 529 305 695 46 77 89 161 96 187 8 25 29 67
47 91 25 36 43 49 84 62 28 9 161 74 296 145 135 70 255 131 268 135 12 3 22
11 22 17 0 19 156 1 285 -31 66 -17 124 -31 129 -31 4 0 6 12 3 26 -11 62 62
27 138 -66 180 -220 273 -570 231 -870 -9 -63 -16 -132 -16 -153 0 -38 1 -39
28 -33 48 12 130 74 172 131 22 30 45 55 51 55 17 0 67 -60 138 -166 78 -115
166 -272 158 -281 -3 -3 -66 15 -139 41 -153 52 -283 76 -418 76 -105 0 -165
-12 -174 -36 -9 -23 17 -27 117 -21 117 7 86 -6 -64 -28 -63 -9 -126 -23 -141
-31 -55 -28 -52 -8 9 57 25 27 43 52 39 56 -12 13 -73 -28 -168 -113 -136
-123 -163 -139 -267 -158 -106 -19 -221 -53 -221 -65 0 -5 24 -14 53 -21 28
-6 83 -21 120 -33 55 -17 72 -19 88 -9 10 7 19 10 19 7 0 -3 -20 -50 -45 -104
-24 -55 -55 -139 -69 -187 -14 -49 -30 -90 -35 -92 -16 -5 -13 -163 5 -267 27
-161 58 -196 217 -250 l84 -29 6 -160 c4 -89 16 -233 28 -321 18 -138 20 -194
16 -410 -7 -337 -35 -521 -96 -629 -16 -28 -32 -69 -36 -90 -16 -95 -145 -365
-218 -459 l-45 -58 1 83 c2 77 0 83 -19 86 -21 3 -74 -32 -74 -49 0 -5 9 -9
19 -9 10 0 21 -6 24 -12 2 -7 -4 -74 -14 -148 -25 -184 -17 -211 53 -183 21 9
41 13 44 11 3 -3 -4 -21 -15 -39 -10 -19 -27 -70 -36 -114 -9 -44 -33 -118
-52 -164 -33 -81 -95 -308 -109 -396 -4 -27 -2 -45 5 -49 30 -19 -13 -162 -76
-248 -18 -25 -42 -71 -51 -101 -37 -111 -106 -203 -181 -240 -35 -18 -64 -46
-118 -118 -89 -115 -108 -132 -132 -117 -15 9 -41 0 -140 -49 l-121 -60 60
-23 c34 -13 58 -26 53 -30 -28 -25 -125 -90 -158 -108 -31 -15 -58 -20 -116
-19 -57 1 -82 -3 -102 -16 -35 -23 -34 -45 3 -61 l31 -12 -21 -27 c-46 -58
-189 -102 -250 -77 -27 11 -35 9 -82 -16 -44 -23 -70 -29 -158 -34 -154 -10
-242 -35 -344 -98 -16 -10 -55 -12 -156 -8 -74 3 -149 8 -166 12 -27 5 -38 0
-73 -32 -58 -51 -69 -74 -45 -91 11 -8 14 -17 8 -22 -13 -13 -258 -78 -324
-87 -69 -8 -90 -19 -90 -46 0 -20 -3 -21 -82 -14 -309 24 -949 13 -1037 -18
-50 -18 -61 -20 -61 -7 0 20 174 84 288 106 84 16 91 20 73 38 -17 17 -161 13
-240 -8 -108 -28 -344 -159 -495 -273 -32 -25 -138 -85 -236 -133 -197 -98
-240 -128 -240 -166 0 -34 -74 -136 -146 -200 -92 -82 -104 -94 -153 -158 -43
-55 -139 -142 -185 -167 -18 -10 -19 -7 -13 37 12 87 28 126 66 168 42 46 61
78 61 101 0 25 -34 19 -61 -10 -87 -93 -303 -134 -399 -75 -47 29 -119 27
-267 -5 -139 -30 -290 -32 -319 -3 -15 15 -15 19 1 48 26 50 57 59 113 32 26
-13 73 -26 105 -29 50 -4 57 -3 57 13 0 10 -20 36 -45 59 -37 35 -45 49 -45
78 0 44 12 54 81 69 68 15 129 45 129 65 0 23 -56 41 -155 47 -82 6 -143 17
-350 61 -38 9 -102 16 -141 16 -59 0 -74 4 -89 20 -18 20 -18 22 -1 50 20 35
14 49 -34 85 -48 35 -91 33 -124 -6 -14 -17 -26 -34 -26 -37 0 -4 -4 -13 -9
-21 -10 -16 -24 -10 -125 58 l-70 46 50 5 c52 5 70 14 93 42 11 15 11 22 -4
44 -9 14 -15 28 -13 30 3 2 47 -15 99 -38 139 -62 213 -56 196 14 -4 16 -23
34 -55 51 -72 39 -80 52 -51 83 32 35 22 47 -102 122 -114 69 -166 114 -171
146 -2 11 -23 35 -48 54 -25 19 -47 42 -49 51 -2 9 -12 28 -22 43 -29 40 -25
76 9 84 40 10 44 14 31 30 -7 9 -32 14 -69 14 -54 0 -63 4 -121 48 -129 96
-389 373 -389 414 0 5 11 1 26 -8 38 -26 53 -5 30 42 -9 20 -15 38 -14 40 2 1
29 -15 62 -37 62 -42 76 -47 76 -26 0 15 -45 70 -138 171 -83 89 -144 183
-140 216 3 23 6 25 53 23 67 -2 127 -20 208 -60 37 -18 91 -42 120 -53 30 -11
65 -32 78 -46 13 -14 42 -35 64 -46 21 -11 62 -38 90 -58 57 -43 151 -92 243
-126 123 -47 172 -48 172 -4 0 17 -7 20 -42 20 -24 0 -61 5 -83 11 -68 19
-203 90 -248 130 -39 35 -41 39 -28 60 13 21 11 25 -26 58 -22 20 -71 62 -110
93 -100 80 -173 170 -173 213 0 66 49 77 217 49 58 -10 98 -13 104 -7 6 6 -18
45 -61 102 -86 112 -118 174 -128 243 l-7 53 -42 3 c-78 6 -107 -58 -58 -130
14 -20 25 -42 25 -47 0 -14 -100 -89 -136 -101 -39 -14 -57 -44 -64 -105 -4
-41 -10 -52 -33 -65 -28 -15 -29 -14 -69 30 -52 58 -165 227 -179 269 -10 28
-9 35 9 54 28 32 53 84 54 116 1 35 -10 54 -103 187 -43 61 -92 138 -108 171
-32 64 -154 208 -266 311 -102 96 -142 122 -185 122 -22 0 -43 7 -50 15 -19
23 -54 15 -58 -12 -4 -28 -2 -28 -79 3 -63 24 -66 25 -112 9 -39 -13 -54 -13
-77 -4 -16 7 -71 12 -123 11 l-94 0 -46 46 c-27 27 -94 74 -161 111 -63 36
-142 83 -175 105 -89 59 -181 156 -211 220 -33 72 -42 125 -23 137 25 16 123
10 262 -17 75 -14 156 -24 179 -22 l43 3 -50 23 c-142 65 -137 61 -180 149
-22 45 -58 103 -81 130 -89 106 -174 238 -174 270 0 19 24 16 159 -16 68 -16
141 -41 168 -56 62 -36 200 -176 340 -345 126 -152 181 -196 196 -156 7 17
-66 127 -155 233 -38 46 -155 162 -261 260 -263 242 -374 355 -436 443 -96
137 -151 267 -151 360 0 46 25 135 40 145 4 2 28 -30 53 -73 84 -144 311 -432
506 -642 73 -78 114 -113 157 -135 77 -39 253 -214 537 -533 198 -223 367
-423 367 -436 0 -3 -36 20 -79 50 -101 69 -264 154 -296 154 -21 0 -24 -5 -27
-42 -3 -41 -5 -43 -33 -42 -16 0 -49 6 -73 11 -37 10 -44 9 -49 -5 -9 -21 37
-58 152 -121 130 -72 285 -139 358 -155 34 -7 81 -22 104 -34 26 -14 61 -22
90 -22 45 0 51 -3 95 -52 47 -53 64 -57 68 -13 5 49 -4 68 -59 127 -110 119
-177 250 -151 298 14 27 42 40 84 40 44 0 86 16 86 32 0 14 -18 44 -74 121
-64 88 -103 228 -72 259 9 9 16 28 16 41 0 31 47 50 97 41 50 -9 83 2 83 29 0
34 -64 161 -124 246 -84 120 -116 198 -116 283 0 77 51 179 104 207 35 19 61
1 95 -69 36 -73 148 -225 221 -300 43 -44 54 -51 57 -37 3 11 -22 53 -64 110
-173 232 -221 352 -179 452 18 42 52 60 140 73 86 14 100 26 50 42 -44 15
-141 8 -181 -13 -15 -8 -41 -22 -58 -31 l-30 -16 -6 48 c-4 26 -26 87 -50 137
-42 86 -43 92 -42 180 2 162 43 245 128 261 38 7 65 2 189 -32 58 -16 92 -22
99 -15 12 12 -23 30 -144 77 -131 51 -195 46 -284 -22 -17 -12 -51 -31 -76
-42 -63 -27 -74 -56 -65 -175 16 -221 19 -239 58 -302 20 -33 55 -102 77 -153
l41 -94 -25 -20 c-53 -41 -86 -84 -106 -138 -29 -77 -23 -190 15 -279 26 -61
43 -91 151 -264 26 -42 45 -80 41 -84 -4 -4 -35 -9 -70 -11 -46 -3 -73 1 -99
13 -36 17 -216 195 -237 235 -10 19 -9 20 31 14 50 -8 59 2 59 69 0 62 -17
100 -89 200 -33 45 -63 96 -66 112 -4 17 -31 62 -61 100 -57 76 -105 166 -123
230 -15 55 -14 149 3 189 16 39 60 76 90 76 25 0 76 -50 100 -96 24 -49 66
-94 87 -94 10 0 19 3 19 7 0 3 -22 52 -49 107 -56 114 -87 202 -101 291 -5 33
-22 90 -36 125 -31 77 -44 192 -33 302 9 90 32 149 82 201 45 48 60 42 113
-45 21 -35 58 -84 82 -110 79 -85 77 -56 -5 79 -44 72 -161 329 -192 422 -30
91 7 211 65 211 13 0 28 9 34 20 7 13 21 20 40 20 40 0 284 -125 326 -167 18
-18 39 -33 45 -33 6 0 33 -16 60 -36 77 -56 67 -35 -76 161 -134 185 -312 451
-363 545 -49 91 -99 216 -108 270 -6 36 -3 43 29 75 19 19 44 35 55 35 32 0
34 15 6 41 l-26 24 -72 -77 -72 -77 -265 267 c-528 531 -599 618 -725 879 -25
51 -53 97 -64 103 -27 15 -90 12 -96 -3z m9423 -614 c5 -15 -54 -46 -73 -39
-17 7 -18 28 -2 44 16 16 70 12 75 -5z m-9160 -147 c27 -18 113 -63 193 -100
190 -88 261 -133 470 -301 96 -77 194 -154 217 -170 46 -32 60 -64 64 -145 3
-74 1 -80 -35 -95 -18 -8 -36 -22 -40 -31 -11 -29 30 -95 134 -214 96 -110
121 -150 83 -135 -10 3 -40 11 -68 17 -69 15 -109 37 -189 107 -38 34 -73 61
-78 61 -16 0 -7 -19 28 -62 68 -80 68 -81 43 -130 -16 -32 -23 -67 -27 -134
-9 -181 20 -269 88 -269 39 -1 58 -28 67 -95 5 -35 3 -40 -25 -54 -63 -32
-106 -103 -128 -209 -9 -42 -24 -81 -39 -98 -13 -16 -26 -42 -30 -59 -8 -37
-19 -38 -76 -2 -83 54 -419 365 -419 388 0 7 10 14 22 17 31 8 8 33 -38 40
-48 8 -112 57 -225 174 -106 110 -153 173 -163 220 -7 29 -37 79 -154 249 -43
63 -199 350 -303 556 -45 90 -55 119 -46 127 29 23 112 51 154 51 145 0 650
-260 823 -425 47 -44 124 -95 145 -95 10 0 4 36 -10 54 -8 11 -15 31 -15 45 0
29 -18 60 -82 148 -25 33 -51 76 -58 94 -17 42 -56 92 -194 244 -118 129 -166
196 -166 230 0 44 14 45 77 1z m-496 -1021 c23 -48 42 -108 46 -137 7 -68 20
-85 223 -293 91 -94 172 -184 180 -200 8 -17 29 -51 46 -76 57 -82 67 -109 72
-201 4 -66 0 -105 -13 -153 -20 -74 -16 -106 21 -185 33 -72 42 -141 20 -159
-14 -12 -21 -9 -55 27 -114 119 -370 543 -461 762 -17 41 -49 111 -71 155 -47
97 -70 203 -72 345 -2 99 8 200 19 200 3 0 23 -38 45 -85z m10996 23 c-2 -13
-4 -3 -4 22 0 25 2 35 4 23 2 -13 2 -33 0 -45z m-10228 -872 c31 -29 125 -111
209 -180 152 -127 196 -175 188 -209 -6 -25 19 -123 54 -213 l32 -79 -29 -25
c-53 -48 -80 -88 -86 -128 -4 -22 -14 -45 -22 -52 -20 -16 -20 -116 0 -190 29
-108 16 -114 -77 -40 -35 27 -80 59 -100 70 -37 20 -38 20 -38 1 0 -11 20 -46
45 -78 95 -122 108 -143 95 -158 -28 -34 -2 -71 227 -332 203 -230 197 -230
-57 9 -80 75 -165 153 -190 172 -45 36 -80 46 -80 24 0 -6 73 -86 163 -177
361 -368 627 -684 723 -859 34 -61 27 -72 -41 -72 -47 0 -68 19 -220 200 -115
136 -358 383 -617 626 -229 216 -281 277 -345 410 -65 137 -57 184 30 184 29
0 47 -11 102 -61 45 -41 71 -57 77 -51 17 17 1 54 -53 120 -36 44 -54 76 -60
107 -5 24 -26 86 -47 137 -54 128 -57 138 -37 138 10 0 69 -22 134 -49 164
-69 241 -88 241 -58 0 6 -38 69 -84 139 -91 138 -150 270 -193 438 -32 125
-36 290 -7 290 3 0 32 -24 63 -54z m9918 28 c3 -8 1 -20 -4 -25 -11 -11 -56
18 -48 32 10 15 45 10 52 -7z m-10529 -196 c61 -90 150 -210 197 -266 105
-127 115 -146 115 -216 0 -75 19 -126 96 -258 35 -61 61 -115 57 -119 -5 -3
-26 -12 -48 -19 -87 -27 -93 -57 -39 -194 46 -114 97 -216 168 -337 31 -51 56
-99 56 -107 0 -24 -31 -25 -57 -1 -37 34 -321 372 -377 449 -80 108 -82 115
-52 159 14 20 26 47 26 59 0 30 -35 97 -121 234 -83 130 -125 216 -113 228 5
5 25 12 44 17 63 16 62 42 -10 193 -46 98 -63 146 -67 190 -5 51 3 150 11 150
2 0 53 -73 114 -162z m10722 -58 c15 -36 4 -53 -16 -26 -15 21 -20 71 -5 62 4
-3 14 -19 21 -36z m-61 -203 c-1 -135 -3 -158 -9 -107 -7 55 -13 210 -11 273
1 10 6 15 11 12 6 -4 9 -73 9 -178z m-29 -368 c-5 -41 -10 -100 -10 -131 0
-44 -5 -63 -20 -78 -30 -30 -43 -25 -37 13 8 50 69 278 73 274 2 -2 0 -37 -6
-78z m65 -87 c0 -31 -19 -28 -23 4 -3 18 0 25 10 22 7 -3 13 -14 13 -26z
m-9781 -1024 c271 -272 540 -569 609 -673 15 -22 27 -51 27 -65 -1 -24 -2 -23
-33 15 -73 90 -202 233 -410 453 -189 201 -268 289 -360 408 -12 15 -14 24 -7
24 7 0 85 -73 174 -162z m579 -107 c59 -60 97 -108 97 -120 0 -12 -4 -21 -8
-21 -11 0 -100 93 -155 162 -108 135 -75 125 66 -21z m799 -3365 c152 -47 203
-96 297 -283 60 -120 54 -128 -45 -58 -34 25 -82 55 -105 68 -62 32 -193 197
-225 280 -8 21 -14 22 78 -7z m4241 -761 c-2 -56 -32 -122 -71 -159 -27 -25
-32 -27 -38 -12 -9 23 4 109 23 157 18 47 61 85 77 69 6 -6 10 -31 9 -55z
m-179 -51 c17 -44 1 -144 -30 -192 -24 -36 -36 -11 -29 63 11 117 40 180 59
129z m-111 -39 c7 -17 -9 -124 -24 -162 -10 -26 -12 -27 -19 -8 -10 24 -13
146 -4 169 8 20 40 21 47 1z m-113 -61 c0 -29 -16 -64 -30 -64 -13 0 -13 56 1
81 13 25 29 15 29 -17z m-103 -65 c-9 -68 -63 -105 -87 -59 -20 36 27 99 74
100 16 0 18 -6 13 -41z m-309 -1 c15 -15 -3 -48 -27 -48 -25 0 -34 26 -15 45
18 18 26 19 42 3z m169 -84 c2 -6 -11 -15 -29 -20 -39 -11 -43 -36 -8 -44 40
-9 45 -49 26 -232 -26 -261 -63 -407 -99 -395 -14 4 -14 36 -2 454 l8 303 50
-28 c28 -15 52 -32 54 -38z m-273 40 c9 -24 7 -38 -8 -59 -12 -16 -16 -17 -30
-6 -9 7 -16 23 -16 35 0 39 42 63 54 30z m-100 -96 c11 -155 7 -388 -9 -488
-25 -164 -54 -232 -69 -159 -17 85 1 354 31 447 16 52 16 54 -7 98 -26 53 -24
126 4 168 31 48 43 33 50 -66z m587 -176 c-8 -12 -10 8 -11 75 0 124 14 153
18 35 1 -51 -2 -100 -7 -110z m-377 5 c-1 -121 -7 -199 -25 -307 l-24 -145 -3
185 c-3 180 10 419 24 441 4 8 10 7 18 -1 7 -7 11 -64 10 -173z m294 103 c6
-143 -27 -350 -69 -432 -24 -47 -43 -41 -34 11 3 20 9 136 14 258 5 122 12
227 16 233 4 6 21 10 38 8 l32 -3 3 -75z m-1029 -1 c-13 -33 -24 -95 -29 -159
-9 -120 -14 -136 -41 -143 -53 -14 -30 -75 61 -161 93 -87 244 -212 305 -251
65 -42 218 -224 310 -370 21 -33 58 -83 82 -112 45 -52 149 -244 173 -316 16
-50 5 -61 -76 -87 -85 -26 -120 -45 -127 -68 -10 -39 6 -45 69 -27 62 17 143
17 146 0 2 -19 -66 -49 -205 -91 -134 -41 -177 -63 -177 -90 0 -8 -16 -62 -36
-121 -28 -83 -35 -119 -31 -155 2 -27 2 -48 0 -48 -3 0 -16 9 -29 19 -30 24
-114 38 -309 51 -166 12 -254 29 -318 61 -93 47 -287 276 -415 489 -76 125
-248 473 -256 515 -6 28 -2 32 63 68 91 52 219 162 289 250 31 39 79 95 107
125 43 47 53 53 79 48 46 -10 201 -91 201 -107 0 -8 -27 -21 -69 -34 -66 -20
-88 -36 -68 -49 6 -3 61 2 124 11 l114 17 65 -31 c35 -16 122 -69 193 -116 71
-48 132 -87 137 -87 4 0 11 5 15 12 11 17 -65 80 -183 151 -56 34 -105 68
-108 76 -7 19 12 31 50 31 17 0 37 5 45 10 31 20 -12 29 -112 23 -113 -7 -114
-7 -285 86 -85 45 -123 71 -123 83 0 23 77 197 124 281 52 94 119 172 195 228
36 26 67 47 68 45 1 -1 -7 -27 -18 -57z m1211 31 c0 -11 -4 -20 -10 -20 -5 0
-10 9 -10 20 0 11 5 20 10 20 6 0 10 -9 10 -20z m-584 -26 c13 -53 -19 -492
-37 -509 -12 -11 -6 458 7 508 8 34 22 35 30 1z m-386 -33 c12 -24 14 -139 1
-125 -11 12 -41 103 -41 126 0 24 27 23 40 -1z m134 -64 c25 -25 42 -102 31
-137 -6 -20 -7 -20 -37 -3 -61 36 -84 94 -58 144 14 25 36 24 64 -4z m-1117
-201 c11 -11 -50 -62 -166 -136 -55 -36 -101 -69 -101 -73 0 -21 37 -15 120
18 l91 38 28 -27 c17 -16 38 -26 57 -26 32 0 106 32 173 74 24 15 45 26 47 23
9 -9 -77 -126 -139 -188 -74 -75 -165 -143 -268 -199 -106 -58 -138 -102 -82
-116 16 -4 52 1 95 15 38 13 72 20 75 17 11 -10 -19 -36 -42 -36 -12 0 -28 -6
-34 -14 -18 -22 -65 -25 -206 -17 -192 11 -225 -1 -117 -44 28 -12 42 -23 42
-35 0 -18 -3 -18 -72 1 -191 52 -214 63 -220 101 -2 16 -17 29 -45 43 -51 24
-58 40 -43 97 15 56 54 106 88 114 35 9 52 23 52 43 0 9 -18 56 -40 106 -22
49 -37 92 -32 95 4 4 62 12 129 18 103 9 134 16 200 45 73 32 180 61 263 71
50 6 139 1 147 -8z m941 -2 c43 -30 66 -107 42 -144 -7 -12 -12 -11 -30 5 -24
22 -100 133 -100 146 0 15 64 10 88 -7z m207 -50 c-11 -109 -67 -244 -101
-244 -8 0 -22 -9 -31 -20 -16 -18 -18 -18 -35 -3 -24 22 -23 39 5 58 27 17 47
55 47 88 0 48 23 101 62 143 22 24 45 44 50 44 7 0 8 -24 3 -66z m214 -367
c44 -15 60 -39 41 -62 -20 -24 -69 -14 -124 27 -25 18 -45 36 -46 41 0 11 91
7 129 -6z m116 -142 c29 -28 34 -82 10 -91 -39 -15 -101 69 -75 101 18 21 37
19 65 -10z m112 -183 c25 -38 21 -62 -10 -62 -25 0 -67 37 -67 60 0 21 21 41
39 38 9 -2 25 -18 38 -36z m122 -178 c33 -42 58 -80 55 -85 -6 -11 -45 -12
-60 -1 -15 9 -114 133 -114 142 0 13 13 20 36 20 16 0 40 -22 83 -76z m-1901
-32 c3 -19 -1 -23 -15 -20 -10 2 -19 14 -21 26 -3 19 1 23 15 20 10 -2 19 -14
21 -26z m30 -135 c27 -29 46 -87 33 -100 -10 -10 -69 65 -83 104 -11 28 23 25
50 -4z m168 -250 c8 -25 -14 -39 -39 -26 -21 12 -69 108 -60 122 7 11 91 -70
99 -96z m73 -92 c40 -34 105 -124 96 -133 -4 -4 -29 -7 -55 -7 -57 0 -70 12
-96 88 -26 77 -2 100 55 52z m137 -191 c19 -9 70 -55 112 -101 42 -47 99 -103
127 -125 43 -34 55 -39 84 -34 37 6 181 -12 181 -23 0 -10 -146 -71 -170 -71
-12 0 -30 5 -42 11 -11 6 -22 8 -25 5 -11 -11 15 -51 75 -117 l61 -66 -50 -6
c-59 -7 -136 5 -181 30 -23 12 -71 20 -153 26 -236 16 -212 19 -309 -47 -69
-48 -95 -60 -136 -64 -43 -4 -51 -8 -56 -28 -8 -30 3 -74 23 -96 16 -18 22
-82 9 -95 -4 -4 -41 -9 -83 -11 l-75 -4 18 31 18 31 -32 29 c-18 17 -32 38
-32 49 0 27 45 64 137 112 56 28 111 69 173 126 51 46 95 84 99 84 4 0 12 -5
18 -11 32 -32 72 32 81 129 l7 65 43 15 c24 8 41 19 39 25 -2 6 -22 17 -46 25
-66 22 -82 95 -23 108 15 3 32 7 37 9 21 7 38 4 71 -11z m828 -288 c43 -18 60
-48 51 -92 -8 -46 -43 -68 -97 -61 -22 3 -48 13 -57 21 -14 15 -12 16 27 16
23 0 42 5 42 10 0 17 -36 47 -99 82 -33 18 -61 37 -61 42 0 13 153 -1 194 -18z
m-1135 -35 c-26 -35 -62 -56 -84 -47 -26 10 -13 29 35 54 61 31 76 29 49 -7z
m1319 -123 c3 -14 -3 -18 -27 -18 -29 0 -41 17 -24 34 13 13 48 1 51 -16z
m-508 -131 c15 -13 99 -47 186 -77 184 -61 253 -90 277 -114 19 -19 24 -110 7
-121 -5 -3 -27 7 -47 24 -47 37 -183 101 -216 101 -25 0 -206 145 -235 188
-19 28 -7 28 28 -1z"/>
<path d="M196 11062 c-13 -21 82 -169 213 -331 147 -184 444 -491 459 -476 3
3 -6 18 -19 33 -226 250 -318 361 -507 610 -128 167 -137 178 -146 164z"/>
<path d="M1144 8099 c-12 -21 62 -108 331 -391 410 -430 441 -462 474 -481 28
-16 32 -17 37 -3 13 33 -64 125 -415 499 -201 213 -383 387 -407 387 -7 0 -16
-5 -20 -11z"/>
<path d="M5053 2276 c3 -7 37 -64 76 -127 62 -98 69 -114 53 -117 -11 -2 -83
13 -161 33 -77 20 -146 33 -151 30 -32 -19 14 -65 65 -65 87 0 367 -102 344
-125 -3 -3 -68 13 -145 34 -208 59 -376 101 -401 101 -13 0 -23 -5 -23 -10 0
-14 36 -27 134 -50 43 -10 90 -27 105 -39 43 -34 91 -57 198 -95 205 -71 191
-60 299 -223 97 -146 178 -243 205 -243 8 0 20 4 28 9 21 13 6 41 -82 165
-120 168 -123 175 -54 140 45 -23 67 -44 67 -65 0 -25 35 -46 97 -59 60 -13
88 -3 103 36 5 13 16 24 25 24 31 0 13 21 -42 49 -32 15 -114 52 -183 81 -161
67 -260 119 -260 136 0 8 3 14 6 14 15 0 309 -96 387 -127 83 -33 117 -37 117
-13 0 18 -97 60 -289 124 -103 35 -206 73 -230 85 -63 32 -114 83 -186 185
-80 113 -90 126 -100 126 -4 0 -5 -6 -2 -14z"/>
<path d="M4540 1983 c0 -15 121 -113 496 -404 343 -267 440 -337 451 -325 12
11 -40 56 -222 194 -99 75 -290 220 -425 322 -268 204 -300 227 -300 213z"/>
<path d="M4870 1642 c0 -12 143 -132 431 -364 226 -182 244 -194 255 -176 11
17 -62 80 -317 276 -262 201 -369 277 -369 264z"/>
<path d="M4344 2635 c-64 -35 -131 -62 -185 -76 -92 -23 -110 -32 -91 -51 10
-10 30 -9 95 5 155 32 308 107 315 155 5 34 -21 28 -134 -33z"/>
<path d="M1921 11169 c-81 -16 -66 -31 46 -48 115 -17 184 -45 337 -137 235
-141 306 -203 306 -267 0 -35 87 -130 162 -178 39 -26 55 -30 85 -26 43 7 73
32 73 61 0 29 -120 141 -167 157 -52 17 -95 45 -253 164 -316 238 -453 302
-589 274z"/>
<path d="M10475 10828 c-139 -19 -191 -54 -202 -138 -7 -51 7 -52 74 -6 66 45
117 70 184 89 49 15 89 41 89 60 0 9 -55 7 -145 -5z"/>
<path d="M10485 10683 c-52 -15 -95 -47 -95 -69 0 -9 27 -3 87 18 80 28 91 29
141 19 107 -21 138 -6 60 29 -51 23 -124 25 -193 3z"/>
<path d="M10478 10580 c-62 -32 -98 -71 -98 -105 0 -28 -20 -85 -29 -85 -17 0
-44 30 -100 114 -55 81 -61 87 -61 59 0 -42 18 -90 53 -143 21 -31 32 -61 35
-98 4 -50 8 -56 64 -105 32 -29 61 -62 64 -74 13 -49 82 -85 190 -98 72 -9 68
-2 -14 23 -44 14 -74 32 -109 65 -26 26 -69 66 -95 90 -52 48 -64 87 -28 87
11 0 23 7 26 15 8 21 20 19 58 -10 34 -26 66 -33 66 -15 0 6 -18 33 -40 61
-35 44 -50 79 -35 79 2 0 32 -25 67 -56 74 -66 103 -82 161 -90 53 -8 143 16
175 46 66 61 -26 218 -149 254 -79 24 -135 20 -201 -14z m72 -80 c0 -18 -30
-70 -40 -70 -8 0 2 48 15 70 8 13 25 13 25 0z m210 -65 c0 -14 -4 -25 -10 -25
-5 0 -10 11 -10 25 0 14 5 25 10 25 6 0 10 -11 10 -25z"/>
<path d="M10050 10127 c0 -112 76 -249 174 -316 94 -64 123 -39 33 28 -91 67
-147 152 -162 246 -12 74 -15 85 -30 85 -11 0 -15 -12 -15 -43z"/>
<path d="M3043 8189 c-48 -14 -97 -69 -117 -130 -10 -29 -35 -82 -57 -118 -56
-93 -56 -155 2 -365 21 -77 39 -157 39 -176 0 -53 24 -131 61 -201 36 -68 152
-193 172 -186 21 7 9 57 -21 91 -43 49 -88 132 -113 208 -29 89 -20 101 62 92
42 -5 59 -3 59 5 0 6 -22 44 -50 83 -66 95 -89 160 -100 289 -15 167 8 299 62
356 37 40 84 46 173 23 94 -24 101 -24 85 -5 -30 37 -180 56 -257 34z"/>
<path d="M9450 8163 c-55 -28 -81 -56 -67 -70 9 -9 96 36 142 73 l30 24 -26 0
c-14 0 -50 -12 -79 -27z"/>
<path d="M9266 7858 c-9 -35 -7 -111 4 -128 18 -27 30 9 28 79 -3 65 -20 92
-32 49z"/>
<path d="M850 7845 c0 -14 99 -135 135 -165 10 -8 124 -126 253 -263 243 -257
302 -308 302 -259 0 57 -622 702 -676 702 -8 0 -14 -7 -14 -15z"/>
<path d="M605 7700 c-20 -32 353 -416 379 -390 18 18 -16 62 -169 218 -148
152 -197 192 -210 172z"/>
<path d="M9415 7688 c-29 -11 -66 -18 -87 -16 -44 4 -48 -5 -12 -29 27 -17 29
-17 136 14 28 8 47 -37 63 -157 9 -62 23 -123 31 -134 13 -19 14 -14 14 54 0
41 -7 120 -15 175 -8 55 -15 103 -15 108 0 13 -64 5 -115 -15z"/>
<path d="M8973 7580 c-29 -17 -57 -39 -63 -50 -9 -17 -6 -22 24 -37 40 -18 50
-38 70 -139 15 -73 42 -151 58 -168 13 -15 10 0 -22 132 -35 145 -37 179 -10
232 36 70 24 76 -57 30z"/>
<path d="M9861 7511 c-20 -21 -57 -61 -83 -89 -26 -27 -65 -60 -88 -73 -22
-12 -40 -26 -40 -30 0 -8 51 3 90 19 38 15 120 92 152 141 49 78 30 97 -31 32z"/>
<path d="M3509 7407 c-54 -36 -63 -65 -45 -138 21 -79 64 -138 140 -190 88
-61 105 -78 116 -121 14 -50 53 -78 175 -126 64 -24 101 -44 103 -55 7 -37
-94 -127 -144 -127 -35 0 -119 -47 -152 -84 -34 -39 -35 -56 -6 -103 8 -12 14
-26 14 -31 0 -15 -183 -63 -262 -69 -79 -6 -122 -22 -138 -52 -5 -11 -10 -51
-10 -90 0 -65 -2 -71 -22 -75 -13 -2 -67 -11 -121 -19 -53 -8 -105 -21 -113
-28 -28 -23 -14 -124 28 -210 51 -102 85 -139 217 -227 100 -67 116 -82 127
-117 8 -24 30 -55 56 -77 24 -21 53 -47 66 -58 17 -15 22 -30 22 -68 0 -120
42 -235 114 -312 30 -33 45 -57 49 -87 4 -23 18 -54 31 -70 l24 -29 -34 -32
c-72 -68 -24 -151 131 -229 126 -63 156 -68 419 -66 138 1 243 6 248 11 13 13
-36 28 -132 41 -95 13 -221 49 -330 96 -121 51 -133 60 -117 86 16 27 66 57
118 72 98 28 74 65 -111 169 -160 90 -184 109 -225 173 -19 29 -52 67 -75 85
-36 28 -40 36 -40 76 0 24 2 44 4 44 3 0 46 -20 97 -45 85 -41 99 -45 169 -45
55 0 121 -11 236 -39 87 -22 187 -44 222 -51 l63 -11 61 55 c34 30 64 54 66
52 1 -2 -7 -20 -19 -40 -26 -45 -27 -80 -3 -107 11 -12 82 -53 159 -91 181
-90 204 -110 145 -121 -34 -7 -39 -26 -12 -50 27 -25 126 -35 445 -47 278 -10
416 -7 466 12 12 4 110 19 216 33 200 26 231 34 330 83 33 17 114 44 179 61
84 22 142 44 195 75 42 24 129 71 193 106 144 76 193 117 222 184 13 28 31 57
40 65 46 39 60 112 24 128 -23 10 -22 10 11 41 18 16 77 54 130 82 189 103
221 131 251 218 16 49 23 53 175 125 85 40 95 64 39 90 -47 23 -35 39 46 61
63 18 82 32 54 43 -20 7 -113 -21 -289 -89 -149 -58 -177 -76 -239 -157 -25
-32 -68 -76 -97 -97 -28 -21 -66 -61 -84 -87 -18 -27 -73 -83 -121 -124 -49
-42 -120 -104 -159 -138 -189 -168 -413 -282 -784 -399 -116 -37 -171 -66
-171 -91 0 -8 -14 -16 -32 -20 -69 -11 -346 -35 -412 -35 -64 0 -75 4 -145 44
-76 44 -76 44 -201 50 -173 9 -438 68 -496 111 -15 11 -17 17 -8 32 14 22 61
22 198 0 54 -9 187 -21 295 -27 108 -6 248 -15 311 -20 119 -9 122 -10 155
-64 9 -15 16 -15 85 -1 41 8 108 20 148 26 80 12 100 30 63 55 -43 31 -21 53
86 88 105 35 136 91 68 123 -30 14 -44 15 -112 5 -222 -34 -305 -27 -441 34
-91 42 -129 44 -138 8 -11 -44 23 -74 164 -145 l131 -66 -177 -5 c-333 -10
-563 17 -746 88 -50 19 -91 36 -93 37 -1 2 18 27 42 57 25 30 45 61 45 68 0
18 -39 30 -169 53 -165 28 -190 36 -201 64 -13 33 -44 60 -137 116 -95 58
-137 101 -127 133 20 67 88 79 169 28 61 -38 196 -93 247 -99 20 -3 57 2 84
11 26 9 79 16 118 16 43 0 66 4 61 9 -6 5 -66 24 -135 41 -210 53 -340 121
-340 178 0 11 21 48 48 82 62 83 78 108 70 115 -27 28 -164 -87 -204 -171 -18
-38 -43 -67 -87 -103 -92 -73 -111 -95 -103 -125 3 -13 43 -58 89 -100 82 -75
118 -121 110 -142 -6 -17 43 -52 91 -65 22 -6 92 -22 155 -35 63 -13 119 -28
124 -33 6 -6 2 -20 -11 -38 -11 -15 -23 -43 -27 -60 -6 -29 -10 -33 -40 -33
-45 0 -245 41 -439 90 -243 61 -549 191 -677 288 -127 97 -229 228 -229 296 0
38 51 57 168 64 72 4 107 1 153 -13 59 -18 59 -18 82 3 32 30 113 56 258 82
68 12 126 24 128 26 2 2 -34 4 -80 4 -96 0 -188 14 -236 37 -59 27 -53 62 16
98 55 28 136 52 216 65 32 5 63 14 69 20 15 15 -30 57 -96 91 -32 16 -58 31
-58 33 0 9 121 78 127 73 3 -3 0 -20 -6 -38 -33 -96 9 -108 69 -19 75 110 138
177 222 234 45 31 95 66 109 78 20 15 61 25 160 40 185 26 328 56 368 76 45
22 56 53 31 84 -17 21 -26 23 -102 22 -68 0 -102 -7 -188 -36 -58 -20 -176
-57 -263 -82 -159 -46 -237 -78 -237 -96 0 -17 -47 -11 -122 15 -114 40 -154
74 -78 67 107 -10 83 24 -71 104 -130 68 -171 100 -199 159 -40 83 -21 216 28
198 15 -6 15 -5 3 10 -18 23 -42 21 -82 -6z"/>
<path d="M9454 7345 c-19 -14 -19 -14 2 -15 12 0 27 7 34 15 17 20 -9 21 -36
0z"/>
<path d="M9208 7192 c-21 -15 -38 -29 -38 -32 0 -3 15 -6 32 -7 45 -3 86 -22
92 -42 3 -9 8 -54 12 -101 3 -47 11 -93 16 -102 23 -46 91 1 153 106 28 47 41
59 31 28 -14 -43 -36 -240 -37 -327 -1 -100 7 -125 42 -125 23 0 23 -2 -2 62
-23 59 -24 50 18 326 19 123 23 176 16 183 -8 8 -31 -16 -82 -84 -66 -90 -102
-120 -121 -100 -5 4 -10 47 -12 95 -2 69 -7 92 -24 115 -28 37 -51 38 -96 5z"/>
<path d="M9735 6938 c-9 -49 18 -196 49 -264 14 -31 26 -64 26 -74 0 -19 -98
-100 -121 -100 -8 0 -26 14 -41 32 -20 25 -30 30 -38 22 -19 -19 -8 -67 18
-80 13 -6 29 -17 35 -23 16 -16 21 -14 67 24 23 19 48 35 56 35 15 0 28 -25
39 -73 9 -46 29 -26 38 39 11 77 15 84 73 117 27 16 62 41 77 55 30 28 72 100
63 109 -2 3 -31 -11 -63 -31 -78 -48 -111 -54 -146 -26 -37 29 -53 64 -76 161
-10 45 -26 88 -34 97 -14 13 -16 11 -22 -20z"/>
<path d="M8914 6888 c-5 -7 -10 -63 -12 -123 -4 -121 9 -174 47 -194 26 -15
34 0 19 36 -6 15 -14 86 -17 157 -6 125 -16 158 -37 124z"/>
<path d="M9101 6633 l-63 -38 50 -8 c59 -10 62 -16 62 -124 0 -39 5 -84 12
-100 11 -27 12 -27 19 27 14 112 9 280 -10 280 -4 0 -35 -17 -70 -37z"/>
<path d="M9458 6388 c-75 -62 -199 -183 -178 -172 83 42 283 224 246 224 -3 0
-33 -24 -68 -52z"/>
<path d="M4082 5084 c1 -9 9 -19 16 -22 9 -3 13 2 10 14 -1 9 -9 19 -16 22 -9
3 -13 -2 -10 -14z"/>
<path d="M8580 4978 c-42 -70 -34 -118 20 -118 30 0 141 52 161 76 9 11 9 18
1 26 -8 8 -25 3 -63 -21 -70 -43 -84 -39 -80 22 3 56 -11 61 -39 15z"/>
<path d="M7830 4958 c-30 -48 -43 -104 -30 -127 5 -11 10 -29 10 -40 0 -16 6
-21 26 -21 19 0 25 -4 21 -14 -7 -19 8 -23 103 -32 122 -11 152 -39 115 -104
-24 -42 -19 -103 11 -131 24 -23 32 -24 157 -24 117 0 136 2 172 22 36 20 37
22 15 22 -14 1 -50 -6 -80 -14 -63 -17 -146 -6 -199 26 -28 17 -31 24 -31 69
0 61 19 109 64 164 75 92 73 123 -4 68 -75 -52 -112 -66 -184 -66 -60 0 -94
11 -128 42 -23 19 -24 86 -3 135 19 46 19 57 0 57 -8 0 -24 -15 -35 -32z"/>
<path d="M9462 4833 c-7 -3 -18 -19 -26 -36 -20 -49 -65 -97 -129 -138 -63
-39 -64 -55 -2 -38 103 29 230 162 194 205 -12 15 -16 16 -37 7z"/>
<path d="M3017 4773 c-4 -4 -5 -21 -1 -39 4 -25 1 -37 -15 -53 -26 -26 -26
-30 -2 -83 11 -24 22 -59 26 -78 8 -53 37 -93 112 -155 188 -156 290 -218 319
-195 22 19 17 65 -8 82 -23 15 -23 16 -6 52 10 20 25 36 34 36 9 0 111 -40
228 -89 244 -102 274 -113 281 -101 10 16 -46 48 -212 120 -247 107 -404 185
-471 234 -77 57 -227 208 -244 246 -12 29 -27 37 -41 23z"/>
<path d="M8578 4584 c-49 -26 -88 -50 -88 -54 0 -5 39 7 88 25 48 19 95 36
105 39 9 3 17 12 17 21 0 25 -30 17 -122 -31z"/>
<path d="M8657 4518 c-19 -24 -55 -72 -79 -108 -31 -46 -62 -77 -108 -108 -80
-52 -206 -102 -260 -102 -22 0 -49 -5 -59 -12 -26 -16 -51 -3 -51 28 0 14 8
55 17 90 13 49 14 67 5 76 -29 29 -72 -70 -72 -164 0 -41 3 -50 23 -57 45 -17
198 13 377 74 40 14 109 32 153 40 60 11 111 31 207 81 131 67 167 94 155 114
-4 7 -40 -7 -103 -41 -130 -69 -201 -94 -219 -76 -12 11 -8 29 21 110 19 53
33 97 31 97 -2 0 -19 -19 -38 -42z"/>
<path d="M7734 4493 c-11 -25 -18 -62 -18 -106 -1 -61 2 -71 23 -88 27 -22 63
-24 129 -7 l47 12 -55 16 c-51 15 -56 19 -67 55 -6 22 -15 66 -18 98 -4 31
-10 57 -15 57 -4 0 -16 -17 -26 -37z"/>
<path d="M1790 4270 c-35 -23 -129 -52 -199 -60 -52 -7 -86 -17 -111 -35 -20
-14 -44 -25 -54 -25 -9 0 -25 -4 -35 -10 -25 -13 -93 -105 -126 -170 -24 -47
-29 -52 -35 -35 -4 12 -16 27 -25 35 -17 14 -18 7 -14 -125 l4 -140 -27 -3
c-26 -3 -28 -6 -28 -51 0 -50 -12 -71 -42 -71 -28 0 -22 -34 24 -134 55 -120
58 -166 23 -346 -15 -77 -33 -148 -41 -157 -12 -17 -14 -16 -42 10 -36 35 -47
25 -57 -53 -4 -30 -13 -65 -21 -77 -19 -30 -18 -53 7 -135 18 -60 20 -75 10
-106 -11 -33 -9 -45 17 -117 16 -44 35 -105 42 -135 24 -105 110 -240 187
-293 71 -49 87 -27 26 35 l-37 38 22 16 c29 20 28 39 -7 83 -15 20 -36 52 -46
71 -10 19 -35 60 -55 90 -20 30 -42 65 -49 78 -12 22 -11 23 11 20 19 -2 23 1
20 22 -1 14 -11 46 -22 72 -34 79 -25 105 25 72 22 -14 24 -14 35 6 6 12 9 39
5 63 -5 34 0 54 25 106 16 34 48 83 69 107 72 82 80 218 22 369 -30 76 -49
155 -38 155 2 0 23 -18 45 -40 36 -37 69 -50 85 -34 12 12 -88 244 -112 258
-14 9 -24 107 -16 154 5 33 12 42 36 51 16 5 29 15 29 20 0 6 13 11 29 11 31
0 41 18 41 78 0 26 5 35 27 43 38 14 60 35 99 97 46 72 65 79 170 64 46 -7 91
-15 99 -18 10 -4 15 0 15 15 0 25 32 28 70 6 42 -24 53 -19 47 20 -7 41 -4 40
82 -24 64 -48 79 -51 83 -14 5 42 25 38 49 -9 27 -54 48 -78 77 -89 12 -5 27
-20 32 -35 6 -14 25 -40 44 -58 23 -21 37 -45 41 -71 20 -117 36 -180 49 -194
8 -9 18 -39 21 -67 11 -83 36 -98 51 -31 6 26 10 10 25 -88 24 -160 37 -196
80 -216 30 -15 36 -25 54 -89 24 -87 41 -102 85 -77 36 22 46 17 55 -24 9 -41
130 -271 154 -293 34 -30 35 1 3 77 -17 40 -41 106 -55 147 -14 41 -34 102
-46 135 -11 33 -23 72 -26 88 -7 38 -28 34 -69 -15 -34 -39 -36 -40 -36 -16 0
39 -20 89 -50 128 -39 50 -57 89 -65 140 -9 53 -58 166 -85 195 -22 24 -36 76
-46 168 -5 50 -11 70 -23 75 -24 8 -31 23 -31 62 0 51 -38 104 -67 93 -7 -3
-29 9 -48 26 -20 17 -42 31 -49 31 -7 0 -29 18 -49 40 -26 30 -43 40 -65 40
-21 0 -35 8 -46 25 -9 14 -23 25 -31 25 -19 0 -19 -3 6 -52 l21 -42 -48 41
c-94 78 -160 102 -204 73z"/>
<path d="M3603 4202 l-53 -3 0 -87 c0 -48 -3 -116 -6 -152 l-6 -65 129 -85
c185 -121 246 -152 301 -148 29 2 49 9 56 20 15 25 -17 55 -118 111 -47 26
-88 52 -92 58 -3 6 3 21 15 33 13 13 21 36 21 55 0 33 -20 59 -93 118 -20 17
-27 32 -27 57 0 37 -29 81 -57 87 -10 2 -42 3 -70 1z"/>
<path d="M9828 4139 c-31 -4 -72 -15 -91 -23 -51 -21 -114 -82 -128 -123 -10
-32 -9 -38 7 -51 23 -16 110 -11 147 10 14 7 39 21 57 31 19 11 63 21 108 24
68 6 79 9 103 35 24 27 30 29 73 23 38 -6 46 -5 46 8 0 24 -60 55 -130 66 -73
12 -110 12 -192 0z"/>
<path d="M10140 4126 c0 -4 43 -27 95 -53 64 -31 107 -45 133 -45 32 1 46 -6
76 -37 20 -20 51 -66 69 -102 26 -51 37 -65 58 -67 36 -4 62 23 54 57 -9 37
-84 167 -121 210 l-32 36 -166 4 c-91 1 -166 0 -166 -3z"/>
<path d="M9475 3886 c-35 -37 -55 -66 -55 -82 0 -13 4 -24 9 -24 15 0 101 101
107 127 11 43 -6 38 -61 -21z"/>
<path d="M10673 3908 c-9 -14 -31 -128 -32 -165 -1 -17 5 -23 19 -23 24 0 24
0 6 -110 -14 -87 -11 -99 23 -100 11 0 12 -13 6 -65 -6 -61 -5 -65 14 -65 11
0 22 -4 25 -8 3 -5 -15 -55 -40 -110 -25 -56 -42 -106 -39 -112 4 -6 21 -10
38 -8 l32 3 -2 -76 c-1 -41 -9 -102 -17 -136 -21 -80 -21 -105 0 -101 57 11
126 244 111 375 -6 55 -10 59 -39 39 -12 -9 -26 -16 -30 -16 -3 0 2 29 12 64
16 57 16 67 3 85 -13 19 -12 28 6 83 27 81 27 131 0 157 -16 14 -23 38 -29 90
-4 39 -13 78 -19 85 -7 8 -11 34 -10 58 3 60 -17 88 -38 56z"/>
<path d="M2089 3885 c-26 -14 -45 -43 -34 -53 6 -7 115 26 132 40 35 28 -50
39 -98 13z"/>
<path d="M1510 3882 c0 -17 28 -34 52 -30 39 5 28 33 -14 36 -21 2 -38 -1 -38
-6z"/>
<path d="M1456 3808 c-37 -58 -27 -154 22 -209 31 -35 97 -49 145 -30 24 10
27 15 27 61 0 94 -51 170 -114 170 -19 0 -37 -6 -39 -12 -3 -7 -6 -3 -6 9 -1
32 -18 37 -35 11z m154 -143 c0 -8 -4 -17 -10 -20 -6 -4 -10 5 -10 20 0 15 4
24 10 20 6 -3 10 -12 10 -20z"/>
<path d="M2133 3789 c-65 -19 -151 -180 -120 -223 15 -20 81 -31 131 -22 50
10 67 47 69 148 1 68 -1 82 -18 94 -21 16 -18 16 -62 3z"/>
<path d="M10260 3733 c0 -62 18 -181 29 -201 7 -13 12 -6 21 28 6 24 18 53 26
65 12 19 12 27 -2 61 -20 47 -52 94 -65 94 -5 0 -9 -21 -9 -47z"/>
<path d="M9404 3705 c-20 -42 -27 -71 -27 -120 0 -38 4 -70 11 -77 18 -18 15
-51 -12 -142 -39 -128 -50 -206 -33 -223 13 -13 21 -11 63 10 63 31 79 35 212
46 62 6 121 15 132 21 62 33 -32 85 -156 85 -71 0 -85 -3 -122 -27 -56 -37
-66 -36 -59 6 9 55 36 104 88 157 57 58 84 63 94 17 10 -48 32 -68 75 -68 57
0 75 27 75 114 0 93 -21 98 -50 11 -13 -37 -26 -60 -35 -60 -28 0 -22 41 18
117 2 5 -23 5 -56 2 l-61 -7 -29 64 c-28 63 -76 129 -92 129 -5 0 -21 -25 -36
-55z"/>
<path d="M10803 3719 c-64 -19 -35 -44 95 -82 34 -10 70 -14 102 -10 43 5 59
1 113 -25 34 -17 91 -56 127 -88 98 -85 103 -87 295 -75 91 5 169 13 175 16 6
4 15 18 20 31 8 20 14 23 35 18 34 -9 34 20 -1 43 -20 13 -52 18 -125 19 -68
2 -118 9 -157 22 -31 11 -105 30 -164 42 -60 11 -167 39 -239 61 -134 40 -208
48 -276 28z"/>
<path d="M1790 3679 c-32 -13 -40 -26 -40 -71 0 -42 7 -45 51 -23 37 20 58 9
97 -48 36 -52 56 -110 47 -137 -8 -26 -13 -25 -78 9 -90 47 -197 64 -197 31 0
-5 25 -39 55 -75 30 -35 55 -67 55 -70 0 -3 -20 -5 -45 -5 -81 0 -51 -43 50
-73 52 -15 81 -10 104 16 10 13 9 21 -10 46 -24 33 -20 64 8 54 10 -3 43 -24
73 -45 31 -21 60 -38 64 -38 5 0 6 42 4 93 -5 72 -14 114 -42 192 -48 135 -60
149 -122 152 -27 1 -60 -2 -74 -8z"/>
<path d="M11855 3636 c-11 -8 -16 -23 -13 -46 3 -29 8 -35 38 -43 19 -5 65 -7
102 -5 55 3 69 7 86 28 l19 24 87 -42 c47 -22 86 -37 86 -32 0 23 -156 120
-195 120 -12 0 -15 -5 -10 -19 9 -28 -25 -35 -72 -16 -90 39 -110 44 -128 31z"/>
<path d="M2277 3568 c-52 -70 -73 -138 -43 -138 18 0 50 44 77 105 30 68 8 89
-34 33z"/>
<path d="M9993 3561 c-40 -29 -83 -100 -83 -137 0 -26 58 -93 119 -138 48 -36
81 -46 81 -25 0 6 26 38 58 72 102 108 114 143 65 189 -77 72 -173 88 -240 39z
m217 -98 c0 -18 -28 -53 -42 -53 -13 0 -9 24 8 48 18 26 34 29 34 5z"/>
<path d="M7833 3559 c-64 -19 -51 -50 30 -70 28 -7 74 -23 102 -35 55 -26 104
-31 124 -11 10 10 19 3 48 -33 20 -25 67 -75 105 -111 47 -46 68 -74 68 -91 0
-13 -16 -48 -35 -78 -56 -87 -45 -103 31 -45 50 38 104 47 139 22 25 -19 13
-33 -38 -45 -52 -14 -115 -59 -123 -90 -4 -13 4 -51 20 -93 15 -40 25 -73 23
-75 -2 -2 -30 5 -63 16 -105 37 -109 7 -6 -51 31 -18 77 -49 101 -70 38 -34
71 -50 71 -34 0 2 -20 52 -45 110 -80 187 -74 199 140 254 50 13 80 34 71 50
-4 6 -38 27 -75 46 -75 37 -135 91 -199 177 -23 32 -57 65 -75 74 -17 9 -67
51 -109 92 -50 48 -78 69 -78 59 0 -23 -9 -21 -55 10 -44 30 -117 39 -172 22z"/>
<path d="M12340 3542 c0 -4 13 -26 29 -48 16 -21 30 -48 32 -59 3 -11 15 -25
28 -31 29 -15 41 -32 41 -61 0 -12 9 -27 20 -33 11 -6 20 -20 20 -31 0 -28 30
-37 46 -14 18 25 18 56 -2 105 -12 29 -22 40 -38 40 -15 0 -25 9 -32 29 -18
46 -144 137 -144 103z"/>
<path d="M1445 3505 c26 -22 85 -35 85 -20 0 8 -82 45 -100 44 -9 0 -4 -9 15
-24z"/>
<path d="M7555 3456 c-108 -27 -181 -86 -281 -228 -29 -42 -63 -83 -74 -91
-15 -10 -20 -23 -18 -48 3 -31 -1 -36 -35 -53 l-39 -18 7 -49 c14 -102 -32
-162 -141 -182 -67 -13 -69 -14 -72 -45 l-3 -32 -33 25 c-18 14 -38 25 -43 25
-16 0 -22 -37 -13 -70 10 -36 189 -316 248 -388 23 -29 40 -56 38 -61 -9 -14
-88 -21 -416 -36 -338 -16 -380 -20 -380 -37 0 -12 68 -9 365 12 189 14 448 9
487 -10 28 -13 73 -70 106 -135 22 -45 52 -75 97 -98 17 -9 26 -16 20 -17 -5
0 -81 -11 -168 -25 -87 -14 -171 -26 -185 -26 -39 -2 40 -17 98 -20 40 -1 35
-3 -45 -20 -49 -10 -137 -23 -195 -29 -158 -17 -171 -20 -164 -32 5 -8 68 -9
215 -4 150 5 209 4 214 -5 13 -21 -20 -37 -130 -63 -118 -29 -165 -44 -165
-56 0 -29 75 -57 258 -95 160 -33 154 -34 146 15 -5 31 -3 41 9 46 24 9 107
-34 252 -130 121 -80 155 -98 155 -78 0 15 -53 57 -192 156 -76 53 -138 101
-138 106 0 25 43 1 218 -117 181 -122 222 -145 222 -126 0 14 -58 65 -152 132
-47 34 -100 76 -117 94 -34 35 -73 105 -62 111 20 13 136 36 177 36 43 0 289
-52 300 -63 2 -2 -51 -7 -118 -11 -135 -7 -190 -16 -195 -31 -4 -15 100 -88
341 -240 262 -164 313 -195 328 -195 23 0 -19 32 -145 111 -169 105 -390 255
-412 279 -16 18 -14 19 41 26 86 10 446 -3 556 -20 54 -9 217 -38 364 -66 146
-27 276 -50 288 -49 30 1 -73 32 -254 76 l-155 38 158 6 c155 6 213 19 148 34
-17 4 -156 10 -309 14 -200 5 -284 11 -302 21 l-24 13 51 46 c29 26 80 64 115
84 102 61 170 77 381 91 103 7 192 17 198 23 7 7 4 20 -8 41 -10 17 -15 33
-13 36 3 2 41 8 84 12 l78 7 77 -80 c42 -44 102 -99 133 -122 74 -53 238 -216
238 -236 0 -9 -9 -15 -22 -15 -13 0 -30 -5 -38 -10 -23 -15 3 -28 70 -35 138
-14 349 -46 381 -57 19 -7 44 -20 55 -28 24 -17 114 -134 114 -147 0 -13 -69
-36 -109 -35 -21 0 -90 23 -166 57 -180 79 -701 285 -720 285 -3 0 -5 -6 -5
-14 0 -13 56 -41 135 -66 22 -7 35 -15 28 -17 -7 -3 -65 12 -130 32 -133 40
-203 53 -203 37 0 -21 51 -50 110 -61 71 -14 324 -98 425 -140 38 -16 72 -28
74 -26 9 9 -25 37 -86 71 -34 20 -63 37 -63 39 0 6 230 -90 377 -157 73 -33
133 -63 133 -67 0 -3 -39 -14 -88 -23 -120 -24 -157 -35 -184 -58 -17 -14 -20
-21 -11 -30 9 -10 32 -5 100 18 75 26 221 62 252 62 5 0 32 -18 60 -40 74 -59
90 -54 45 12 -15 21 -24 41 -20 45 16 16 204 55 329 67 76 8 144 19 150 25 15
15 -3 19 -95 23 -42 2 -80 6 -84 10 -8 8 -26 179 -20 186 7 6 56 -25 247 -158
92 -63 189 -127 215 -143 27 -15 64 -37 82 -48 41 -27 50 -19 23 19 -12 17
-21 33 -21 37 0 9 41 -1 229 -56 91 -27 194 -56 230 -64 63 -15 91 -12 59 6
-39 22 -48 40 -48 97 0 96 -72 220 -236 407 -117 133 -135 156 -128 166 3 5
23 9 46 9 36 0 46 -6 102 -63 33 -34 101 -115 149 -180 55 -73 111 -134 148
-163 78 -60 88 -78 58 -110 -13 -13 -44 -38 -71 -55 -26 -17 -48 -35 -48 -40
0 -13 66 13 273 107 103 48 191 84 194 81 8 -9 -4 -48 -27 -84 -17 -28 -25
-33 -59 -33 -50 0 -87 -40 -97 -106 -4 -32 -13 -50 -31 -61 -27 -18 -180 -31
-361 -32 -123 -1 -290 -17 -329 -32 -29 -11 -20 -33 11 -25 36 11 404 35 527
36 91 0 119 -3 129 -15 14 -17 6 -61 -15 -85 -22 -26 -27 -56 -10 -70 13 -11
21 -6 55 30 34 37 42 41 56 30 18 -16 25 -9 50 47 23 53 47 63 150 63 106 0
156 8 151 24 -2 6 -33 13 -69 16 -76 6 -84 10 -69 38 32 60 81 70 106 22 18
-35 30 -38 45 -11 15 29 14 33 -30 97 -22 33 -40 68 -39 79 2 37 -1 43 -38 62
-77 40 -45 53 132 53 62 0 152 -7 200 -15 79 -14 92 -14 121 0 17 8 48 15 67
15 63 0 49 18 -25 35 -159 36 -315 65 -377 71 -72 6 -62 10 -324 -129 -144
-77 -177 -66 -358 115 -91 91 -240 273 -255 311 -7 19 121 165 151 173 17 4
34 0 51 -12 61 -44 67 -45 149 -39 126 9 234 25 317 46 42 10 91 19 108 19 24
0 41 9 64 34 18 18 52 42 77 53 27 12 58 37 79 64 60 79 94 111 138 130 25 11
42 25 42 35 0 32 -76 10 -156 -45 -40 -28 -77 -51 -83 -51 -6 0 -28 -16 -50
-35 -41 -38 -68 -43 -131 -24 -40 12 -64 3 -122 -43 l-28 -22 -23 22 c-27 26
-47 27 -87 7 -35 -18 -37 -11 -15 50 17 46 20 121 5 130 -17 10 -11 48 13 85
20 32 22 47 21 155 -1 164 -42 321 -88 338 -24 9 -25 -2 -5 -47 47 -108 43
-306 -6 -306 -17 0 -22 -19 -29 -110 -8 -99 -23 -138 -71 -185 -73 -74 -186
-95 -247 -45 -22 18 -22 19 -3 25 78 24 205 111 205 140 0 19 -32 35 -68 35
-18 0 -37 -10 -53 -26 -13 -15 -44 -36 -69 -46 -25 -11 -61 -36 -81 -55 -20
-18 -49 -37 -65 -42 -16 -4 -28 -12 -28 -17 1 -5 30 -21 65 -35 94 -38 91 -49
-21 -64 -63 -8 -127 -42 -142 -73 -9 -18 -23 -28 -41 -30 -34 -4 -36 19 -4 62
37 51 47 83 47 159 0 124 -44 242 -139 377 -55 79 -59 98 -35 160 11 28 13 45
7 51 -24 24 -83 -100 -83 -173 0 -21 5 -28 19 -28 19 0 81 -45 81 -59 0 -3
-18 -5 -40 -3 -22 2 -40 1 -40 -4 0 -4 17 -30 39 -58 50 -65 55 -78 71 -154
15 -75 7 -114 -46 -209 -24 -42 -34 -75 -34 -105 -1 -68 -30 -141 -63 -156
-15 -8 -38 -33 -51 -60 -14 -26 -54 -82 -90 -126 -36 -43 -66 -84 -66 -92 0
-47 118 -7 141 48 7 17 30 41 51 54 35 22 78 91 78 125 0 5 10 29 21 54 30 64
55 68 127 19 l56 -39 -60 -5 c-32 -3 -65 -9 -71 -13 -19 -12 -16 -35 7 -54 11
-10 20 -28 20 -41 0 -23 0 -23 -29 -6 -41 24 -64 13 -56 -28 10 -48 85 -200
151 -303 74 -118 74 -115 28 -115 -123 1 -315 92 -499 235 -107 83 -185 169
-240 263 -24 42 -57 90 -72 107 -28 30 -28 30 -31 6 -2 -12 3 -55 11 -94 24
-113 25 -127 12 -127 -20 0 -153 48 -186 67 -54 32 -142 188 -229 406 -45 114
-60 136 -60 89 0 -40 28 -116 95 -260 31 -68 55 -125 53 -127 -2 -3 -44 49
-92 115 -133 183 -134 169 -2 -52 25 -43 41 -78 34 -78 -6 0 -74 40 -152 89
-160 101 -216 131 -245 131 -11 0 -41 18 -66 40 -49 42 -64 47 -83 28 -19 -19
-14 -40 20 -75 41 -42 17 -44 -38 -3 -21 16 -49 30 -61 30 -17 0 -24 7 -28 28
-12 64 -49 152 -100 242 -45 79 -56 107 -61 161 -4 35 -11 70 -17 77 -15 19
-1 90 31 151 16 31 35 81 42 111 16 71 32 93 157 222 97 101 123 144 70 117
-78 -40 -253 -192 -303 -262 -20 -29 -53 -66 -73 -84 -32 -29 -36 -38 -41 -97
-8 -93 4 -234 30 -355 37 -174 16 -238 -97 -291 -63 -29 -120 -25 -372 25
-241 48 -312 56 -291 30 7 -8 18 -15 26 -15 7 0 16 -4 19 -10 4 -6 -16 -10
-53 -10 l-60 0 -11 78 c-31 207 -27 225 49 215 39 -5 40 -5 58 38 22 51 52
165 52 197 0 43 -27 21 -74 -60 -20 -36 -33 -48 -50 -48 -13 0 -29 -7 -37 -16
-19 -23 -59 -41 -132 -60 -37 -9 -71 -22 -78 -30 -19 -24 1 -36 55 -32 l51 3
3 -54 c2 -30 1 -66 -3 -79 l-6 -23 -31 26 c-36 30 -62 29 -66 -3 -4 -27 -17
-28 -73 -2 -56 25 -73 25 -108 -1 -39 -29 -94 -33 -174 -15 -87 20 -210 71
-247 102 -20 18 -40 24 -74 24 -55 0 -64 8 -136 116 l-53 77 24 18 c38 30 103
59 130 59 29 0 49 17 49 40 0 9 15 34 33 56 41 47 57 76 57 102 0 10 10 27 21
38 31 28 62 81 90 152 35 93 68 128 124 134 55 7 63 13 47 36 -35 49 -37 63
-13 83 13 11 33 19 46 19 12 0 42 11 66 24 29 16 69 27 117 31 39 4 75 11 78
16 10 17 -64 39 -128 38 -35 0 -85 -6 -113 -13z m-275 -1141 c181 -69 380
-176 380 -204 0 -8 -199 -41 -247 -41 -24 0 -44 12 -85 50 l-53 49 99 1 c55 0
97 2 95 4 -2 2 -40 9 -83 15 -44 6 -99 21 -124 34 -41 20 -132 110 -132 130 0
12 53 -1 150 -38z m1094 -165 c36 -13 30 -20 -31 -29 -46 -6 -47 -7 -25 -20
13 -7 75 -16 139 -21 119 -9 160 -23 105 -35 -17 -3 -125 -10 -239 -14 -114
-3 -214 -10 -221 -15 -32 -20 12 -26 184 -26 112 0 184 -4 182 -9 -1 -6 -73
-62 -158 -126 l-155 -117 -75 6 c-118 8 -180 25 -209 56 -20 20 -65 39 -191
79 -133 42 -170 58 -192 82 -55 58 -44 65 154 104 156 31 242 34 286 11 40
-21 42 -20 42 9 0 20 6 25 38 30 121 19 162 28 183 41 27 15 136 12 183 -6z
m547 10 c18 0 9 -29 -11 -35 -26 -8 -60 3 -60 20 0 15 27 25 48 19 8 -2 18 -4
23 -4z m2309 -85 c10 -12 1 -26 -56 -85 -42 -44 -75 -70 -89 -70 -11 0 -35 15
-53 33 -38 39 -29 57 28 57 56 0 80 10 86 36 10 41 60 58 84 29z m-2380 -4 c0
-12 -36 -21 -84 -21 -40 0 -41 13 -1 23 35 8 85 7 85 -2z m-1300 -229 c0 -14
-44 -30 -170 -62 -135 -34 -153 -36 -169 -16 -18 22 12 34 148 61 123 24 191
30 191 17z m3450 -69 c174 -186 320 -406 320 -481 0 -20 -4 -22 -22 -16 -101
31 -195 155 -334 441 -79 163 -73 172 36 56z m-1169 -9 c49 -28 146 -180 127
-199 -5 -6 -174 30 -212 45 -16 6 -26 17 -26 29 0 12 -27 44 -65 78 -36 32
-65 62 -65 67 0 5 47 7 104 4 78 -3 112 -9 137 -24z m409 -55 c0 -12 -27 -11
-35 1 -11 17 5 32 21 19 8 -6 14 -15 14 -20z m726 -84 c18 -38 52 -103 74
-142 32 -56 38 -73 26 -73 -26 0 -185 270 -186 314 0 35 50 -22 86 -99z m-836
57 c38 -20 74 -80 85 -144 8 -49 -6 -49 -69 -4 -50 35 -160 171 -151 186 6 9
84 -13 135 -38z m-460 -27 c19 -23 4 -45 -30 -45 -22 0 -30 5 -30 18 0 37 38
54 60 27z m613 -22 c8 -10 22 -46 31 -79 26 -101 19 -128 -22 -84 -21 23 -65
157 -56 171 8 14 30 10 47 -8z m1960 -113 c22 -6 37 -14 34 -17 -8 -8 -188 17
-206 28 -21 13 119 4 172 -11z m-1066 -217 c50 -36 68 -57 41 -48 -118 36
-118 36 -135 73 -9 21 -19 41 -21 46 -6 11 41 -18 115 -71z"/>
<path d="M10242 3355 c-46 -38 -95 -116 -81 -129 14 -14 129 106 129 134 0 27
-12 25 -48 -5z"/>
<path d="M12180 3343 c0 -3 14 -31 31 -61 l30 -54 -30 7 c-41 9 -41 -10 -1
-60 18 -22 30 -50 30 -66 0 -26 -3 -29 -34 -29 -69 0 -122 -86 -114 -185 5
-62 33 -105 98 -150 38 -26 52 -30 136 -33 l94 -4 0 105 c0 58 -5 118 -11 133
-5 16 -30 50 -55 76 -48 52 -64 83 -64 128 0 45 -36 131 -70 168 -31 32 -40
38 -40 25z m80 -351 c0 -10 -45 -32 -66 -32 -8 0 -23 -13 -32 -30 -18 -32 -32
-39 -32 -16 0 19 39 66 64 76 28 11 66 12 66 2z m110 -187 c0 -9 -55 -55 -67
-55 -23 0 -14 18 20 39 31 20 47 26 47 16z"/>
<path d="M7842 3284 c-31 -21 -30 -92 2 -161 24 -51 66 -90 85 -79 14 9 3 35
-31 74 -15 18 -28 34 -28 35 0 1 -4 17 -9 35 -13 45 2 40 24 -9 58 -127 255
-150 255 -30 0 51 -35 101 -90 129 -55 27 -172 31 -208 6z"/>
<path d="M12610 3243 c0 -81 31 -267 48 -291 9 -14 20 -31 25 -38 4 -8 12 -22
17 -31 6 -10 13 -24 16 -31 4 -7 -3 -41 -15 -76 -25 -74 -26 -99 -6 -116 14
-12 14 -15 0 -30 -8 -9 -15 -24 -15 -33 0 -14 -12 -17 -74 -17 -81 0 -130 -13
-124 -33 2 -6 35 -28 74 -48 56 -29 73 -43 89 -76 11 -23 28 -49 37 -59 23
-27 31 -65 19 -97 -11 -29 -41 -37 -41 -11 0 51 -233 284 -283 284 -22 0 -40
-27 -34 -52 4 -13 21 -32 39 -42 18 -11 87 -73 155 -138 119 -115 147 -132
179 -110 18 12 31 44 38 97 4 28 16 94 28 147 l21 97 -23 53 c-20 46 -22 64
-17 148 2 52 8 102 11 111 4 10 0 23 -10 33 -14 14 -15 29 -10 81 6 62 6 64
-21 77 -22 11 -27 19 -25 41 2 16 -5 40 -15 55 -10 15 -25 52 -33 82 -10 36
-21 56 -33 58 -14 3 -17 -4 -17 -35z"/>
<path d="M9640 3150 c-25 -10 -62 -19 -82 -19 -42 -1 -45 -8 -23 -51 12 -23
22 -30 45 -30 33 0 145 62 154 86 15 38 -23 44 -94 14z"/>
<path d="M7843 2993 c-20 -7 -15 -31 7 -38 26 -8 60 3 60 20 0 20 -37 31 -67
18z"/>
<path d="M1780 2944 c0 -24 -2 -26 -33 -20 -18 3 -36 4 -39 0 -16 -15 134
-200 153 -188 21 13 1 167 -27 212 -21 32 -54 29 -54 -4z"/>
<path d="M2940 2902 c0 -33 39 -222 50 -242 5 -10 19 -21 30 -25 12 -4 24 -22
32 -46 10 -35 9 -53 -10 -126 -11 -46 -18 -91 -15 -99 10 -26 37 -11 58 31 17
34 20 60 20 172 l0 131 -50 49 c-37 35 -56 64 -70 107 -21 60 -45 85 -45 48z"/>
<path d="M2514 2885 c-3 -8 3 -30 14 -49 17 -28 18 -35 6 -40 -11 -4 -14 -38
-14 -178 0 -162 -1 -174 -20 -186 -71 -44 72 -352 163 -352 31 0 25 17 -23 76
-30 36 -50 69 -50 84 0 14 15 57 33 95 19 39 37 86 41 105 5 27 18 42 54 65
47 30 47 31 46 82 -2 81 -77 223 -117 223 -7 0 -18 -5 -24 -11 -8 -8 -22 4
-52 45 -23 31 -44 56 -47 56 -2 0 -7 -7 -10 -15z"/>
<path d="M9279 2872 c-24 -16 -52 -31 -61 -35 -9 -3 -21 -21 -26 -39 -5 -19
-18 -38 -32 -45 -13 -6 -29 -22 -36 -35 -15 -25 -18 -167 -8 -291 6 -64 10
-77 24 -77 21 0 30 19 30 63 0 45 13 61 62 72 47 12 63 34 73 96 3 20 18 56
33 80 16 24 37 79 47 123 l19 79 -23 18 c-31 26 -49 24 -102 -9z"/>
<path d="M1480 2832 c0 -6 14 -47 30 -92 17 -45 30 -85 30 -90 0 -5 -14 -7
-31 -3 -29 5 -30 4 -21 -14 21 -39 211 -193 239 -193 30 0 9 31 -62 89 -61 50
-75 67 -75 89 0 38 -37 144 -63 183 -22 33 -47 49 -47 31z"/>
<path d="M9830 2827 c0 -26 129 -137 159 -137 17 0 9 76 -14 120 -16 31 -55
42 -55 15 0 -8 -2 -15 -5 -15 -3 0 -22 7 -42 15 -43 18 -43 18 -43 2z"/>
<path d="M1226 2785 c-3 -9 -3 -49 1 -90 5 -64 3 -78 -12 -95 -20 -23 -18 -44
19 -183 16 -62 37 -115 58 -145 55 -81 217 -234 284 -270 34 -17 65 -32 68
-32 3 0 6 11 6 25 0 18 -11 32 -40 50 -35 22 -39 28 -34 54 5 23 -6 57 -49
148 -73 156 -88 207 -96 337 -7 102 -9 110 -35 132 -44 39 -56 32 -56 -32 0
-30 -4 -53 -9 -50 -5 3 -23 42 -41 86 -31 77 -51 97 -64 65z"/>
<path d="M1570 2784 c0 -26 154 -163 168 -150 8 9 -68 96 -111 127 -39 28 -57
35 -57 23z"/>
<path d="M9784 2765 c2 -16 8 -58 12 -92 7 -67 27 -100 39 -64 9 30 -15 139
-37 164 l-19 22 5 -30z"/>
<path d="M1730 2771 c0 -26 162 -163 176 -148 8 8 -62 82 -116 122 -50 37 -60
41 -60 26z"/>
<path d="M2140 2633 c0 -13 50 -85 83 -120 40 -42 64 -45 43 -5 -30 56 -126
152 -126 125z"/>
<path d="M10419 2524 c-1 -5 0 -17 1 -27 1 -10 -7 -28 -16 -39 -18 -19 -18
-21 -1 -50 17 -30 17 -30 -11 -56 -22 -21 -30 -40 -35 -79 -3 -29 -13 -63 -22
-77 -14 -20 -16 -44 -14 -116 l4 -91 -43 51 c-24 27 -48 48 -53 44 -17 -10
-10 -156 9 -194 22 -45 41 -44 68 4 l22 40 7 -71 c4 -39 11 -76 15 -83 13 -20
30 -1 30 33 0 64 18 102 63 134 37 26 46 39 61 91 9 34 25 69 34 79 46 46 -29
342 -102 403 -9 7 -17 9 -17 4z"/>
<path d="M6574 2415 c-10 -24 13 -42 59 -48 67 -9 216 -63 241 -86 22 -21 83
-30 71 -11 -14 23 -315 160 -352 160 -7 0 -16 -7 -19 -15z"/>
<path d="M2676 2332 c-4 -6 1 -15 11 -20 53 -28 388 -119 523 -141 92 -16 150
-32 150 -42 0 -5 -7 -9 -15 -9 -20 0 -9 -23 48 -99 l41 -55 -75 -68 c-41 -37
-89 -75 -107 -84 -56 -27 -70 -22 -425 140 -93 43 -171 75 -175 72 -3 -3 -7
-30 -10 -60 -3 -44 -1 -56 16 -72 12 -11 91 -50 177 -88 86 -38 154 -70 152
-72 -3 -3 -103 18 -530 116 -125 29 -231 50 -234 46 -4 -4 -3 -15 3 -24 12
-18 52 -29 209 -57 143 -25 542 -127 661 -169 142 -50 243 -97 282 -133 42
-38 180 -107 302 -149 131 -47 136 -46 106 14 -41 80 -69 98 -311 197 -176 72
-257 113 -250 125 10 17 42 11 126 -21 106 -41 440 -207 508 -253 52 -35 81
-45 81 -27 0 16 -59 60 -159 119 l-96 56 40 12 c22 6 41 17 43 25 3 19 -34 75
-107 159 -31 36 -47 58 -36 49 214 -175 388 -293 419 -285 29 7 90 -61 111
-123 19 -59 36 -75 69 -67 18 4 28 16 35 41 13 48 3 76 -50 143 -25 31 -66 92
-92 134 -74 120 -138 161 -145 93 -5 -44 -16 -50 -63 -31 -36 15 -47 15 -66 5
-20 -11 -29 -10 -59 6 -49 26 -249 220 -240 233 3 6 31 25 61 42 61 35 72 47
57 62 -6 6 -34 0 -82 -21 -39 -16 -78 -27 -85 -25 -7 3 -54 64 -105 135 -72
103 -95 129 -108 123 -39 -17 -97 -14 -257 16 -193 35 -338 49 -349 32z m530
-111 c-3 -5 -15 -7 -26 -4 -28 7 -25 13 6 13 14 0 23 -4 20 -9z m-237 -380
c142 -66 197 -99 183 -113 -15 -15 -69 5 -218 82 -290 150 -268 169 35 31z
m520 20 c27 -37 27 -37 -9 -50 -33 -11 -39 -31 -15 -51 25 -21 6 -30 -64 -30
-96 0 -106 14 -49 76 39 43 93 84 110 84 4 0 16 -13 27 -29z m450 -222 c18
-11 31 -23 28 -26 -6 -5 -77 34 -77 43 0 9 16 3 49 -17z"/>
<path d="M10073 2255 c-3 -9 4 -34 16 -55 15 -27 21 -55 21 -99 0 -53 2 -61
19 -61 59 0 61 126 2 193 -27 32 -50 40 -58 22z"/>
<path d="M1795 2208 c28 -101 123 -223 168 -216 33 5 31 52 -3 56 -35 5 -54
25 -107 109 -44 72 -70 94 -58 51z"/>
<path d="M9967 2203 c-9 -15 19 -137 31 -141 50 -16 57 108 8 140 -14 10 -34
10 -39 1z"/>
<path d="M1940 2130 c20 -37 152 -160 171 -160 27 0 14 23 -43 76 -103 97
-152 129 -128 84z"/>
<path d="M790 2099 c0 -6 26 -36 58 -68 73 -73 590 -493 705 -574 133 -93 130
-89 77 -83 -25 3 -108 15 -185 26 -143 22 -327 31 -341 17 -19 -19 25 -29 162
-37 82 -5 208 -16 279 -25 141 -18 198 -14 193 12 -2 9 -60 57 -130 107 -254
183 -386 297 -278 241 63 -33 39 -5 -62 72 l-103 78 43 3 c73 5 475 -37 484
-51 15 -23 8 -39 -22 -50 -16 -6 -30 -15 -30 -20 0 -18 66 -70 159 -124 144
-84 201 -122 201 -134 0 -6 -5 -20 -11 -31 -10 -18 -8 -25 11 -40 32 -26 58
-23 154 17 47 19 92 35 100 35 8 0 20 9 26 20 8 15 21 20 53 20 l42 1 -27 22
c-15 12 -83 44 -150 71 -164 66 -360 161 -383 186 -18 20 -18 20 8 20 15 0 27
4 27 9 0 17 -426 84 -638 100 -132 10 -152 17 -272 103 -127 90 -150 102 -150
77z"/>
<path d="M2211 2034 c16 -19 102 -64 124 -64 32 0 13 29 -37 54 -61 30 -109
36 -87 10z"/>
<path d="M2571 1657 c-9 -9 -54 -11 -157 -9 -99 2 -144 0 -144 -8 0 -17 39
-27 145 -34 163 -11 222 -31 180 -62 -11 -8 -78 -33 -150 -55 -71 -23 -206
-72 -300 -109 -93 -37 -199 -77 -235 -89 -124 -42 -150 -53 -150 -62 0 -20 58
-6 267 67 209 72 221 75 278 68 33 -4 121 -8 196 -8 l136 -1 94 -95 c103 -105
156 -140 175 -115 18 23 78 18 234 -20 160 -40 493 -133 584 -165 64 -22 106
-26 106 -10 0 21 -52 41 -220 85 -262 69 -670 206 -670 225 0 11 104 -13 240
-54 163 -49 386 -112 448 -126 52 -12 75 -8 56 9 -5 5 -144 48 -309 96 -340
98 -431 136 -475 196 -39 55 -73 126 -65 139 9 15 66 12 200 -10 108 -19 277
-57 330 -75 16 -5 14 -1 -8 19 -34 32 -110 55 -357 111 -107 24 -215 51 -239
59 -24 9 -64 16 -90 16 -26 0 -56 7 -67 15 -16 11 -24 11 -33 2z m234 -205
c35 -56 39 -76 9 -52 -21 18 -74 96 -74 109 0 24 32 -5 65 -57z"/>
<path d="M8586 1438 c-3 -7 -7 -26 -11 -43 -3 -16 -20 -58 -37 -91 -17 -35
-28 -69 -25 -78 13 -33 66 -16 129 41 l26 25 139 -83 c160 -95 221 -124 282
-132 32 -4 70 -23 140 -71 89 -61 131 -79 131 -57 0 15 -73 70 -255 191 -93
62 -214 146 -268 187 -135 102 -240 148 -251 111z"/>
<path d="M9090 1334 c0 -12 257 -278 318 -328 56 -47 70 -54 121 -59 133 -14
745 -186 833 -234 46 -25 50 -25 65 -10 31 31 40 28 -452 173 -121 36 -281 81
-355 100 -82 21 -150 44 -174 61 -22 14 -94 79 -161 143 -134 129 -195 178
-195 154z"/>
<path d="M1017 1310 c-45 -8 -77 -24 -77 -39 0 -3 4 -12 9 -20 7 -11 25 -12
110 -1 84 11 130 11 257 0 212 -18 219 -1 16 39 -118 23 -250 32 -315 21z"/>
<path d="M6911 1252 c-34 -11 -35 -23 -5 -56 61 -66 191 -133 475 -245 113
-45 215 -88 225 -96 17 -13 12 -14 -53 -15 -40 0 -83 -5 -97 -11 -35 -16 -65
-3 -212 91 -207 135 -361 197 -448 183 -24 -4 -58 1 -99 15 -92 30 -184 52
-222 52 -59 0 -154 -36 -189 -72 -18 -18 -80 -57 -137 -87 -98 -50 -156 -90
-134 -92 6 0 66 -2 135 -3 105 -2 147 -8 265 -38 208 -54 235 -54 235 -3 0 29
4 35 20 35 35 0 79 29 86 56 9 37 0 42 -111 61 -34 5 -50 13 -50 23 0 40 101
15 234 -59 47 -27 100 -52 116 -55 62 -15 255 -154 255 -184 0 -9 55 -71 123
-140 121 -124 122 -125 67 -95 -323 178 -502 267 -520 261 -23 -7 31 -57 73
-69 105 -27 493 -255 727 -427 63 -46 127 -90 143 -98 74 -39 6 34 -258 277
-157 144 -285 263 -285 266 0 21 324 -210 462 -329 83 -72 108 -88 135 -88 51
0 25 25 -172 165 -158 113 -206 160 -207 204 -2 48 27 73 81 69 27 -2 46 -8
49 -17 4 -11 -6 -13 -54 -8 -57 7 -58 7 -37 -10 55 -45 171 -132 197 -149 l29
-18 -6 74 c-10 106 -34 211 -56 240 -31 42 -120 88 -261 134 -223 73 -450 172
-450 197 0 23 287 -13 525 -66 160 -36 191 -39 200 -24 12 19 -27 45 -80 52
-25 4 -94 21 -153 38 -59 17 -145 38 -192 45 -99 17 -334 27 -369 16z m483
-490 c9 -15 -12 -35 -29 -28 -14 5 -15 9 -5 21 14 17 26 19 34 7z"/>
<path d="M10565 1253 c-293 -68 -424 -107 -472 -139 -33 -21 -28 -60 7 -56 99
14 148 12 190 -4 59 -23 92 -22 302 4 247 31 263 40 191 103 -21 17 -45 46
-53 63 -14 30 -18 31 -80 33 -36 0 -74 -1 -85 -4z"/>
<path d="M2285 1030 c-20 -32 38 -47 245 -64 88 -7 162 -15 165 -18 2 -2 -114
-12 -258 -21 -607 -41 -698 -55 -652 -101 17 -17 70 -22 79 -7 13 20 229 46
503 61 316 18 313 22 81 -92 -203 -101 -285 -158 -272 -191 10 -26 47 -33 59
-11 24 43 72 73 241 153 297 140 367 158 508 130 l57 -12 -41 -18 c-50 -22
-68 -60 -46 -95 12 -17 29 -24 73 -30 89 -11 360 2 418 20 28 9 89 20 137 25
93 10 148 33 148 63 0 9 -9 22 -19 28 -35 18 -181 48 -389 80 -112 16 -219 37
-239 45 -26 11 -75 15 -183 15 -142 0 -392 19 -515 40 -76 12 -92 12 -100 0z"/>
<path d="M8700 821 c-135 -12 10 -21 365 -22 366 -1 457 -6 478 -29 10 -10 9
-12 -4 -8 -19 7 -79 -17 -79 -32 0 -24 60 -31 234 -29 152 3 187 0 220 -14 55
-24 80 -21 115 13 55 56 24 73 -169 95 -216 25 -976 42 -1160 26z"/>
<path d="M1803 620 c-90 -27 -143 -59 -143 -87 0 -29 16 -29 60 1 19 13 69 38
110 56 41 18 79 36 85 41 15 15 -45 9 -112 -11z"/>
<path d="M6313 574 c-9 -23 12 -32 97 -39 109 -9 430 -63 483 -81 25 -9 56
-14 69 -12 97 14 -158 93 -423 132 -142 21 -218 21 -226 0z"/>
</g>
</svg>
