<?xml version="1.0" standalone="no"?>
<!DOCTYPE svg PUBLIC "-//W3C//DTD SVG 20010904//EN"
 "http://www.w3.org/TR/2001/REC-SVG-20010904/DTD/svg10.dtd">
<svg version="1.0" xmlns="http://www.w3.org/2000/svg"
 width="1280.000000pt" height="1090.000000pt" viewBox="0 0 1280.000000 1090.000000"
 preserveAspectRatio="xMidYMid meet">
<metadata>
Created by potrace 1.15, written by Peter Selinger 2001-2017
</metadata>
<g transform="translate(0.000000,1090.000000) scale(0.100000,-0.100000)"
fill="#000000" stroke="none">
<path d="M12416 10718 c-30 -246 -53 -278 -283 -388 l-123 -59 -109 24 c-61
14 -119 25 -130 25 -16 0 -21 6 -21 28 0 51 46 129 164 281 9 12 3 13 -39 7
-175 -25 -283 -99 -390 -263 0 -1 -53 11 -116 28 -305 80 -495 111 -694 112
-177 0 -289 -22 -394 -79 -120 -65 -376 -85 -551 -44 -47 11 -96 23 -110 26
-39 8 108 -92 170 -116 89 -35 226 -50 460 -50 235 0 364 -12 449 -41 40 -13
46 -17 21 -13 -159 24 -215 26 -535 18 -388 -10 -530 -8 -633 8 -40 6 -74 9
-76 7 -2 -2 -6 -13 -8 -23 -2 -15 6 -22 43 -31 26 -7 77 -26 115 -43 38 -18
193 -68 344 -112 151 -45 277 -83 279 -86 2 -2 -59 -4 -136 -4 -172 0 -250
-11 -713 -96 -122 -23 -174 -27 -330 -28 -170 -1 -191 1 -258 23 -104 34 -178
85 -252 175 -34 42 -64 75 -66 73 -7 -7 46 -197 66 -238 60 -119 151 -192 341
-272 171 -72 220 -84 404 -102 217 -21 336 -36 356 -43 10 -4 -78 -7 -194 -7
-229 0 -262 -5 -526 -70 -182 -45 -297 -59 -428 -52 -178 8 -241 32 -536 199
-253 143 -334 176 -487 199 -69 10 -134 19 -145 19 -21 0 25 -35 236 -180 196
-135 260 -186 414 -330 147 -138 241 -208 353 -262 l67 -32 -35 -9 c-67 -17
-337 -10 -465 11 -66 11 -181 31 -255 43 -197 33 -472 32 -740 -5 -416 -56
-665 -70 -834 -46 -38 6 -71 9 -73 6 -2 -2 31 -32 74 -66 221 -176 491 -317
702 -366 36 -9 121 -19 190 -24 171 -12 237 -35 311 -109 55 -56 164 -191 158
-196 -8 -6 -229 16 -278 29 -30 7 -127 34 -214 60 -212 62 -364 80 -616 73
-102 -3 -237 -12 -300 -21 -63 -9 -153 -21 -200 -26 -152 -20 -355 -96 -754
-286 -121 -57 -220 -103 -220 -102 -1 2 -18 38 -39 81 -44 93 -97 153 -169
193 -49 27 -60 29 -153 28 -87 0 -111 -4 -182 -31 -184 -70 -449 -262 -718
-521 -242 -234 -341 -297 -501 -324 -132 -22 -291 33 -402 140 -150 144 -224
338 -226 585 l0 128 -21 -27 c-11 -15 -64 -88 -117 -161 -199 -277 -241 -430
-148 -537 42 -48 37 -52 -15 -15 -54 39 -222 210 -325 332 -40 48 -77 84 -80
80 -9 -10 -50 -297 -61 -427 -16 -177 14 -312 90 -398 17 -20 31 -38 31 -40 0
-12 -111 16 -191 49 -165 66 -293 168 -577 458 -186 190 -190 196 -246 307
l-57 113 6 -65 c42 -450 286 -1012 562 -1292 76 -79 70 -84 -49 -42 -296 107
-707 418 -919 696 l-64 83 -3 -45 c-2 -25 -2 -157 1 -295 4 -284 11 -319 83
-474 55 -118 113 -199 217 -304 168 -169 404 -323 724 -472 l133 -62 -43 -7
c-90 -13 -482 -18 -574 -7 -239 30 -424 134 -513 289 -35 61 -44 69 -67 54
-15 -10 22 -113 90 -250 228 -458 612 -850 1042 -1065 229 -114 415 -163 665
-173 128 -6 141 -5 251 24 229 61 400 138 594 267 161 107 262 191 426 354
199 199 345 392 465 613 l56 103 -6 -55 c-3 -31 -15 -91 -26 -134 -11 -44 -20
-109 -20 -145 0 -105 -19 -279 -40 -363 -36 -143 -99 -269 -238 -473 -160
-235 -275 -355 -556 -580 -239 -191 -259 -211 -286 -282 -12 -32 -25 -62 -29
-68 -5 -5 -17 -32 -27 -60 -10 -27 -33 -65 -51 -83 -65 -65 -75 -150 -63 -557
3 -138 2 -158 -23 -250 -31 -117 -130 -325 -210 -441 -29 -43 -75 -119 -102
-169 -62 -117 -205 -360 -266 -452 -65 -100 -92 -173 -93 -255 -1 -82 13 -100
84 -108 l49 -5 -18 -41 c-32 -70 -75 -109 -177 -159 -90 -43 -97 -45 -132 -34
-20 6 -73 12 -118 11 -70 0 -91 -4 -146 -31 -118 -56 -207 -172 -259 -341 -20
-64 -24 -96 -23 -210 0 -117 3 -143 23 -195 46 -116 145 -186 243 -171 57 9
169 75 281 165 74 61 92 71 121 69 28 -2 44 7 89 45 68 58 129 149 209 312 46
93 71 132 97 152 65 49 201 177 251 236 27 32 54 76 60 98 6 22 22 60 35 85
13 24 29 70 35 102 7 31 29 91 50 132 53 103 82 207 135 475 25 127 55 264 66
305 21 78 171 379 337 675 85 152 91 161 144 192 76 45 167 145 276 306 129
190 176 238 313 319 143 84 207 136 422 337 269 252 303 274 738 480 37 17
122 70 189 117 67 47 152 102 189 122 63 35 70 37 161 37 73 0 121 -7 208 -30
61 -16 112 -33 112 -37 0 -4 -34 -48 -76 -98 -148 -176 -245 -223 -392 -189
-118 28 -336 -36 -423 -123 -39 -39 -98 -176 -130 -303 -11 -44 -44 -251 -74
-460 -30 -209 -59 -398 -65 -420 -5 -22 -19 -92 -29 -155 -11 -63 -26 -145
-35 -182 -18 -78 -196 -560 -231 -627 -31 -59 -129 -308 -151 -386 -24 -83
-24 -199 0 -247 21 -43 69 -76 121 -85 38 -6 42 -10 21 -27 -58 -48 -223 -170
-240 -178 -15 -6 -51 -3 -123 11 -115 24 -134 25 -184 11 -86 -24 -169 -109
-208 -215 -11 -29 -24 -93 -30 -144 -31 -282 95 -591 242 -591 36 0 115 44
197 110 41 34 122 85 179 113 58 29 121 68 140 88 62 62 173 196 205 247 17
27 94 117 171 201 77 84 145 162 151 174 23 44 75 245 94 362 25 151 50 414
50 518 0 132 73 421 167 657 116 294 254 506 483 744 133 138 127 136 439 152
450 24 714 70 882 154 92 47 169 127 280 293 117 173 158 221 210 248 50 25
86 24 253 -6 162 -29 216 -31 352 -10 54 8 124 15 154 15 56 0 56 0 69 -37 8
-21 33 -79 57 -129 57 -120 118 -181 316 -315 183 -125 266 -200 318 -288 57
-99 105 -148 289 -295 168 -135 241 -204 241 -230 0 -7 -5 -38 -10 -67 -27
-139 -41 -325 -50 -684 -5 -214 -15 -415 -21 -445 -37 -190 -129 -525 -192
-711 -102 -294 -130 -408 -125 -513 2 -70 7 -89 30 -124 39 -59 76 -75 190
-82 107 -7 121 -14 164 -82 42 -65 28 -132 -51 -258 -28 -44 -45 -96 -54 -166
l-8 -55 351 2 c298 2 369 0 468 -16 65 -10 120 -16 124 -13 3 3 -27 57 -67
119 -119 188 -127 202 -145 249 -26 66 -52 99 -219 270 -169 175 -200 223
-217 341 -17 121 -5 300 27 394 80 241 156 559 175 735 9 86 23 137 78 289 36
102 73 214 82 249 l17 64 130 -164 c72 -90 159 -199 195 -243 89 -109 118
-172 184 -395 23 -80 48 -115 100 -140 41 -19 52 -20 96 -11 68 15 113 14 128
-4 26 -31 15 -105 -29 -203 -45 -97 -46 -118 -20 -222 11 -44 70 -103 129
-129 109 -48 178 -56 477 -56 155 0 284 3 288 6 3 4 -30 81 -74 170 -83 171
-158 283 -206 309 -15 8 -54 54 -86 101 -94 140 -202 270 -425 509 -276 296
-351 382 -440 502 -73 98 -154 228 -154 246 0 6 -13 15 -29 20 -21 8 -49 43
-116 148 l-88 139 18 120 c29 199 79 381 157 564 38 91 108 261 155 376 46
116 98 234 114 264 17 29 28 55 25 58 -11 11 48 142 106 238 102 166 126 215
164 330 42 128 52 207 35 268 -12 41 -11 48 16 108 53 116 55 135 51 410 -4
205 -9 277 -27 374 -47 256 -104 416 -173 483 l-34 32 47 50 c123 132 223 455
274 885 17 141 41 295 48 302 2 2 35 -8 73 -23 159 -59 266 -134 380 -264 32
-36 94 -103 140 -150 45 -47 89 -100 99 -118 9 -19 20 -71 25 -117 10 -95 26
-134 72 -169 40 -30 139 -68 187 -71 20 -2 92 -11 161 -20 139 -20 194 -16
261 18 36 18 50 35 86 102 23 44 48 102 55 128 9 37 16 47 28 44 10 -2 22 5
29 16 13 19 8 29 -21 39 -7 3 73 236 92 270 27 48 4 94 -94 181 -83 75 -96
102 -116 241 -11 74 -30 133 -115 360 -35 93 -36 99 -20 122 13 20 14 28 4 40
-6 8 -20 12 -29 9 -18 -6 -24 10 -54 143 -13 58 -13 67 7 137 21 73 23 75 53
75 30 0 114 50 114 69 0 5 -7 14 -15 21 -11 9 -21 7 -48 -14 -31 -24 -57 -33
-57 -21 0 3 7 17 16 30 12 19 15 39 11 80 -5 50 -11 61 -69 128 -34 39 -66 74
-70 75 -22 10 -2 17 45 17 80 0 145 23 188 66 60 60 74 93 74 181 -1 69 -4 84
-40 154 -29 57 -54 89 -91 120 -51 41 -51 41 -34 65 55 76 66 223 30 394 -11
55 -28 134 -36 175 -9 41 -17 76 -19 78 -2 2 -6 -21 -9 -50z m-1903 -265 c-7
-2 -19 -2 -25 0 -7 3 -2 5 12 5 14 0 19 -2 13 -5z m-10153 -3769 c0 -52 97
-276 160 -369 35 -52 42 -65 37 -65 -8 0 -104 145 -130 196 -45 89 -99 272
-76 258 5 -3 9 -12 9 -20z m9055 -1975 c38 -10 45 -16 58 -52 38 -102 47 -153
47 -266 0 -96 4 -124 21 -161 11 -25 29 -67 40 -95 l19 -50 -41 45 c-71 79
-180 223 -204 270 -46 92 -58 175 -40 278 8 47 20 51 100 31z m415 -2813 c-28
-126 -110 -429 -120 -439 -17 -19 39 224 96 411 19 62 34 116 34 119 0 4 2 4
4 2 3 -3 -4 -45 -14 -93z"/>
</g>
</svg>
