<?xml version="1.0" standalone="no"?>
<!DOCTYPE svg PUBLIC "-//W3C//DTD SVG 20010904//EN"
 "http://www.w3.org/TR/2001/REC-SVG-20010904/DTD/svg10.dtd">
<svg version="1.0" xmlns="http://www.w3.org/2000/svg"
 width="1280.000000pt" height="942.000000pt" viewBox="0 0 1280.000000 942.000000"
 preserveAspectRatio="xMidYMid meet">
<metadata>
Created by potrace 1.15, written by Peter Selinger 2001-2017
</metadata>
<g transform="translate(0.000000,942.000000) scale(0.100000,-0.100000)"
fill="#000000" stroke="none">
<path d="M1978 9400 c-21 -11 -63 -54 -98 -100 -95 -122 -125 -134 -287 -115
-62 7 -76 5 -115 -14 -61 -29 -126 -96 -155 -159 -26 -55 -61 -82 -107 -82
-18 0 -24 4 -20 15 11 28 -54 -5 -110 -56 -73 -66 -116 -149 -109 -209 3 -25
0 -64 -6 -85 -11 -39 -10 -41 23 -72 22 -20 56 -38 93 -48 127 -34 162 -46
184 -64 l23 -18 -55 -41 c-30 -23 -85 -65 -124 -94 -63 -48 -75 -63 -113 -141
-47 -95 -122 -184 -211 -250 -29 -22 -118 -77 -198 -123 -94 -55 -167 -105
-210 -146 -36 -35 -87 -83 -113 -108 -87 -83 -87 -147 1 -301 75 -132 93 -196
66 -232 -12 -17 -17 -16 -92 6 -44 13 -88 27 -97 32 -15 6 -18 2 -18 -18 0
-24 4 -26 57 -32 105 -13 163 -50 163 -104 0 -19 -6 -21 -76 -21 -55 0 -73 3
-68 12 5 8 2 9 -12 4 -10 -4 -50 -12 -89 -17 -47 -6 -76 -15 -89 -29 -20 -20
-20 -20 1 -20 12 0 57 7 100 15 96 18 213 20 235 3 9 -7 21 -31 28 -53 7 -22
26 -66 42 -97 l30 -57 -27 -24 c-27 -22 -28 -27 -28 -118 0 -143 33 -237 136
-387 48 -69 53 -74 83 -70 27 3 34 0 36 -17 2 -12 12 -21 27 -23 21 -3 23 0
19 22 -5 24 6 37 14 18 2 -5 15 -12 30 -16 22 -5 30 -2 39 16 17 33 18 33 33
13 13 -18 15 -16 37 29 26 55 68 86 119 86 l35 0 -27 -25 c-33 -31 -50 -88
-39 -135 11 -48 39 -100 57 -107 13 -5 14 -15 9 -50 -9 -59 11 -147 42 -183
30 -36 58 -41 47 -8 -15 47 0 227 16 197 4 -8 13 -45 19 -84 17 -98 66 -239
107 -306 19 -31 61 -82 94 -113 l60 -55 -32 -17 c-18 -9 -53 -31 -78 -47 l-44
-31 33 -13 c28 -12 42 -11 97 3 36 9 67 14 69 13 2 -2 -21 -53 -51 -114 -64
-131 -84 -204 -85 -305 -1 -98 14 -158 60 -251 33 -65 196 -319 206 -319 7 0
-26 142 -49 209 -14 41 -26 79 -26 85 1 21 39 -62 80 -175 23 -63 52 -132 65
-154 26 -45 72 -92 81 -82 4 3 -23 69 -60 146 -36 77 -66 142 -66 146 0 3 11
5 26 5 l25 0 -26 35 c-15 19 -38 67 -53 107 -35 98 -37 239 -5 311 12 26 24
47 26 47 2 0 3 -71 3 -157 -1 -137 2 -167 22 -230 12 -39 34 -85 48 -102 18
-22 36 -73 64 -178 60 -231 95 -323 177 -472 1 -2 9 -1 17 2 13 5 13 13 -4 63
-43 124 -42 363 2 527 11 42 23 79 27 82 9 5 34 -122 27 -133 -2 -4 -10 -53
-16 -109 -11 -104 -2 -215 20 -237 16 -16 30 11 30 57 0 44 14 42 23 -2 4 -17
40 -106 81 -198 41 -92 88 -205 105 -251 32 -86 60 -146 66 -140 2 2 -14 82
-35 178 -22 96 -37 176 -35 178 4 4 54 -153 75 -235 6 -24 15 -43 19 -43 9 0
21 48 21 85 0 12 7 28 15 35 13 11 15 7 15 -22 0 -49 26 -132 51 -160 l21 -23
-6 25 c-13 55 -18 110 -12 134 12 50 24 25 23 -51 -1 -46 6 -101 16 -134 17
-56 76 -147 109 -168 20 -12 17 -4 -48 149 -29 69 -45 180 -25 180 6 0 20 -31
32 -70 17 -58 25 -70 42 -70 16 -1 28 -14 45 -50 23 -50 106 -150 124 -150 5
0 7 12 3 30 -9 40 8 38 40 -4 75 -98 92 -249 49 -421 -7 -28 -6 -29 10 -16 24
20 37 47 57 116 16 54 18 56 18 25 1 -21 -13 -65 -34 -109 -35 -73 -44 -111
-25 -111 6 0 19 13 28 30 16 29 32 39 32 21 0 -5 -9 -28 -20 -52 -11 -24 -20
-53 -20 -63 0 -40 38 15 80 114 23 55 48 104 56 111 25 21 16 -34 -17 -105
-21 -45 -29 -74 -25 -91 10 -39 23 -29 30 23 3 27 12 57 20 67 13 18 14 17 20
-11 13 -67 26 -169 41 -332 8 -95 27 -250 42 -345 26 -171 26 -174 13 -388
-13 -229 -13 -236 27 -479 30 -185 28 -261 -10 -343 -27 -59 -37 -67 -56 -43
-18 21 -147 49 -170 37 -34 -19 -43 -38 -31 -62 13 -24 2 -21 -32 9 -25 21
-117 10 -184 -23 -67 -33 -108 -80 -165 -190 -31 -60 -51 -87 -67 -91 -12 -4
-33 -20 -47 -36 -57 -68 -14 -220 75 -266 27 -13 54 -20 68 -17 15 4 22 1 22
-9 0 -8 25 -40 56 -70 l55 -55 66 15 c37 8 100 14 142 13 71 -2 76 0 74 19 -3
28 56 35 87 10 34 -28 87 -34 110 -13 11 10 20 26 20 37 0 10 6 18 14 18 9 0
12 -8 8 -25 -5 -30 -8 -30 118 -5 56 11 126 20 156 20 30 0 54 3 54 8 0 4 21
20 48 36 85 53 92 63 92 128 0 69 63 276 115 378 83 161 141 503 103 606 -10
30 -7 48 35 176 61 188 108 429 156 805 l18 141 58 99 c32 54 77 131 101 172
l43 74 3 -38 c5 -64 25 -53 33 19 3 36 11 68 16 72 5 3 16 -10 24 -30 19 -44
11 -64 -49 -135 -61 -69 -69 -88 -95 -197 -36 -157 -24 -250 46 -349 32 -44
58 -61 46 -28 -4 10 -2 14 5 9 6 -3 14 -27 18 -51 6 -42 10 -47 63 -77 181
-102 360 -219 520 -340 49 -37 67 -45 72 -35 7 11 23 11 96 1 220 -31 527 -5
540 47 3 10 11 19 17 19 21 0 190 172 219 223 36 61 60 138 47 151 -6 6 -10
23 -10 38 0 39 -29 107 -51 119 -13 6 -25 6 -39 -1 -14 -8 -26 -8 -41 0 -19
11 -20 13 -4 30 15 17 14 20 -17 44 -80 60 -259 72 -400 26 l-66 -22 -59 27
c-34 16 -83 29 -119 32 -73 6 -84 21 -84 107 0 77 45 144 219 321 137 140 207
235 181 243 -6 2 -8 8 -4 13 3 5 35 9 72 9 42 0 115 12 192 31 70 17 165 33
217 36 84 5 92 7 95 27 2 15 9 20 23 17 58 -11 205 -3 265 14 74 21 97 35 56
35 -15 0 -25 4 -22 9 4 5 22 5 43 0 30 -7 43 -5 63 10 38 27 126 57 205 70 94
14 307 33 313 27 2 -3 -1 -19 -8 -36 -7 -17 -9 -34 -5 -38 4 -4 10 -1 12 6 10
27 56 72 74 72 18 0 19 -2 4 -30 -8 -16 -15 -47 -15 -70 0 -136 110 -459 163
-479 17 -7 31 -35 61 -127 102 -312 250 -488 466 -555 63 -19 66 -22 100 -81
61 -106 203 -226 452 -381 16 -10 28 -27 30 -44 2 -19 17 -37 48 -59 94 -68
90 -60 90 -186 -1 -184 -19 -279 -72 -368 -41 -68 -106 -111 -179 -118 -48 -4
-53 -3 -89 33 -37 37 -41 38 -92 32 -29 -3 -77 -11 -106 -17 -46 -10 -53 -15
-49 -31 5 -18 2 -19 -31 -12 -94 18 -172 -6 -229 -71 -38 -42 -56 -96 -50
-144 3 -32 0 -41 -27 -63 -27 -24 -31 -33 -31 -80 0 -38 -4 -54 -15 -57 -23
-7 -50 -33 -50 -49 0 -8 12 -13 30 -13 22 0 33 -6 39 -22 12 -30 38 -53 85
-72 40 -17 56 -14 56 10 0 31 19 11 22 -23 l3 -38 55 0 c39 0 54 -4 53 -12 -2
-7 -4 -18 -5 -25 -6 -27 188 -37 255 -14 21 8 46 21 55 30 12 10 22 12 32 6
21 -14 30 -12 30 5 0 11 10 13 48 9 26 -3 118 1 204 9 143 14 160 17 192 42
20 15 36 32 36 37 0 5 8 7 19 3 15 -4 20 1 25 27 l7 33 14 -31 c22 -52 43 -57
87 -22 33 26 38 35 38 71 0 59 -10 87 -29 88 -12 0 -11 4 7 16 12 8 22 22 22
30 0 20 56 128 100 193 21 30 85 115 144 189 112 139 139 178 190 273 17 31
69 116 114 188 l84 131 -4 90 c-3 89 -3 90 -38 116 -162 124 -349 357 -519
646 -87 146 -122 226 -109 247 9 14 9 28 0 58 -17 55 -15 69 9 75 17 5 19 11
14 41 -7 34 -4 37 137 178 118 117 172 178 244 276 1 2 33 -21 71 -51 138
-111 281 -189 443 -242 69 -23 93 -36 126 -72 25 -26 53 -45 73 -49 24 -5 54
-31 119 -102 255 -280 290 -308 526 -412 83 -37 184 -84 224 -104 59 -30 80
-36 105 -30 29 6 30 5 18 -10 -23 -28 57 -116 230 -251 174 -137 189 -158 209
-289 18 -118 35 -153 84 -178 81 -40 104 -65 150 -162 26 -55 56 -103 74 -117
53 -43 110 -182 97 -239 l-6 -29 -32 20 c-43 25 -83 25 -97 -2 -9 -16 -8 -24
4 -38 27 -29 20 -48 -14 -43 -46 7 -85 -15 -145 -80 -58 -63 -66 -88 -39 -127
16 -22 15 -24 -16 -56 -41 -42 -54 -95 -33 -136 13 -27 14 -37 2 -71 -18 -54
-8 -66 87 -108 70 -31 91 -35 181 -38 96 -4 107 -2 210 34 69 24 127 38 160
38 41 0 53 4 56 18 7 27 27 22 27 -7 0 -37 12 -31 61 30 24 30 47 55 51 55 4
0 8 -15 10 -32 2 -28 5 -30 15 -18 65 79 62 76 63 53 0 -39 19 -35 91 23 80
63 104 106 95 163 -4 20 -37 96 -73 169 -59 116 -67 139 -67 190 -1 34 -8 70
-18 88 -9 17 -22 71 -28 120 -6 49 -13 97 -16 107 -3 11 -7 96 -8 190 -2 148
-6 182 -25 242 -53 162 -132 266 -248 328 -99 53 -290 242 -329 325 -17 35
-40 67 -55 76 -15 9 -46 46 -69 83 -23 38 -60 94 -80 125 -28 41 -48 93 -74
186 -73 262 -123 399 -285 781 -154 362 -158 374 -166 456 -12 145 -55 265
-189 531 -41 82 -84 173 -96 203 l-21 54 23 -7 c13 -3 73 -10 133 -16 257 -25
397 -41 420 -50 40 -15 505 0 531 17 12 8 82 29 155 47 211 53 383 123 589
242 91 52 100 62 180 184 34 52 76 110 93 128 32 33 38 54 98 332 68 310 -64
663 -355 955 -131 130 -259 223 -411 299 -133 67 -232 100 -380 126 -135 25
-188 42 -249 80 -27 17 -61 30 -79 30 -18 0 -53 7 -79 15 -40 12 -48 12 -48 0
0 -10 -7 -11 -32 -4 -18 5 -59 14 -90 20 -32 6 -58 14 -58 19 0 5 -19 8 -42 8
-24 -1 -85 2 -135 6 -68 7 -93 6 -93 -3 0 -6 10 -11 22 -11 35 0 16 -9 -68
-31 -43 -11 -111 -36 -151 -54 -71 -33 -243 -139 -243 -150 0 -3 11 -3 25 1
14 3 25 4 25 1 0 -3 -57 -53 -127 -110 -71 -58 -148 -124 -173 -147 -42 -39
-43 -41 -17 -35 26 5 27 4 15 -15 -7 -11 -27 -25 -45 -31 -30 -10 -63 -42 -63
-62 0 -4 9 -3 19 3 28 14 41 12 35 -5 -4 -8 -14 -15 -25 -15 -21 0 -77 -45
-67 -55 7 -7 83 29 93 45 12 20 26 10 23 -17 -3 -22 -12 -29 -58 -45 -50 -17
-109 -58 -84 -58 6 0 42 14 79 31 76 34 141 45 210 34 35 -5 49 -12 52 -26 3
-10 9 -19 14 -19 5 0 9 -6 9 -14 0 -21 72 -36 195 -43 177 -9 290 27 541 173
216 125 330 169 469 180 39 3 87 12 108 20 203 76 598 -161 828 -498 197 -288
211 -570 41 -800 -78 -105 -181 -180 -331 -239 -107 -43 -184 -59 -286 -59
-49 0 -130 -7 -180 -15 -288 -47 -502 18 -921 282 -550 346 -1203 704 -1566
858 -40 17 -69 36 -71 47 -4 14 -15 18 -55 18 -71 0 -191 23 -397 75 -222 57
-447 91 -704 106 -233 14 -426 5 -888 -41 -503 -49 -608 -57 -828 -59 -151 -1
-235 3 -297 14 -138 24 -231 67 -221 103 10 38 -91 105 -179 118 -77 12 -78
26 -1 20 57 -4 71 -2 67 9 -6 15 -36 25 -75 25 -37 0 -40 8 -18 43 23 39 25
80 3 98 -13 11 -14 9 -9 -14 8 -29 -2 -67 -16 -67 -6 0 -7 9 -4 20 11 36 -6
80 -57 148 -28 37 -55 79 -60 95 -6 17 -25 35 -49 48 -21 10 -39 25 -39 32 0
15 -45 59 -77 76 -50 26 -169 7 -202 -32 -12 -16 -11 -16 25 -1 51 22 144 15
182 -13 42 -31 39 -48 -8 -51 -23 -1 -40 2 -40 8 0 6 -16 18 -36 26 -33 14
-43 13 -116 -5 -83 -21 -98 -20 -98 5 0 21 177 103 237 110 41 5 54 2 86 -20
38 -26 38 -26 32 -4 -4 13 -17 34 -29 46 -36 40 -97 28 -279 -57 -158 -73
-199 -82 -205 -47 -3 14 0 17 12 13 9 -4 16 -2 16 3 0 6 -6 10 -14 10 -8 0
-17 4 -20 9 -4 5 19 7 54 4 51 -5 60 -3 60 11 0 10 8 16 23 16 13 0 32 6 43
14 17 13 8 14 -77 9 -123 -7 -181 2 -219 33 -48 41 -38 55 19 27 89 -44 204
-48 279 -9 49 25 38 36 -20 20 -69 -18 -160 -18 -203 0 -19 8 -35 16 -35 18 0
2 27 1 61 0 45 -3 83 3 146 23 47 14 83 28 81 31 -3 2 -37 -2 -77 -11 -93 -19
-184 -19 -221 0 -48 25 -85 119 -42 109 22 -6 122 159 129 214 12 89 -37 161
-146 216 -65 33 -69 42 -26 56 20 7 57 32 83 56 25 24 52 44 60 44 20 0 54
-20 74 -44 l17 -21 -6 22 c-3 12 -16 34 -29 48 -33 36 -79 33 -164 -10 -97
-49 -178 -44 -235 13 -34 33 -37 43 -80 210 -19 74 -44 150 -55 169 -11 19
-16 32 -11 28 23 -14 20 19 -6 67 -38 72 -135 166 -211 206 -62 33 -79 49 -42
39 32 -8 24 21 -11 42 -16 10 -57 24 -90 31 -60 13 -72 23 -42 34 12 5 13 10
5 18 -7 7 -32 7 -90 -1 -111 -16 -143 0 -192 99 -13 25 -37 59 -54 75 -18 17
-46 50 -63 76 -104 152 -402 211 -591 118 -45 -22 -67 -28 -75 -20 -7 7 8 18
54 39 35 15 75 33 89 40 24 12 24 12 -7 8 -41 -7 -50 7 -18 28 14 9 25 24 25
32 0 12 -8 9 -32 -12 -37 -30 -145 -84 -168 -83 -8 0 3 9 26 18 38 17 94 72
94 91 0 5 -32 -5 -71 -21 -93 -40 -141 -40 -202 -1 -90 57 -251 68 -350 24
-26 -12 -74 -47 -107 -78 -33 -31 -60 -53 -60 -47 0 5 27 41 60 80 46 55 56
72 44 77 -29 11 -79 5 -116 -14z m-569 -4787 c10 -65 17 -120 15 -122 -5 -6
-34 70 -51 134 -18 64 -22 233 -7 256 6 9 12 -15 16 -68 4 -45 16 -135 27
-200z m584 -493 c7 -67 -7 -27 -16 45 -4 30 -3 42 2 30 4 -11 11 -45 14 -75z"/>
<path d="M230 6714 c-52 -14 -119 -57 -128 -82 -3 -9 222 80 237 94 10 9 -59
1 -109 -12z"/>
</g>
</svg>
