<?xml version="1.0" standalone="no"?>
<!DOCTYPE svg PUBLIC "-//W3C//DTD SVG 20010904//EN"
 "http://www.w3.org/TR/2001/REC-SVG-20010904/DTD/svg10.dtd">
<svg version="1.0" xmlns="http://www.w3.org/2000/svg"
 width="1280.000000pt" height="684.000000pt" viewBox="0 0 1280.000000 684.000000"
 preserveAspectRatio="xMidYMid meet">
<metadata>
Created by potrace 1.15, written by Peter Selinger 2001-2017
</metadata>
<g transform="translate(0.000000,684.000000) scale(0.100000,-0.100000)"
fill="#000000" stroke="none">
<path d="M7580 6814 c-80 -13 -255 -43 -390 -65 -254 -41 -556 -104 -695 -144
-198 -57 -361 -83 -600 -94 -126 -6 -264 -11 -305 -11 -126 0 -255 25 -365 70
-55 22 -136 47 -180 56 -202 38 -283 54 -470 97 -394 90 -739 114 -951 67 -32
-7 -95 -9 -180 -4 -123 6 -133 5 -160 -14 -22 -16 -62 -25 -164 -37 -172 -21
-276 -46 -420 -102 -254 -100 -714 -363 -844 -483 -34 -31 -86 -76 -116 -99
-100 -79 -117 -97 -126 -137 -8 -33 -17 -43 -55 -62 -42 -22 -57 -42 -163
-210 -65 -103 -147 -247 -183 -320 -60 -120 -67 -142 -74 -215 -4 -45 -18
-113 -32 -152 -20 -55 -74 -270 -134 -532 -5 -19 -1 -23 21 -23 23 0 26 -4 26
-32 -1 -85 -76 -236 -166 -337 -51 -55 -130 -118 -139 -110 -14 14 52 113 119
179 80 78 130 146 141 193 12 48 -11 30 -80 -63 -66 -89 -107 -130 -129 -130
-7 0 -10 20 -9 56 2 32 -1 62 -6 68 -5 6 -16 40 -24 76 -11 46 -22 69 -38 80
-13 8 -46 35 -74 59 -76 66 -125 85 -201 78 -34 -3 -78 -13 -98 -21 -58 -24
-130 -100 -162 -169 -26 -56 -29 -72 -29 -172 0 -103 2 -114 32 -175 40 -82
87 -129 144 -141 47 -11 79 -34 79 -56 0 -8 -41 -53 -90 -100 -110 -104 -178
-192 -230 -298 -53 -106 -68 -177 -52 -251 12 -61 34 -102 58 -111 25 -9 25 1
-1 75 -32 93 -33 155 0 207 l24 40 1 -47 c0 -80 16 -62 43 49 34 137 68 206
120 244 73 53 75 34 12 -93 -46 -92 -52 -119 -36 -160 6 -17 1 -42 -21 -98
l-30 -75 17 -62 c16 -59 16 -65 1 -88 -26 -40 -36 -29 -36 41 0 70 -12 104
-36 104 -12 0 -14 -7 -10 -27 15 -66 32 -234 25 -239 -4 -2 -10 0 -14 6 -3 5
-12 10 -20 10 -11 0 -12 -7 -4 -32 11 -40 5 -61 -34 -115 -70 -99 25 -38 102
65 30 40 56 70 58 68 2 -2 -8 -27 -24 -55 -22 -39 -26 -54 -17 -68 19 -30 32
-25 66 26 18 29 47 58 65 66 l33 16 0 174 c0 116 4 176 11 181 6 3 20 25 30
48 15 33 19 66 19 174 0 148 10 185 63 240 57 59 128 106 158 104 32 -3 109
46 263 169 99 78 107 88 121 137 15 51 44 92 65 92 5 0 13 -12 16 -26 10 -38
-4 -290 -27 -504 -22 -197 -21 -261 7 -490 11 -84 14 -158 9 -226 -7 -112 -6
-116 66 -274 55 -121 61 -181 26 -233 -13 -20 -28 -56 -31 -81 -9 -57 -63
-141 -185 -286 -120 -142 -151 -188 -186 -269 l-27 -64 27 -55 c21 -42 26 -65
22 -95 -4 -32 -1 -47 18 -71 49 -65 59 -132 49 -341 -13 -278 -11 -371 10
-394 13 -14 19 -49 25 -148 13 -192 47 -243 161 -245 48 -1 50 -3 56 -34 26
-141 207 -240 474 -259 93 -6 106 -2 128 48 20 46 15 63 -38 123 -27 31 -63
80 -79 110 -20 35 -59 76 -116 124 -47 39 -85 78 -85 86 0 9 -11 34 -24 57
-41 72 -51 138 -51 327 0 183 7 235 51 376 23 72 31 86 90 144 79 78 129 152
146 214 12 45 14 47 128 110 63 35 144 73 180 85 84 28 91 34 128 107 24 48
37 63 59 68 18 4 44 26 73 63 54 68 92 93 142 93 34 0 40 5 80 63 39 55 108
111 121 97 3 -3 7 -26 10 -52 7 -60 18 -80 82 -149 43 -47 54 -67 63 -114 26
-129 13 -206 -68 -395 -32 -74 -61 -147 -65 -161 -5 -20 5 -49 39 -118 26 -50
52 -91 59 -91 29 0 115 -51 155 -91 42 -43 68 -91 190 -349 27 -58 56 -113 64
-123 16 -21 113 -34 174 -23 l37 7 -25 25 c-23 24 -26 24 -54 9 -39 -20 -48
-19 -83 10 -43 37 -68 82 -116 210 -45 121 -88 203 -111 212 -8 3 -14 19 -14
37 0 42 -41 124 -81 162 l-31 29 7 -25 c4 -14 23 -51 42 -83 37 -62 37 -83 0
-50 -12 11 -53 41 -91 68 -52 36 -73 58 -88 93 -29 66 -19 122 54 297 56 137
62 157 62 225 1 64 -4 88 -33 159 -19 46 -53 106 -75 134 -59 72 -60 73 -53
91 5 13 11 14 33 6 34 -13 40 -7 20 22 -16 23 -22 78 -8 78 4 0 16 -7 26 -15
11 -8 27 -15 36 -15 9 0 38 -11 63 -24 42 -21 47 -21 47 -6 0 33 14 29 72 -22
61 -52 88 -92 88 -128 0 -22 20 -26 50 -10 15 8 22 1 50 -54 24 -46 31 -71 26
-90 -9 -35 -33 -33 -54 4 -19 33 -32 39 -32 14 0 -15 31 -49 107 -117 18 -15
33 -37 35 -49 2 -16 12 -24 36 -29 18 -4 35 -9 37 -11 3 -3 -2 -26 -11 -52
-17 -49 -59 -86 -96 -86 -14 0 -18 -9 -18 -39 0 -49 15 -62 24 -20 3 19 11 29
18 26 14 -5 14 -7 4 -50 -6 -25 -5 -27 18 -21 27 6 29 0 41 -108 6 -58 -5 -82
-28 -59 -17 17 -27 13 -27 -9 0 -10 18 -33 40 -51 40 -32 53 -56 25 -45 -8 3
-15 4 -15 1 0 -2 25 -54 55 -117 36 -72 58 -132 62 -165 5 -46 9 -53 36 -64
17 -7 65 -39 108 -70 80 -60 155 -101 200 -112 17 -4 31 -18 39 -38 8 -17 48
-69 91 -115 109 -118 113 -144 22 -144 -33 0 -43 4 -43 16 0 24 -36 70 -74 93
-48 30 -67 26 -31 -7 36 -33 75 -81 75 -93 0 -5 -37 -9 -83 -9 -131 0 -208 30
-319 122 -27 22 -48 37 -48 34 0 -4 9 -24 20 -46 25 -49 71 -84 146 -113 53
-20 77 -22 224 -21 187 1 243 13 248 52 5 37 -47 132 -102 188 -69 68 -252
187 -332 216 l-66 23 -38 75 c-77 154 -164 416 -155 465 24 118 118 333 199
450 l41 60 0 131 c0 102 -3 135 -15 149 -14 17 -12 18 38 13 36 -3 60 -12 76
-27 26 -24 48 -30 421 -107 793 -163 1284 -181 2275 -83 198 19 217 23 241 45
14 13 28 24 32 24 4 0 18 -24 33 -52 47 -94 92 -128 167 -128 42 0 45 -2 51
-30 19 -98 107 -269 211 -410 64 -86 78 -120 90 -219 24 -203 135 -363 334
-481 61 -37 71 -47 94 -98 14 -31 30 -73 36 -92 16 -51 41 -235 41 -306 0 -44
5 -65 16 -75 8 -7 22 -25 30 -41 12 -23 21 -28 50 -28 19 0 44 5 55 10 17 9
19 7 19 -18 0 -56 30 -121 76 -161 77 -68 194 -89 417 -76 l127 7 0 49 0 49
36 0 c51 0 100 26 125 66 21 34 21 34 98 34 66 0 81 3 97 21 18 20 18 22 -30
111 -37 68 -67 108 -122 160 -57 55 -86 93 -129 172 -30 55 -73 130 -95 165
-22 36 -42 83 -46 108 -13 90 26 229 93 326 32 46 35 111 9 214 l-18 72 56
168 c64 192 86 284 86 365 0 31 5 60 11 63 19 12 30 59 44 178 15 138 25 157
103 198 68 35 133 86 267 208 166 152 278 201 427 186 38 -3 148 -28 244 -55
284 -80 265 -79 462 -25 202 55 260 65 375 65 73 0 105 -6 198 -36 100 -32
121 -36 222 -35 62 0 151 5 199 11 113 14 273 14 317 1 27 -8 37 -7 45 3 16
20 37 24 71 14 124 -36 175 -31 384 39 74 25 156 48 181 52 l45 6 10 102 c9
92 12 103 37 122 38 31 68 99 68 157 0 50 -31 129 -67 170 -36 41 -113 92
-162 109 -41 13 -60 28 -101 80 -99 125 -266 264 -438 365 -67 39 -73 46 -68
69 3 14 9 98 12 186 7 191 15 211 75 201 60 -10 51 30 -11 49 -47 14 -50 23
-23 70 38 68 34 138 -18 299 -26 82 -42 151 -43 186 l-1 55 68 3 c66 3 69 2
115 -36 63 -53 115 -78 193 -92 74 -14 138 -9 334 25 77 14 167 26 199 29 l59
4 59 72 c33 39 77 83 98 98 32 22 39 33 40 60 0 18 7 47 16 65 29 57 94 137
112 137 28 0 58 27 87 77 31 56 29 103 -8 168 -34 61 -102 90 -268 114 -151
22 -203 41 -335 122 -79 48 -88 51 -166 56 -188 11 -339 -58 -600 -277 l-108
-90 -47 10 c-27 5 -108 14 -182 20 -167 12 -243 32 -276 72 -14 16 -25 40 -25
52 0 19 -4 22 -23 19 -20 -4 -26 2 -39 36 -20 49 -48 56 -48 12 0 -63 -42 -49
-69 22 -18 51 -20 52 -66 59 -26 4 -50 9 -53 12 -3 3 -16 -1 -29 -9 -22 -15
-23 -14 -44 29 -20 43 -108 136 -128 136 -15 0 -23 -18 -11 -25 5 -3 10 -13
10 -22 0 -9 -39 22 -92 73 -84 82 -176 154 -194 154 -4 0 -4 -20 -1 -44 9 -64
-12 -79 -47 -33 -14 19 -26 39 -26 45 0 20 -18 22 -64 10 -44 -12 -46 -11 -68
18 -13 16 -56 64 -95 108 -40 43 -73 82 -73 87 0 5 -20 -11 -44 -34 l-43 -43
-94 64 c-111 75 -186 115 -199 107 -6 -4 -10 -17 -10 -30 0 -53 -55 -44 -165
25 -44 28 -83 50 -87 50 -4 0 -8 -11 -8 -24 0 -36 -18 -36 -97 2 -59 28 -82
33 -123 30 -45 -3 -50 -1 -50 18 0 19 -7 22 -87 28 -49 3 -128 16 -178 27 -49
11 -119 28 -155 36 -79 18 -192 20 -241 4 -27 -9 -43 -9 -65 0 -59 23 -220 20
-374 -7z m327 -39 c54 -8 159 -21 233 -30 74 -9 185 -29 245 -45 61 -16 146
-39 190 -50 48 -13 129 -23 205 -27 l125 -6 41 -43 c48 -51 93 -57 119 -17
l16 23 38 -31 c23 -18 80 -44 142 -65 56 -18 113 -44 127 -56 23 -22 24 -22
37 -5 13 18 16 18 59 -12 50 -34 86 -76 86 -99 0 -12 11 -14 60 -9 33 3 60 1
60 -4 0 -21 56 -42 162 -60 69 -13 130 -30 157 -45 l43 -24 17 21 c17 21 18
21 74 -44 59 -66 106 -97 149 -97 18 0 42 -22 95 -84 73 -86 139 -144 150
-132 4 3 -8 21 -25 39 -34 35 -41 57 -19 57 21 0 61 -49 98 -119 39 -74 69
-99 102 -83 12 6 39 13 61 16 35 5 42 2 85 -43 26 -27 64 -54 84 -62 31 -11
37 -18 37 -41 0 -31 34 -73 51 -62 10 6 7 31 -7 68 -3 9 -1 16 5 16 6 0 11 -7
11 -15 0 -23 29 -76 59 -109 14 -15 67 -59 118 -97 119 -89 139 -119 147 -228
8 -103 18 -148 57 -273 l31 -97 -22 -31 -22 -31 -22 23 c-23 25 -23 30 5 69
10 15 19 36 19 48 0 28 -58 121 -75 121 -26 0 -23 -17 12 -67 25 -36 33 -57
28 -70 -6 -14 -10 -10 -19 22 -7 24 -19 41 -29 43 -21 4 -22 -25 -2 -52 20
-26 19 -66 -1 -66 -18 0 -39 47 -49 110 -9 54 -31 100 -48 100 -9 0 -11 -23
-9 -84 3 -76 1 -88 -22 -123 -64 -96 -70 -235 -17 -392 38 -113 119 -279 145
-297 12 -9 62 -41 111 -73 98 -63 189 -135 432 -341 88 -74 176 -148 197 -165
l37 -30 -61 -49 c-57 -46 -62 -48 -79 -32 -30 27 -113 35 -197 19 -41 -8 -92
-15 -112 -16 -37 -2 -37 -2 -40 -49 -2 -38 1 -49 18 -61 18 -12 20 -19 11 -35
-22 -42 -13 -105 29 -191 l40 -83 -28 -41 c-32 -48 -11 -45 -234 -30 -134 9
-154 13 -211 41 -38 19 -101 66 -162 122 -154 141 -206 158 -287 97 -24 -18
-44 -42 -46 -52 -1 -11 14 -46 33 -77 35 -55 39 -58 76 -58 22 0 54 7 71 16
39 20 85 22 126 5 44 -18 51 -47 18 -80 -24 -23 -34 -26 -99 -26 -57 0 -84 6
-132 28 -33 15 -67 35 -76 43 -14 13 -18 13 -28 0 -10 -12 -8 -18 14 -32 14
-9 24 -19 21 -21 -6 -7 -308 46 -382 66 -60 17 -63 17 -67 0 -7 -27 -52 -45
-84 -33 -38 13 -44 37 -7 28 l28 -7 -23 31 c-25 36 -59 62 -80 62 -12 0 -11
-3 2 -17 8 -10 17 -27 19 -38 5 -33 -48 -33 -83 1 -39 38 -48 23 -15 -26 26
-39 33 -74 18 -84 -4 -2 -36 11 -71 29 l-63 34 7 -27 c17 -60 0 -94 -40 -79
-15 6 -15 9 6 28 20 16 21 21 9 26 -8 3 -33 24 -54 45 -46 45 -67 37 -31 -12
42 -57 25 -89 -28 -50 -19 15 -46 24 -71 24 -41 1 -41 1 -47 44 -6 45 -26 69
-43 52 -6 -6 -3 -23 7 -46 19 -39 15 -54 -13 -54 -20 0 -30 19 -30 60 0 37 -9
60 -24 60 -8 0 -11 -12 -8 -34 3 -27 -1 -37 -23 -54 -15 -12 -24 -26 -20 -32
9 -14 5 -13 -51 14 -27 13 -108 45 -179 70 -72 26 -167 62 -212 80 -67 27 -85
31 -93 21 -9 -10 -6 -19 9 -34 11 -11 25 -29 31 -41 16 -29 2 -42 -57 -55 -51
-11 -76 -36 -55 -57 10 -10 21 -8 55 10 23 12 51 22 62 22 15 0 9 -10 -28 -45
-70 -66 -100 -78 -169 -72 -61 5 -77 -7 -38 -31 36 -22 25 -41 -23 -39 -30 1
-51 -5 -75 -22 -30 -21 -32 -25 -18 -40 9 -10 16 -23 16 -29 0 -20 -52 -13
-76 9 -23 21 -44 19 -44 -5 0 -7 9 -21 20 -31 42 -38 8 -49 -40 -13 -25 18
-32 19 -43 9 -10 -10 -8 -16 11 -28 23 -16 31 -53 11 -53 -6 0 -23 8 -37 18
-48 34 -52 34 -52 12 0 -13 13 -28 35 -41 19 -12 35 -25 35 -30 0 -16 -84 -30
-166 -27 -46 2 -84 1 -84 -1 0 -3 7 -13 17 -23 12 -13 31 -18 75 -18 37 0 57
-4 53 -10 -3 -6 -38 -10 -76 -10 -71 0 -128 17 -161 47 -16 15 -18 15 -18 0 0
-28 -19 -29 -52 -4 -18 14 -51 30 -73 37 -22 7 -52 19 -67 27 -19 9 -28 10
-28 3 0 -24 22 -51 67 -81 43 -30 45 -33 27 -46 -14 -10 -35 -12 -80 -7 -101
10 -140 -13 -59 -36 57 -16 80 -40 39 -40 -16 0 -42 -7 -58 -15 -27 -14 -31
-14 -70 10 -23 13 -62 41 -88 61 -57 43 -66 25 -13 -26 38 -37 49 -86 17 -76
-9 3 -35 -3 -56 -15 -28 -15 -42 -17 -50 -9 -8 8 -5 12 10 16 18 5 19 9 10 63
-8 48 -5 78 17 187 30 144 34 236 12 274 -13 23 -14 18 -15 -65 0 -93 -13
-159 -32 -171 -8 -5 -9 21 -4 92 8 104 4 129 -20 138 -12 5 -13 -9 -8 -87 5
-75 3 -96 -10 -112 -14 -17 -17 -18 -26 -5 -9 13 -13 12 -27 -7 -22 -32 -33
-28 -33 11 0 45 -9 66 -27 66 -10 0 -13 -6 -8 -17 14 -39 6 -170 -15 -227 -12
-30 -25 -58 -30 -61 -10 -6 -4 71 10 138 6 27 5 37 -5 37 -17 0 -25 -23 -25
-75 0 -26 -6 -47 -15 -55 -21 -17 -29 -6 -30 37 0 20 -6 38 -12 40 -9 3 -13
-10 -13 -45 0 -29 -11 -78 -25 -116 -33 -88 -33 -116 0 -116 63 0 106 42 165
159 43 86 57 100 40 40 -14 -49 -12 -77 5 -81 12 -2 11 -10 -10 -38 -108 -152
-104 -500 9 -745 39 -84 66 -110 36 -35 -11 28 -20 59 -20 70 0 29 19 34 29 8
5 -13 31 -59 58 -103 58 -94 76 -137 70 -162 -3 -15 -6 -13 -15 10 -6 15 -16
27 -22 27 -15 0 -12 -37 9 -113 16 -55 17 -67 6 -67 -8 0 -21 -13 -30 -30 -9
-16 -19 -30 -24 -30 -9 0 1 -69 15 -104 6 -16 9 -13 18 19 14 47 33 56 42 18
13 -53 54 -136 121 -242 36 -58 75 -126 86 -150 17 -40 18 -45 3 -53 -20 -11
-21 -34 -2 -41 9 -4 16 3 20 19 12 47 26 23 26 -46 0 -58 4 -74 21 -91 24 -24
35 -19 20 9 -13 25 -14 62 -2 62 5 0 12 -9 16 -20 3 -11 49 -59 101 -107 149
-137 234 -283 199 -338 -20 -33 -35 -23 -60 39 -13 33 -40 83 -59 110 -35 51
-186 207 -186 193 0 -21 56 -113 108 -178 68 -85 106 -144 115 -177 4 -19 2
-22 -11 -17 -9 4 -79 13 -155 21 -76 7 -147 19 -158 25 -36 19 -49 70 -49 191
l0 113 -45 3 c-42 2 -45 0 -45 -22 0 -31 -43 -66 -81 -66 -24 0 -30 5 -38 38
-6 20 -14 112 -19 203 -8 145 -13 174 -35 222 -31 67 -80 123 -177 200 -172
135 -230 214 -249 338 -18 111 15 92 59 -33 26 -74 59 -114 85 -104 39 15 -39
160 -184 341 -136 171 -177 242 -251 440 -50 134 -119 279 -128 270 -3 -2 1
-18 8 -35 7 -17 10 -33 8 -36 -4 -4 -62 25 -87 42 -1 2 9 54 24 116 29 119 30
186 4 243 -12 28 -14 19 -19 -105 -4 -102 -10 -144 -24 -172 -10 -21 -22 -35
-27 -32 -13 8 -10 166 5 274 14 92 13 96 -7 130 -27 44 -84 108 -108 121 -17
9 -18 7 -9 -16 6 -15 23 -45 39 -68 46 -68 61 -104 61 -144 0 -76 -15 -70 -66
28 -29 55 -72 118 -106 154 -56 60 -79 71 -53 25 50 -88 50 -89 29 -105 -23
-18 -66 -16 -72 4 -3 10 3 12 27 9 26 -4 31 -2 25 11 -4 9 -15 39 -26 66 -30
77 -84 127 -72 66 5 -23 0 -36 -29 -66 l-36 -38 25 -19 c15 -13 24 -30 24 -48
0 -43 -16 -44 -41 -3 -25 40 -66 83 -80 83 -20 0 -7 -28 17 -38 14 -7 22 -17
19 -22 -11 -18 -33 -11 -70 21 -20 18 -41 29 -50 25 -25 -9 -17 -44 15 -67
l30 -22 -22 -36 c-38 -64 -47 -69 -41 -24 4 33 2 41 -13 47 -26 10 -46 -21
-42 -66 3 -33 2 -35 -15 -26 -28 15 -31 4 -11 -48 17 -45 17 -47 -1 -60 -28
-21 -33 -18 -31 25 0 29 -6 47 -24 66 -26 28 -79 60 -86 52 -3 -2 11 -25 30
-49 58 -78 61 -87 29 -99 -18 -7 -35 -7 -49 -1 -18 9 -22 6 -32 -23 -7 -17
-22 -41 -33 -51 -19 -17 -21 -18 -30 -1 -8 14 -14 15 -30 7 -11 -6 -29 -8 -41
-4 -18 5 -20 3 -13 -12 17 -41 18 -64 2 -64 -16 0 -67 54 -67 71 0 15 -20 10
-27 -7 -3 -9 5 -27 22 -44 31 -33 29 -49 -4 -28 -18 11 -24 9 -48 -15 -28 -26
-29 -26 -41 -7 -6 11 -38 33 -70 49 l-58 29 -16 -28 c-13 -23 -27 -30 -74 -40
-33 -6 -76 -18 -96 -25 l-37 -13 -3 31 c-2 22 -9 33 -22 35 -13 3 -17 0 -14
-9 18 -49 18 -58 0 -68 -15 -8 -27 -4 -55 14 -36 25 -74 34 -62 15 4 -6 4 -18
0 -28 -10 -28 -25 6 -25 61 0 26 -4 47 -10 47 -5 0 -10 -11 -10 -25 0 -39 -22
-30 -55 23 -26 41 -30 44 -33 24 -2 -15 9 -40 32 -69 56 -72 42 -103 -18 -40
-17 19 -39 37 -48 40 -28 10 -33 -14 -7 -34 18 -13 21 -21 13 -29 -12 -12 -34
10 -66 69 -10 19 -25 31 -38 31 -25 0 -25 -10 1 -44 20 -25 19 -46 -2 -46 -6
0 -24 13 -40 29 -24 24 -29 38 -29 75 0 43 -1 45 -22 37 -24 -9 -27 -28 -13
-89 8 -33 7 -33 -21 -30 -30 3 -57 42 -68 98 -3 14 -12 34 -21 45 -15 19 -16
16 -11 -40 10 -100 -22 -113 -72 -30 -27 46 -60 63 -48 25 3 -11 9 -29 12 -40
5 -16 2 -20 -20 -20 -20 0 -30 9 -45 39 -20 38 -46 58 -56 42 -2 -5 4 -20 15
-34 27 -34 26 -51 -2 -42 -13 3 -47 12 -76 18 -29 7 -64 23 -77 36 -21 20 -26
21 -31 7 -10 -25 -29 -19 -63 19 -36 41 -39 42 -43 13 -5 -37 -35 -34 -59 6
-25 43 -53 49 -43 11 7 -30 -5 -32 -39 -5 -15 12 -40 20 -64 20 -35 0 -40 4
-63 47 -25 47 -47 56 -42 16 2 -11 -1 -24 -7 -27 -13 -8 -257 47 -349 78 -79
27 -145 59 -189 92 -36 27 -68 31 -77 9 -9 -24 -30 -18 -67 21 -47 50 -102 74
-171 74 -32 0 -58 3 -58 7 0 4 30 36 67 71 49 46 64 66 53 70 -9 3 -43 -26
-97 -84 -79 -86 -104 -102 -84 -53 6 13 15 43 21 67 6 23 15 42 20 42 13 0 99
54 100 63 0 14 -19 7 -49 -19 -28 -23 -51 -25 -51 -5 0 4 36 38 79 75 117 98
144 171 85 227 l-24 22 0 -76 c0 -45 -4 -77 -10 -77 -5 0 -10 11 -10 24 0 38
-17 74 -41 86 -33 18 -42 0 -24 -49 18 -52 19 -93 3 -109 -18 -18 -28 -15 -28
10 0 25 -27 58 -48 58 -10 0 -12 -7 -8 -25 15 -58 18 -113 7 -119 -6 -4 -22 5
-36 21 l-24 28 -1 -38 c0 -40 -23 -107 -37 -107 -5 0 -19 7 -32 17 l-24 16 8
-58 c6 -54 5 -57 -12 -50 -10 4 -29 10 -42 13 -19 4 -23 2 -18 -10 24 -64 30
-99 19 -123 -15 -32 -26 -32 -40 0 -20 43 -33 29 -26 -28 5 -41 3 -56 -10 -66
-13 -11 -17 -10 -26 13 -5 14 -16 26 -25 26 -12 0 -15 -13 -15 -57 0 -60 -12
-95 -24 -74 -14 22 -27 10 -51 -44 -13 -30 -27 -55 -30 -55 -4 0 -15 10 -25
22 l-18 22 -33 -49 c-60 -86 -77 -102 -124 -115 -54 -15 -137 -64 -203 -118
-77 -63 -144 -106 -197 -124 -28 -10 -40 -17 -28 -18 12 0 25 -5 28 -10 8 -14
-72 -50 -111 -50 -30 0 -32 -2 -38 -50 -10 -73 -42 -172 -64 -196 -15 -16 -33
-21 -82 -22 -35 -1 -69 -7 -76 -13 -14 -12 -44 -100 -44 -128 0 -9 13 6 28 34
15 28 35 51 47 54 17 3 17 0 -6 -30 -15 -19 -33 -48 -43 -66 -46 -91 -62 -302
-32 -443 21 -98 21 -103 -3 -91 -10 6 -21 8 -24 5 -3 -4 10 -49 29 -102 19
-53 35 -115 36 -139 2 -36 6 -42 26 -45 19 -2 30 -17 53 -66 15 -34 24 -60 18
-57 -16 11 -22 -24 -9 -56 13 -31 37 -49 64 -49 20 0 21 34 1 50 -8 7 -15 17
-15 23 0 18 55 -40 79 -83 21 -38 18 -53 -7 -28 -6 6 -15 9 -19 5 -8 -8 16
-62 57 -127 15 -25 31 -56 35 -69 l7 -24 -83 5 c-97 7 -171 32 -258 88 -70 45
-77 67 -31 100 18 13 30 30 30 43 0 18 -10 25 -60 40 -67 19 -98 21 -134 7
-21 -8 -30 -5 -54 19 -46 47 -55 96 -47 261 8 176 -9 605 -29 719 -10 56 -29
112 -60 174 -24 51 -47 112 -51 138 l-7 45 142 185 c78 101 174 232 213 292
l71 107 31 -50 c33 -55 45 -62 45 -26 0 13 11 49 25 80 27 60 30 81 16 90 -19
12 -41 -7 -51 -45 -6 -21 -14 -41 -19 -43 -12 -8 -23 86 -16 142 5 38 1 60
-24 119 -95 229 -119 519 -82 966 24 278 24 289 -19 577 -39 258 -35 497 10
699 23 103 81 274 120 350 15 31 51 115 79 186 63 161 78 185 132 221 35 24
45 37 52 71 7 36 28 61 170 200 180 175 285 263 427 358 371 246 777 390 1318
468 397 56 959 3 1622 -154 69 -16 134 -34 145 -38 124 -53 327 -76 600 -67
335 10 448 24 710 86 171 41 417 90 845 169 294 54 388 60 547 36z m4203 -759
c96 -60 219 -103 359 -127 149 -25 171 -33 209 -72 29 -30 62 -92 62 -117 0
-6 -53 -66 -117 -133 -81 -84 -127 -141 -146 -180 -25 -52 -30 -57 -61 -57
-47 0 -201 -28 -264 -47 -112 -35 -3 -39 198 -6 32 5 34 4 19 -11 -8 -9 -39
-19 -69 -23 -56 -7 -96 -34 -86 -59 4 -11 -9 -14 -73 -14 -43 0 -112 -6 -152
-14 -123 -24 -130 -25 -119 -11 7 8 5 22 -6 44 -18 37 -20 37 -59 11 -16 -11
-43 -20 -59 -20 -28 0 -29 1 -12 19 26 28 11 44 -35 38 -37 -5 -42 -2 -101 60
-84 86 -144 125 -184 121 -26 -3 -33 1 -43 24 -20 44 -74 72 -126 65 -52 -8
-85 12 -186 109 -37 35 -79 68 -95 74 -24 10 -26 12 -12 26 21 21 43 20 118
-3 36 -12 127 -33 202 -47 144 -28 279 -67 363 -107 39 -19 51 -30 53 -51 4
-31 13 -39 70 -61 40 -15 46 -15 68 0 14 9 81 33 150 53 200 60 191 81 -14 35
-136 -31 -215 -33 -210 -7 2 10 14 18 31 20 81 10 -48 74 -199 101 -118 20
-204 51 -204 73 0 67 227 220 420 283 59 20 195 53 222 54 9 1 49 -19 88 -43z
m-711 -1306 c5 0 11 6 14 13 8 23 20 -3 19 -40 -2 -48 -12 -56 -73 -59 -37 -2
-66 -11 -102 -34 -27 -17 -52 -29 -54 -26 -10 10 8 55 34 87 15 17 47 46 71
64 44 31 45 32 63 14 11 -11 23 -19 28 -19z m-10913 -247 c60 -20 140 -97 174
-168 22 -43 25 -64 25 -155 0 -97 -2 -109 -28 -152 -15 -26 -40 -56 -57 -68
l-29 -21 16 38 c64 152 56 333 -19 419 -43 49 -78 64 -145 64 -219 0 -287
-328 -104 -504 22 -22 38 -43 35 -48 -21 -33 -106 34 -152 119 -56 106 -59
241 -6 347 64 129 162 173 290 129z m10882 -61 c25 3 27 0 30 -39 2 -26 -1
-43 -7 -43 -6 0 -11 6 -11 14 0 21 -22 34 -68 42 -35 5 -42 4 -42 -10 0 -12 9
-16 35 -16 l35 0 0 -70 c0 -58 -3 -68 -15 -64 -13 5 -85 139 -85 158 0 3 8 14
18 24 14 15 24 17 50 10 18 -5 45 -8 60 -6z m-10902 -22 c26 0 93 -71 111
-118 34 -89 21 -211 -30 -286 -18 -25 -24 -27 -59 -22 -136 22 -232 139 -214
260 13 84 112 186 164 170 8 -2 20 -4 28 -4z m54 -556 c0 -19 -73 -102 -128
-144 -91 -70 -104 -67 -52 12 31 47 78 89 134 120 33 18 46 22 46 12z m11655
-374 c30 -58 20 -117 -41 -239 -32 -67 -57 -132 -61 -160 l-5 -46 -58 0 c-49
0 -71 -7 -137 -41 -43 -23 -90 -44 -105 -48 -25 -6 -28 -3 -36 26 -4 18 -4 57
1 88 4 30 9 78 11 105 3 54 17 66 56 45 17 -9 25 -8 39 4 10 9 21 13 24 9 15
-15 5 -41 -28 -73 -38 -37 -42 -51 -21 -69 11 -9 22 -8 51 6 31 15 37 15 45 3
7 -10 10 8 10 55 0 39 5 118 12 178 l11 107 33 0 c22 0 44 10 66 28 71 61 109
68 133 22z m-405 -65 c-56 -51 -80 -66 -80 -47 0 14 63 84 84 92 54 22 53 7
-4 -45z m110 -40 c13 -14 21 -28 17 -31 -8 -8 -56 28 -57 44 0 19 14 14 40
-13z m-170 -207 c0 -10 -4 -18 -10 -18 -5 0 -10 15 -10 33 0 24 3 28 10 17 5
-8 10 -23 10 -32z m-2955 -492 c-18 -27 -48 -49 -82 -60 -42 -13 -26 21 25 52
60 39 78 41 57 8z m-6135 -3 c0 -11 -44 -73 -53 -73 -20 0 -18 33 3 56 22 23
50 32 50 17z m3560 -38 c0 -14 -34 -55 -46 -55 -7 0 6 42 18 58 14 17 28 15
28 -3z m310 -42 c0 -24 -25 -9 -28 17 -3 21 -2 22 12 11 9 -7 16 -20 16 -28z
m-3592 -90 c-5 -26 -68 -27 -68 -1 0 14 8 18 36 18 28 0 35 -3 32 -17z m-104
-9 c9 -3 13 -10 10 -15 -7 -11 -64 -12 -64 -1 0 21 24 28 54 16z m3786 -74 c0
-22 -4 -40 -10 -40 -5 0 -10 18 -10 40 0 22 5 40 10 40 6 0 10 -18 10 -40z
m1011 -43 c-6 -8 -22 -38 -36 -68 l-26 -54 5 48 c4 49 27 87 54 87 11 0 12 -3
3 -13z m-4233 -49 c15 -15 16 -45 2 -53 -16 -10 -40 15 -40 41 0 26 19 31 38
12z m-118 -47 c15 -28 13 -31 -20 -31 -25 0 -30 4 -30 25 0 31 34 35 50 6z
m-90 -12 c0 -10 -59 -39 -81 -39 -22 0 -2 23 31 35 46 17 50 17 50 4z m4908
-14 c33 -28 56 -74 50 -102 -3 -13 -8 -9 -21 20 -9 20 -23 37 -31 37 -18 0
-36 -30 -36 -58 0 -30 38 -72 65 -72 21 0 24 -5 27 -42 2 -35 7 -43 23 -43 19
0 20 5 16 83 -3 67 -1 82 11 82 8 0 23 -9 33 -20 10 -11 29 -20 42 -20 20 0
23 -5 23 -42 0 -24 -7 -83 -15 -133 -16 -98 -18 -188 -6 -220 7 -17 10 -14 20
20 6 22 11 60 11 85 1 76 16 25 30 -99 25 -221 -2 -402 -76 -512 -40 -60 -48
-122 -20 -164 10 -15 14 -35 10 -52 -3 -15 3 -61 13 -101 19 -71 33 -85 33
-33 l1 26 20 -25 c35 -41 79 -137 79 -170 0 -18 -6 -33 -15 -36 -20 -8 -19
-49 3 -86 11 -20 44 -44 102 -73 89 -45 142 -93 200 -178 l32 -49 -48 7 c-235
31 -393 89 -492 179 -77 70 -146 198 -96 179 17 -6 16 4 -16 117 -30 105 -42
191 -35 247 7 57 11 62 31 36 18 -26 27 -10 32 56 4 55 0 68 -46 168 -58 124
-75 206 -62 288 8 50 34 105 49 105 4 0 7 -47 7 -105 0 -112 9 -139 38 -110
21 21 20 40 -3 106 -10 30 -21 92 -25 139 -15 186 -36 339 -55 400 -22 72 -23
86 -3 82 24 -6 42 19 42 58 0 57 13 63 58 25z m-4808 -79 l0 -34 -65 1 c-36 1
-65 3 -65 5 0 2 5 12 10 23 8 14 21 19 50 19 21 0 42 5 45 10 13 21 25 9 25
-24z m4260 7 c0 -5 -6 -26 -14 -47 -11 -33 -15 -36 -20 -19 -8 24 9 73 24 73
5 0 10 -3 10 -7z m388 -60 c20 -54 22 -66 37 -200 20 -183 19 -216 -11 -314
-37 -119 -35 -174 10 -282 20 -48 41 -110 46 -139 9 -46 8 -55 -12 -87 -20
-32 -23 -48 -22 -156 0 -104 4 -129 27 -190 l26 -70 -25 30 c-14 17 -61 101
-104 188 -44 87 -88 170 -98 185 -16 23 -18 41 -14 123 6 125 -6 165 -116 388
-48 97 -94 202 -101 234 -8 35 -11 104 -9 180 l3 123 26 -15 c23 -13 39 -13
119 -2 72 10 98 10 121 1 16 -7 29 -16 29 -21 0 -5 7 -9 15 -9 9 0 15 9 15 23
0 44 23 50 38 10z m-4578 -49 c0 -41 -150 -41 -205 0 -19 14 -19 15 -1 22 10
4 46 2 80 -5 66 -13 91 -9 101 17 5 14 7 14 15 2 6 -8 10 -25 10 -36z m5160
42 c0 -1 -5 -17 -11 -35 -8 -23 -8 -35 0 -45 8 -10 8 -16 -3 -26 -25 -20 -56
-118 -72 -224 -8 -56 -18 -112 -21 -125 l-6 -24 -15 29 c-25 46 -18 128 18
214 49 116 70 181 70 212 0 21 5 28 20 28 11 0 20 -2 20 -4z m-6790 -204 c0
-4 -33 -25 -72 -47 -67 -36 -72 -37 -57 -15 9 14 40 35 70 47 63 26 59 25 59
15z m-292 -401 c3 -16 -1 -22 -10 -19 -7 3 -15 15 -16 27 -3 16 1 22 10 19 7
-3 15 -15 16 -27z"/>
<path d="M9796 6133 c-3 -4 -6 -21 -6 -40 0 -30 3 -33 30 -33 32 0 38 16 20
49 -10 20 -35 33 -44 24z"/>
<path d="M9870 6110 c0 -6 9 -28 20 -49 17 -35 37 -51 60 -51 15 0 -9 75 -31
93 -24 19 -49 23 -49 7z"/>
<path d="M10010 6021 c0 -45 27 -82 41 -59 14 21 10 65 -7 82 -25 25 -34 19
-34 -23z"/>
<path d="M10137 6003 c-14 -13 -7 -51 14 -77 28 -36 39 -33 39 12 0 46 -33 86
-53 65z"/>
<path d="M10229 5908 c-4 -76 20 -129 91 -207 67 -73 66 -20 -1 69 -20 27 -25
43 -22 71 3 24 -1 46 -12 63 -22 33 -55 35 -56 4z"/>
<path d="M10345 5853 c3 -16 15 -37 25 -47 18 -19 19 -19 18 15 -1 38 -13 59
-35 59 -11 0 -14 -7 -8 -27z"/>
<path d="M10472 5765 c2 -48 7 -60 21 -63 25 -5 23 54 -3 93 l-21 30 3 -60z"/>
<path d="M10380 5682 c0 -4 4 -12 9 -17 5 -6 11 -28 13 -50 3 -37 5 -40 37
-43 49 -5 62 13 30 41 -14 12 -33 34 -43 50 -15 25 -46 38 -46 19z"/>
<path d="M9610 5593 c-325 -74 -525 -135 -774 -233 l-154 -61 -46 30 c-77 48
-146 55 -380 36 -186 -15 -204 -18 -239 -43 -62 -41 -124 -117 -225 -272 -52
-80 -111 -167 -131 -193 -32 -43 -36 -54 -37 -116 -2 -93 -26 -142 -123 -246
l-81 -87 0 -57 c0 -31 5 -90 10 -131 9 -63 15 -79 42 -107 84 -86 203 -110
373 -73 55 11 143 30 195 41 105 23 203 22 505 -2 206 -16 238 -11 318 50 143
109 214 238 253 456 2 11 20 40 40 63 20 24 42 61 48 83 9 31 30 56 87 105 79
69 127 95 254 140 79 27 169 93 152 110 -4 4 -27 3 -51 -3 -40 -9 -79 -2 -66
11 3 3 41 8 85 11 86 7 141 19 165 35 13 9 13 11 1 19 -12 8 -13 14 -2 37 15
33 13 35 -80 64 -60 20 -69 20 -100 7 -28 -12 -37 -12 -47 -1 -10 11 -21 10
-65 -5 -86 -30 -132 -57 -198 -118 -80 -74 -152 -170 -192 -255 -24 -50 -38
-68 -57 -72 -40 -8 -90 -60 -90 -94 0 -49 -39 -184 -75 -261 -24 -50 -53 -91
-95 -132 -33 -32 -55 -61 -50 -64 18 -11 10 -51 -13 -73 -30 -28 -37 -28 -37
3 0 32 -7 31 -33 -1 -36 -47 -90 -64 -202 -64 -55 0 -129 7 -165 16 -92 21
-197 18 -330 -11 -224 -48 -315 -59 -376 -46 -99 22 -139 80 -150 215 l-7 72
67 76 c36 42 78 85 93 96 25 18 28 26 29 94 2 56 11 97 39 173 37 104 45 115
83 115 17 0 26 9 34 31 20 57 59 123 126 212 l67 88 95 29 c221 67 399 63 548
-14 31 -16 34 -15 199 45 405 147 474 171 572 199 66 19 127 30 167 30 64 0
94 15 94 46 0 8 -1 14 -2 13 -2 0 -32 -7 -68 -16z m0 -393 c0 -13 -34 -30 -60
-30 -25 0 -17 18 14 30 29 12 46 12 46 0z m168 -12 c-5 -16 -48 -24 -48 -10 0
11 17 20 38 21 8 1 12 -5 10 -11z m-700 -665 c-2 -14 -8 -28 -14 -30 -7 -2 -9
8 -6 27 5 37 25 40 20 3z m-108 -92 c0 -5 -6 -21 -14 -36 -17 -32 -30 -17 -16
19 9 25 30 36 30 17z m-46 -106 c-5 -19 -2 -25 10 -25 9 0 16 -4 16 -10 0 -14
-23 -13 -38 2 -13 13 -47 -12 -57 -43 -10 -31 -25 -21 -25 17 0 19 4 33 8 30
5 -3 22 8 37 24 36 38 58 40 49 5z"/>
<path d="M8392 5208 c7 -20 79 -41 103 -30 18 8 16 11 -19 26 -46 19 -89 21
-84 4z"/>
<path d="M8294 5199 c-3 -5 2 -21 10 -34 18 -28 57 -33 75 -11 10 12 8 17 -8
25 -42 23 -70 30 -77 20z"/>
<path d="M8962 4886 c-40 -43 -59 -101 -50 -152 2 -15 -4 -20 -26 -22 -28 -4
-28 -4 -24 -60 2 -31 11 -71 20 -88 l15 -31 -64 -79 c-35 -43 -76 -89 -91
-101 -29 -25 -27 -28 12 -13 38 14 105 79 127 123 22 42 26 78 15 114 -6 18
-2 25 18 34 29 14 63 85 76 162 11 66 20 157 16 157 -2 0 -22 -20 -44 -44z"/>
<path d="M10490 4740 c0 -13 58 -42 70 -35 17 10 11 21 -15 33 -32 15 -55 15
-55 2z"/>
<path d="M10270 4664 c0 -15 39 -34 70 -34 34 0 11 27 -31 38 -32 8 -39 7 -39
-4z"/>
<path d="M10470 4667 c0 -8 11 -24 25 -37 32 -30 32 -42 -2 -29 -32 12 -59 -6
-32 -21 19 -11 45 -68 35 -77 -4 -4 -18 5 -32 20 -14 15 -28 27 -33 27 -20 0
-18 -15 5 -45 24 -32 24 -33 7 -64 -21 -35 -33 -40 -33 -11 0 28 -20 68 -38
75 -23 9 -25 -1 -7 -29 15 -22 15 -29 4 -42 -12 -15 -15 -14 -30 5 -21 26 -25
26 -80 2 -24 -11 -84 -29 -134 -42 -49 -12 -111 -32 -137 -45 -49 -25 -76 -58
-58 -69 5 -3 10 -15 10 -26 0 -23 28 -25 56 -4 28 21 34 18 34 -13 0 -25 6
-31 40 -42 46 -15 60 -8 41 22 -8 13 -9 24 -3 30 7 7 12 3 17 -11 10 -33 43
-59 96 -76 59 -20 84 -8 101 48 6 20 14 37 17 37 3 0 19 -20 34 -45 16 -24 44
-57 62 -74 34 -30 110 -60 121 -48 15 14 -7 55 -36 67 -33 14 -36 20 -19 37 9
9 -1 18 -37 35 -39 18 -50 29 -52 51 -3 22 1 27 18 27 31 0 68 42 75 86 15 87
36 143 61 163 l26 21 -26 45 c-27 45 -51 65 -80 65 -9 0 -16 -6 -16 -13z
m-194 -294 c17 -17 17 -18 0 -21 -31 -6 -140 21 -119 29 35 14 101 10 119 -8z"/>
<path d="M10306 4581 c-3 -5 7 -11 22 -14 31 -6 37 -3 27 12 -8 13 -42 14 -49
2z"/>
<path d="M9867 4294 c-10 -10 22 -64 38 -64 11 0 13 4 6 18 -5 9 -12 25 -15
35 -5 17 -18 22 -29 11z"/>
<path d="M9803 4242 c-10 -17 -8 -21 12 -30 31 -14 40 0 17 27 -17 21 -17 21
-29 3z"/>
<path d="M9720 4236 c0 -27 38 -93 62 -110 32 -22 64 -20 82 6 26 37 20 48
-24 48 -32 0 -48 7 -80 36 -29 27 -40 32 -40 20z"/>
<path d="M9633 4204 c3 -20 14 -46 24 -57 17 -18 87 -67 97 -67 3 0 -2 20 -12
45 -11 31 -22 45 -35 45 -10 0 -26 13 -35 30 -26 46 -46 48 -39 4z"/>
<path d="M8910 3808 c0 -19 -5 -39 -11 -45 -8 -8 -5 -19 10 -40 11 -15 26 -55
32 -88 12 -68 32 -105 56 -105 15 0 15 2 -2 14 -18 13 -18 15 -1 56 l17 43
-32 33 c-18 19 -28 34 -21 34 6 0 16 10 23 21 15 28 0 60 -40 88 l-31 22 0
-33z"/>
<path d="M11393 3484 c-12 -19 -14 -30 -6 -43 19 -30 40 -24 47 14 11 58 -11
74 -41 29z"/>
<path d="M8961 3473 c49 -57 79 -70 79 -34 0 25 -46 61 -78 61 l-25 0 24 -27z"/>
<path d="M11462 3448 c-10 -37 -6 -58 12 -58 18 0 37 65 23 79 -18 18 -26 13
-35 -21z"/>
<path d="M7480 3439 c0 -8 7 -24 15 -35 11 -15 14 -16 15 -3 0 8 -7 24 -15 35
-11 15 -14 16 -15 3z"/>
<path d="M11526 3431 c-3 -4 -5 -25 -4 -45 1 -28 5 -36 20 -36 13 0 18 8 18
29 0 16 3 36 6 45 4 11 0 16 -14 16 -12 0 -23 -4 -26 -9z"/>
<path d="M9190 3415 c0 -3 13 -33 28 -68 31 -68 82 -119 147 -148 46 -21 175
-53 182 -45 2 2 -25 25 -62 51 -66 47 -148 85 -185 85 -13 0 -20 7 -20 18 0
10 -7 39 -16 65 -14 42 -19 47 -45 47 -16 0 -29 -2 -29 -5z"/>
<path d="M8944 3401 c21 -34 166 -107 166 -84 0 14 -51 58 -87 77 -34 17 -88
22 -79 7z"/>
<path d="M7377 3373 c-13 -12 -7 -43 8 -43 8 0 24 -13 37 -30 38 -52 40 -33 2
23 -43 63 -39 58 -47 50z"/>
<path d="M7529 3311 l19 -50 -30 -6 c-43 -10 -45 -30 -7 -86 l34 -49 6 42 c3
24 9 66 13 93 7 43 5 54 -14 78 -33 42 -42 32 -21 -22z"/>
<path d="M3164 3336 c-3 -8 -1 -23 4 -33 5 -10 13 -37 17 -60 8 -49 26 -56 51
-18 13 20 14 31 5 57 -20 57 -64 88 -77 54z"/>
<path d="M8986 3295 c110 -80 139 -93 170 -81 29 11 -145 116 -192 116 -24 0
-23 -3 22 -35z"/>
<path d="M3085 3263 c4 -10 10 -48 12 -85 3 -38 9 -68 14 -68 29 0 39 111 13
148 -19 27 -50 31 -39 5z"/>
<path d="M8605 3249 c-10 -15 25 -49 51 -49 21 0 41 16 32 25 -15 15 -78 33
-83 24z"/>
<path d="M9007 3218 c27 -47 106 -98 153 -98 21 0 43 7 50 15 11 13 7 15 -23
15 -50 0 -85 15 -139 61 -57 47 -66 49 -41 7z"/>
<path d="M2990 3152 c0 -37 -4 -82 -9 -100 -12 -41 8 -44 38 -6 27 34 27 98 1
142 -11 17 -22 32 -25 32 -3 0 -5 -30 -5 -68z"/>
<path d="M10280 3190 c0 -18 -39 -50 -55 -44 -19 8 -19 -7 1 -50 16 -33 20
-34 64 -33 l48 2 -15 38 c-9 20 -13 51 -11 67 4 24 1 30 -14 30 -10 0 -18 -4
-18 -10z"/>
<path d="M8590 3140 c0 -16 79 -98 101 -105 22 -7 59 2 59 16 0 5 -13 9 -30 9
-36 0 -59 33 -39 56 10 13 10 17 -2 25 -19 12 -89 11 -89 -1z"/>
<path d="M10370 3121 c0 -29 21 -61 40 -61 17 0 20 4 14 23 -3 12 -11 28 -16
35 -12 14 -38 16 -38 3z"/>
<path d="M7410 3112 c0 -47 84 -192 111 -192 13 0 -61 154 -87 180 -13 13 -24
19 -24 12z"/>
<path d="M10472 3055 c40 -37 68 -45 68 -20 0 19 15 19 45 -1 33 -22 49 -15
30 13 -18 26 -72 43 -135 43 l-45 -1 37 -34z"/>
<path d="M9920 3063 c0 -5 7 -18 15 -29 15 -18 15 -18 13 5 -3 23 -28 44 -28
24z"/>
<path d="M8640 2992 c0 -5 9 -17 19 -26 36 -32 143 -33 186 -2 16 12 6 13 -73
12 -61 -1 -95 3 -103 12 -15 14 -29 16 -29 4z"/>
<path d="M3140 2964 c0 -8 7 -17 16 -21 8 -3 13 -12 9 -21 -4 -12 -1 -12 19 2
32 21 36 20 36 -4 0 -24 -1 -24 38 -5 43 22 81 4 172 -79 39 -36 76 -66 81
-66 12 0 1 48 -17 78 -8 12 -46 45 -84 73 l-70 50 -100 4 c-82 3 -100 1 -100
-11z"/>
<path d="M7640 2963 c0 -24 22 -83 31 -83 6 0 9 18 7 42 -2 31 -8 44 -20 46
-10 2 -18 0 -18 -5z"/>
<path d="M8876 2934 c-24 -23 -20 -44 8 -44 29 0 49 22 40 44 -8 20 -28 21
-48 0z"/>
<path d="M3013 2923 c-17 -2 -37 -11 -43 -19 -11 -12 -6 -14 31 -14 50 0 115
16 124 30 6 10 -46 11 -112 3z"/>
<path d="M6240 2900 c0 -33 14 -40 28 -12 12 21 5 42 -14 42 -9 0 -14 -11 -14
-30z"/>
<path d="M6317 2903 c-4 -3 -3 -11 2 -17 5 -6 11 -22 13 -36 4 -29 31 -34 36
-7 4 19 -23 67 -37 67 -4 0 -11 -3 -14 -7z"/>
<path d="M7990 2886 c0 -19 42 -94 55 -100 24 -9 25 -8 25 14 0 29 -26 76 -45
84 -19 7 -35 8 -35 2z"/>
<path d="M6140 2858 c0 -7 5 -20 10 -28 9 -13 11 -13 20 0 5 8 8 20 7 25 -5
15 -37 18 -37 3z"/>
<path d="M3015 2850 c-4 -6 12 -10 39 -10 25 0 46 4 46 8 0 12 -78 14 -85 2z"/>
<path d="M7933 2825 c24 -84 42 -135 46 -135 18 1 34 21 34 45 0 30 -27 70
-62 94 -22 14 -23 14 -18 -4z"/>
<path d="M7530 2720 c0 -25 4 -31 18 -28 11 2 17 12 17 28 0 16 -6 26 -17 28
-14 3 -18 -3 -18 -28z"/>
<path d="M7889 2706 c8 -9 10 -28 5 -51 -6 -34 -5 -37 17 -33 32 4 37 46 9 76
-23 24 -51 32 -31 8z"/>
<path d="M5983 2664 c-21 -42 -21 -44 -3 -44 39 0 66 55 38 77 -10 8 -19 -1
-35 -33z"/>
<path d="M7813 2644 c-10 -14 -29 -38 -41 -55 -13 -16 -20 -29 -14 -29 5 0 13
-15 18 -32 12 -40 48 -54 39 -15 -8 31 8 42 36 26 20 -10 21 -9 13 7 -5 11 -8
43 -8 72 1 59 -14 68 -43 26z"/>
<path d="M5907 2600 c-3 -14 -14 -20 -31 -20 -14 0 -26 -4 -26 -10 0 -5 5 -10
10 -10 6 0 10 -7 10 -16 0 -11 5 -14 18 -9 9 4 29 11 44 15 48 15 51 20 27 46
-27 29 -45 31 -52 4z"/>
<path d="M8370 2598 c0 -32 26 -56 43 -39 9 9 5 18 -16 38 l-27 28 0 -27z"/>
<path d="M5757 2553 c-14 -13 -6 -24 15 -21 27 4 36 28 11 28 -11 0 -23 -3
-26 -7z"/>
<path d="M7172 2523 c5 -25 28 -28 28 -4 0 12 -6 21 -16 21 -9 0 -14 -7 -12
-17z"/>
<path d="M7748 2505 c-12 -12 12 -61 45 -92 54 -51 96 -55 48 -5 -14 15 -39
45 -56 66 -16 21 -33 35 -37 31z"/>
<path d="M7090 2470 c0 -13 -8 -47 -17 -77 -16 -50 -16 -55 0 -70 9 -9 20 -13
24 -9 13 13 16 157 4 169 -8 8 -11 5 -11 -13z"/>
<path d="M5600 2461 c0 -21 52 -60 99 -76 29 -9 54 -15 57 -12 2 2 -3 14 -13
26 -18 22 -143 76 -143 62z"/>
<path d="M5755 2460 c-4 -6 -4 -14 -1 -17 9 -9 96 -21 96 -13 0 25 -82 51 -95
30z"/>
<path d="M7172 2406 c-7 -35 -9 -71 -6 -80 18 -47 49 18 40 84 -9 68 -21 67
-34 -4z"/>
<path d="M7248 2391 c-30 -76 -33 -98 -18 -121 9 -13 11 -13 20 0 15 23 32
115 28 156 -3 36 -4 35 -30 -35z"/>
<path d="M3920 2421 c0 -17 27 -37 37 -27 7 7 -17 46 -27 46 -6 0 -10 -9 -10
-19z"/>
<path d="M5490 2408 c0 -7 -12 -24 -26 -39 -42 -44 -9 -62 39 -21 21 18 22 58
2 66 -8 3 -15 0 -15 -6z"/>
<path d="M2142 2360 c-16 -26 -15 -30 8 -30 16 0 40 26 40 44 0 15 -37 4 -48
-14z"/>
<path d="M1925 2346 c-29 -29 -25 -46 20 -80 49 -38 117 -31 180 17 31 24 13
28 -31 7 -37 -18 -69 -23 -124 -21 -43 2 -1 31 59 40 51 8 74 24 68 46 -2 6
-36 11 -75 13 -65 3 -74 1 -97 -22z"/>
<path d="M5360 2355 c0 -11 35 -45 47 -45 18 0 16 14 -5 33 -18 16 -42 23 -42
12z"/>
<path d="M1321 2302 c-29 -105 -24 -122 23 -87 24 18 44 19 43 3 -2 -65 19
-82 62 -50 20 15 31 18 39 10 20 -20 43 0 40 34 -3 30 -6 33 -38 34 -57 2 -60
3 -60 22 0 10 -6 26 -13 36 -12 16 -14 16 -31 -3 -25 -28 -36 -26 -36 3 0 41
-18 39 -29 -2z"/>
<path d="M1597 2305 c-20 -42 -13 -65 19 -65 22 0 24 4 24 50 0 60 -18 67 -43
15z"/>
<path d="M5230 2303 c0 -19 17 -43 31 -43 11 0 -2 38 -17 51 -11 9 -14 8 -14
-8z"/>
<path d="M6835 2233 c7 -21 20 -64 29 -95 16 -56 44 -87 66 -73 16 10 12 113
-5 145 -15 29 -61 60 -89 60 -12 0 -13 -5 -1 -37z"/>
<path d="M7406 2239 c3 -6 -3 -24 -15 -40 -11 -15 -21 -33 -21 -39 0 -20 18
-10 45 25 28 37 28 65 0 65 -9 0 -13 -5 -9 -11z"/>
<path d="M1505 1917 c-11 -9 -14 -16 -7 -21 6 -3 13 -2 17 4 3 5 15 10 25 10
10 0 22 5 25 10 9 15 -38 12 -60 -3z"/>
<path d="M1128 1813 c-2 -20 -9 -29 -25 -31 -21 -3 -23 -9 -23 -58 0 -66 21
-73 47 -16 12 24 26 38 41 40 20 3 23 8 20 45 -3 37 -6 42 -30 45 -23 3 -27
-1 -30 -25z"/>
<path d="M1000 1660 c0 -63 7 -71 33 -42 29 32 20 102 -14 102 -17 0 -19 -8
-19 -60z"/>
<path d="M7330 1170 c0 -16 23 -60 32 -60 14 0 9 38 -8 54 -18 18 -24 20 -24
6z"/>
<path d="M7405 1123 c4 -10 10 -26 12 -35 6 -21 12 -22 47 -8 36 13 32 34 -7
48 -47 17 -61 15 -52 -5z"/>
<path d="M7822 548 c-23 -23 -13 -53 22 -72 19 -10 63 -58 106 -117 40 -54 77
-99 82 -99 16 0 -30 74 -87 140 -31 36 -63 86 -73 113 -17 48 -29 56 -50 35z"/>
<path d="M12070 5484 c-24 -8 -51 -21 -59 -29 -14 -14 -12 -15 19 -9 43 8 90
31 90 44 0 6 -1 10 -2 9 -2 -1 -23 -7 -48 -15z"/>
<path d="M12215 5455 c-5 -2 -36 -9 -68 -15 -55 -11 -127 -57 -127 -80 0 -13
104 25 166 60 59 34 73 50 29 35z"/>
<path d="M11856 5421 c-3 -4 0 -22 7 -40 9 -24 17 -31 39 -31 15 0 30 5 33 10
3 6 -3 10 -14 10 -29 0 -36 18 -15 41 17 18 16 19 -14 19 -17 0 -33 -4 -36 -9z"/>
<path d="M11555 5380 c-8 -12 55 -69 77 -70 11 0 4 12 -23 40 -43 44 -45 45
-54 30z"/>
<path d="M11980 5215 c0 -28 6 -30 44 -15 39 15 33 40 -9 40 -31 0 -35 -3 -35
-25z"/>
<path d="M12055 3411 c-32 -14 -44 -34 -55 -92 -13 -65 -3 -202 14 -196 32 10
156 261 138 279 -12 12 -76 18 -97 9z"/>
<path d="M8186 1993 c-18 -207 -19 -213 -8 -213 22 0 30 37 33 159 3 85 0 125
-7 128 -7 2 -14 -24 -18 -74z"/>
<path d="M2920 2142 c0 -10 7 -27 15 -38 16 -21 20 -8 9 34 -8 26 -24 29 -24
4z"/>
<path d="M2895 1857 c-7 -57 -3 -87 13 -87 12 0 14 112 3 129 -6 10 -11 -3
-16 -42z"/>
<path d="M3695 696 c15 -20 32 -36 37 -36 16 0 -29 65 -48 68 -13 3 -10 -5 11
-32z"/>
</g>
</svg>
