<?xml version="1.0" standalone="no"?>
<!DOCTYPE svg PUBLIC "-//W3C//DTD SVG 20010904//EN"
 "http://www.w3.org/TR/2001/REC-SVG-20010904/DTD/svg10.dtd">
<svg version="1.0" xmlns="http://www.w3.org/2000/svg"
 width="1177.000000pt" height="1280.000000pt" viewBox="0 0 1177.000000 1280.000000"
 preserveAspectRatio="xMidYMid meet">
<metadata>
Created by potrace 1.15, written by Peter Selinger 2001-2017
</metadata>
<g transform="translate(0.000000,1280.000000) scale(0.100000,-0.100000)"
fill="#000000" stroke="none">
<path d="M7445 12781 c-46 -21 -115 -92 -144 -149 -11 -21 -23 -62 -27 -91 -4
-28 -10 -51 -15 -51 -5 0 -9 -5 -9 -10 0 -7 6 -7 18 -1 16 8 17 1 16 -92 -2
-149 -2 -148 -26 -94 -11 26 -24 47 -29 47 -5 0 -9 14 -9 30 0 17 -5 30 -10
30 -6 0 -10 -10 -8 -22 4 -34 -12 -205 -25 -271 -10 -50 -19 -66 -66 -113 -30
-30 -56 -54 -58 -54 -1 0 -3 11 -3 24 0 14 -4 28 -10 31 -6 4 -10 -15 -10 -49
0 -31 -2 -56 -5 -56 -3 0 -25 15 -49 34 -25 19 -66 42 -91 52 -49 18 -52 28
-29 88 6 16 2 18 -37 15 -42 -4 -44 -3 -42 23 1 24 -1 26 -20 19 -12 -5 -47
-26 -77 -46 l-55 -37 -95 6 c-74 4 -98 10 -108 23 -11 15 -6 23 37 63 92 83
110 142 67 213 -21 35 -24 36 -38 20 -8 -10 -25 -38 -37 -63 -12 -25 -37 -64
-56 -85 l-33 -40 -38 43 -39 44 -87 5 c-91 6 -161 -10 -188 -42 -29 -35 47
-105 115 -105 37 0 31 -14 -15 -35 -55 -25 -74 -48 -61 -73 14 -26 55 -52 83
-52 31 0 40 -8 67 -54 17 -31 21 -48 16 -78 -6 -32 -9 -37 -21 -27 -8 6 -14
17 -14 25 0 7 -5 16 -12 20 -8 5 -9 2 -5 -9 7 -18 -3 -22 -18 -8 -26 23 -119
43 -187 39 -66 -4 -72 -6 -105 -42 -33 -35 -36 -37 -53 -21 -17 15 -20 15 -44
0 -14 -10 -36 -33 -48 -54 -20 -31 -23 -50 -23 -131 l0 -95 -43 4 -42 3 1 48
c2 42 5 49 26 54 26 7 28 20 9 54 -11 21 -9 27 26 61 33 34 38 45 38 85 0 27
-5 46 -11 46 -6 0 -37 -16 -69 -35 -32 -19 -64 -35 -72 -35 -8 0 -26 13 -41
28 l-27 28 30 29 c41 39 66 108 52 139 -11 26 -79 82 -88 74 -2 -3 -8 -29 -13
-57 -9 -55 -21 -79 -21 -41 0 38 -38 106 -81 144 -21 20 -39 42 -39 50 0 14
-63 31 -79 22 -5 -3 -12 6 -16 22 -7 29 -46 92 -56 92 -4 0 -21 -36 -39 -80
-35 -86 -54 -111 -64 -84 -3 9 -4 20 0 25 9 16 -8 10 -75 -25 -36 -18 -94 -43
-129 -55 -82 -28 -132 -16 -167 40 -13 20 -36 46 -51 58 l-27 22 17 37 c41 85
28 226 -26 288 l-30 34 -28 -20 c-66 -47 -91 -178 -51 -266 l18 -40 -67 -1
c-39 -1 -80 -8 -97 -16 -28 -15 -31 -14 -73 14 -58 39 -90 47 -105 26 -7 -9
-15 -13 -19 -9 -5 4 -7 -2 -5 -13 6 -49 -41 -105 -88 -105 -26 0 -27 -3 -13
-31 8 -14 6 -28 -9 -57 -18 -34 -60 -165 -79 -246 -9 -35 -29 -45 -39 -19 -3
10 -13 26 -21 35 -13 16 -11 20 17 44 17 14 31 32 31 39 0 23 -58 23 -100 -1
-36 -21 -42 -21 -69 -8 -21 11 -28 20 -24 34 7 26 -7 25 -68 -6 -28 -14 -53
-23 -56 -20 -3 3 -12 -1 -20 -9 -21 -22 -61 -29 -78 -15 -21 17 -19 27 6 35
60 19 96 118 66 180 -20 42 -47 51 -91 30 -56 -27 -71 -50 -71 -110 0 -29 -3
-48 -7 -42 -5 8 -8 6 -8 -4 0 -9 -6 -22 -14 -28 -8 -7 -22 -28 -31 -47 -11
-24 -20 -33 -27 -26 -7 7 -3 17 11 31 38 38 20 84 -37 97 -15 3 -56 20 -91 37
-58 29 -74 32 -155 32 -71 0 -100 -4 -130 -20 -60 -30 -66 -48 -31 -86 17 -17
43 -37 58 -45 37 -20 143 -29 189 -16 33 9 45 7 90 -15 55 -26 88 -50 88 -65
0 -16 -39 -8 -102 22 -64 31 -117 37 -162 21 -23 -9 -24 -13 -15 -46 10 -35 9
-38 -28 -70 -51 -44 -117 -130 -137 -180 -20 -48 -24 -52 104 93 l82 93 38
-35 c21 -19 53 -42 70 -51 28 -15 30 -18 18 -33 -8 -9 -21 -32 -28 -50 -7 -19
-23 -40 -35 -48 -19 -12 -27 -12 -58 1 -60 25 -74 21 -82 -25 l-7 -41 -46 8
c-98 16 -159 -3 -188 -58 l-16 -31 -15 22 c-8 12 -13 34 -11 51 3 20 0 29 -9
29 -7 0 -13 -6 -13 -14 0 -8 -7 -16 -15 -19 -22 -9 -62 -79 -85 -151 -21 -63
-23 -66 -54 -66 -18 0 -40 -6 -51 -13 -16 -12 -16 -18 -6 -47 6 -18 22 -47 34
-64 20 -27 41 -66 34 -66 -1 0 -24 7 -51 15 -59 18 -87 8 -56 -20 25 -23 26
-60 2 -114 -14 -31 -21 -38 -30 -29 -7 7 -12 21 -12 33 0 53 -113 179 -193
216 -56 25 -82 24 -134 -7 -36 -21 -42 -28 -32 -40 6 -8 17 -14 25 -14 25 0
181 -87 267 -149 l87 -62 0 -70 c0 -65 -3 -74 -36 -117 -20 -26 -51 -81 -70
-122 -19 -41 -41 -86 -49 -100 -8 -14 -23 -42 -35 -63 l-21 -38 -20 26 c-25
31 -81 61 -132 70 -44 9 -48 28 -12 61 43 40 28 77 -36 86 -13 2 -50 30 -81
61 -62 62 -124 96 -175 97 -33 0 -33 0 -33 -47 1 -64 29 -123 83 -175 l45 -42
-45 -28 c-24 -16 -41 -33 -38 -38 10 -16 56 -11 105 11 31 14 55 18 81 14 36
-6 37 -7 26 -40 -8 -28 -6 -39 11 -67 29 -48 62 -151 62 -197 0 -34 -4 -42
-37 -61 -20 -12 -45 -19 -54 -17 -10 3 -20 0 -21 -5 -2 -6 -18 -12 -36 -14
-18 -2 -44 -11 -57 -20 -22 -14 -25 -14 -25 -1 0 14 -31 83 -71 157 l-18 35 5
-63 c3 -45 2 -62 -6 -57 -6 4 -8 16 -4 28 6 18 4 20 -7 10 -16 -13 -41 0 -52
27 -4 10 -6 8 -6 -7 -1 -12 -6 -25 -11 -28 -21 -13 -43 -71 -56 -154 -8 -47
-19 -108 -23 -136 -10 -57 -9 -54 -26 -78 -12 -18 -18 -16 -101 23 -48 22
-100 50 -116 62 -35 25 -48 18 -16 -8 13 -11 32 -36 43 -58 11 -21 39 -55 62
-76 l43 -37 -50 -7 c-116 -15 -186 -61 -196 -128 -7 -41 -24 -52 -24 -15 0 12
-4 28 -9 35 -5 8 -7 -18 -5 -62 4 -84 4 -83 -59 -65 -22 6 -41 8 -44 5 -3 -2
17 -11 43 -19 l49 -14 -1 -84 c-1 -46 -9 -112 -18 -145 -9 -34 -16 -71 -16
-82 0 -19 3 -20 33 -10 60 20 77 43 108 148 l14 45 3 -40 c2 -22 -2 -77 -9
-123 -7 -45 -10 -84 -8 -87 3 -2 22 0 43 6 92 25 103 169 26 332 -16 35 -33
78 -36 95 -8 37 -24 33 -24 -7 0 -15 -6 -35 -13 -46 -13 -17 -15 -16 -24 11
-6 16 -14 36 -17 45 -5 12 8 23 51 46 61 33 210 83 245 83 18 0 19 -4 14 -35
-4 -19 -26 -76 -49 -127 -35 -77 -42 -104 -42 -155 0 -61 1 -64 42 -104 l42
-40 6 38 c15 93 36 192 50 233 l15 45 -4 -88 c-3 -61 -9 -95 -22 -115 -17 -26
-17 -27 1 -12 17 14 18 13 12 -2 -3 -10 -9 -41 -13 -69 -7 -50 -6 -51 15 -40
29 16 39 -10 22 -53 -7 -17 -15 -41 -18 -53 -5 -23 -5 -23 32 -7 46 19 58 11
16 -10 -35 -19 -91 -76 -91 -93 0 -16 -4 -16 -64 2 -69 21 -158 19 -204 -4
-23 -12 -47 -36 -61 -61 l-24 -43 74 9 c85 10 250 11 324 2 28 -3 60 -6 73 -7
19 -1 22 -6 22 -46 0 -25 -9 -74 -21 -109 -18 -56 -23 -63 -42 -59 -16 4 -18
2 -8 -5 7 -5 16 -32 18 -59 4 -38 1 -52 -12 -63 -16 -13 -22 -10 -57 30 -22
25 -35 35 -28 22 11 -23 7 -42 -11 -42 -5 0 -9 12 -9 27 0 15 -10 41 -22 59
l-22 32 -31 -44 -32 -44 -31 38 c-30 38 -72 64 -123 77 -23 6 -28 3 -38 -26
-6 -17 -11 -45 -11 -61 0 -30 32 -102 50 -113 21 -13 8 -20 -31 -17 -47 5 -59
-6 -59 -54 0 -41 -21 -59 -49 -44 -12 6 -21 15 -21 20 0 16 -69 88 -106 111
-19 11 -34 29 -34 39 0 10 -16 49 -35 86 -19 37 -35 73 -35 80 0 7 -4 15 -8
18 -5 3 -7 -16 -4 -43 2 -28 0 -51 -6 -55 -7 -4 -7 -17 -2 -36 8 -27 6 -30
-15 -30 -22 0 -24 3 -15 26 15 38 12 131 -5 164 -13 26 -18 28 -40 20 -45 -17
-77 -43 -101 -82 -22 -35 -26 -37 -47 -26 -34 19 -174 16 -229 -5 -50 -19
-108 -76 -108 -105 0 -10 -5 -23 -12 -30 -21 -21 12 -14 87 17 39 16 108 39
155 51 47 12 92 23 101 26 14 4 16 -4 11 -65 -3 -51 0 -77 12 -101 9 -18 16
-39 16 -47 0 -9 12 -6 40 12 44 28 58 30 113 14 38 -10 39 -11 32 -47 -9 -54
-38 -74 -92 -66 -36 5 -43 4 -43 -10 0 -26 -16 -19 -51 22 -17 20 -29 30 -26
21 3 -9 -1 -26 -9 -38 -15 -20 -15 -20 -52 -1 -43 22 -144 50 -182 50 -29 0
-88 -16 -108 -29 -11 -7 -10 -16 7 -49 11 -22 32 -49 47 -61 40 -31 129 -61
184 -61 l50 0 0 -38 c0 -30 -5 -41 -23 -49 -39 -18 -127 -93 -127 -108 0 -25
50 -17 110 16 l54 30 18 -23 c22 -28 22 -34 3 -42 -8 -3 -18 2 -23 10 -17 31
-36 -59 -27 -133 9 -80 9 -105 0 -153 -6 -29 -5 -33 6 -22 21 20 33 14 54 -25
34 -62 41 -65 83 -37 20 14 45 35 54 47 22 28 22 15 2 -74 -9 -39 -14 -72 -12
-75 9 -8 72 17 94 37 13 12 27 38 30 58 4 20 14 41 22 47 19 14 18 60 -2 109
-9 21 -14 40 -12 43 3 2 25 -3 51 -11 44 -16 75 -37 75 -54 0 -4 20 -27 44
-50 29 -28 39 -44 30 -47 -7 -3 -16 0 -20 6 -10 16 -34 -20 -34 -51 0 -13 -7
-50 -16 -82 -12 -44 -27 -67 -65 -104 -54 -52 -57 -59 -32 -74 16 -9 16 -11 2
-28 -9 -10 -14 -23 -12 -30 2 -7 -1 -21 -7 -33 -11 -20 -12 -20 -37 17 -35 54
-103 115 -103 94 0 -18 -49 -82 -50 -64 0 9 15 45 49 117 2 6 -28 -21 -66 -60
-79 -77 -122 -153 -146 -254 -37 -155 -34 -177 24 -186 27 -5 39 -12 39 -23 1
-14 2 -14 11 1 5 10 25 20 44 24 40 7 47 24 10 24 -14 0 -25 5 -25 11 0 6 15
46 34 88 18 42 37 85 42 96 27 64 8 -173 -20 -253 -16 -44 -8 -76 14 -62 25
16 48 11 55 -11 9 -29 5 -30 -45 -15 -37 11 -46 18 -48 40 -2 14 -8 26 -13 26
-5 0 -7 -11 -3 -24 5 -21 1 -25 -26 -31 -23 -5 -36 -2 -51 11 -12 10 -19 13
-19 5 0 -6 -10 -25 -22 -42 -18 -23 -22 -43 -22 -97 0 -85 30 -152 87 -193 40
-29 40 -29 61 -10 21 20 21 20 40 -8 27 -40 53 -54 114 -61 40 -5 51 -3 48 6
-7 18 60 174 81 190 23 17 62 18 67 2 3 -7 7 -25 10 -39 3 -14 17 -41 30 -60
14 -19 36 -57 49 -84 13 -28 36 -69 50 -93 15 -23 27 -48 27 -56 0 -9 6 -13
14 -10 8 3 17 1 21 -5 10 -17 25 -13 25 8 0 10 11 26 24 35 14 8 27 25 31 36
3 11 11 20 16 20 6 0 7 -5 3 -11 -4 -7 0 -9 13 -5 18 6 21 1 27 -34 8 -51 45
-132 57 -125 4 3 11 22 15 41 6 32 8 34 23 20 33 -30 90 -46 161 -46 66 0 70
-1 70 -23 0 -13 -13 -41 -28 -63 -29 -39 -46 -74 -36 -74 3 0 28 17 57 39 59
43 87 56 87 39 0 -9 3 -9 12 0 16 16 35 15 35 -2 0 -8 -18 -19 -39 -25 -21 -7
-53 -25 -72 -41 -27 -24 -43 -30 -78 -30 -25 0 -67 -7 -94 -15 -62 -19 -61
-19 -70 7 -3 12 -34 50 -68 84 -33 35 -75 80 -93 101 l-32 38 -28 -27 c-17
-17 -40 -28 -56 -28 l-27 0 0 -82 0 -83 -19 31 c-11 18 -35 44 -54 58 -30 23
-44 27 -91 25 -31 -1 -56 -6 -56 -11 0 -5 19 -30 43 -56 54 -59 84 -100 134
-182 l40 -65 -24 -50 c-19 -40 -23 -64 -21 -122 1 -40 6 -73 11 -73 4 0 6 -4
2 -10 -3 -5 -23 9 -45 31 -36 38 -39 39 -42 17 -2 -14 -11 -24 -23 -25 -64 -9
-125 -26 -125 -35 0 -5 -11 -19 -24 -29 -44 -34 -68 -100 -67 -184 0 -41 -1
-75 -3 -75 -2 0 -23 7 -46 15 -56 20 -162 19 -201 0 l-29 -16 20 -38 c29 -58
69 -88 153 -115 10 -3 15 -11 12 -16 -4 -6 -16 -8 -28 -4 -19 6 -20 5 -9 -9 8
-9 10 -22 6 -28 -4 -7 -10 -30 -14 -51 -8 -43 1 -48 38 -22 13 9 26 13 29 10
8 -8 -16 -96 -35 -125 -17 -28 -25 -18 -36 41 -4 23 -21 52 -42 75 -20 20 -39
44 -44 53 -7 13 -10 12 -15 -5 -4 -11 -18 -45 -31 -76 -13 -31 -24 -63 -24
-71 0 -7 -22 -52 -49 -98 -27 -47 -47 -87 -45 -89 2 -2 23 8 48 23 l44 26 12
-34 c6 -19 30 -51 52 -72 l41 -37 29 34 29 34 -7 -35 c-11 -54 -7 -145 6 -171
20 -37 53 -59 68 -46 22 18 59 99 67 144 9 55 48 95 84 87 14 -4 36 -13 49
-21 12 -7 28 -10 35 -6 7 4 32 9 55 10 24 2 52 8 62 13 9 5 20 6 24 3 3 -3 6
-56 6 -116 0 -100 -1 -109 -17 -102 -10 4 -27 10 -38 13 -11 2 -25 9 -31 13
-18 14 -17 -95 1 -138 20 -46 74 -133 95 -151 56 -48 125 -78 136 -61 9 15 6
112 -4 140 -9 24 -7 27 25 38 21 8 43 26 55 47 l20 34 29 -17 c16 -10 29 -23
29 -30 0 -11 6 -10 30 2 40 20 47 19 89 -14 36 -28 36 -29 33 -93 l-4 -64 -56
28 c-57 28 -175 47 -153 25 21 -21 10 -62 -44 -168 -30 -59 -55 -111 -55 -116
1 -11 45 61 82 132 17 33 31 61 33 63 1 1 35 -30 75 -70 l72 -72 -7 -71 c-9
-91 -30 -193 -57 -277 -12 -37 -19 -70 -16 -73 9 -9 61 17 93 46 l30 28 2 -54
c2 -71 18 -119 56 -162 l31 -35 -25 -22 c-31 -26 -83 -95 -77 -101 2 -2 29 12
59 32 29 21 108 65 174 98 117 59 119 61 80 63 -36 1 -90 -9 -132 -25 -13 -5
-14 -3 -3 16 6 13 13 55 14 94 1 48 8 84 20 106 10 19 18 50 18 70 0 19 6 51
13 71 8 19 16 44 18 55 3 17 5 16 16 -9 18 -44 108 -152 146 -176 19 -12 48
-25 66 -30 26 -8 32 -6 36 9 2 10 21 25 41 34 46 20 210 181 218 213 4 13 10
24 15 24 8 0 11 -10 23 -72 3 -13 6 -74 7 -137 l3 -114 -35 -18 c-56 -30 -184
-70 -303 -95 -61 -12 -99 -23 -85 -23 15 -1 48 -10 74 -22 41 -18 63 -21 149
-17 151 5 211 44 218 138 2 30 9 50 22 59 16 12 18 24 14 103 l-6 90 32 -30
c32 -30 67 -52 84 -52 11 0 8 21 -15 92 -10 34 -11 52 -4 65 10 17 10 17 11
-1 0 -16 3 -17 12 -8 21 21 28 13 28 -27 0 -35 2 -38 25 -34 36 7 46 24 58
105 17 110 13 204 -12 273 -12 33 -23 71 -24 85 -2 14 -17 45 -35 69 -18 24
-32 47 -32 50 0 3 24 5 52 3 29 -2 65 1 80 7 27 10 27 11 13 50 l-13 39 42 6
c89 14 95 44 24 115 l-40 41 55 -26 c67 -30 113 -39 161 -30 42 8 44 20 16 77
-22 42 -82 91 -135 110 -24 9 -34 20 -37 39 -7 48 2 52 43 15 44 -39 51 -41
69 -20 10 12 2 25 -47 76 -32 34 -49 59 -38 55 53 -21 83 -26 118 -20 20 3 37
2 37 -2 0 -4 -10 -48 -22 -96 -11 -49 -18 -91 -15 -94 13 -13 102 41 120 72 9
18 20 62 24 99 6 67 6 67 21 39 8 -16 28 -43 45 -61 30 -32 30 -33 20 -95 -6
-35 -9 -65 -7 -67 20 -21 66 97 102 259 5 25 38 59 57 59 6 0 19 -21 31 -47
l21 -48 -43 -49 c-24 -27 -42 -51 -40 -53 3 -2 31 8 63 21 74 33 103 41 103
29 0 -5 -9 -35 -20 -67 -28 -81 -27 -86 12 -73 18 6 37 14 42 19 5 4 25 -3 45
-16 44 -28 140 -49 187 -40 38 7 40 3 21 -51 -25 -71 -30 -99 -15 -87 10 9 13
0 13 -49 0 -56 2 -61 38 -95 24 -21 44 -32 54 -29 12 5 14 1 9 -20 -22 -86
-21 -92 12 -75 9 5 29 14 45 20 37 14 63 60 77 138 15 77 9 138 -17 192 -17
34 -19 54 -15 150 l5 110 27 -22 27 -22 -18 -40 c-21 -46 -25 -141 -7 -180 6
-14 27 -35 45 -46 33 -21 34 -21 55 -3 11 11 37 53 57 94 34 70 36 81 36 171
0 91 -2 100 -38 170 -20 41 -37 82 -37 92 0 9 -3 17 -7 17 -5 0 -6 -41 -4 -91
2 -65 0 -89 -8 -85 -6 4 -11 13 -11 20 0 7 -9 25 -20 39 -26 33 -25 58 5 148
38 111 33 103 51 88 14 -11 15 -9 9 23 -6 31 -2 41 26 74 18 22 35 41 36 43 2
3 10 -2 19 -10 13 -14 13 -25 3 -81 -15 -81 -1 -165 36 -219 29 -40 67 -65 85
-54 17 11 49 85 50 115 0 15 11 32 25 43 23 17 25 17 35 -3 11 -21 48 -45 57
-36 3 2 -9 25 -26 49 -30 41 -31 46 -22 88 6 24 11 73 11 109 l1 65 24 -30
c33 -40 42 -26 26 43 -20 89 -20 97 11 100 25 3 27 -1 37 -51 21 -99 115 -258
142 -241 23 14 -15 173 -61 251 -11 18 -16 34 -12 37 4 2 52 -19 107 -47 94
-50 100 -54 116 -99 18 -52 55 -108 71 -108 5 0 15 14 21 30 6 16 16 30 22 30
5 0 41 -28 78 -62 77 -69 88 -88 240 -424 141 -312 152 -338 251 -634 49 -145
61 -192 55 -215 -44 -175 -55 -370 -54 -910 1 -210 4 -273 18 -327 17 -67 29
-183 30 -288 0 -33 -10 -85 -25 -130 -14 -41 -33 -111 -43 -155 -10 -44 -31
-115 -46 -158 -19 -51 -29 -98 -29 -135 -1 -31 -5 -77 -10 -102 -5 -25 -12
-99 -15 -165 -3 -66 -10 -158 -15 -206 -12 -102 -14 -280 -5 -335 4 -21 25
-100 46 -175 43 -149 49 -231 25 -312 -8 -26 -12 -55 -9 -65 2 -10 -8 -61 -22
-113 -24 -84 -85 -365 -85 -389 0 -6 225 -10 603 -10 l603 0 -7 66 c-4 36 -4
74 -2 85 3 10 -2 37 -11 59 -9 22 -19 66 -22 97 -5 54 -18 100 -65 244 -11 31
-19 74 -19 97 0 22 -5 44 -11 48 -6 3 -8 16 -5 28 3 11 1 37 -3 57 -8 36 13
158 54 304 34 123 37 141 36 195 -1 77 -19 281 -32 369 -6 40 -14 123 -19 185
-11 140 -58 341 -120 506 -16 41 -34 91 -40 110 -22 62 -29 292 -15 485 12
174 10 216 -14 400 -10 77 -20 233 -25 400 -2 44 -11 112 -20 150 -39 165 -46
194 -70 263 -32 91 -32 98 -1 145 14 20 77 121 139 225 189 315 327 512 534
762 52 63 100 121 106 127 7 7 61 20 121 28 61 8 156 24 213 36 56 11 111 18
122 14 18 -6 17 -9 -15 -59 -19 -30 -37 -65 -41 -80 -6 -24 -4 -26 30 -26 33
0 36 -2 26 -19 -14 -27 -13 -34 4 -28 12 5 12 0 5 -26 -15 -54 -11 -122 9
-148 27 -32 45 -20 81 53 37 76 55 179 41 228 -12 43 -13 40 3 40 7 0 38 -19
70 -42 56 -41 57 -42 38 -62 -72 -79 -113 -272 -75 -352 14 -30 58 -65 80 -64
4 0 8 82 9 182 1 101 5 196 10 211 l7 28 47 -52 47 -52 -15 -60 c-26 -108 16
-248 85 -279 25 -11 25 -15 22 -87 -3 -76 -3 -76 22 -73 14 2 36 11 50 21 23
17 25 25 24 87 -1 47 -8 85 -23 117 -30 69 -30 185 1 236 12 20 22 37 23 38 0
1 50 -11 110 -28 148 -39 156 -32 11 10 -117 34 -130 43 -108 79 7 10 15 10
38 1 16 -6 74 -12 130 -14 98 -3 112 -7 240 -61 6 -3 -8 16 -33 42 -35 39 -43
53 -38 74 4 20 -1 32 -22 52 -63 59 -166 82 -260 59 -38 -10 -48 -10 -52 0 -2
7 -14 23 -27 36 -21 21 -21 22 -3 28 30 10 59 60 72 125 10 47 15 58 25 48 21
-21 26 1 9 37 -9 20 -12 37 -7 40 5 3 53 -21 107 -55 98 -60 129 -76 276 -143
99 -46 109 -65 77 -157 -12 -36 -39 -102 -61 -147 -21 -45 -39 -84 -39 -88 0
-8 61 24 83 43 16 14 21 13 56 -22 l39 -38 -15 -42 -16 -41 -55 0 c-31 0 -57
-5 -59 -11 -2 -6 12 -22 31 -35 l35 -24 -26 -27 c-35 -37 -49 -35 -63 6 -15
47 -59 105 -103 139 -21 16 -37 25 -36 20 1 -4 -6 -26 -15 -47 -20 -45 -16
-88 16 -150 19 -37 19 -40 2 -49 -27 -15 -65 -59 -61 -71 2 -6 23 -21 47 -34
65 -32 140 -19 262 46 3 1 5 -34 5 -80 -1 -46 2 -96 7 -113 7 -27 9 -28 16
-10 5 11 9 71 9 133 1 100 3 112 19 112 9 0 28 16 40 34 15 22 29 33 38 29 18
-7 12 -44 -22 -125 -27 -64 -32 -100 -12 -80 17 17 29 15 22 -3 -9 -22 2 -19
66 21 45 28 62 34 77 26 13 -8 24 -5 41 8 13 11 22 22 22 25 -1 3 0 9 2 13 3
7 119 62 132 62 3 0 6 -12 6 -27 0 -19 -14 -40 -52 -76 -29 -27 -63 -53 -76
-58 -30 -12 -40 -39 -19 -51 10 -5 17 -22 17 -41 1 -18 6 -42 13 -55 9 -16 11
-46 5 -108 -4 -48 -10 -89 -13 -92 -8 -8 -45 30 -45 47 0 18 -16 -7 -51 -78
-19 -39 -21 -56 -16 -125 8 -107 21 -150 63 -196 l34 -38 54 27 53 28 27 -24
c15 -13 31 -23 36 -23 5 0 19 17 32 38 22 39 22 39 51 23 28 -16 28 -17 22
-76 -3 -33 -14 -88 -23 -122 -9 -34 -14 -65 -11 -68 9 -8 72 16 96 37 13 13
28 18 41 14 14 -5 26 1 41 20 12 15 21 33 21 40 0 9 18 3 57 -17 40 -21 59
-27 67 -19 6 6 11 41 11 78 0 60 -4 75 -35 126 -19 32 -53 73 -74 90 -22 17
-60 51 -85 76 -25 25 -42 37 -38 27 3 -9 2 -17 -3 -17 -6 0 -10 15 -10 33 0
32 1 32 39 29 81 -8 181 39 181 84 0 18 -86 44 -142 44 -27 0 -64 -6 -82 -14
-33 -14 -35 -13 -65 18 -29 30 -30 34 -16 46 50 41 97 195 99 320 1 51 5 85
11 85 6 0 28 -14 49 -31 37 -31 37 -33 27 -70 -17 -62 -16 -65 24 -48 45 19
45 19 45 -16 0 -28 2 -30 28 -24 45 11 92 36 90 48 -1 6 2 30 6 54 9 48 24 53
63 22 14 -11 30 -20 36 -20 21 0 -6 204 -39 295 -5 14 7 7 36 -20 l43 -40 -33
50 c-18 28 -42 60 -53 73 l-20 22 44 0 c32 0 40 3 29 10 -8 5 -29 7 -47 4 -26
-5 -34 -2 -48 19 -14 22 -15 31 -4 69 16 52 37 72 57 52 7 -8 17 -14 21 -14 5
0 7 -24 5 -52 l-3 -53 11 50 10 50 43 1 c50 1 116 31 172 79 l40 34 17 -38
c10 -20 35 -57 56 -82 33 -38 39 -42 46 -26 4 11 -3 49 -19 94 -24 71 -24 75
-6 70 10 -3 22 -1 25 4 10 16 33 9 39 -12 4 -12 23 -39 42 -60 20 -22 34 -41
32 -43 -2 -1 -29 -17 -59 -36 -80 -48 -152 -112 -141 -123 17 -17 231 128 231
157 0 6 8 21 18 34 l18 23 21 -23 21 -23 -19 -75 c-10 -41 -32 -102 -49 -134
-17 -33 -29 -61 -27 -62 2 -2 18 1 37 6 19 5 36 8 38 5 3 -3 0 -23 -7 -46 -18
-59 -5 -61 19 -3 11 27 32 70 45 95 14 26 25 55 25 65 1 16 3 14 15 -6 19 -33
19 -12 0 33 -8 20 -15 44 -15 53 0 16 2 15 21 -1 19 -18 20 -27 15 -146 -3
-70 -10 -139 -16 -154 -5 -14 -10 -42 -10 -60 l0 -34 37 15 c35 15 37 15 53
-6 10 -14 22 -19 33 -14 17 6 18 -7 15 -208 l-4 -215 28 9 c41 15 58 55 58
140 0 65 -16 161 -35 211 -9 22 18 23 68 2 85 -35 274 -5 330 53 24 25 53 119
41 132 -3 2 -42 -15 -87 -37 -105 -53 -271 -109 -342 -115 -27 -3 -30 0 -27
22 2 19 0 22 -8 10 -7 -11 -10 -6 -10 22 0 20 4 39 9 42 14 9 13 177 -2 234
-19 70 -7 69 96 -11 45 -35 118 -87 162 -116 93 -61 73 -41 -44 42 l-81 58 19
37 c11 21 23 56 27 77 4 22 12 43 18 47 8 5 7 8 -1 8 -9 0 -13 17 -13 54 0 29
-7 73 -15 96 -8 24 -14 45 -11 47 2 2 14 -1 28 -6 13 -5 49 -12 79 -16 l55 -7
-8 -61 c-4 -34 -11 -69 -14 -77 -4 -8 -8 -22 -9 -30 -2 -8 -6 -30 -10 -49 -8
-32 -7 -33 16 -26 53 17 67 25 85 48 11 13 29 29 41 35 18 10 24 9 36 -8 7
-10 26 -29 42 -41 l28 -23 18 22 17 22 40 -40 41 -39 9 32 c6 18 13 57 16 87
6 58 72 280 83 280 4 0 16 -8 27 -17 18 -15 18 -14 -2 8 -12 14 -20 28 -17 31
4 4 77 -16 103 -28 2 -1 -4 -32 -13 -68 -19 -85 -19 -100 0 -92 27 10 17 -34
-17 -76 -41 -52 -50 -121 -19 -138 12 -6 27 -8 33 -4 8 5 9 0 4 -17 -4 -13
-10 -45 -13 -72 l-6 -47 39 16 c22 9 45 21 53 27 24 20 3 -70 -37 -158 -30
-65 -37 -92 -37 -142 0 -59 2 -65 37 -100 l37 -37 11 28 c5 15 10 42 10 59 0
47 35 165 64 221 14 27 26 63 26 80 0 17 16 58 35 91 l35 60 0 -43 c0 -77 -21
-236 -40 -310 -24 -86 -26 -112 -8 -94 7 7 20 12 30 12 31 0 85 57 98 105 24
86 -5 248 -54 305 -8 8 -17 35 -20 60 l-7 45 18 -27 c10 -16 21 -28 25 -28 14
0 21 51 14 105 l-6 53 36 -10 c20 -5 42 -7 49 -4 7 2 22 -2 34 -11 49 -34 81
22 56 98 -9 26 -24 58 -34 71 -10 13 -24 40 -30 61 -7 20 -17 35 -22 32 -5 -4
-9 10 -9 30 0 88 -107 210 -207 236 -31 8 -43 17 -48 36 -9 37 10 55 43 41 15
-7 33 -19 40 -27 10 -13 12 -12 12 7 0 11 5 32 11 45 10 23 2 97 -16 140 -6
14 -2 17 29 17 39 0 62 -25 45 -51 -14 -23 -10 -36 6 -15 12 16 15 17 15 4 0
-9 8 -15 17 -14 13 1 19 -9 23 -40 3 -23 13 -53 22 -66 21 -31 88 -73 89 -55
1 7 0 80 -1 162 l-2 150 33 70 c45 96 45 149 -2 203 -19 22 -37 41 -40 41 -11
2 -29 -50 -29 -83 0 -18 -2 -35 -5 -38 -7 -6 -61 45 -68 64 -3 7 -6 4 -7 -7 0
-11 -10 -31 -21 -45 l-21 -25 -25 30 -25 30 21 -41 c23 -48 19 -76 -19 -121
-16 -17 -36 -45 -46 -62 -10 -17 -21 -31 -25 -31 -13 0 -58 144 -48 151 6 3
10 17 8 30 -1 13 3 44 10 69 16 56 8 151 -20 225 -20 53 -60 98 -99 110 -11 4
-18 10 -16 14 3 4 -1 29 -7 55 l-13 48 -119 -118 -119 -119 -17 72 c-23 92
-49 142 -95 182 -28 25 -42 31 -63 26 l-26 -6 30 25 30 24 -30 32 c-16 18 -54
44 -84 59 -53 25 -77 51 -48 51 8 0 31 11 51 25 20 14 44 25 52 25 8 0 12 5 9
10 -3 6 12 31 34 58 49 58 91 146 91 190 0 40 -14 68 -53 104 l-29 28 -11 -30
-11 -29 -22 32 c-12 18 -24 50 -28 72 l-7 40 78 1 c43 1 96 6 119 12 38 11
124 74 124 91 0 5 -18 21 -41 37 -74 51 -204 48 -307 -7 -62 -34 -59 -34 -65
-11 -4 16 -5 16 -6 -1 0 -10 -12 -33 -26 -51 -14 -18 -25 -40 -25 -49 0 -22
-3 -22 -51 10 l-42 27 6 77 c3 42 10 85 16 96 12 24 3 38 -13 19 -7 -8 -27
-11 -57 -8 l-46 4 5 43 c4 41 3 43 -26 50 -17 3 -46 2 -65 -3 -35 -10 -35 -10
-27 18 4 15 18 38 30 50 12 12 28 36 35 54 14 33 23 181 12 193 -4 3 -7 22 -7
42 0 19 -7 62 -15 95 -8 34 -16 72 -18 86 -2 14 -5 -4 -6 -40 -2 -65 -11 -64
-26 3 -4 22 -8 25 -19 15 -10 -10 -11 -15 -2 -20 7 -5 10 -37 8 -95 -2 -48 -4
-88 -5 -89 -1 -1 -14 -5 -30 -9 -23 -6 -27 -4 -27 14 0 24 -30 91 -41 91 -11
0 -49 -42 -49 -54 0 -5 -11 1 -24 13 -29 27 -41 94 -16 86 8 -2 29 -1 45 4 17
5 22 10 13 10 -19 1 -34 43 -23 61 9 14 120 70 140 70 8 0 15 3 15 8 0 4 -33
7 -72 6 -53 0 -87 -6 -122 -22 -60 -27 -65 -27 -76 1 -7 17 -9 18 -9 5 -1 -13
-9 -18 -30 -18 -36 0 -39 9 -34 80 3 41 0 64 -15 92 -17 33 -21 36 -32 23 -11
-14 -15 -14 -31 1 -11 10 -19 27 -19 38 0 12 -5 28 -11 36 -7 11 -8 -2 -3 -42
4 -40 3 -58 -5 -58 -6 0 -11 10 -11 23 0 12 -13 60 -29 107 -21 61 -26 90 -19
103 9 17 11 16 39 -4 33 -24 34 -23 48 11 l9 25 11 -28 c6 -16 8 -40 4 -55 -6
-24 -4 -25 10 -14 13 11 17 10 26 -7 6 -11 24 -29 41 -41 l30 -21 20 33 c11
18 20 44 20 57 l0 24 20 -26 c11 -14 36 -34 56 -46 l36 -21 -7 99 c-4 55 -4
137 0 183 7 83 7 83 48 115 23 17 54 34 68 38 34 8 73 50 88 94 14 42 14 121
0 181 -7 31 -7 46 0 48 6 2 8 8 5 14 -3 5 3 16 15 24 12 8 21 24 21 34 0 13
15 26 47 40 52 23 93 56 93 75 0 7 -19 25 -41 41 -33 23 -55 29 -108 32 -37 2
-84 -1 -104 -6 l-37 -10 0 38 c0 26 10 55 28 83 l27 43 30 -19 c58 -36 174
-89 184 -83 18 11 -10 56 -38 62 -14 3 -57 16 -96 28 l-70 23 -5 46 c-3 25
-13 54 -23 65 -9 10 -17 24 -17 31 0 23 -22 -1 -42 -46 -16 -36 -22 -42 -34
-32 -8 6 -14 29 -14 51 0 22 -5 49 -12 61 -15 29 -68 78 -68 64 0 -7 -17 19
-37 56 -20 38 -55 90 -78 115 -23 26 -47 56 -54 67 l-13 20 8 -20 c36 -97 65
-189 62 -201 -2 -11 -11 -7 -34 14 -23 21 -32 40 -37 76 -7 50 -56 154 -91
194 -11 12 -14 22 -8 22 6 0 16 -8 21 -17 6 -10 11 -15 11 -12 0 4 27 -2 61
-12 113 -35 170 -23 197 44 15 34 15 34 -111 40 l-99 4 -45 52 c-53 61 -71 61
-23 1 l33 -41 -39 7 c-51 9 -54 11 -54 39 0 26 24 55 46 55 17 0 18 12 3 27
-8 8 -8 17 1 33 11 21 10 54 -5 125 -6 27 -2 34 32 61 54 44 97 125 89 169 -7
34 -71 100 -87 89 -4 -2 -11 -26 -15 -52 -7 -53 -42 -152 -52 -152 -11 0 -36
41 -48 80 -12 34 -12 34 -13 -29 -1 -61 -2 -63 -23 -57 -13 3 -29 6 -35 6 -19
0 -16 18 7 47 39 50 -21 71 -95 33 -22 -11 -40 -20 -41 -20 -1 0 -5 21 -9 47
-7 48 -35 114 -62 144 -11 13 -11 22 -2 42 10 22 19 25 73 29 124 8 256 97
256 172 0 18 -6 48 -13 65 l-13 31 -60 -63 c-32 -34 -96 -90 -140 -124 l-82
-62 -6 34 c-7 35 -74 102 -87 87 -3 -4 -11 -33 -17 -64 -13 -69 -64 -199 -96
-248 -20 -30 -21 -37 -9 -49 18 -17 17 -17 -39 -23 -34 -4 -48 -2 -48 6 0 28
-49 59 -100 64 -43 4 -55 1 -75 -18 -28 -27 -32 -52 -10 -74 8 -8 15 -17 15
-19 0 -3 -29 -6 -64 -9 -50 -3 -71 -10 -100 -32 -21 -15 -42 -40 -47 -54 -16
-41 -28 -8 -30 79 l-2 74 -17 -50 c-18 -50 -19 -50 -35 0 -2 8 -8 14 -12 14
-17 -4 -44 15 -59 40 l-15 26 7 -25 c5 -20 4 -22 -6 -13 -17 15 -40 5 -40 -17
0 -31 -15 -31 -33 -1 l-16 28 49 34 c27 18 47 35 45 37 -2 2 -24 -10 -49 -27
-46 -32 -62 -38 -51 -21 14 23 6 111 -15 155 -26 54 -117 139 -165 155 -19 6
-35 16 -35 22 0 6 -6 6 -15 -2 -11 -9 -19 -9 -28 -2 -22 19 -20 -74 3 -126 25
-56 18 -114 -16 -137 -39 -25 -52 9 -49 126 2 87 4 99 28 131 15 19 27 39 27
45 0 18 46 36 71 27 13 -4 26 -8 29 -9 3 0 11 -4 19 -9 11 -7 13 -5 8 9 -4 9
-3 23 3 30 16 19 14 94 -4 145 -20 54 -71 134 -100 158 -12 9 -32 34 -45 54
-27 45 -76 82 -97 74 -8 -3 -25 -27 -36 -53 -19 -43 -20 -54 -10 -112 6 -39
23 -83 41 -113 36 -57 36 -58 16 -58 -20 0 -105 -42 -105 -52 0 -4 23 -8 50
-8 28 0 50 -4 50 -8 0 -5 -19 -18 -42 -28 -62 -28 -153 -121 -169 -172 -7 -23
-10 -45 -6 -48 16 -17 82 -21 123 -9 43 13 45 12 39 -6 -4 -10 -7 -33 -7 -49
-1 -41 -9 -44 -63 -25 -25 8 -58 15 -74 15 -26 0 -29 3 -35 49 -7 51 -70 191
-87 191 -5 0 -16 17 -24 38 -9 20 -29 54 -45 74 -35 43 -38 78 -10 103 19 17
20 17 20 -1 0 -10 15 -48 32 -84 l33 -65 3 59 c2 32 -2 81 -7 108 -6 27 -11
70 -11 96 0 27 -5 53 -11 59 -15 15 47 36 71 23 22 -12 46 10 29 27 -7 7 -1
25 20 59 17 26 31 60 31 74 0 30 -19 90 -28 90 -3 0 -32 -28 -64 -62 l-58 -63
-72 76 -73 77 -65 6 c-36 3 -103 16 -150 29 -84 22 -85 22 -107 69 -12 25 -27
49 -32 53 -6 3 -11 14 -11 24 0 14 10 20 39 25 30 4 56 21 101 63 75 69 109
125 117 192 l6 51 -44 0 c-24 0 -62 -9 -84 -19z m-6 -495 c55 -38 149 -76 184
-76 32 0 45 11 49 42 3 25 8 20 60 -57 31 -46 54 -86 50 -89 -9 -5 -204 -66
-213 -66 -4 0 -12 20 -18 45 -14 55 -25 52 -81 -20 -51 -66 -75 -79 -65 -35 6
26 3 31 -20 40 -20 8 -25 15 -20 28 19 45 26 102 20 160 -4 34 -4 62 -2 62 3
0 28 -15 56 -34z m-3274 -115 c-12 -12 -26 19 -19 40 7 24 7 24 15 -5 5 -17 6
-32 4 -35z m2195 -5 c0 -11 -19 -15 -25 -6 -3 5 1 10 9 10 9 0 16 -2 16 -4z
m-1842 -77 c47 -10 62 -17 59 -29 -2 -8 -9 -14 -15 -12 -7 1 -11 -1 -10 -5 1
-5 -5 -20 -12 -35 -14 -29 -30 -37 -30 -15 0 8 -4 7 -10 -3 -5 -8 -10 -22 -10
-30 0 -13 1 -13 10 0 8 13 10 13 10 -1 0 -32 -13 -27 -50 20 -27 33 -39 60
-42 90 -3 38 -2 42 17 37 11 -2 48 -10 83 -17z m502 -26 c0 -5 -16 -29 -35
-55 l-35 -48 -35 39 c-19 21 -35 41 -35 45 0 3 19 6 43 7 23 0 51 4 62 9 26
11 35 12 35 3z m-254 -98 c20 -16 21 -19 6 -56 -8 -22 -19 -39 -23 -39 -4 0
-13 16 -19 35 -19 56 -29 40 -14 -22 16 -69 17 -73 5 -73 -5 0 -11 14 -15 31
-4 19 -10 28 -17 23 -8 -5 -10 3 -5 27 3 19 9 56 13 82 l6 48 21 -19 c11 -11
31 -27 42 -37z m510 24 c18 -18 54 -39 81 -48 50 -17 69 -38 30 -33 -12 1 -44
4 -72 6 -86 7 -108 16 -100 40 4 11 9 31 12 44 7 29 11 28 49 -9z m-1161 -97
l6 -67 -26 38 c-25 36 -26 40 -14 95 11 52 13 55 20 29 4 -15 10 -58 14 -95z
m3447 75 c-10 -19 -17 -57 -17 -93 0 -37 -8 -76 -19 -102 -20 -45 -23 -47 -46
-32 -12 7 -12 12 3 28 17 19 17 20 -6 39 -24 19 -47 83 -30 83 14 0 103 92
103 106 0 7 6 11 14 8 12 -4 11 -11 -2 -37z m-2553 -14 c-10 -11 -10 -14 -1
-9 8 5 12 0 12 -18 0 -19 -8 -27 -35 -36 -19 -6 -42 -18 -50 -27 -12 -12 -19
-13 -30 -3 -27 23 -17 36 25 32 42 -4 48 4 30 38 -11 21 9 39 44 40 16 0 17
-2 5 -17z m2751 -13 c0 -10 -4 -22 -10 -25 -6 -4 -10 7 -10 25 0 18 4 29 10
25 6 -3 10 -15 10 -25z m-3330 -25 c0 -13 -29 -29 -37 -21 -2 2 -1 16 3 30 5
21 9 24 20 15 8 -6 14 -17 14 -24z m2826 -34 c-17 -11 -34 -17 -39 -14 -5 3 3
12 19 19 43 19 53 16 20 -5z m-368 -8 c-10 -2 -28 -2 -40 0 -13 2 -5 4 17 4
22 1 32 -1 23 -4z m-2192 -89 c-5 -24 -12 -34 -26 -34 -10 0 -27 -3 -37 -6
-15 -6 -15 -4 4 14 11 12 27 38 33 58 11 31 14 34 22 20 6 -10 7 -33 4 -52z
m2651 45 c20 -20 -17 -69 -51 -69 l-29 0 22 24 c17 18 19 26 10 32 -9 5 -8 9
7 15 26 11 29 10 41 -2z m-3992 -9 c3 -5 2 -10 -4 -10 -5 0 -13 5 -16 10 -3 6
-2 10 4 10 5 0 13 -4 16 -10z m395 0 c0 -5 -7 -10 -15 -10 -8 0 -15 5 -15 10
0 6 7 10 15 10 8 0 15 -4 15 -10z m620 -4 c0 -3 -4 -8 -10 -11 -5 -3 -10 -1
-10 4 0 6 5 11 10 11 6 0 10 -2 10 -4z m467 -38 c-10 -38 -11 -40 -20 -20 -8
17 -6 27 8 42 10 11 19 20 20 20 2 0 -2 -19 -8 -42z m1429 3 c0 -11 -3 -18 -7
-15 -4 2 -9 -2 -12 -8 -3 -10 -7 -10 -17 -1 -17 15 -5 43 18 43 11 0 18 -7 18
-19z m-217 -17 c17 -4 31 -12 31 -18 0 -16 -102 -47 -117 -35 -8 7 -24 -7 -55
-47 l-43 -57 -7 44 c-4 24 -10 58 -13 76 -5 29 -3 32 22 36 47 7 149 7 182 1z
m91 -14 c0 -5 -9 -10 -20 -10 -11 0 -20 5 -20 10 0 6 9 10 20 10 11 0 20 -4
20 -10z m30 -10 c0 -5 -4 -10 -10 -10 -5 0 -10 5 -10 10 0 6 5 10 10 10 6 0
10 -4 10 -10z m1402 -55 c-2 -14 3 -46 13 -71 9 -25 15 -48 12 -51 -11 -10
-49 9 -57 30 -8 21 -9 21 -9 2 -1 -17 -4 -15 -16 9 -14 27 -14 29 10 48 14 11
25 28 25 39 0 10 6 19 14 19 9 0 12 -8 8 -25z m-3522 -113 c0 -4 -13 -9 -30
-10 -17 -1 -30 3 -30 9 0 6 9 9 20 6 11 -3 20 -1 20 5 0 5 5 6 10 3 6 -3 10
-9 10 -13z m1905 -34 c-3 -8 -20 -25 -37 -38 -24 -18 -32 -20 -39 -9 -6 10 1
19 26 31 18 10 37 23 40 29 10 15 17 5 10 -13z m-1950 2 c3 -5 1 -10 -4 -10
-6 0 -11 5 -11 10 0 6 2 10 4 10 3 0 8 -4 11 -10z m-451 -29 c-3 -9 -9 -24
-11 -33 -8 -29 -21 -21 -25 17 -4 35 5 46 30 37 8 -3 10 -11 6 -21z m4038 -41
c-5 -36 -7 -35 -16 3 -4 19 -3 27 7 27 9 0 12 -9 9 -30z m177 -115 c29 -49 27
-59 -10 -51 -30 6 -31 5 -27 -22 2 -16 -2 -34 -9 -40 -10 -10 -17 -3 -34 30
-12 24 -37 59 -56 79 -23 25 -31 39 -23 44 6 4 20 -1 31 -10 18 -17 20 -16 44
39 14 31 25 62 26 69 0 7 9 -14 19 -45 10 -32 27 -74 39 -93z m-245 98 c-4
-21 -8 -39 -9 -41 -3 -3 -28 11 -63 34 -2 1 1 12 8 23 7 14 21 21 41 21 29 0
30 -1 23 -37z m-2729 17 c3 -5 1 -10 -4 -10 -6 0 -11 5 -11 10 0 6 2 10 4 10
3 0 8 -4 11 -10z m-1178 -46 c4 -13 -57 -106 -74 -112 -9 -3 -13 12 -13 51 0
51 2 56 28 65 32 13 54 11 59 -4z m-709 -36 c-3 -7 -11 -14 -19 -15 -75 -10
-90 -15 -85 -30 20 -52 19 -63 -8 -63 -24 0 -26 3 -26 44 0 24 -3 51 -6 60 -5
14 5 16 71 16 57 0 76 -3 73 -12z m118 2 c8 0 14 -10 14 -25 0 -29 2 -28 -39
-14 -17 6 -36 20 -42 32 -11 19 -9 20 21 13 18 -3 39 -6 46 -6z m984 -10 c0
-5 -15 -10 -32 -9 -31 1 -32 1 -8 9 35 11 40 11 40 0z m3450 -30 c13 -9 12
-12 -4 -25 -23 -17 -36 -19 -36 -5 0 6 5 10 11 10 6 0 9 7 5 15 -6 17 3 19 24
5z m42 -50 c-3 -33 -8 -35 -38 -20 l-26 14 23 19 c28 22 45 17 41 -13z m712
-49 c-3 -3 -11 2 -20 10 -12 13 -13 21 -3 45 l12 29 8 -40 c4 -22 5 -42 3 -44z
m-5008 -18 c-3 -8 -6 -23 -6 -34 0 -30 -15 -22 -28 15 -7 18 -21 41 -32 51
-34 31 -22 35 26 8 30 -17 43 -30 40 -40z m214 21 c-16 -18 -31 -18 -25 1 17
53 15 52 26 32 8 -13 7 -22 -1 -33z m5920 -13 c-6 -16 -9 -34 -6 -40 15 -23
-16 -20 -39 5 -23 25 -24 28 -9 45 14 16 52 29 63 22 2 -1 -2 -16 -9 -32z
m-5866 -78 c-15 -24 -30 -27 -38 -7 -4 10 1 22 11 30 23 17 42 1 27 -23z
m4952 10 c-7 -7 -26 7 -26 19 0 6 6 6 15 -2 9 -7 13 -15 11 -17z m-5536 2 c0
-8 -6 -15 -12 -15 -10 0 -9 -3 1 -9 9 -6 11 -18 6 -40 -7 -33 -25 -43 -25 -13
0 9 -9 28 -20 42 -19 25 -19 25 3 37 30 17 47 16 47 -2z m310 -15 c10 -7 12
-12 4 -17 -6 -5 -16 -18 -23 -31 -12 -22 -13 -22 -36 -5 -13 10 -25 26 -25 37
0 14 5 17 25 12 14 -4 25 -2 25 4 0 13 11 13 30 0z m540 -17 c0 -5 -4 -15 -10
-23 -11 -18 -25 -7 -17 15 6 15 27 21 27 8z m5890 -28 c0 -8 -2 -15 -4 -15 -2
0 -6 7 -10 15 -3 8 -1 15 4 15 6 0 10 -7 10 -15z m-1100 -59 c0 -4 -9 -2 -20
4 -11 6 -20 20 -20 32 0 20 1 19 20 -5 11 -14 20 -28 20 -31z m550 -21 c19
-10 36 -19 38 -20 1 -1 -5 -18 -13 -38 -8 -20 -15 -53 -15 -74 0 -57 -30 -83
-97 -83 -49 0 -70 12 -40 23 9 4 9 7 0 14 -12 9 -48 112 -41 117 2 1 17 12 35
25 18 12 40 35 50 51 15 25 19 28 33 16 8 -7 31 -21 50 -31z m-6531 -37 c27
-18 63 -41 81 -51 32 -17 32 -19 25 -65 -10 -63 -11 -124 -2 -142 5 -11 -2
-21 -23 -33 -35 -21 -55 -56 -63 -111 -6 -40 -4 -41 44 -22 14 6 15 1 8 -46
-5 -29 -6 -61 -3 -71 3 -11 -2 -28 -12 -40 -10 -12 -5 -9 13 7 l31 28 5 -23
c4 -22 4 -22 6 3 1 34 17 45 26 18 3 -11 18 -29 33 -41 18 -15 23 -23 14 -26
-10 -4 -10 -8 -1 -19 9 -11 6 -16 -15 -24 -35 -13 -76 -58 -76 -83 0 -16 -6
-19 -34 -15 -28 3 -34 0 -33 -13 1 -19 53 -34 81 -23 13 5 16 -1 16 -35 0 -35
-3 -41 -22 -41 -12 0 -36 -5 -54 -12 -29 -10 -38 -8 -100 27 -55 31 -141 84
-163 101 -2 2 11 20 29 40 68 78 103 188 84 261 -5 18 -11 21 -35 16 l-29 -5
32 76 31 77 27 -49 c39 -67 57 -80 75 -56 14 19 38 113 37 149 -2 96 -39 213
-76 244 -15 13 -22 31 -11 31 3 0 27 -15 54 -32z m6952 -85 c-9 -21 -14 -23
-26 -13 -10 8 -13 22 -9 39 12 55 15 57 31 27 12 -22 13 -34 4 -53z m-3446 57
c3 -5 1 -10 -4 -10 -6 0 -11 5 -11 10 0 6 2 10 4 10 3 0 8 -4 11 -10z m-2574
-82 c31 -35 39 -61 14 -52 -14 6 -19 17 -16 36 0 3 -13 9 -29 13 -17 4 -30 13
-30 21 0 24 30 15 61 -18z m67 -129 c-8 -25 -34 -49 -51 -49 -3 0 -7 13 -10
30 -4 16 -16 49 -27 72 -11 23 -20 43 -20 44 0 2 27 -13 59 -32 58 -35 59 -36
49 -65z m15 66 c-4 -15 -36 -12 -41 3 -3 9 3 13 19 10 13 -1 23 -7 22 -13z
m5575 -14 c8 -4 12 -18 10 -29 -3 -21 -4 -21 -27 -3 -32 25 -16 54 17 32z
m-181 -143 c-3 -7 -5 -2 -5 12 0 14 2 19 5 13 2 -7 2 -19 0 -25z m196 -88 c3
-11 1 -20 -4 -20 -4 0 -13 9 -19 20 -8 16 -8 20 3 20 8 0 17 -9 20 -20z m620
-44 c15 -22 15 -25 1 -30 -22 -9 -34 1 -34 30 0 31 13 31 33 0z m-885 -34 c2
-7 -3 -12 -12 -12 -9 0 -16 7 -16 16 0 17 22 14 28 -4z m619 -14 c-3 -7 -5 -2
-5 12 0 14 2 19 5 13 2 -7 2 -19 0 -25z m425 -181 c-1 -5 1 -6 6 -3 5 3 26 -9
46 -26 25 -20 48 -31 68 -30 28 1 29 -1 23 -30 -13 -57 -44 -134 -44 -110 -1
26 -3 27 -41 7 -29 -15 -30 -15 -47 17 -9 18 -16 36 -15 41 1 4 -2 7 -8 7 -5
0 -10 9 -10 19 0 11 -5 23 -11 27 -8 4 -9 -3 -4 -26 11 -51 -3 -157 -22 -165
-9 -3 -20 0 -25 7 -4 7 -8 9 -8 4 0 -6 -5 -5 -11 1 -8 8 -7 23 6 57 21 54 17
143 -9 218 -15 43 -15 48 1 76 l17 29 45 -56 c25 -31 45 -60 43 -64z m-472
109 c0 -3 -4 -8 -10 -11 -5 -3 -10 -1 -10 4 0 6 5 11 10 11 6 0 10 -2 10 -4z
m-32 -51 c-3 -3 -9 2 -12 12 -6 14 -5 15 5 6 7 -7 10 -15 7 -18z m32 -61 c0
-8 -4 -12 -10 -9 -5 3 -10 13 -10 21 0 8 5 12 10 9 6 -3 10 -13 10 -21z m-886
-17 l20 -27 -34 -30 c-37 -31 -52 -32 -127 -9 -34 11 -40 27 -22 60 10 19 10
19 36 -1 35 -27 46 -25 67 11 20 34 32 34 60 -4z m-6364 13 c0 -5 -2 -10 -4
-10 -3 0 -8 5 -11 10 -3 6 -1 10 4 10 6 0 11 -4 11 -10z m6770 -10 c0 -5 -4
-10 -10 -10 -5 0 -10 5 -10 10 0 6 5 10 10 10 6 0 10 -4 10 -10z m44 -55 c6
-28 5 -29 -8 -12 -8 11 -12 25 -9 33 7 18 9 16 17 -21z m-724 0 c-7 -9 -15
-13 -18 -10 -3 2 1 11 8 20 7 9 15 13 18 10 3 -2 -1 -11 -8 -20z m25 -81 c-3
-18 -12 -35 -20 -37 -11 -5 -13 4 -10 42 1 27 9 59 16 72 14 24 14 24 17 -10
2 -19 1 -49 -3 -67z m303 55 c2 -23 2 -23 -13 -5 -18 24 -20 39 -2 34 6 -3 13
-15 15 -29z m-438 7 c0 -2 -7 -9 -15 -16 -12 -10 -15 -10 -15 4 0 9 7 16 15
16 8 0 15 -2 15 -4z m261 -18 c45 -25 46 -29 18 -46 -18 -11 -24 -11 -39 3
-16 15 -34 65 -22 65 2 0 22 -10 43 -22z m-6204 -25 c-3 -10 -5 -4 -5 12 0 17
2 24 5 18 2 -7 2 -21 0 -30z m121 -44 c-15 -10 -23 -2 -33 31 l-7 25 26 -24
c19 -18 23 -27 14 -32z m7132 41 c-18 -12 -30 -13 -30 -2 0 4 10 9 22 9 18 2
20 0 8 -7z m-1104 -42 c-5 -22 -66 -66 -66 -48 0 5 9 14 20 20 12 6 25 23 31
37 11 31 24 24 15 -9z m-471 -76 c-3 -8 -8 -24 -11 -37 -3 -12 -16 -28 -30
-35 -28 -15 -30 -36 -9 -67 10 -14 12 -29 7 -42 -7 -19 -12 -15 -45 36 -37 55
-38 58 -20 73 27 22 46 74 41 114 l-4 33 38 -30 c23 -18 36 -37 33 -45z m713
36 c-15 -9 -68 -11 -68 -2 0 19 35 31 57 21 17 -8 20 -13 11 -19z m-6603 -18
c21 -17 69 -62 107 -102 65 -68 67 -72 51 -90 -22 -24 -36 -18 -44 18 l-7 29
-1 -27 -1 -28 -34 17 c-22 10 -40 29 -51 54 -10 21 -30 50 -46 65 l-29 28 -25
-24 -24 -23 9 29 c5 16 12 41 15 57 7 36 32 35 80 -3z m391 -23 c66 -49 103
-87 86 -87 -7 0 -12 4 -12 8 0 4 -8 8 -17 9 -29 2 -91 28 -112 47 -19 17 -26
66 -10 66 4 0 33 -20 65 -43z m5282 23 c13 -21 9 -40 -8 -40 -5 0 -11 8 -13
18 -3 11 -5 7 -6 -10 -2 -48 -21 -42 -21 6 0 37 3 46 18 46 9 0 23 -9 30 -20z
m2447 -12 c-13 -59 -151 -230 -167 -205 -18 28 -7 55 31 80 39 26 98 92 120
135 17 32 24 27 16 -10z m-7508 -24 c1 -5 -2 -16 -7 -24 -12 -20 -35 2 -26 25
6 17 27 16 33 -1z m-277 -25 c0 -5 -4 -9 -10 -9 -5 0 -10 7 -10 16 0 8 5 12
10 9 6 -3 10 -10 10 -16z m230 1 c0 -5 -4 -10 -10 -10 -5 0 -10 5 -10 10 0 6
5 10 10 10 6 0 10 -4 10 -10z m338 -25 c-6 -14 -13 -23 -16 -21 -7 7 9 46 18
46 5 0 4 -11 -2 -25z m79 3 c-3 -8 -6 -5 -6 6 -1 11 2 17 5 13 3 -3 4 -12 1
-19z m-777 -3 c0 -8 -4 -15 -10 -15 -5 0 -7 7 -4 15 4 8 8 15 10 15 2 0 4 -7
4 -15z m6654 -23 c-8 -39 -20 -41 -28 -6 -8 31 1 45 14 24 8 -12 10 -12 10 4
0 11 2 17 5 14 3 -3 2 -19 -1 -36z m23 -24 c-15 -9 -19 -4 -11 16 5 14 9 15
15 5 5 -8 3 -17 -4 -21z m171 0 c-2 -6 -10 -14 -16 -16 -7 -2 -10 2 -6 12 7
18 28 22 22 4z m-7187 -70 l-4 -63 -10 48 c-7 35 -6 51 3 62 7 8 13 15 14 15
0 0 -1 -28 -3 -62z m5878 -4 c13 -73 7 -124 -14 -124 -8 0 -16 14 -19 33 -11
72 -15 144 -9 150 19 20 32 2 42 -59z m-4959 34 c0 -5 -6 -8 -12 -7 -19 4 -98
-23 -98 -33 0 -4 -4 -8 -10 -8 -5 0 -10 11 -10 24 0 19 6 25 28 28 54 7 102 5
102 -4z m87 6 c-3 -3 -12 -4 -19 -1 -8 3 -5 6 6 6 11 1 17 -2 13 -5z m4769
-86 c-4 -35 -10 -66 -14 -70 -4 -4 -29 7 -55 24 -40 26 -48 36 -45 57 2 20 12
29 38 38 19 7 46 12 59 12 23 1 23 0 17 -61z m2451 40 c-3 -8 -6 -5 -6 6 -1
11 2 17 5 13 3 -3 4 -12 1 -19z m-7868 -17 l15 -24 -32 17 c-18 9 -30 21 -26
27 8 14 25 7 43 -20z m7851 22 c0 -3 -17 -32 -37 -64 -23 -35 -44 -57 -55 -56
-9 1 -16 4 -16 7 1 3 -2 17 -6 32 -6 20 -3 32 12 48 24 26 102 52 102 33z
m-7696 -75 c-4 -7 -2 -8 5 -4 14 9 43 -12 35 -25 -3 -5 -9 -7 -13 -4 -5 2 -6
-7 -3 -20 3 -18 0 -25 -12 -25 -10 0 -15 8 -14 23 0 12 -3 35 -7 51 -6 21 -5
27 4 22 6 -4 8 -12 5 -18z m296 -19 c0 -6 -4 -7 -10 -4 -5 3 -10 11 -10 16 0
6 5 7 10 4 6 -3 10 -11 10 -16z m5379 -42 c1 -5 -3 -5 -9 -2 -5 3 -10 16 -9
28 0 21 1 21 9 2 5 -11 9 -24 9 -28z m-109 18 c0 -8 -7 -15 -16 -15 -14 0 -14
3 -4 15 7 8 14 15 16 15 2 0 4 -7 4 -15z m-6040 -34 c0 -5 12 -23 26 -40 23
-28 25 -51 5 -51 -5 0 -18 23 -29 50 -12 28 -17 50 -11 50 5 0 9 -4 9 -9z
m6260 -31 c0 -11 -4 -20 -10 -20 -5 0 -10 9 -10 20 0 11 5 20 10 20 6 0 10 -9
10 -20z m-5467 -34 c-10 -13 -20 -20 -21 -15 -5 12 17 39 30 39 5 0 1 -11 -9
-24z m-857 -61 c16 -33 18 -45 9 -45 -7 0 -15 -6 -18 -12 -3 -10 -7 -10 -20 1
-9 7 -15 17 -12 21 3 5 1 11 -5 15 -5 3 -10 -2 -11 -12 0 -13 -2 -14 -6 -4 -6
14 25 81 36 81 3 0 16 -21 27 -45z m6228 9 c4 -20 3 -41 -3 -48 -5 -6 -17 -45
-26 -86 -10 -41 -21 -79 -25 -83 -4 -5 -13 7 -19 26 -7 20 -18 41 -26 47 -17
14 -11 32 24 69 15 16 33 48 40 70 15 50 27 52 35 5z m-6358 11 c8 -21 -6 -41
-17 -24 -12 19 -11 39 1 39 6 0 13 -7 16 -15z m6184 12 c0 -2 -18 -18 -41 -36
-37 -31 -42 -32 -58 -17 -10 9 -24 16 -31 16 -24 0 -1 13 47 26 47 12 83 17
83 11z m197 -34 c-3 -10 -5 -4 -5 12 0 17 2 24 5 18 2 -7 2 -21 0 -30z m-1587
23 c0 -3 -4 -8 -10 -11 -5 -3 -10 -1 -10 4 0 6 5 11 10 11 6 0 10 -2 10 -4z
m869 -17 l24 -20 -29 -30 -28 -29 -23 37 -22 38 22 12 c28 16 28 16 56 -8z
m812 -12 c-10 -9 -11 -8 -5 6 3 10 9 15 12 12 3 -3 0 -11 -7 -18z m69 -36 c0
-7 -53 -41 -64 -41 -10 0 -7 27 5 54 11 23 13 24 35 9 13 -8 24 -18 24 -22z
m-6301 -11 c6 0 11 -7 11 -16 0 -14 -2 -14 -22 0 -27 19 -41 21 -33 4 4 -7 -1
-4 -9 6 -28 34 -20 50 13 27 16 -12 34 -21 40 -21z m6339 -20 c-11 -18 -75
-60 -93 -60 -3 0 -5 7 -5 15 0 19 92 87 103 76 5 -5 3 -19 -5 -31z m-6413 -40
c10 -11 13 -20 7 -20 -6 0 -16 9 -22 20 -6 11 -9 20 -7 20 2 0 12 -9 22 -20z
m458 -12 c-3 -18 -10 -42 -14 -53 -6 -17 -8 -15 -9 10 0 17 -4 37 -9 45 -12
18 -5 30 19 30 17 0 19 -5 13 -32z m5617 28 c0 -3 -4 -8 -10 -11 -5 -3 -10 -1
-10 4 0 6 5 11 10 11 6 0 10 -2 10 -4z m370 -3 c-1 -21 -30 -43 -55 -43 l-28
0 34 24 c36 26 49 31 49 19z m-5555 -33 c3 -5 -1 -10 -9 -10 -8 0 -18 5 -21
10 -3 6 1 10 9 10 8 0 18 -4 21 -10z m5585 0 c0 -5 -5 -10 -11 -10 -5 0 -7 5
-4 10 3 6 8 10 11 10 2 0 4 -4 4 -10z m1760 -30 c0 -10 -4 -22 -10 -25 -6 -4
-10 7 -10 25 0 18 4 29 10 25 6 -3 10 -15 10 -25z m-7355 1 c3 -5 1 -12 -4
-15 -5 -3 -11 1 -15 9 -6 16 9 21 19 6z m5475 -1 c-13 -8 -12 -10 3 -10 22 0
21 -6 -2 -36 -16 -20 -20 -21 -25 -8 -3 9 -6 27 -6 40 0 18 5 24 23 24 18 0
19 -2 7 -10z m1840 -27 c0 -7 -4 -13 -10 -13 -5 0 -10 12 -10 28 0 21 2 24 10
12 5 -8 10 -21 10 -27z m-7601 -15 c1 -5 -3 -8 -9 -8 -5 0 -10 12 -9 28 0 24
1 25 9 7 5 -11 9 -23 9 -27z m-511 16 c20 -6 59 -70 49 -80 -5 -6 -107 68
-107 77 0 10 25 11 58 3z m6332 -4 c0 -5 -2 -10 -4 -10 -3 0 -8 5 -11 10 -3 6
-1 10 4 10 6 0 11 -4 11 -10z m80 -35 c0 -14 -6 -25 -13 -25 -7 0 -14 11 -15
25 -1 16 3 25 13 25 9 0 15 -10 15 -25z m1558 0 c-3 -3 -9 2 -12 12 -6 14 -5
15 5 6 7 -7 10 -15 7 -18z m-7943 -86 c11 -19 21 -37 23 -40 1 -4 -8 -9 -22
-13 -13 -3 -31 -9 -40 -12 -12 -5 -16 1 -16 24 0 17 5 32 11 34 6 2 5 14 -5
33 -9 17 -16 37 -16 45 1 18 35 -20 65 -71z m498 67 c3 -7 -1 -23 -10 -35 -11
-17 -21 -21 -42 -16 -19 4 -32 1 -41 -10 -7 -8 -17 -15 -23 -15 -6 0 0 11 13
25 14 15 35 25 52 25 21 0 28 5 28 20 0 23 15 27 23 6z m5447 -6 c0 -5 -4 -10
-10 -10 -5 0 -10 5 -10 10 0 6 5 10 10 10 6 0 10 -4 10 -10z m730 -3 c0 -2 -9
-12 -19 -21 -19 -17 -20 -17 -31 3 -10 19 -8 21 20 21 16 0 30 -2 30 -3z
m-6370 -31 c0 -8 -7 -19 -15 -26 -10 -9 -15 -9 -15 -1 0 6 4 11 9 11 5 0 7 10
3 22 -3 14 -2 19 6 14 7 -4 12 -13 12 -20z m34 9 c3 -8 1 -15 -3 -15 -5 0 -11
7 -15 15 -3 8 -1 15 3 15 5 0 11 -7 15 -15z m5681 -25 c-5 -16 -10 -19 -18
-11 -7 7 -6 15 3 26 17 20 24 13 15 -15z m649 6 c-6 -16 -24 -23 -24 -8 0 10
22 33 27 28 2 -2 1 -11 -3 -20z m-1169 -33 c-18 -42 -25 -52 -25 -34 0 14 28
71 35 71 3 0 -2 -17 -10 -37z m2425 27 c0 -5 -5 -10 -11 -10 -5 0 -7 5 -4 10
3 6 8 10 11 10 2 0 4 -4 4 -10z m-7750 -21 c0 -6 -4 -7 -10 -4 -5 3 -10 11
-10 16 0 6 5 7 10 4 6 -3 10 -11 10 -16z m5120 -44 c0 -3 -9 -1 -20 5 -11 6
-20 18 -20 27 0 14 3 13 20 -5 11 -12 20 -24 20 -27z m-4957 1 c4 -11 1 -13
-10 -9 -11 4 -14 2 -9 -5 5 -8 0 -12 -15 -12 -21 0 -21 0 2 20 29 24 26 23 32
6z m-278 -16 c23 -25 14 -35 -17 -20 -22 11 -22 10 -4 -4 11 -9 27 -14 36 -11
9 3 24 -1 34 -8 14 -10 15 -18 7 -40 -12 -32 -41 -36 -41 -6 0 11 -4 18 -10
14 -5 -3 -7 -12 -3 -20 7 -19 -1 -19 -35 -1 -30 16 -88 73 -81 80 4 5 76 32
90 35 3 0 14 -8 24 -19z m5535 -27 c0 -43 -5 -41 -13 5 -4 18 -2 32 3 32 6 0
10 -16 10 -37z m-25 -40 c3 -32 8 -68 11 -80 8 -40 -6 -25 -36 38 -27 57 -27
62 -12 79 26 28 30 24 37 -37z m-5195 12 c21 -34 20 -55 -2 -55 -6 0 -5 7 3
16 12 15 11 16 -6 10 -18 -5 -21 -1 -22 29 0 19 1 35 2 35 2 0 13 -16 25 -35z
m5574 2 c14 -10 15 -18 7 -40 -11 -29 -51 -39 -51 -12 0 8 5 15 10 15 6 0 8
11 4 25 -7 28 3 32 30 12z m-204 -35 c0 -5 -8 -17 -19 -26 -18 -16 -18 -16
-14 9 5 22 33 37 33 17z m1005 -18 c-43 -29 -62 -28 -41 1 8 12 27 21 46 22
l32 2 -37 -25z m-987 -74 c-18 -46 -40 -85 -52 -94 -21 -13 -22 -13 -18 23 3
23 20 56 50 94 25 31 46 57 47 57 2 0 -11 -36 -27 -80z m85 35 c-24 -43 -53
-64 -38 -27 4 9 12 29 17 45 6 16 17 27 28 27 17 0 16 -4 -7 -45z m-5928 25
c-3 -5 -11 -10 -16 -10 -6 0 -7 5 -4 10 3 6 11 10 16 10 6 0 7 -4 4 -10z m-2
-32 c-5 -7 -8 -27 -7 -45 3 -48 -15 -57 -54 -27 -31 25 -35 51 -6 40 8 -3 14
0 14 7 0 19 21 37 43 37 14 0 17 -4 10 -12z m6041 -81 c-5 -23 -21 -35 -96
-73 -94 -47 -96 -46 -39 26 20 25 28 39 19 32 -10 -8 -34 -36 -55 -63 -20 -27
-38 -47 -40 -45 -2 1 4 22 12 47 11 32 32 58 75 94 32 28 62 49 67 49 4 -1 17
5 28 12 19 13 21 12 27 -18 4 -18 5 -46 2 -61z m-6165 8 c5 2 17 -6 29 -18
l21 -22 -63 -1 -63 -2 16 34 c9 20 21 32 28 30 7 -3 14 0 14 7 1 7 4 2 6 -11
2 -12 8 -20 12 -17z m161 4 c0 -11 -4 -18 -10 -14 -5 3 -7 12 -3 20 7 21 13
19 13 -6z m6830 5 c0 -3 -14 -17 -31 -31 -17 -15 -35 -37 -40 -51 -6 -16 -14
-22 -25 -18 -9 3 -30 6 -47 6 l-32 1 41 20 c22 11 56 33 75 49 31 27 59 38 59
24z m590 -60 c0 -27 -25 -43 -42 -26 -8 8 -6 18 6 37 20 30 36 25 36 -11z
m-7751 -6 c-16 -31 -14 -29 -34 -22 -16 6 -15 9 6 25 32 25 42 24 28 -3z
m7243 -50 c-2 -29 -5 -54 -6 -55 0 -1 -14 -5 -29 -8 l-28 -7 15 36 c8 20 22
44 31 52 8 9 15 20 15 25 0 5 2 9 4 9 1 0 1 -24 -2 -52z m-928 33 c4 -5 -15
-28 -40 -50 -35 -30 -55 -41 -80 -41 -18 0 -45 -5 -59 -10 -20 -8 -26 -7 -23
2 4 11 172 107 190 108 4 0 9 -4 12 -9z m1795 -53 c1 -29 -5 -33 -26 -20 -10
6 -10 16 -1 46 10 31 13 35 19 20 4 -11 8 -31 8 -46z m-911 27 c-6 -14 -14
-21 -17 -16 -4 5 -15 -11 -25 -35 -19 -47 -31 -51 -53 -17 -13 20 -10 23 44
57 31 20 59 36 60 36 1 0 -3 -11 -9 -25z m-7153 -15 c3 -5 1 -10 -4 -10 -6 0
-11 5 -11 10 0 6 2 10 4 10 3 0 8 -4 11 -10z m5994 -61 c-22 -14 -33 -10 -19
6 7 8 17 12 22 9 6 -4 5 -10 -3 -15z m1052 -29 c15 -48 15 -50 -7 -71 -21 -20
-22 -20 -28 -2 -9 31 -10 98 -2 111 13 22 22 13 37 -38z m-143 -15 c-1 -46 -4
-55 -19 -55 -25 0 -28 8 -22 63 4 36 10 47 23 47 16 0 18 -9 18 -55z m81 -24
l-1 -66 -16 52 c-10 28 -20 55 -24 59 -17 16 -7 31 17 26 24 -4 25 -8 24 -71z
m-873 16 c-43 -37 -86 -63 -86 -53 0 2 7 19 15 39 15 36 46 55 95 56 23 1 20
-3 -24 -42z m1099 35 c-6 -5 -28 -19 -49 -32 -26 -16 -37 -19 -34 -9 2 8 20
22 39 31 37 19 59 23 44 10z m710 -22 c13 -14 22 -17 30 -10 9 7 16 6 25 -5
10 -12 8 -18 -11 -35 -13 -10 -36 -24 -51 -29 l-28 -10 0 55 c0 58 7 65 35 34z
m-1637 -2 c-3 -7 -13 -15 -24 -17 -16 -3 -17 -1 -5 13 16 19 34 21 29 4z
m-5617 -82 c-6 -29 -9 -66 -5 -80 6 -26 6 -26 -50 -26 -56 0 -56 0 -45 23 7
12 22 36 35 52 12 17 29 48 38 69 12 30 19 37 28 28 8 -8 8 -25 -1 -66z m5329
67 c-1 -5 -19 -28 -40 -53 l-40 -45 0 43 c0 38 2 42 24 42 14 0 28 5 31 10 7
12 25 13 25 3z m-5815 -24 c12 -18 -3 -22 -20 -5 -14 14 -14 16 -1 16 8 0 18
-5 21 -11z m7555 -93 c0 -7 12 -25 26 -39 23 -23 24 -28 10 -33 -22 -8 -20
-20 6 -46 16 -16 17 -20 5 -15 -10 4 -17 2 -17 -5 0 -7 -10 -22 -21 -34 l-22
-23 -48 51 c-52 56 -65 88 -28 68 28 -16 33 -7 9 15 -24 22 -28 81 -5 71 8 -3
21 -9 29 -12 8 -3 20 1 27 9 15 16 29 13 29 -7z m-465 4 c-3 -5 -13 -10 -21
-10 -8 0 -14 5 -14 10 0 6 9 10 21 10 11 0 17 -4 14 -10z m-6818 -57 c-12 -48
-7 -59 20 -44 17 8 22 4 41 -33 l21 -44 -23 -21 c-12 -11 -27 -21 -33 -21 -6
0 -13 -7 -17 -15 -6 -17 9 -21 19 -5 9 14 45 12 45 -2 0 -7 -9 -48 -20 -92
-11 -43 -20 -80 -20 -82 0 -2 -9 -4 -20 -4 -12 0 -26 12 -36 32 -9 17 -37 53
-61 80 -30 31 -40 48 -30 48 9 0 19 -4 22 -10 3 -5 12 -10 18 -10 7 0 4 5 -6
11 -17 10 -16 12 7 36 33 33 50 94 43 160 -4 40 -3 51 8 47 7 -3 16 0 20 6 13
21 14 5 2 -37z m6973 -43 c-7 -12 -10 -35 -8 -51 3 -20 0 -29 -9 -29 -7 0 -13
2 -13 4 0 2 -7 20 -15 40 l-16 37 33 14 c39 16 43 14 28 -15z m-6645 10 c3 -5
1 -10 -4 -10 -6 0 -11 5 -11 10 0 6 2 10 4 10 3 0 8 -4 11 -10z m402 -36 c-3
-3 -12 -4 -19 -1 -8 3 -5 6 6 6 11 1 17 -2 13 -5z m5823 -9 c0 -8 -9 -19 -20
-25 -15 -8 -20 -8 -20 3 0 14 19 37 32 37 4 0 8 -7 8 -15z m1258 -17 c-14 -44
-23 -52 -37 -35 -16 20 5 67 30 67 16 0 17 -4 7 -32z m-7040 -38 c32 -38 42
-70 22 -70 -10 0 -109 47 -119 56 -7 6 41 54 53 54 6 0 26 -18 44 -40z m6219
-36 c-9 -9 -28 6 -21 18 4 6 10 6 17 -1 6 -6 8 -13 4 -17z m-7512 6 c3 -5 1
-10 -4 -10 -6 0 -11 5 -11 10 0 6 2 10 4 10 3 0 8 -4 11 -10z m6147 -29 c-4
-11 -8 -10 -18 4 -7 10 -11 22 -8 26 8 14 32 -14 26 -30z m-5843 7 c-3 -45
-14 -77 -25 -70 -7 5 -7 21 -2 50 10 44 29 59 27 20z m915 13 c3 -5 -3 -11
-14 -14 -20 -5 -26 3 -13 16 9 10 21 9 27 -2z m4726 -1 c21 0 33 -45 15 -60
-13 -11 -17 -8 -49 44 -17 27 -17 29 -1 23 9 -4 25 -7 35 -7z m-4667 -26 c41
-21 39 -18 31 -38 -7 -19 -64 -23 -64 -3 0 6 -3 22 -6 35 -7 26 -3 27 39 6z
m4977 1 c0 -30 -11 -42 -36 -37 -27 5 -28 6 -15 30 11 21 51 26 51 7z m-5582
-15 c23 -11 42 -25 42 -31 0 -7 -5 -8 -13 -3 -7 5 -5 2 4 -7 21 -19 34 -59 20
-59 -6 0 -11 -8 -11 -17 0 -29 -48 36 -56 75 -10 52 -19 37 -19 -35 0 -48 -4
-67 -14 -71 -10 -3 -12 0 -8 12 4 10 7 49 7 87 0 38 1 69 3 69 2 0 22 -9 45
-20z m-477 -33 c-11 -29 -32 -35 -50 -13 -17 20 -3 44 27 48 33 4 36 -1 23
-35z m-61 23 c0 -13 -11 -13 -30 0 -12 8 -11 10 8 10 12 0 22 -4 22 -10z
m6650 6 c0 -3 -4 -8 -10 -11 -5 -3 -10 -1 -10 4 0 6 5 11 10 11 6 0 10 -2 10
-4z m-7380 -13 c-1 -11 -26 -43 -34 -43 -8 0 -8 35 1 43 9 9 33 9 33 0z m6600
-1 c0 -5 -9 -17 -19 -26 -14 -13 -21 -14 -27 -5 -4 7 1 18 11 26 21 15 35 17
35 5z m-6422 -51 c-15 -5 -21 7 -13 26 7 17 8 17 15 -2 4 -11 3 -22 -2 -24z
m1176 31 c2 -4 1 -14 -4 -21 -6 -11 -10 -9 -19 8 -10 17 -9 21 3 21 8 0 17 -4
20 -8z m-716 -38 c5 -5 7 -31 4 -57 -4 -47 -5 -48 -31 -43 -25 5 -25 5 -3 -6
12 -6 22 -14 22 -18 0 -9 -93 -41 -99 -34 -3 3 -4 20 -3 38 2 20 -5 42 -18 58
-42 54 -19 81 63 76 31 -2 61 -9 65 -14z m79 -10 c-3 -3 -12 -4 -19 -1 -8 3
-5 6 6 6 11 1 17 -2 13 -5z m6621 -16 c-3 -25 -17 -32 -37 -19 -12 8 -12 12
-2 25 20 24 43 20 39 -6z m-7553 3 c9 -16 -9 -18 -35 -5 l-25 14 27 0 c15 0
29 -4 33 -9z m6652 -28 c-3 -10 -5 -4 -5 12 0 17 2 24 5 18 2 -7 2 -21 0 -30z
m599 -1 c-4 -3 -12 0 -19 7 -9 9 -9 14 3 21 11 7 16 5 18 -6 2 -9 1 -18 -2
-22z m-6052 13 c3 -8 1 -15 -4 -15 -6 0 -10 7 -10 15 0 8 2 15 4 15 2 0 6 -7
10 -15z m5335 -83 c7 -26 13 -49 14 -52 1 -3 -8 -6 -19 -8 -18 -3 -25 5 -38
44 -11 34 -13 51 -5 60 18 21 34 6 48 -44z m1061 13 l-8 -40 -1 36 c0 20 2 39
6 42 11 11 11 4 3 -38z m1523 27 c-2 -8 8 -9 27 -5 26 5 30 3 30 -16 0 -17 -6
-21 -34 -21 -19 0 -41 -3 -49 -6 -15 -5 -15 8 -1 54 5 16 30 10 27 -6z m-7228
-2 c4 -6 -5 -10 -19 -10 -14 0 -26 5 -26 10 0 6 9 10 19 10 11 0 23 -4 26 -10z
m5363 -16 c1 -11 -20 -46 -50 -83 -44 -54 -61 -67 -98 -76 -62 -16 -107 -41
-114 -63 -4 -11 -24 -25 -46 -32 -39 -13 -120 -87 -120 -110 0 -5 -15 -18 -34
-27 -18 -10 -66 -42 -106 -70 -81 -58 -106 -66 -96 -30 3 12 6 48 6 80 l0 59
33 -9 c17 -4 57 -8 87 -8 30 0 58 -4 62 -9 4 -6 10 -7 15 -3 4 5 3 11 -3 15
-6 4 -14 21 -17 37 -4 17 -10 41 -13 54 -5 16 -4 22 4 18 20 -13 102 31 123
67 17 30 23 33 47 27 27 -8 92 6 92 20 0 4 -16 21 -36 39 -29 25 -34 34 -23
41 30 19 122 49 152 49 18 0 50 9 72 19 47 22 59 21 63 -5z m1027 16 c3 -5 -1
-10 -10 -10 -9 0 -13 5 -10 10 3 6 8 10 10 10 2 0 7 -4 10 -10z m-1807 -57
c11 -51 5 -63 -33 -63 -15 0 -20 6 -20 23 2 21 31 87 39 87 3 0 9 -21 14 -47z
m2980 -17 c-6 -19 -19 -37 -29 -39 -11 -3 -19 -3 -19 -1 0 5 53 74 57 74 0 0
-4 -15 -9 -34z m-2638 -2 c0 -8 -4 -12 -10 -9 -5 3 -10 13 -10 21 0 8 5 12 10
9 6 -3 10 -13 10 -21z m2360 -6 l-1 -33 -14 25 c-18 32 -18 40 0 40 10 0 15
-10 15 -32z m-9101 -89 c-18 -38 -37 -69 -42 -69 -5 0 -6 7 -3 16 3 9 6 40 6
70 0 52 1 56 33 69 45 19 47 1 6 -86z m96 69 c5 4 5 2 2 -4 -4 -7 0 -15 9 -18
8 -3 13 -10 9 -15 -8 -15 -32 -3 -50 26 -16 23 -16 24 3 14 11 -6 23 -7 27 -3z
m7441 -18 c0 -11 -4 -20 -8 -20 -10 0 -11 24 -1 33 9 9 9 10 9 -13z m-7381 0
c-3 -5 -12 -10 -20 -10 -8 0 -17 5 -20 10 -4 6 5 10 20 10 15 0 24 -4 20 -10z
m875 6 c0 -11 -19 -15 -25 -6 -3 5 1 10 9 10 9 0 16 -2 16 -4z m5480 -21 c25
-27 23 -30 -12 -16 -13 5 -32 12 -43 16 -16 5 -17 8 -5 15 23 15 35 12 60 -15z
m-6277 -14 c-18 -15 -20 -20 -8 -25 27 -10 16 -27 -12 -20 -46 11 -47 15 -7
39 48 28 56 30 27 6z m887 -15 c0 -20 -8 -26 -60 -40 -58 -17 -87 -15 -75 5 4
5 16 9 28 9 12 0 40 11 62 24 22 13 41 25 43 25 1 1 2 -10 2 -23z m5295 -129
c21 -21 52 -45 67 -53 l29 -15 -7 -87 c-4 -48 -8 -94 -9 -102 -2 -20 -80 -74
-94 -66 -6 4 -11 18 -11 31 0 13 -5 27 -10 30 -10 6 -5 -48 5 -65 4 -7 -48
-50 -61 -50 -3 0 -20 -11 -36 -25 -17 -14 -32 -24 -34 -22 -3 3 5 36 41 167 7
26 5 23 -64 -84 -22 -34 -26 -36 -55 -29 -17 4 -55 8 -83 8 -29 0 -53 3 -53 8
0 4 -5 7 -11 7 -5 0 -8 -4 -4 -9 6 -11 -31 -35 -43 -27 -10 6 -2 96 8 96 5 0
2 16 -6 35 -7 19 -14 39 -14 44 0 14 67 -18 113 -53 30 -23 42 -27 55 -19 37
23 70 108 95 240 l12 62 17 -29 c9 -17 21 -30 26 -30 14 0 41 73 49 129 l7 46
15 -50 c10 -32 30 -64 56 -88z m-6312 103 c21 -19 22 -24 13 -64 l-10 -44 -31
21 c-30 19 -31 22 -19 46 8 14 14 34 14 44 0 22 5 22 33 -3z m7292 9 c11 -16
1 -19 -13 -3 -7 8 -8 14 -3 14 5 0 13 -5 16 -11z m-7250 -9 c3 -5 1 -10 -4
-10 -6 0 -11 5 -11 10 0 6 2 10 4 10 3 0 8 -4 11 -10z m928 -87 c31 -3 57 -9
57 -13 0 -15 -13 -18 -39 -8 -37 14 -118 11 -176 -7 -27 -8 -51 -15 -52 -15
-2 0 -3 11 -3 25 0 23 3 25 45 23 25 0 48 2 52 6 4 4 19 5 33 1 14 -3 51 -9
83 -12z m-750 -23 c12 0 -23 -29 -35 -30 -5 0 -8 9 -8 21 0 15 4 19 16 15 9
-3 21 -6 27 -6z m508 -27 c-12 -20 -14 -14 -5 12 4 9 9 14 11 11 3 -2 0 -13
-6 -23z m6823 1 c4 -10 1 -14 -6 -12 -15 5 -23 28 -10 28 5 0 13 -7 16 -16z
m-634 -218 c17 -17 11 -34 -22 -72 -26 -29 -101 -74 -124 -74 -21 0 31 135 62
161 8 6 14 16 14 22 0 5 10 26 22 46 l23 36 8 -55 c4 -30 12 -59 17 -64z
m2653 42 c12 -7 23 -13 23 -13 1 0 5 -10 8 -22 l7 -23 -40 22 c-23 12 -41 28
-41 35 0 16 14 17 43 1z m-4021 -60 c-7 -7 -12 -8 -12 -2 0 14 12 26 19 19 2
-3 -1 -11 -7 -17z m1513 -8 c-3 -5 -11 -10 -16 -10 -6 0 -7 5 -4 10 3 6 11 10
16 10 6 0 7 -4 4 -10z m-515 -25 c0 -13 -5 -36 -12 -50 -10 -23 -16 -25 -60
-23 l-48 3 53 47 c28 26 55 47 60 48 4 0 7 -11 7 -25z m216 -22 c-10 -10 -19
5 -10 18 6 11 8 11 12 0 2 -7 1 -15 -2 -18z m314 17 c0 -5 -7 -10 -16 -10 -8
0 -12 5 -9 10 3 6 10 10 16 10 5 0 9 -4 9 -10z m-5325 -10 c-3 -5 -11 -10 -16
-10 -6 0 -7 5 -4 10 3 6 11 10 16 10 6 0 7 -4 4 -10z m4045 -5 c0 -8 -4 -15
-10 -15 -5 0 -10 7 -10 15 0 8 5 15 10 15 6 0 10 -7 10 -15z m1665 6 c3 -5 1
-12 -5 -16 -5 -3 -10 1 -10 9 0 18 6 21 15 7z m-385 -33 c0 -13 9 -37 20 -55
20 -33 18 -42 -27 -122 -1 -2 -27 6 -58 19 l-55 22 0 69 c0 78 8 87 83 88 32
1 37 -2 37 -21z m125 -37 c-4 -17 -11 -31 -16 -31 -11 0 -11 0 2 39 14 39 23
34 14 -8z m202 17 c-3 -8 -6 -5 -6 6 -1 11 2 17 5 13 3 -3 4 -12 1 -19z m63 6
c0 -8 -5 -12 -10 -9 -6 4 -8 11 -5 16 9 14 15 11 15 -7z m-537 -51 c-3 -27 -7
-49 -8 -51 -4 -4 -85 37 -85 43 0 8 74 55 87 55 9 0 11 -13 6 -47z m539 -14
c-5 -47 -7 -47 -15 4 -4 25 -2 37 6 37 9 0 11 -13 9 -41z m-1682 21 c0 -5 -4
-10 -10 -10 -5 0 -10 5 -10 10 0 6 5 10 10 10 6 0 10 -4 10 -10z m710 -17 c0
-5 -4 -25 -9 -45 -7 -31 -6 -38 8 -41 9 -2 -30 -27 -88 -56 l-103 -52 7 38 c9
50 17 61 26 37 4 -12 7 -3 6 26 0 25 5 57 11 73 11 26 15 27 77 27 36 0 65 -3
65 -7z m950 -28 c0 -19 -5 -25 -22 -25 -13 0 -18 4 -12 8 6 4 13 15 17 25 9
25 17 21 17 -8z m2259 -117 c-9 -59 -11 -61 -33 -52 -10 4 -16 18 -16 38 0 17
-6 57 -14 89 l-14 58 43 -42 c41 -41 42 -42 34 -91z m-3394 56 c-3 -19 -10
-32 -16 -28 -9 5 -3 68 10 89 9 16 13 -24 6 -61z m565 28 c47 -20 101 -47 121
-60 20 -12 43 -22 51 -22 11 0 17 -14 21 -42 2 -24 8 -51 12 -60 6 -15 2 -18
-22 -18 -38 0 -103 45 -103 71 0 18 -25 47 -75 88 -21 17 -25 12 -28 -35 -3
-37 -5 -39 -40 -42 -34 -3 -37 -6 -37 -33 0 -17 9 -49 20 -71 25 -53 25 -59
-5 -81 -24 -17 -25 -17 -25 0 0 13 -2 15 -9 5 -6 -10 -16 -4 -39 23 -18 20
-32 38 -32 40 0 2 9 20 21 39 12 21 23 62 26 96 3 33 9 63 13 65 4 3 19 -5 34
-16 35 -27 36 -2 1 31 -23 22 -24 25 -8 42 9 10 17 18 18 18 0 0 39 -17 85
-38z m449 -5 c-1 -31 -1 -31 -9 -7 -11 36 -11 52 0 45 6 -3 10 -21 9 -38z m71
13 c0 -5 -5 -10 -11 -10 -5 0 -7 5 -4 10 3 6 8 10 11 10 2 0 4 -4 4 -10z m194
-22 c22 -44 20 -63 -9 -76 -35 -16 -35 -16 -35 14 0 14 4 23 10 19 7 -4 8 8 4
34 -8 50 8 55 30 9z m-1524 12 c0 -5 -8 -10 -17 -10 -15 0 -16 2 -3 10 19 12
20 12 20 0z m1199 -44 c8 -10 8 -16 -3 -25 -11 -9 -15 -6 -18 14 -6 28 3 32
21 11z m-1001 -48 c-5 -23 -14 -46 -20 -49 -7 -4 -37 -8 -69 -8 -42 0 -59 4
-63 15 -9 24 4 36 30 31 13 -2 24 -1 24 3 0 4 18 12 40 19 21 6 42 16 45 21
15 24 22 6 13 -32z m-6024 6 c3 -9 6 -33 6 -55 0 -30 -3 -37 -15 -33 -11 5
-13 2 -9 -11 5 -13 2 -16 -17 -13 -21 3 -24 9 -27 56 -3 47 -1 53 20 61 32 13
35 13 42 -5z m5556 6 c0 -5 -7 -10 -15 -10 -8 0 -15 5 -15 10 0 6 7 10 15 10
8 0 15 -4 15 -10z m715 0 c-3 -5 -14 -10 -23 -10 -15 0 -15 2 -2 10 20 13 33
13 25 0z m-4510 -10 c-3 -5 -13 -10 -21 -10 -8 0 -14 5 -14 10 0 6 9 10 21 10
11 0 17 -4 14 -10z m4631 -35 c-4 -19 -11 -33 -17 -30 -5 4 -9 2 -9 -4 0 -6
-12 -30 -27 -54 -27 -41 -29 -42 -60 -33 -25 7 -33 14 -33 33 0 18 11 28 53
47 34 15 58 34 70 55 23 39 32 34 23 -14z m1024 29 c0 -8 -5 -12 -10 -9 -6 4
-8 11 -5 16 9 14 15 11 15 -7z m-7508 -19 c-4 -21 -7 -23 -19 -13 -13 10 -13
14 3 25 23 17 22 17 16 -12z m5639 -77 c-34 -42 -39 -3 -10 67 l13 30 6 -40
c4 -28 1 -45 -9 -57z m-5674 30 c12 -45 10 -58 -10 -58 -7 0 -29 -8 -48 -18
l-36 -18 -34 28 c-27 23 -32 32 -23 45 6 9 17 20 25 24 13 6 96 35 109 38 3 0
11 -18 17 -41z m6370 -22 c-10 -52 -11 -53 -53 -63 -40 -9 -42 -9 -34 8 9 15
6 17 -20 14 -16 -2 -32 0 -35 5 -3 4 -14 6 -25 3 -22 -6 -27 11 -8 24 10 7
161 59 179 62 3 1 1 -23 -4 -53z m3193 -7 c0 -23 -16 -25 -24 -3 -10 25 -7 34
9 28 8 -4 15 -15 15 -25z m-3471 -13 c9 -11 4 -17 -23 -30 -46 -22 -56 -20
-56 8 0 33 57 49 79 22z m1081 -43 c-1 -5 -6 -18 -14 -31 l-12 -23 -25 21
c-22 19 -22 20 -2 11 36 -18 40 -12 8 9 l-30 20 38 0 c20 0 37 -3 37 -7z m72
-45 c-10 -22 -11 -21 -11 12 -1 26 2 31 11 22 8 -8 8 -17 0 -34z m-1408 -9
c-10 -16 -24 -9 -24 12 0 18 2 19 15 9 8 -7 12 -16 9 -21z m253 15 c-3 -3 -12
-4 -19 -1 -8 3 -5 6 6 6 11 1 17 -2 13 -5z m-6091 -19 c-11 -8 -24 -15 -30
-15 -5 0 -1 7 10 15 10 8 24 14 29 14 6 0 1 -6 -9 -14z m6052 -4 c12 -7 7 -28
-24 -89 -1 -1 -9 1 -18 4 -12 5 -16 14 -13 30 3 16 0 24 -9 24 -20 0 -17 17 4
29 21 13 43 13 60 2z m250 -23 c-6 -18 -12 -34 -14 -36 -5 -7 -44 24 -44 35 0
14 28 32 52 33 15 0 16 -4 6 -32z m-5218 12 c0 -5 -4 -10 -10 -10 -5 0 -10 5
-10 10 0 6 5 10 10 10 6 0 10 -4 10 -10z m5350 1 c0 -5 -7 -14 -16 -21 -13
-11 -19 -10 -37 8 l-21 22 37 0 c20 0 37 -4 37 -9z m-6010 -60 c12 -23 14 -91
2 -91 -4 0 -24 14 -45 31 -37 30 -47 49 -26 49 6 0 17 7 25 15 20 20 31 19 44
-4z m8773 -37 c-27 -42 -50 -27 -25 16 12 21 20 26 29 18 10 -8 9 -15 -4 -34z
m-2898 6 c3 -5 1 -10 -4 -10 -6 0 -11 5 -11 10 0 6 2 10 4 10 3 0 8 -4 11 -10z
m-886 -62 l-12 -23 -9 30 c-6 23 -4 33 10 43 15 11 17 10 20 -7 2 -11 -2 -30
-9 -43z m391 38 c0 -9 -30 -14 -35 -6 -4 6 3 10 14 10 12 0 21 -2 21 -4z
m3760 -6 c0 -5 -2 -10 -4 -10 -3 0 -8 5 -11 10 -3 6 -1 10 4 10 6 0 11 -4 11
-10z m-9514 -16 c-3 -9 -6 -18 -6 -20 0 -3 -4 -3 -10 1 -11 7 -2 35 12 35 6 0
7 -7 4 -16z m9177 -56 c-6 -33 -20 -58 -32 -58 -6 0 -31 58 -31 73 0 3 12 8
28 10 15 2 30 5 34 6 4 0 5 -14 1 -31z m-9245 -70 c-10 -78 -14 -88 -32 -88
-9 0 -18 16 -23 42 -8 40 -6 45 22 75 16 17 33 32 36 32 3 1 2 -27 -3 -61z
m6412 -12 c0 -7 -6 -21 -14 -31 -12 -17 -16 -18 -32 -5 -18 14 -18 14 -5 -3
13 -16 13 -20 1 -27 -9 -5 -17 -5 -20 1 -11 17 -4 67 11 85 11 13 11 18 2 21
-7 3 -13 9 -13 14 0 6 16 -2 35 -17 19 -14 35 -32 35 -38z m-6587 19 c27 -24
35 -68 21 -121 -8 -30 -60 -20 -101 19 l-33 31 24 25 c13 15 29 36 35 49 15
27 19 27 54 -3z m5847 -11 c0 -13 -5 -24 -11 -24 -8 0 -8 -4 -2 -12 14 -17 27
-76 15 -63 -15 16 -32 76 -25 88 3 6 1 7 -5 3 -6 -3 -16 2 -21 13 -9 16 -7 20
7 23 28 7 42 -3 42 -28z m-92 -22 l3 -32 -44 27 c-35 22 -41 30 -28 35 9 4 27
6 41 5 20 -2 26 -8 28 -35z m342 -22 c0 -11 -3 -20 -6 -20 -3 0 -17 9 -31 20
l-26 20 32 0 c24 0 31 -4 31 -20z m1170 -11 c0 -6 -4 -7 -10 -4 -5 3 -10 11
-10 16 0 6 5 7 10 4 6 -3 10 -11 10 -16z m3095 -124 c42 -91 85 -211 85 -236
0 -18 -4 -16 -26 11 -15 17 -39 37 -55 45 -27 15 -29 14 -46 -12 -9 -16 -18
-30 -19 -32 -2 -2 -26 3 -54 10 -39 10 -54 19 -61 37 -11 30 -12 75 -1 68 15
-9 122 -23 122 -16 0 3 -17 15 -38 26 -29 16 -48 19 -87 14 -36 -5 -45 -9 -32
-14 12 -6 17 -20 17 -47 0 -46 -8 -48 -41 -13 -13 14 -38 34 -56 45 -37 23
-43 52 -16 81 9 10 26 18 38 18 31 0 156 64 185 95 23 25 25 25 38 8 8 -10 29
-50 47 -88z m-3805 75 c-6 -11 -16 -20 -22 -20 -6 0 -3 9 7 20 10 11 20 20 22
20 2 0 -1 -9 -7 -20z m3230 -61 c0 -6 -62 -20 -66 -15 -1 0 -5 21 -9 45 l-7
44 41 -34 c22 -19 41 -37 41 -40z m-9786 25 c17 -7 21 -29 7 -38 -5 -3 -16 5
-25 19 -16 25 -11 30 18 19z m9947 -46 c6 -12 6 -18 0 -18 -6 0 -18 15 -27 33
-16 30 -16 31 0 18 9 -8 22 -23 27 -33z m-9810 5 c-12 -20 -14 -14 -5 12 4 9
9 14 11 11 3 -2 0 -13 -6 -23z m6473 -33 l6 -35 -19 40 c-10 22 -16 44 -13 49
7 12 19 -12 26 -54z m3324 3 c23 -25 33 -58 10 -35 -18 18 -28 15 -28 -8 0
-23 -9 -25 -34 -7 -15 11 -16 17 -4 61 11 40 14 45 23 30 5 -10 20 -28 33 -41z
m-10020 31 c22 -6 13 -51 -14 -69 -14 -9 -27 -15 -29 -13 -6 6 -35 80 -35 89
0 8 43 4 78 -7z m5832 -6 c0 -13 -15 -50 -33 -83 -29 -55 -35 -60 -74 -67 -68
-11 -101 -34 -127 -88 l-24 -50 25 0 c14 0 51 6 82 14 31 8 85 17 119 21 58 6
63 5 58 -12 -3 -10 -14 -55 -26 -100 -11 -45 -34 -119 -51 -165 -17 -46 -33
-94 -36 -107 l-6 -24 33 24 c17 13 41 41 51 62 22 43 29 46 29 15 0 -13 -40
-79 -89 -148 -49 -69 -124 -190 -166 -270 -124 -231 -121 -227 -193 -279 -37
-27 -98 -86 -137 -130 -38 -45 -73 -81 -76 -81 -4 0 -9 69 -13 153 -7 161 1
230 46 397 27 101 192 557 233 647 24 53 128 240 149 270 1 1 22 5 46 9 l45 7
-41 -49 c-101 -122 -97 -135 9 -28 78 79 85 84 125 84 37 0 42 -3 42 -22z
m153 -4 l24 -25 -18 -52 c-10 -29 -18 -64 -19 -79 0 -32 -2 -32 -53 -14 -35
12 -36 14 -21 27 26 21 44 73 44 124 0 51 9 56 43 19z m1148 -11 c-7 -14 -3
-26 16 -52 l26 -33 -27 17 c-14 10 -26 22 -27 29 0 6 -4 1 -9 -11 -12 -28 -30
-29 -64 -2 -36 29 -34 49 7 50 17 0 41 4 52 9 31 13 37 12 26 -7z m-6586 -82
l-7 -26 -15 31 c-11 21 -13 42 -8 60 l8 29 14 -34 c8 -20 12 -45 8 -60z m6453
34 c7 -14 12 -34 12 -44 0 -10 6 -36 14 -58 l14 -40 -58 -58 c-41 -41 -63 -56
-75 -51 -10 4 -15 12 -11 22 3 9 6 25 6 37 0 13 9 26 22 32 34 15 44 56 29
112 -11 42 -10 49 5 60 25 18 29 17 42 -12z m2905 -42 c-21 -20 -44 -36 -52
-34 -10 2 -12 -4 -8 -20 4 -13 4 -34 0 -47 -5 -21 -6 -22 -19 -5 -7 10 -14 26
-14 36 0 9 -7 17 -15 17 -9 0 -12 6 -8 18 9 25 33 42 62 42 14 1 37 7 51 15
42 24 43 17 3 -22z m-9158 7 c-3 -5 -11 -10 -16 -10 -6 0 -7 5 -4 10 3 6 11
10 16 10 6 0 7 -4 4 -10z m6115 -91 c0 -39 3 -47 15 -43 11 5 15 -1 15 -17 0
-30 -17 -58 -27 -44 -12 15 -83 46 -138 60 -38 10 -43 13 -22 14 22 1 27 5 23
19 -6 17 9 30 81 67 38 20 53 4 53 -56z m363 -2 c-10 -21 -11 -20 -17 10 -4
18 -12 35 -17 38 -5 4 -9 11 -9 18 0 6 12 -1 26 -16 21 -23 24 -33 17 -50z
m2577 2 c0 -5 -4 -9 -10 -9 -5 0 -10 7 -10 16 0 8 5 12 10 9 6 -3 10 -10 10
-16z m-9 -66 c-9 -16 -10 -15 -11 8 0 14 3 29 8 33 12 12 14 -22 3 -41z
m-9041 28 c0 -12 -28 -22 -34 -12 -3 5 -3 11 1 15 9 9 33 7 33 -3z m6290 -17
c0 -24 -50 -84 -71 -84 -26 0 -24 5 17 56 38 46 54 55 54 28z m-1112 -11 c-2
-5 -12 -25 -22 -47 -9 -21 -19 -37 -20 -35 -2 2 -6 23 -10 47 -6 42 -6 42 25
42 17 0 29 -3 27 -7z m1497 -23 c-10 -11 -15 -23 -12 -26 7 -7 -37 -64 -59
-77 -10 -5 -29 4 -58 28 -30 24 -46 32 -49 23 -2 -7 -8 -9 -13 -5 -13 12 9 40
37 45 30 6 55 5 96 -3 25 -6 34 -3 45 14 7 12 17 21 22 21 5 0 1 -9 -9 -20z
m-1422 -35 c4 -8 2 -17 -3 -20 -6 -4 -10 3 -10 14 0 25 6 27 13 6z m1037 -10
c0 -17 -4 -23 -15 -19 -11 5 -12 11 -4 25 13 26 19 24 19 -6z m-503 0 c14 -10
24 -12 28 -5 3 6 17 7 30 4 12 -3 26 -1 29 5 11 18 23 13 30 -13 8 -33 97
-111 150 -131 l43 -17 -9 -46 c-6 -26 -13 -62 -17 -81 -5 -28 -15 -39 -51 -58
-39 -21 -45 -22 -53 -7 -6 10 -3 22 10 36 18 21 18 21 -5 7 -14 -9 -21 -22
-20 -38 2 -13 -3 -26 -10 -28 -8 -3 -10 1 -5 13 4 12 3 15 -5 10 -7 -4 -12 -1
-12 8 0 19 -21 12 -77 -26 -23 -15 -44 -28 -46 -28 -7 0 9 66 28 119 24 68 5
41 -62 -89 -15 -30 -32 -58 -38 -63 -5 -4 -57 -23 -115 -42 -58 -19 -195 -68
-305 -109 -109 -41 -201 -73 -203 -71 -10 10 157 285 207 343 30 34 57 62 60
62 4 0 17 -18 31 -41 14 -22 33 -45 42 -50 27 -15 32 8 9 40 -31 43 -27 85 8
110 36 26 41 26 41 2 0 -19 2 -19 37 -5 34 15 39 14 76 -6 24 -14 64 -24 102
-27 61 -5 63 -5 105 33 23 21 37 40 31 42 -7 2 -5 12 5 27 15 23 14 24 -57 70
-55 35 -69 49 -58 56 19 12 21 11 46 -6z m3837 -11 c9 -33 3 -39 -23 -22 -23
14 -27 34 -8 41 22 9 25 7 31 -19z m-4418 -61 c-32 -46 -33 -40 -4 24 14 32
23 42 25 31 2 -9 -7 -34 -21 -55z m221 51 c2 -6 -8 -16 -22 -22 -28 -13 -30
-10 -14 19 10 20 30 22 36 3z m-5517 -15 c0 -5 -4 -9 -10 -9 -5 0 -10 7 -10
16 0 8 5 12 10 9 6 -3 10 -10 10 -16z m6294 15 c8 -3 12 -12 9 -20 -4 -11 -9
-12 -19 -3 -8 6 -14 15 -14 20 0 11 3 11 24 3z m3366 2 c0 -3 -4 -8 -10 -11
-5 -3 -10 -1 -10 4 0 6 5 11 10 11 6 0 10 -2 10 -4z m-4272 -27 c-2 -6 -8 -10
-13 -10 -5 0 -11 4 -13 10 -2 6 4 11 13 11 9 0 15 -5 13 -11z m992 -26 c0 -21
-3 -48 -6 -61 l-7 -23 -14 21 c-18 26 -34 80 -27 91 3 5 16 9 30 9 21 0 24 -4
24 -37z m3145 27 c3 -6 -1 -7 -9 -4 -18 7 -21 14 -7 14 6 0 13 -4 16 -10z
m-3696 -40 c48 -44 41 -48 -39 -24 -48 14 -52 18 -37 29 9 7 17 17 17 24 0 18
13 12 59 -29z m-465 14 c10 -25 -1 -37 -88 -104 -11 -8 1 15 25 52 24 37 47
68 50 68 4 0 10 -7 13 -16z m-1390 -68 c-4 -18 -10 -24 -17 -17 -5 5 -6 22 -3
37 5 18 10 24 17 17 6 -6 7 -22 3 -37z m2346 -51 c0 -41 -5 -43 -37 -13 -34
32 -33 35 30 47 4 0 7 -15 7 -34z m-90 -33 c0 -53 -2 -60 -25 -70 -29 -13 -28
-17 -14 65 7 42 16 63 25 63 10 0 14 -15 14 -58z m48 -9 c9 -17 9 -22 -3 -27
-11 -4 -15 2 -15 26 0 34 2 34 18 1z m-768 -5 c0 -19 -2 -20 -10 -8 -13 19
-13 30 0 30 6 0 10 -10 10 -22z m1044 -73 c-4 -8 -14 -15 -23 -15 -14 1 -13 3
3 15 25 19 27 19 20 0z m-3184 -46 c0 -16 -9 -38 -20 -49 -27 -27 -25 -30 10
-30 23 0 30 -5 30 -19 0 -19 -1 -19 -41 -3 l-40 17 6 49 c9 72 55 101 55 35z
m5930 -2 c0 -2 -8 -19 -17 -38 -9 -19 -16 -50 -16 -71 2 -31 -2 -37 -24 -42
-14 -4 -32 -2 -41 6 -10 7 -19 14 -21 15 -11 7 25 33 48 34 15 1 19 3 9 6 -14
4 -12 11 15 49 26 37 47 55 47 41z m-630 -106 c0 -14 -4 -21 -8 -15 -15 17
-31 62 -24 69 10 10 32 -26 32 -54z m-5157 42 c-7 -2 -21 -2 -30 0 -10 3 -4 5
12 5 17 0 24 -2 18 -5z m3357 -13 c0 -15 -7 -20 -25 -20 -14 0 -25 3 -25 8 0
6 9 12 48 31 1 0 2 -8 2 -19z m2864 2 c10 -16 -23 -72 -44 -72 -11 0 -20 5
-20 10 0 6 6 10 13 10 8 0 7 4 -3 10 -13 9 -12 13 9 30 25 21 37 25 45 12z
m-6303 -28 c5 -15 8 -29 5 -31 -6 -7 -36 28 -36 43 0 24 20 16 31 -12z m3199
5 c-22 -13 -91 -31 -98 -25 -9 10 3 16 54 30 52 13 68 11 44 -5z m-6870 -30
c0 -4 -4 -11 -10 -14 -5 -3 -10 0 -10 9 0 8 -3 23 -6 33 -5 16 -4 16 10 -1 9
-11 16 -23 16 -27z m3455 23 c-3 -8 -5 -18 -5 -23 0 -17 -17 -9 -27 14 -9 19
-8 22 13 22 16 0 22 -5 19 -13z m345 -3 c16 -28 6 -35 -24 -16 -18 12 -26 13
-29 4 -2 -7 -9 -3 -16 11 -11 21 -10 22 23 22 26 0 38 -6 46 -21z m-202 -9
c17 -11 32 -24 32 -29 0 -18 -21 -166 -25 -178 -3 -9 -24 -1 -64 23 -49 29
-63 43 -71 73 -13 48 -15 42 28 89 43 47 55 49 100 22z m3503 0 c4 0 9 -15 12
-32 3 -18 8 -40 12 -49 5 -14 -1 -16 -47 -11 -29 2 -56 7 -60 11 -3 3 -4 27
-1 52 l5 46 37 -8 c20 -5 39 -9 42 -9z m-123 -75 c-6 -7 -98 8 -98 16 0 4 13
10 29 14 16 3 37 15 47 27 19 20 19 20 22 -17 2 -20 2 -38 0 -40z m-526 -1 c3
-25 0 -38 -11 -43 -24 -13 -161 -61 -161 -57 0 2 12 30 26 62 22 48 28 55 34
40 6 -19 7 -19 12 1 4 15 15 23 39 26 19 2 39 5 45 5 7 1 14 -14 16 -34z m34
20 c-3 -9 -6 -23 -6 -32 0 -15 -2 -15 -10 -2 -15 23 -12 50 6 50 11 0 14 -5
10 -16z m3534 -8 c0 -17 -7 -25 -24 -28 -19 -4 -23 -1 -19 11 5 14 31 41 40
41 2 0 3 -11 3 -24z m-6320 4 c0 -5 -2 -10 -4 -10 -3 0 -8 5 -11 10 -3 6 -1
10 4 10 6 0 11 -4 11 -10z m5528 -7 c23 -3 40 -8 38 -11 -7 -7 -116 -6 -116 2
0 3 0 11 0 17 0 7 7 8 18 4 9 -4 36 -10 60 -12z m-8929 -19 c3 -16 1 -17 -13
-5 -19 16 -21 34 -3 29 6 -3 14 -13 16 -24z m9071 16 c0 -5 -2 -10 -4 -10 -3
0 -8 5 -11 10 -3 6 -1 10 4 10 6 0 11 -4 11 -10z m154 -6 c5 -14 4 -15 -9 -4
-17 14 -19 20 -6 20 5 0 12 -7 15 -16z m-3243 -21 c-8 -15 -10 -15 -11 -2 0
17 10 32 18 25 2 -3 -1 -13 -7 -23z m3064 7 c44 -19 47 -22 40 -48 -14 -54
-13 -57 30 -57 22 0 43 -4 47 -9 14 -20 -3 -24 -49 -10 -27 8 -68 14 -93 12
-50 -2 -47 -9 -35 85 3 26 8 47 10 47 2 0 24 -9 50 -20z m-3098 -50 l-10 -51
-41 2 c-92 4 -94 8 -19 55 37 24 71 44 74 44 3 0 2 -23 -4 -50z m-6092 3 c-10
-16 -25 -37 -32 -48 -14 -19 -15 -19 -8 5 16 55 25 70 41 70 15 0 15 -3 -1
-27z m3698 -9 c11 -21 11 -35 1 -77 -6 -29 -16 -71 -20 -94 l-9 -43 -39 33
-39 33 37 48 c20 26 36 54 36 62 0 8 4 14 9 14 4 0 6 11 3 25 -6 32 4 32 21
-1z m3127 6 c0 -13 -11 -13 -30 0 -12 8 -11 10 8 10 12 0 22 -4 22 -10z m253
-43 c5 -21 6 -53 3 -73 l-7 -35 -110 57 c-80 42 -109 62 -109 76 0 17 8 18
107 16 l107 -3 9 -38z m231 -39 c-2 -40 -8 -86 -12 -103 -8 -28 -9 -27 -26 37
l-18 66 28 36 c16 20 29 36 30 36 1 0 -1 -33 -2 -72z m2779 15 c53 -34 56 -39
43 -58 -19 -28 -28 -24 -55 29 -19 38 -26 44 -38 34 -11 -9 -19 -7 -36 10
l-21 22 25 0 c15 0 52 -17 82 -37z m-6191 -113 c106 -150 123 -182 153 -300
24 -96 65 -283 65 -299 0 -3 -37 55 -81 129 -120 199 -179 279 -253 338 -36
30 -66 57 -66 60 0 16 31 166 35 170 2 3 12 -1 20 -8 13 -11 19 -11 32 3 9 9
18 16 19 14 1 -1 35 -49 76 -107z m4882 24 c-8 -32 7 -44 56 -44 28 0 40 -7
57 -31 19 -29 20 -34 7 -65 -23 -56 -20 -65 19 -47 17 9 44 27 58 40 15 14 29
21 31 16 2 -4 2 -34 0 -66 -3 -42 -8 -57 -17 -54 -34 13 -105 19 -105 8 0 -6
6 -11 14 -11 20 0 31 -19 17 -33 -15 -15 -51 19 -51 49 0 13 -5 26 -11 30 -9
5 -10 -4 -4 -32 l7 -39 -21 19 c-13 12 -21 32 -22 55 -1 34 -2 34 -8 8 l-6
-28 -37 38 -37 38 15 45 c12 33 14 64 10 114 l-6 69 20 -26 c15 -19 19 -33 14
-53z m1249 14 c3 -21 2 -38 -3 -38 -13 0 -19 13 -26 61 -6 39 -5 42 9 29 8 -8
17 -32 20 -52z m-3713 -2 l0 -53 -62 -12 c-35 -7 -73 -15 -85 -18 l-22 -5 20
42 20 41 35 -22 c48 -29 53 -18 8 19 -41 34 -40 36 30 52 56 14 56 14 56 -44z
m17 32 c-3 -8 -6 -5 -6 6 -1 11 2 17 5 13 3 -3 4 -12 1 -19z m125 -8 c16 0 19
-4 13 -22 -3 -13 -10 -40 -14 -61 -8 -35 -7 -37 12 -31 17 5 17 2 -8 -30 -15
-19 -35 -62 -45 -93 -11 -32 -19 -53 -20 -48 0 6 -4 4 -9 -3 -7 -11 -20 -8
-67 15 -50 24 -59 32 -56 52 2 20 0 22 -12 11 -12 -9 -24 -5 -62 24 -26 20
-51 36 -55 36 -5 0 -9 4 -9 9 0 9 179 56 186 49 2 -2 7 -15 13 -28 9 -24 10
-24 10 8 1 26 5 32 24 33 l22 2 -23 4 c-19 4 -23 10 -20 36 3 27 9 34 48 47
36 13 46 13 48 3 2 -7 13 -13 24 -13z m775 -32 c-4 -52 -4 -53 -33 -50 -16 2
-33 8 -39 14 -7 6 -2 9 15 6 22 -3 25 1 28 32 3 29 15 49 30 50 2 0 2 -24 -1
-52z m242 -6 c22 -8 20 -10 -25 -29 -52 -22 -117 -39 -98 -26 6 4 15 24 18 43
15 74 14 73 49 45 18 -13 43 -28 56 -33z m1921 21 c0 -20 -16 -8 -23 17 -4 17
-3 19 9 9 8 -6 14 -18 14 -26z m-862 -3 c12 -16 22 -44 22 -62 l0 -33 -30 50
c-30 50 -37 75 -22 75 5 0 18 -13 30 -30z m-2543 11 c-10 -9 -251 -51 -291
-51 -12 0 -1 11 31 30 47 28 56 30 160 30 66 0 105 -4 100 -9z m1202 -38 c-3
-2 -13 -3 -23 -1 -16 3 -16 4 2 22 18 18 19 18 22 2 2 -10 1 -20 -1 -23z
m1301 -19 c-4 -3 -12 5 -18 18 -12 22 -12 22 6 6 10 -10 15 -20 12 -24z
m-8129 -38 c19 -75 16 -86 -21 -86 -18 0 -43 3 -55 6 l-23 6 23 32 c12 17 22
33 22 36 1 13 27 50 34 50 5 0 14 -20 20 -44z m7285 36 c3 -5 -4 -17 -16 -26
-19 -17 -20 -17 -15 -1 4 9 7 21 7 26 0 11 17 12 24 1z m-7652 -33 c-2 -17 -8
-27 -13 -22 -9 9 -1 53 10 53 4 0 6 -14 3 -31z m83 -25 c14 -3 30 -14 35 -24
13 -24 13 -33 0 -25 -5 3 -10 1 -10 -5 0 -6 -4 -9 -9 -6 -5 3 -8 -2 -7 -11 0
-10 -7 -19 -16 -21 -10 -2 -18 2 -18 9 0 7 -11 27 -25 45 -37 49 -33 102 6 63
10 -10 30 -21 44 -25z m-265 10 c0 -8 -5 -12 -10 -9 -6 4 -8 11 -5 16 9 14 15
11 15 -7z m7415 6 c3 -5 2 -10 -4 -10 -5 0 -13 5 -16 10 -3 6 -2 10 4 10 5 0
13 -4 16 -10z m-64 -16 c12 -14 11 -16 -5 -13 -11 2 -21 10 -24 17 -5 17 13
15 29 -4z m-5426 -42 c-3 -8 -5 -19 -5 -25 -1 -15 -15 10 -25 41 -6 22 -5 22
14 10 12 -7 19 -19 16 -26z m5825 26 c-1 -12 -65 -88 -75 -88 -9 0 30 75 45
87 19 16 30 16 30 1z m-7735 -28 c13 -24 13 -37 3 -75 -7 -25 -16 -45 -20 -45
-11 0 -31 84 -21 87 5 2 7 17 5 33 -6 39 13 39 33 0z m7379 4 c25 -12 35 -25
38 -45 5 -35 2 -36 -44 -4 -73 50 -69 84 6 49z m254 -34 c-15 -23 -38 -27 -38
-6 0 14 14 24 38 25 10 1 10 -3 0 -19z m-68 0 c0 -5 -4 -10 -9 -10 -6 0 -13 5
-16 10 -3 6 1 10 9 10 9 0 16 -4 16 -10z m-215 -43 c14 -24 25 -47 25 -51 0
-4 -21 -16 -47 -28 -27 -12 -51 -24 -55 -26 -3 -2 2 13 12 33 10 20 21 54 25
76 4 21 8 39 10 39 2 0 16 -20 30 -43z m-7532 14 c5 -5 10 -27 11 -48 1 -34
-2 -38 -27 -41 -16 -2 -29 2 -31 10 -2 7 -8 33 -14 57 l-10 43 31 -6 c17 -4
35 -10 40 -15z m7580 -10 c33 -17 39 -61 7 -61 -12 0 -20 7 -20 18 0 10 -7 28
-17 41 -9 13 -12 22 -7 20 5 -3 21 -11 37 -18z m144 -19 c-26 -5 -47 5 -47 23
0 14 4 13 33 -2 25 -13 28 -18 14 -21z m-2230 -24 c-24 -29 -72 -90 -106 -135
-67 -90 -87 -108 -44 -40 15 23 46 73 68 110 27 44 56 77 81 92 21 14 40 25
42 25 2 0 -16 -24 -41 -52z m-2437 12 c-8 -5 -17 -7 -19 -4 -3 3 1 9 9 14 8 5
17 7 19 4 3 -3 -1 -9 -9 -14z m-2353 -16 c0 -7 -6 -10 -14 -7 -7 3 -13 8 -13
12 0 4 6 8 13 8 8 0 14 -6 14 -13z m2297 -25 c-24 -27 -29 -16 -8 16 10 16 20
23 22 16 2 -7 -4 -21 -14 -32z m-2250 16 c3 -8 1 -15 -3 -15 -5 0 -11 7 -15
15 -3 8 -1 15 3 15 5 0 11 -7 15 -15z m5954 -16 c20 -8 21 -11 10 -29 -7 -11
-15 -20 -18 -20 -3 0 -18 16 -34 36 -31 40 -30 40 42 13z m2628 1 c17 0 19
-17 2 -23 -7 -2 -3 -3 8 -1 19 3 42 -21 31 -32 -8 -9 -87 37 -87 52 0 11 5 14
16 10 9 -3 22 -6 30 -6z m-8621 -10 c3 -5 2 -10 -4 -10 -5 0 -13 5 -16 10 -3
6 -2 10 4 10 5 0 13 -4 16 -10z m2220 -50 c3 -6 -6 -36 -22 -68 l-28 -57 -27
39 -26 40 41 27 c48 31 53 33 62 19z m-1093 -56 c-7 -36 -22 -39 -22 -5 0 22
4 31 13 28 6 -2 10 -13 9 -23z m6546 -25 c2 -28 2 -29 -16 -12 -12 12 -14 21
-8 25 7 5 7 8 -1 8 -7 0 -13 4 -13 9 0 5 8 7 18 4 11 -3 19 -15 20 -34z m-748
-39 c0 -5 -4 -10 -9 -10 -6 0 -13 5 -16 10 -3 6 1 10 9 10 9 0 16 -4 16 -10z
m-6216 -19 c3 -5 -1 -12 -10 -15 -20 -8 -29 -1 -19 13 8 13 22 14 29 2z m586
-21 c0 -5 -4 -10 -9 -10 -6 0 -13 5 -16 10 -3 6 1 10 9 10 9 0 16 -4 16 -10z
m5601 -50 l-10 -25 0 27 c-1 14 2 35 6 45 7 17 8 17 11 -2 1 -12 -2 -32 -7
-45z m-7675 25 c-11 -8 -27 -15 -35 -14 -9 0 -2 7 14 14 39 18 45 18 21 0z
m1944 -20 c-71 -39 -75 -40 -108 -22 -22 13 -22 14 -5 30 11 10 41 17 78 20
33 2 69 4 80 5 11 1 -9 -14 -45 -33z m960 18 c0 -9 -10 -28 -22 -42 -13 -14
-16 -20 -8 -13 22 19 29 15 36 -23 7 -41 -2 -57 -19 -34 -7 8 -20 18 -30 22
-10 4 -15 11 -12 17 3 5 0 10 -8 10 -19 0 -52 49 -40 60 4 5 24 10 43 13 19 2
41 5 48 5 6 1 12 -6 12 -15z m-562 -32 c3 -19 1 -20 -22 -10 -14 7 -26 20 -26
30 0 27 44 8 48 -20z m5646 -42 l4 -64 -69 0 c-76 0 -84 8 -46 49 37 41 48 56
40 56 -4 0 6 9 22 19 17 10 34 15 38 11 4 -4 9 -36 11 -71z m-6386 48 c2 -10
-3 -17 -12 -17 -10 0 -16 9 -16 21 0 24 23 21 28 -4z m-1683 -7 c-3 -5 -14
-10 -23 -10 -15 0 -15 2 -2 10 20 13 33 13 25 0z m1825 -10 c0 -5 3 -9 8 -8
11 3 82 -46 82 -57 0 -5 -5 -17 -10 -25 -9 -12 -18 -6 -55 35 -45 51 -53 65
-35 65 6 0 10 -4 10 -10z m6445 -89 c4 -8 -32 -27 -42 -23 -2 1 -23 -5 -48
-12 -50 -16 -50 -15 -69 48 l-14 45 33 -25 33 -25 15 22 c9 11 20 18 25 15 5
-3 18 7 28 22 l18 27 8 -43 c4 -23 10 -46 13 -51z m-6426 -23 c50 -77 50 -78
35 -113 -13 -31 -18 -35 -52 -35 -36 0 -38 2 -59 56 -17 46 -19 59 -9 79 12
23 13 22 45 -31 18 -30 34 -54 37 -54 6 0 -25 55 -58 102 -15 22 -16 31 -7 52
7 14 13 25 15 23 1 -1 25 -37 53 -79z m-1962 40 c-3 -8 -6 -5 -6 6 -1 11 2 17
5 13 3 -3 4 -12 1 -19z m2946 -23 c16 -24 27 -55 25 -67 -3 -21 -7 -22 -48
-18 -25 3 -66 5 -92 5 -42 0 -48 2 -48 21 0 23 23 34 73 34 15 0 27 5 27 11 0
6 -6 9 -14 6 -7 -3 -25 3 -40 13 l-28 18 39 10 c67 18 76 15 106 -33z m-2913
-48 c0 -29 -17 -11 -22 24 -5 29 -4 30 9 14 7 -11 13 -27 13 -38z m3061 30
c-1 -4 -1 -14 -1 -23 0 -12 -5 -10 -20 9 -25 32 -25 38 1 29 11 -5 20 -11 20
-15z m5273 -54 c-3 -21 -18 -76 -32 -123 l-26 -85 -7 73 c-4 40 -10 76 -13 80
-5 5 72 92 82 92 1 0 0 -17 -4 -37z m-6544 -9 c0 -22 -2 -25 -15 -14 -8 7 -15
19 -15 26 0 8 7 14 15 14 10 0 15 -10 15 -26z m-6 -104 l-7 -41 -18 28 c-23
35 -24 47 -2 68 14 15 17 15 25 1 5 -8 5 -33 2 -56z m-1397 -35 c9 -24 -1 -27
-15 -5 -8 13 -8 20 -2 20 6 0 13 -7 17 -15z m-37 -27 l0 -33 -19 25 c-21 26
-19 40 5 40 9 0 14 -11 14 -32z m7782 -43 c-2 -19 -8 -32 -13 -29 -15 9 -10
-13 6 -26 8 -7 15 -25 15 -41 0 -21 4 -27 14 -23 9 4 21 -6 31 -26 19 -37 15
-45 -19 -36 -19 5 -28 16 -36 45 -5 21 -19 49 -29 63 -20 24 -20 25 5 66 14
23 26 42 28 42 1 0 0 -16 -2 -35z m-7770 -52 c13 -35 14 -51 6 -61 -9 -10 -14
-8 -23 15 -6 15 -15 43 -18 61 -10 50 15 40 35 -15z m7871 -51 c-6 -24 -18
-28 -28 -11 -4 6 1 16 11 24 23 16 25 15 17 -13z m-7773 -136 c0 -7 -7 -36
-16 -65 l-15 -52 -18 23 c-34 44 -36 67 -5 99 21 22 31 26 41 18 7 -6 13 -17
13 -23z m441 7 c-12 -20 -14 -14 -5 12 4 9 9 14 11 11 3 -2 0 -13 -6 -23z
m-133 -65 c3 -22 0 -25 -22 -21 -30 6 -30 7 -14 33 16 26 32 20 36 -12z m99
23 c15 12 16 12 8 -1 -21 -37 -47 -70 -56 -70 -10 0 -13 63 -2 73 3 4 12 2 20
-4 10 -9 17 -8 30 2z m71 -71 c-2 -33 -7 -62 -10 -66 -4 -3 -22 6 -41 20 l-34
26 36 39 c20 21 40 39 45 40 4 0 6 -26 4 -59z m-20 -124 c2 -8 10 -12 18 -9 8
3 14 0 14 -7 0 -22 -21 -50 -38 -50 -9 0 -32 -9 -51 -21 -18 -11 -34 -19 -35
-17 -1 2 0 38 2 80 l4 76 41 -18 c23 -11 43 -26 45 -34z m859 -3 c-3 -10 -5
-2 -5 17 0 19 2 27 5 18 2 -10 2 -26 0 -35z m-675 -43 c16 0 19 -5 15 -21 -4
-17 -3 -19 6 -10 17 17 25 13 23 -14 -1 -29 -17 -32 -51 -9 -24 16 -45 12 -45
-7 0 -6 5 -7 11 -3 7 4 10 2 8 -5 -9 -25 -24 -15 -27 17 -4 45 4 66 24 58 9
-3 25 -6 36 -6z m268 -115 c10 -12 9 -16 -5 -21 -19 -8 -40 9 -31 25 10 15 21
14 36 -4z m270 -57 c0 -36 -6 -35 -55 7 l-40 34 38 -6 c28 -4 37 -2 37 8 0 11
2 11 10 -1 5 -8 10 -27 10 -42z m121 -20 l-9 -33 -1 32 c-1 17 2 40 6 50 12
30 16 -9 4 -49z m-822 -10 c-1 -13 -4 -34 -8 -47 -5 -19 -8 -21 -17 -10 -15
20 -15 62 -1 71 20 13 27 9 26 -14z m-189 2 c0 -6 8 -10 17 -8 19 3 30 -29 15
-44 -6 -6 -17 4 -30 26 -12 20 -17 36 -12 36 6 0 10 -5 10 -10z m491 -42 l30
-23 18 24 c16 21 20 22 59 11 27 -9 49 -24 66 -48 l24 -34 -74 -74 c-41 -40
-74 -78 -74 -83 0 -6 -4 -11 -10 -11 -5 0 -10 8 -10 18 0 10 -10 36 -21 57
-12 22 -25 65 -29 95 -4 30 -11 63 -15 73 -9 23 0 22 36 -5z m-440 -181 c-8
-8 -11 7 -10 59 l2 69 10 -58 c7 -42 6 -62 -2 -70z"/>
<path d="M4450 12084 c0 -6 7 -17 15 -24 8 -7 15 -27 15 -44 0 -24 3 -27 10
-16 5 8 10 20 9 25 0 14 -49 72 -49 59z"/>
<path d="M7385 9550 c-10 -11 -14 -20 -9 -20 5 0 15 9 22 20 7 11 11 20 9 20
-2 0 -12 -9 -22 -20z"/>
<path d="M7889 8983 c-13 -16 -12 -17 4 -4 9 7 17 15 17 17 0 8 -8 3 -21 -13z"/>
<path d="M10795 6590 c-3 -6 1 -7 9 -4 18 7 21 14 7 14 -6 0 -13 -4 -16 -10z"/>
<path d="M7531 6113 c-45 -26 -78 -49 -72 -51 12 -4 112 48 151 78 44 34 8 22
-79 -27z"/>
<path d="M3901 12641 c-12 -8 -13 -16 -3 -49 7 -22 22 -51 33 -66 52 -66 181
-115 259 -97 23 5 49 7 56 4 11 -4 11 0 -1 23 -8 16 -15 34 -15 39 0 27 -67
87 -132 119 -56 29 -82 36 -127 36 -31 0 -62 -4 -70 -9z"/>
<path d="M5923 12493 c-31 -17 -90 -92 -75 -94 4 -1 57 -2 117 -4 106 -2 268
-25 322 -46 22 -8 25 -14 20 -43 l-5 -33 43 15 c47 15 81 44 71 61 -9 13 -72
31 -112 31 -20 0 -39 9 -55 26 -47 50 -180 104 -259 104 -19 0 -50 -8 -67 -17z"/>
<path d="M8570 12210 c-5 -10 -10 -27 -10 -37 0 -57 -89 -306 -131 -364 -11
-16 -16 -29 -10 -29 6 0 15 9 21 20 6 11 27 29 48 39 47 24 82 61 126 134 58
98 57 176 -4 230 -28 26 -30 26 -40 7z"/>
<path d="M2340 10830 c-45 -11 -149 -122 -190 -204 -34 -67 -37 -86 -15 -86
53 0 148 97 196 200 17 36 35 73 40 83 5 9 8 17 7 16 -2 -1 -19 -5 -38 -9z"/>
<path d="M10769 8927 c-68 -74 -158 -151 -221 -192 l-28 -17 -15 33 -14 34 -1
-42 c0 -23 -6 -44 -12 -47 -9 -4 -10 -8 -2 -11 16 -8 -10 -141 -42 -221 -13
-33 -24 -66 -24 -72 0 -13 73 10 98 31 13 11 14 1 8 -78 -3 -49 -12 -116 -18
-147 -7 -32 -9 -60 -7 -63 15 -14 85 24 104 56 28 48 26 172 -5 254 -13 37
-22 83 -22 120 0 33 -6 76 -13 96 l-13 37 47 4 c62 6 167 55 220 103 51 46 63
86 46 151 l-12 49 -74 -78z"/>
<path d="M126 7936 c-50 -19 -90 -58 -104 -101 -12 -42 -3 -44 79 -17 72 25
206 46 301 46 43 1 78 4 78 9 0 4 -8 7 -19 7 -10 0 -45 14 -78 31 -73 37 -192
49 -257 25z"/>
<path d="M471 7624 c2 -5 21 -43 42 -84 38 -76 76 -194 78 -240 1 -22 2 -23 8
-5 4 11 17 42 30 69 39 82 20 194 -39 238 -26 19 -125 38 -119 22z"/>
<path d="M577 6799 c7 -7 15 -10 18 -7 3 3 -2 9 -12 12 -14 6 -15 5 -6 -5z"/>
<path d="M758 5917 c-30 -12 -30 -32 -1 -89 30 -60 179 -104 259 -77 22 7 48
12 59 12 11 -1 14 1 8 4 -7 3 -13 13 -13 24 0 10 -16 36 -35 58 -58 64 -200
99 -277 68z"/>
<path d="M10618 5313 c7 -3 16 -2 19 1 4 3 -2 6 -13 5 -11 0 -14 -3 -6 -6z"/>
<path d="M1816 3650 c3 -14 11 -32 16 -40 6 -10 7 -7 2 10 -3 14 -11 32 -16
40 -6 10 -7 7 -2 -10z"/>
<path d="M1844 3568 c2 -21 -3 -32 -21 -43 -32 -21 -27 -54 12 -77 26 -15 38
-16 70 -7 49 14 75 35 75 64 0 29 -40 49 -84 42 -31 -5 -36 -3 -45 21 l-11 27
4 -27z"/>
</g>
</svg>
